G04 #@! TF.GenerationSoftware,KiCad,Pcbnew,6.0.10+dfsg-1~bpo11+1*
G04 #@! TF.ProjectId,storage,73746f72-6167-4652-9e6b-696361645f70,5.0*
G04 #@! TF.SameCoordinates,Original*
G04 #@! TF.FileFunction,Copper,L6,Bot*
G04 #@! TF.FilePolarity,Positive*
%FSLAX46Y46*%
G04 Gerber Fmt 4.6, Leading zero omitted, Abs format (unit mm)*
%MOMM*%
%LPD*%
G01*
G04 APERTURE LIST*
G04 #@! TA.AperFunction,NonConductor*
%ADD10C,0.150000*%
G04 #@! TD*
G04 #@! TA.AperFunction,NonConductor*
%ADD11C,2.075000*%
G04 #@! TD*
%ADD12C,0.300000*%
G04 #@! TA.AperFunction,NonConductor*
%ADD13C,0.300000*%
G04 #@! TD*
G04 #@! TA.AperFunction,Profile*
%ADD14C,0.120000*%
G04 #@! TD*
G04 APERTURE END LIST*
D10*
X89000000Y-150500000D02*
X93000000Y-150500000D01*
X93000000Y-150500000D02*
X93000000Y-148500000D01*
X93000000Y-148500000D02*
X89000000Y-148500000D01*
X89000000Y-148500000D02*
X89000000Y-150500000D01*
X89000000Y-91000000D02*
X93000000Y-91000000D01*
X93000000Y-91000000D02*
X93000000Y-89000000D01*
X93000000Y-89000000D02*
X89000000Y-89000000D01*
X89000000Y-89000000D02*
X89000000Y-91000000D01*
X108000000Y-48000000D02*
X112000000Y-48000000D01*
X112000000Y-48000000D02*
X112000000Y-46000000D01*
X112000000Y-46000000D02*
X108000000Y-46000000D01*
X108000000Y-46000000D02*
X108000000Y-48000000D01*
X128000000Y-94000000D02*
X132000000Y-94000000D01*
X132000000Y-94000000D02*
X132000000Y-92000000D01*
X132000000Y-92000000D02*
X128000000Y-92000000D01*
X128000000Y-92000000D02*
X128000000Y-94000000D01*
X56000000Y-46000000D02*
X60000000Y-46000000D01*
X60000000Y-46000000D02*
X60000000Y-44000000D01*
X60000000Y-44000000D02*
X56000000Y-44000000D01*
X56000000Y-44000000D02*
X56000000Y-46000000D01*
X152000000Y-32000000D02*
X156000000Y-32000000D01*
X156000000Y-32000000D02*
X156000000Y-34000000D01*
X156000000Y-34000000D02*
X152000000Y-34000000D01*
X152000000Y-34000000D02*
X152000000Y-32000000D01*
G36*
X152000000Y-32000000D02*
G01*
X156000000Y-32000000D01*
X156000000Y-34000000D01*
X152000000Y-34000000D01*
X152000000Y-32000000D01*
G37*
X170000000Y-48000000D02*
X174000000Y-48000000D01*
X174000000Y-48000000D02*
X174000000Y-46000000D01*
X174000000Y-46000000D02*
X170000000Y-46000000D01*
X170000000Y-46000000D02*
X170000000Y-48000000D01*
X107000000Y-91000000D02*
X111000000Y-91000000D01*
X111000000Y-91000000D02*
X111000000Y-89000000D01*
X111000000Y-89000000D02*
X107000000Y-89000000D01*
X107000000Y-89000000D02*
X107000000Y-91000000D01*
X85000000Y-153000000D02*
X89000000Y-153000000D01*
X89000000Y-153000000D02*
X89000000Y-155000000D01*
X89000000Y-155000000D02*
X85000000Y-155000000D01*
X85000000Y-155000000D02*
X85000000Y-153000000D01*
G36*
X85000000Y-153000000D02*
G01*
X89000000Y-153000000D01*
X89000000Y-155000000D01*
X85000000Y-155000000D01*
X85000000Y-153000000D01*
G37*
X82000000Y-48000000D02*
X86000000Y-48000000D01*
X86000000Y-48000000D02*
X86000000Y-46000000D01*
X86000000Y-46000000D02*
X82000000Y-46000000D01*
X82000000Y-46000000D02*
X82000000Y-48000000D01*
G36*
X132000000Y-97000000D02*
G01*
X131000000Y-98000000D01*
X129000000Y-98000000D01*
X128000000Y-97000000D01*
X129000000Y-96000000D01*
X131000000Y-96000000D01*
X132000000Y-97000000D01*
G37*
X132000000Y-97000000D02*
X131000000Y-98000000D01*
X129000000Y-98000000D01*
X128000000Y-97000000D01*
X129000000Y-96000000D01*
X131000000Y-96000000D01*
X132000000Y-97000000D01*
X210000000Y-146000000D02*
X214000000Y-146000000D01*
X214000000Y-146000000D02*
X214000000Y-144000000D01*
X214000000Y-144000000D02*
X210000000Y-144000000D01*
X210000000Y-144000000D02*
X210000000Y-146000000D01*
X169000000Y-39000000D02*
X173000000Y-39000000D01*
X173000000Y-39000000D02*
X173000000Y-41000000D01*
X173000000Y-41000000D02*
X169000000Y-41000000D01*
X169000000Y-41000000D02*
X169000000Y-39000000D01*
G36*
X169000000Y-39000000D02*
G01*
X173000000Y-39000000D01*
X173000000Y-41000000D01*
X169000000Y-41000000D01*
X169000000Y-39000000D01*
G37*
X228000000Y-61000000D02*
X232000000Y-61000000D01*
X232000000Y-61000000D02*
X232000000Y-59000000D01*
X232000000Y-59000000D02*
X228000000Y-59000000D01*
X228000000Y-59000000D02*
X228000000Y-61000000D01*
X63000000Y-91000000D02*
X67000000Y-91000000D01*
X67000000Y-91000000D02*
X67000000Y-89000000D01*
X67000000Y-89000000D02*
X63000000Y-89000000D01*
X63000000Y-89000000D02*
X63000000Y-91000000D01*
D11*
X131037500Y-85000000D02*
G75*
G03*
X131037500Y-85000000I-1037500J0D01*
G01*
D10*
X228000000Y-58000000D02*
X232000000Y-58000000D01*
X232000000Y-58000000D02*
X232000000Y-56000000D01*
X232000000Y-56000000D02*
X228000000Y-56000000D01*
X228000000Y-56000000D02*
X228000000Y-58000000D01*
G36*
X132000000Y-82000000D02*
G01*
X128000000Y-82000000D01*
X130000000Y-80000000D01*
X132000000Y-82000000D01*
G37*
X132000000Y-82000000D02*
X128000000Y-82000000D01*
X130000000Y-80000000D01*
X132000000Y-82000000D01*
X88000000Y-48000000D02*
X92000000Y-48000000D01*
X92000000Y-48000000D02*
X92000000Y-46000000D01*
X92000000Y-46000000D02*
X88000000Y-46000000D01*
X88000000Y-46000000D02*
X88000000Y-48000000D01*
G36*
X225000000Y-145000000D02*
G01*
X224000000Y-146000000D01*
X222000000Y-146000000D01*
X221000000Y-145000000D01*
X222000000Y-144000000D01*
X224000000Y-144000000D01*
X225000000Y-145000000D01*
G37*
X225000000Y-145000000D02*
X224000000Y-146000000D01*
X222000000Y-146000000D01*
X221000000Y-145000000D01*
X222000000Y-144000000D01*
X224000000Y-144000000D01*
X225000000Y-145000000D01*
D11*
X206037500Y-42000000D02*
G75*
G03*
X206037500Y-42000000I-1037500J0D01*
G01*
D10*
X82000000Y-44000000D02*
X86000000Y-44000000D01*
X86000000Y-44000000D02*
X86000000Y-42000000D01*
X86000000Y-42000000D02*
X82000000Y-42000000D01*
X82000000Y-42000000D02*
X82000000Y-44000000D01*
X128000000Y-72000000D02*
X132000000Y-72000000D01*
X132000000Y-72000000D02*
X132000000Y-74000000D01*
X132000000Y-74000000D02*
X128000000Y-74000000D01*
X128000000Y-74000000D02*
X128000000Y-72000000D01*
G36*
X128000000Y-72000000D02*
G01*
X132000000Y-72000000D01*
X132000000Y-74000000D01*
X128000000Y-74000000D01*
X128000000Y-72000000D01*
G37*
X165000000Y-48000000D02*
X169000000Y-48000000D01*
X169000000Y-48000000D02*
X169000000Y-46000000D01*
X169000000Y-46000000D02*
X165000000Y-46000000D01*
X165000000Y-46000000D02*
X165000000Y-48000000D01*
D11*
X231037500Y-39000000D02*
G75*
G03*
X231037500Y-39000000I-1037500J0D01*
G01*
X229037500Y-144000000D02*
G75*
G03*
X229037500Y-144000000I-1037500J0D01*
G01*
D10*
X55000000Y-56000000D02*
X59000000Y-56000000D01*
X59000000Y-56000000D02*
X59000000Y-58000000D01*
X59000000Y-58000000D02*
X55000000Y-58000000D01*
X55000000Y-58000000D02*
X55000000Y-56000000D01*
G36*
X55000000Y-56000000D02*
G01*
X59000000Y-56000000D01*
X59000000Y-58000000D01*
X55000000Y-58000000D01*
X55000000Y-56000000D01*
G37*
X165000000Y-32000000D02*
X169000000Y-32000000D01*
X169000000Y-32000000D02*
X169000000Y-34000000D01*
X169000000Y-34000000D02*
X165000000Y-34000000D01*
X165000000Y-34000000D02*
X165000000Y-32000000D01*
G36*
X165000000Y-32000000D02*
G01*
X169000000Y-32000000D01*
X169000000Y-34000000D01*
X165000000Y-34000000D01*
X165000000Y-32000000D01*
G37*
X128000000Y-78000000D02*
X132000000Y-78000000D01*
X132000000Y-78000000D02*
X132000000Y-76000000D01*
X132000000Y-76000000D02*
X128000000Y-76000000D01*
X128000000Y-76000000D02*
X128000000Y-78000000D01*
D12*
D13*
X134718809Y-74055952D02*
X133575952Y-74055952D01*
X134147380Y-74055952D02*
X134147380Y-71555952D01*
X133956904Y-71913095D01*
X133766428Y-72151190D01*
X133575952Y-72270238D01*
X135290238Y-72389285D02*
X136052142Y-72389285D01*
X135575952Y-74055952D02*
X135575952Y-71913095D01*
X135671190Y-71675000D01*
X135861666Y-71555952D01*
X136052142Y-71555952D01*
X138147380Y-73936904D02*
X138337857Y-74055952D01*
X138718809Y-74055952D01*
X138909285Y-73936904D01*
X139004523Y-73698809D01*
X139004523Y-73579761D01*
X138909285Y-73341666D01*
X138718809Y-73222619D01*
X138433095Y-73222619D01*
X138242619Y-73103571D01*
X138147380Y-72865476D01*
X138147380Y-72746428D01*
X138242619Y-72508333D01*
X138433095Y-72389285D01*
X138718809Y-72389285D01*
X138909285Y-72508333D01*
X140147380Y-74055952D02*
X139956904Y-73936904D01*
X139861666Y-73817857D01*
X139766428Y-73579761D01*
X139766428Y-72865476D01*
X139861666Y-72627380D01*
X139956904Y-72508333D01*
X140147380Y-72389285D01*
X140433095Y-72389285D01*
X140623571Y-72508333D01*
X140718809Y-72627380D01*
X140814047Y-72865476D01*
X140814047Y-73579761D01*
X140718809Y-73817857D01*
X140623571Y-73936904D01*
X140433095Y-74055952D01*
X140147380Y-74055952D01*
X142528333Y-73936904D02*
X142337857Y-74055952D01*
X141956904Y-74055952D01*
X141766428Y-73936904D01*
X141671190Y-73817857D01*
X141575952Y-73579761D01*
X141575952Y-72865476D01*
X141671190Y-72627380D01*
X141766428Y-72508333D01*
X141956904Y-72389285D01*
X142337857Y-72389285D01*
X142528333Y-72508333D01*
X143385476Y-74055952D02*
X143385476Y-71555952D01*
X143575952Y-73103571D02*
X144147380Y-74055952D01*
X144147380Y-72389285D02*
X143385476Y-73341666D01*
X145766428Y-73936904D02*
X145575952Y-74055952D01*
X145195000Y-74055952D01*
X145004523Y-73936904D01*
X144909285Y-73698809D01*
X144909285Y-72746428D01*
X145004523Y-72508333D01*
X145195000Y-72389285D01*
X145575952Y-72389285D01*
X145766428Y-72508333D01*
X145861666Y-72746428D01*
X145861666Y-72984523D01*
X144909285Y-73222619D01*
X146433095Y-72389285D02*
X147195000Y-72389285D01*
X146718809Y-71555952D02*
X146718809Y-73698809D01*
X146814047Y-73936904D01*
X147004523Y-74055952D01*
X147195000Y-74055952D01*
X133671190Y-76414285D02*
X133671190Y-78557142D01*
X133575952Y-78795238D01*
X133385476Y-78914285D01*
X133290238Y-78914285D01*
X133671190Y-75580952D02*
X133575952Y-75700000D01*
X133671190Y-75819047D01*
X133766428Y-75700000D01*
X133671190Y-75580952D01*
X133671190Y-75819047D01*
X135480714Y-76414285D02*
X135480714Y-78080952D01*
X134623571Y-76414285D02*
X134623571Y-77723809D01*
X134718809Y-77961904D01*
X134909285Y-78080952D01*
X135195000Y-78080952D01*
X135385476Y-77961904D01*
X135480714Y-77842857D01*
X136433095Y-76414285D02*
X136433095Y-78080952D01*
X136433095Y-76652380D02*
X136528333Y-76533333D01*
X136718809Y-76414285D01*
X137004523Y-76414285D01*
X137195000Y-76533333D01*
X137290238Y-76771428D01*
X137290238Y-78080952D01*
X139099761Y-77961904D02*
X138909285Y-78080952D01*
X138528333Y-78080952D01*
X138337857Y-77961904D01*
X138242619Y-77842857D01*
X138147380Y-77604761D01*
X138147380Y-76890476D01*
X138242619Y-76652380D01*
X138337857Y-76533333D01*
X138528333Y-76414285D01*
X138909285Y-76414285D01*
X139099761Y-76533333D01*
X139671190Y-76414285D02*
X140433095Y-76414285D01*
X139956904Y-75580952D02*
X139956904Y-77723809D01*
X140052142Y-77961904D01*
X140242619Y-78080952D01*
X140433095Y-78080952D01*
X141099761Y-78080952D02*
X141099761Y-76414285D01*
X141099761Y-75580952D02*
X141004523Y-75700000D01*
X141099761Y-75819047D01*
X141195000Y-75700000D01*
X141099761Y-75580952D01*
X141099761Y-75819047D01*
X142337857Y-78080952D02*
X142147380Y-77961904D01*
X142052142Y-77842857D01*
X141956904Y-77604761D01*
X141956904Y-76890476D01*
X142052142Y-76652380D01*
X142147380Y-76533333D01*
X142337857Y-76414285D01*
X142623571Y-76414285D01*
X142814047Y-76533333D01*
X142909285Y-76652380D01*
X143004523Y-76890476D01*
X143004523Y-77604761D01*
X142909285Y-77842857D01*
X142814047Y-77961904D01*
X142623571Y-78080952D01*
X142337857Y-78080952D01*
X143861666Y-76414285D02*
X143861666Y-78080952D01*
X143861666Y-76652380D02*
X143956904Y-76533333D01*
X144147380Y-76414285D01*
X144433095Y-76414285D01*
X144623571Y-76533333D01*
X144718809Y-76771428D01*
X144718809Y-78080952D01*
X147195000Y-78080952D02*
X147195000Y-75580952D01*
X147195000Y-76533333D02*
X147385476Y-76414285D01*
X147766428Y-76414285D01*
X147956904Y-76533333D01*
X148052142Y-76652380D01*
X148147380Y-76890476D01*
X148147380Y-77604761D01*
X148052142Y-77842857D01*
X147956904Y-77961904D01*
X147766428Y-78080952D01*
X147385476Y-78080952D01*
X147195000Y-77961904D01*
X149290238Y-78080952D02*
X149099761Y-77961904D01*
X149004523Y-77842857D01*
X148909285Y-77604761D01*
X148909285Y-76890476D01*
X149004523Y-76652380D01*
X149099761Y-76533333D01*
X149290238Y-76414285D01*
X149575952Y-76414285D01*
X149766428Y-76533333D01*
X149861666Y-76652380D01*
X149956904Y-76890476D01*
X149956904Y-77604761D01*
X149861666Y-77842857D01*
X149766428Y-77961904D01*
X149575952Y-78080952D01*
X149290238Y-78080952D01*
X150623571Y-78080952D02*
X151671190Y-76414285D01*
X150623571Y-76414285D02*
X151671190Y-78080952D01*
X133480714Y-79605952D02*
X134718809Y-79605952D01*
X134052142Y-80558333D01*
X134337857Y-80558333D01*
X134528333Y-80677380D01*
X134623571Y-80796428D01*
X134718809Y-81034523D01*
X134718809Y-81629761D01*
X134623571Y-81867857D01*
X134528333Y-81986904D01*
X134337857Y-82105952D01*
X133766428Y-82105952D01*
X133575952Y-81986904D01*
X133480714Y-81867857D01*
X135290238Y-80439285D02*
X136052142Y-80439285D01*
X135575952Y-82105952D02*
X135575952Y-79963095D01*
X135671190Y-79725000D01*
X135861666Y-79605952D01*
X136052142Y-79605952D01*
X138147380Y-81986904D02*
X138337857Y-82105952D01*
X138718809Y-82105952D01*
X138909285Y-81986904D01*
X139004523Y-81748809D01*
X139004523Y-81629761D01*
X138909285Y-81391666D01*
X138718809Y-81272619D01*
X138433095Y-81272619D01*
X138242619Y-81153571D01*
X138147380Y-80915476D01*
X138147380Y-80796428D01*
X138242619Y-80558333D01*
X138433095Y-80439285D01*
X138718809Y-80439285D01*
X138909285Y-80558333D01*
X140147380Y-82105952D02*
X139956904Y-81986904D01*
X139861666Y-81867857D01*
X139766428Y-81629761D01*
X139766428Y-80915476D01*
X139861666Y-80677380D01*
X139956904Y-80558333D01*
X140147380Y-80439285D01*
X140433095Y-80439285D01*
X140623571Y-80558333D01*
X140718809Y-80677380D01*
X140814047Y-80915476D01*
X140814047Y-81629761D01*
X140718809Y-81867857D01*
X140623571Y-81986904D01*
X140433095Y-82105952D01*
X140147380Y-82105952D01*
X142528333Y-81986904D02*
X142337857Y-82105952D01*
X141956904Y-82105952D01*
X141766428Y-81986904D01*
X141671190Y-81867857D01*
X141575952Y-81629761D01*
X141575952Y-80915476D01*
X141671190Y-80677380D01*
X141766428Y-80558333D01*
X141956904Y-80439285D01*
X142337857Y-80439285D01*
X142528333Y-80558333D01*
X143385476Y-82105952D02*
X143385476Y-79605952D01*
X143575952Y-81153571D02*
X144147380Y-82105952D01*
X144147380Y-80439285D02*
X143385476Y-81391666D01*
X145766428Y-81986904D02*
X145575952Y-82105952D01*
X145195000Y-82105952D01*
X145004523Y-81986904D01*
X144909285Y-81748809D01*
X144909285Y-80796428D01*
X145004523Y-80558333D01*
X145195000Y-80439285D01*
X145575952Y-80439285D01*
X145766428Y-80558333D01*
X145861666Y-80796428D01*
X145861666Y-81034523D01*
X144909285Y-81272619D01*
X146433095Y-80439285D02*
X147195000Y-80439285D01*
X146718809Y-79605952D02*
X146718809Y-81748809D01*
X146814047Y-81986904D01*
X147004523Y-82105952D01*
X147195000Y-82105952D01*
X133575952Y-86011904D02*
X133766428Y-86130952D01*
X134147380Y-86130952D01*
X134337857Y-86011904D01*
X134433095Y-85773809D01*
X134433095Y-85654761D01*
X134337857Y-85416666D01*
X134147380Y-85297619D01*
X133861666Y-85297619D01*
X133671190Y-85178571D01*
X133575952Y-84940476D01*
X133575952Y-84821428D01*
X133671190Y-84583333D01*
X133861666Y-84464285D01*
X134147380Y-84464285D01*
X134337857Y-84583333D01*
X135099761Y-84464285D02*
X135480714Y-86130952D01*
X135861666Y-84940476D01*
X136242619Y-86130952D01*
X136623571Y-84464285D01*
X137385476Y-86130952D02*
X137385476Y-84464285D01*
X137385476Y-83630952D02*
X137290238Y-83750000D01*
X137385476Y-83869047D01*
X137480714Y-83750000D01*
X137385476Y-83630952D01*
X137385476Y-83869047D01*
X138052142Y-84464285D02*
X138814047Y-84464285D01*
X138337857Y-83630952D02*
X138337857Y-85773809D01*
X138433095Y-86011904D01*
X138623571Y-86130952D01*
X138814047Y-86130952D01*
X140337857Y-86011904D02*
X140147380Y-86130952D01*
X139766428Y-86130952D01*
X139575952Y-86011904D01*
X139480714Y-85892857D01*
X139385476Y-85654761D01*
X139385476Y-84940476D01*
X139480714Y-84702380D01*
X139575952Y-84583333D01*
X139766428Y-84464285D01*
X140147380Y-84464285D01*
X140337857Y-84583333D01*
X141195000Y-86130952D02*
X141195000Y-83630952D01*
X142052142Y-86130952D02*
X142052142Y-84821428D01*
X141956904Y-84583333D01*
X141766428Y-84464285D01*
X141480714Y-84464285D01*
X141290238Y-84583333D01*
X141195000Y-84702380D01*
X133956904Y-90155952D02*
X133766428Y-90036904D01*
X133671190Y-89798809D01*
X133671190Y-87655952D01*
X134718809Y-90155952D02*
X134718809Y-88489285D01*
X134718809Y-87655952D02*
X134623571Y-87775000D01*
X134718809Y-87894047D01*
X134814047Y-87775000D01*
X134718809Y-87655952D01*
X134718809Y-87894047D01*
X136528333Y-88489285D02*
X136528333Y-90513095D01*
X136433095Y-90751190D01*
X136337857Y-90870238D01*
X136147380Y-90989285D01*
X135861666Y-90989285D01*
X135671190Y-90870238D01*
X136528333Y-90036904D02*
X136337857Y-90155952D01*
X135956904Y-90155952D01*
X135766428Y-90036904D01*
X135671190Y-89917857D01*
X135575952Y-89679761D01*
X135575952Y-88965476D01*
X135671190Y-88727380D01*
X135766428Y-88608333D01*
X135956904Y-88489285D01*
X136337857Y-88489285D01*
X136528333Y-88608333D01*
X137480714Y-90155952D02*
X137480714Y-87655952D01*
X138337857Y-90155952D02*
X138337857Y-88846428D01*
X138242619Y-88608333D01*
X138052142Y-88489285D01*
X137766428Y-88489285D01*
X137575952Y-88608333D01*
X137480714Y-88727380D01*
X139004523Y-88489285D02*
X139766428Y-88489285D01*
X139290238Y-87655952D02*
X139290238Y-89798809D01*
X139385476Y-90036904D01*
X139575952Y-90155952D01*
X139766428Y-90155952D01*
X133956904Y-94180952D02*
X133766428Y-94061904D01*
X133671190Y-93823809D01*
X133671190Y-91680952D01*
X134718809Y-94180952D02*
X134718809Y-92514285D01*
X134718809Y-91680952D02*
X134623571Y-91800000D01*
X134718809Y-91919047D01*
X134814047Y-91800000D01*
X134718809Y-91680952D01*
X134718809Y-91919047D01*
X136528333Y-92514285D02*
X136528333Y-94538095D01*
X136433095Y-94776190D01*
X136337857Y-94895238D01*
X136147380Y-95014285D01*
X135861666Y-95014285D01*
X135671190Y-94895238D01*
X136528333Y-94061904D02*
X136337857Y-94180952D01*
X135956904Y-94180952D01*
X135766428Y-94061904D01*
X135671190Y-93942857D01*
X135575952Y-93704761D01*
X135575952Y-92990476D01*
X135671190Y-92752380D01*
X135766428Y-92633333D01*
X135956904Y-92514285D01*
X136337857Y-92514285D01*
X136528333Y-92633333D01*
X137480714Y-94180952D02*
X137480714Y-91680952D01*
X138337857Y-94180952D02*
X138337857Y-92871428D01*
X138242619Y-92633333D01*
X138052142Y-92514285D01*
X137766428Y-92514285D01*
X137575952Y-92633333D01*
X137480714Y-92752380D01*
X139004523Y-92514285D02*
X139766428Y-92514285D01*
X139290238Y-91680952D02*
X139290238Y-93823809D01*
X139385476Y-94061904D01*
X139575952Y-94180952D01*
X139766428Y-94180952D01*
X141956904Y-92514285D02*
X141956904Y-94657142D01*
X141861666Y-94895238D01*
X141671190Y-95014285D01*
X141575952Y-95014285D01*
X141956904Y-91680952D02*
X141861666Y-91800000D01*
X141956904Y-91919047D01*
X142052142Y-91800000D01*
X141956904Y-91680952D01*
X141956904Y-91919047D01*
X143766428Y-92514285D02*
X143766428Y-94180952D01*
X142909285Y-92514285D02*
X142909285Y-93823809D01*
X143004523Y-94061904D01*
X143195000Y-94180952D01*
X143480714Y-94180952D01*
X143671190Y-94061904D01*
X143766428Y-93942857D01*
X144718809Y-92514285D02*
X144718809Y-94180952D01*
X144718809Y-92752380D02*
X144814047Y-92633333D01*
X145004523Y-92514285D01*
X145290238Y-92514285D01*
X145480714Y-92633333D01*
X145575952Y-92871428D01*
X145575952Y-94180952D01*
X147385476Y-94061904D02*
X147195000Y-94180952D01*
X146814047Y-94180952D01*
X146623571Y-94061904D01*
X146528333Y-93942857D01*
X146433095Y-93704761D01*
X146433095Y-92990476D01*
X146528333Y-92752380D01*
X146623571Y-92633333D01*
X146814047Y-92514285D01*
X147195000Y-92514285D01*
X147385476Y-92633333D01*
X147956904Y-92514285D02*
X148718809Y-92514285D01*
X148242619Y-91680952D02*
X148242619Y-93823809D01*
X148337857Y-94061904D01*
X148528333Y-94180952D01*
X148718809Y-94180952D01*
X149385476Y-94180952D02*
X149385476Y-92514285D01*
X149385476Y-91680952D02*
X149290238Y-91800000D01*
X149385476Y-91919047D01*
X149480714Y-91800000D01*
X149385476Y-91680952D01*
X149385476Y-91919047D01*
X150623571Y-94180952D02*
X150433095Y-94061904D01*
X150337857Y-93942857D01*
X150242619Y-93704761D01*
X150242619Y-92990476D01*
X150337857Y-92752380D01*
X150433095Y-92633333D01*
X150623571Y-92514285D01*
X150909285Y-92514285D01*
X151099761Y-92633333D01*
X151195000Y-92752380D01*
X151290238Y-92990476D01*
X151290238Y-93704761D01*
X151195000Y-93942857D01*
X151099761Y-94061904D01*
X150909285Y-94180952D01*
X150623571Y-94180952D01*
X152147380Y-92514285D02*
X152147380Y-94180952D01*
X152147380Y-92752380D02*
X152242619Y-92633333D01*
X152433095Y-92514285D01*
X152718809Y-92514285D01*
X152909285Y-92633333D01*
X153004523Y-92871428D01*
X153004523Y-94180952D01*
X134433095Y-98086904D02*
X134242619Y-98205952D01*
X133861666Y-98205952D01*
X133671190Y-98086904D01*
X133575952Y-97848809D01*
X133575952Y-96896428D01*
X133671190Y-96658333D01*
X133861666Y-96539285D01*
X134242619Y-96539285D01*
X134433095Y-96658333D01*
X134528333Y-96896428D01*
X134528333Y-97134523D01*
X133575952Y-97372619D01*
X135099761Y-96539285D02*
X135861666Y-96539285D01*
X135385476Y-95705952D02*
X135385476Y-97848809D01*
X135480714Y-98086904D01*
X135671190Y-98205952D01*
X135861666Y-98205952D01*
X136528333Y-98205952D02*
X136528333Y-95705952D01*
X137385476Y-98205952D02*
X137385476Y-96896428D01*
X137290238Y-96658333D01*
X137099761Y-96539285D01*
X136814047Y-96539285D01*
X136623571Y-96658333D01*
X136528333Y-96777380D01*
X139099761Y-98086904D02*
X138909285Y-98205952D01*
X138528333Y-98205952D01*
X138337857Y-98086904D01*
X138242619Y-97848809D01*
X138242619Y-96896428D01*
X138337857Y-96658333D01*
X138528333Y-96539285D01*
X138909285Y-96539285D01*
X139099761Y-96658333D01*
X139195000Y-96896428D01*
X139195000Y-97134523D01*
X138242619Y-97372619D01*
X140052142Y-98205952D02*
X140052142Y-96539285D01*
X140052142Y-97015476D02*
X140147380Y-96777380D01*
X140242619Y-96658333D01*
X140433095Y-96539285D01*
X140623571Y-96539285D01*
X141290238Y-96539285D02*
X141290238Y-98205952D01*
X141290238Y-96777380D02*
X141385476Y-96658333D01*
X141575952Y-96539285D01*
X141861666Y-96539285D01*
X142052142Y-96658333D01*
X142147380Y-96896428D01*
X142147380Y-98205952D01*
X143861666Y-98086904D02*
X143671190Y-98205952D01*
X143290238Y-98205952D01*
X143099761Y-98086904D01*
X143004523Y-97848809D01*
X143004523Y-96896428D01*
X143099761Y-96658333D01*
X143290238Y-96539285D01*
X143671190Y-96539285D01*
X143861666Y-96658333D01*
X143956904Y-96896428D01*
X143956904Y-97134523D01*
X143004523Y-97372619D01*
X144528333Y-96539285D02*
X145290238Y-96539285D01*
X144814047Y-95705952D02*
X144814047Y-97848809D01*
X144909285Y-98086904D01*
X145099761Y-98205952D01*
X145290238Y-98205952D01*
D14*
X203000000Y-149000000D02*
X185000000Y-149000000D01*
X240000000Y-151000000D02*
X240000000Y-155000000D01*
X210000000Y-151000000D02*
X210000000Y-155000000D01*
X209000000Y-156000000D02*
X205000000Y-156000000D01*
X240000000Y-121000000D02*
X240000000Y-125000000D01*
X201000000Y-30000000D02*
X209000000Y-30000000D01*
X185000000Y-36000000D02*
X199000000Y-36000000D01*
X233000000Y-150000000D02*
X211000000Y-150000000D01*
X240000000Y-31000000D02*
X240000000Y-35000000D01*
X239000000Y-156000000D02*
X235000000Y-156000000D01*
X238000000Y-67000000D02*
X238000000Y-119000000D01*
X184000000Y-150000000D02*
X184000000Y-159000000D01*
X200000000Y-35000000D02*
X200000000Y-31000000D01*
X183000000Y-160000000D02*
X51000000Y-160000000D01*
X234000000Y-155000000D02*
X234000000Y-151000000D01*
X204000000Y-155000000D02*
X204000000Y-150000000D01*
X51000000Y-26000000D02*
X183000000Y-26000000D01*
X184000000Y-27000000D02*
X184000000Y-35000000D01*
X235000000Y-30000000D02*
X239000000Y-30000000D01*
X211000000Y-32000000D02*
X233000000Y-32000000D01*
X238000000Y-127000000D02*
X238000000Y-149000000D01*
X238000000Y-37000000D02*
X238000000Y-59000000D01*
X240000000Y-61000000D02*
X240000000Y-65000000D01*
X50000000Y-159000000D02*
X50000000Y-27000000D01*
X239000000Y-36000000D02*
G75*
G03*
X240000000Y-35000000I0J1000000D01*
G01*
X211000000Y-150000000D02*
G75*
G03*
X210000000Y-151000000I0J-1000000D01*
G01*
X204000000Y-155000000D02*
G75*
G03*
X205000000Y-156000000I1000000J0D01*
G01*
X184000000Y-27000000D02*
G75*
G03*
X183000000Y-26000000I-1000000J0D01*
G01*
X240000000Y-121000000D02*
G75*
G03*
X239000000Y-120000000I-1000000J0D01*
G01*
X238000000Y-59000000D02*
G75*
G03*
X239000000Y-60000000I1000000J0D01*
G01*
X239000000Y-36000000D02*
G75*
G03*
X238000000Y-37000000I0J-1000000D01*
G01*
X239000000Y-126000000D02*
G75*
G03*
X240000000Y-125000000I0J1000000D01*
G01*
X240000000Y-61000000D02*
G75*
G03*
X239000000Y-60000000I-1000000J0D01*
G01*
X199000000Y-36000000D02*
G75*
G03*
X200000000Y-35000000I0J1000000D01*
G01*
X233000000Y-32000000D02*
G75*
G03*
X234000000Y-31000000I0J1000000D01*
G01*
X210000000Y-31000000D02*
G75*
G03*
X209000000Y-30000000I-1000000J0D01*
G01*
X210000000Y-31000000D02*
G75*
G03*
X211000000Y-32000000I1000000J0D01*
G01*
X185000000Y-149000000D02*
G75*
G03*
X184000000Y-150000000I0J-1000000D01*
G01*
X238000000Y-149000000D02*
G75*
G03*
X239000000Y-150000000I1000000J0D01*
G01*
X201000000Y-30000000D02*
G75*
G03*
X200000000Y-31000000I0J-1000000D01*
G01*
X234000000Y-155000000D02*
G75*
G03*
X235000000Y-156000000I1000000J0D01*
G01*
X239000000Y-156000000D02*
G75*
G03*
X240000000Y-155000000I0J1000000D01*
G01*
X238000000Y-119000000D02*
G75*
G03*
X239000000Y-120000000I1000000J0D01*
G01*
X239000000Y-126000000D02*
G75*
G03*
X238000000Y-127000000I0J-1000000D01*
G01*
X240000000Y-31000000D02*
G75*
G03*
X239000000Y-30000000I-1000000J0D01*
G01*
X204000000Y-150000000D02*
G75*
G03*
X203000000Y-149000000I-1000000J0D01*
G01*
X50000000Y-159000000D02*
G75*
G03*
X51000000Y-160000000I999999J-1D01*
G01*
X234000000Y-151000000D02*
G75*
G03*
X233000000Y-150000000I-1000000J0D01*
G01*
X209000000Y-156000000D02*
G75*
G03*
X210000000Y-155000000I0J1000000D01*
G01*
X51000000Y-26000000D02*
G75*
G03*
X50000000Y-27000000I-1J-999999D01*
G01*
X239000000Y-66000000D02*
G75*
G03*
X240000000Y-65000000I0J1000000D01*
G01*
X184000000Y-35000000D02*
G75*
G03*
X185000000Y-36000000I1000000J0D01*
G01*
X235000000Y-30000000D02*
G75*
G03*
X234000000Y-31000000I0J-1000000D01*
G01*
X239000000Y-66000000D02*
G75*
G03*
X238000000Y-67000000I0J-1000000D01*
G01*
X183000000Y-160000000D02*
G75*
G03*
X184000000Y-159000000I0J1000000D01*
G01*
X240000000Y-151000000D02*
G75*
G03*
X239000000Y-150000000I-1000000J0D01*
G01*
G04 #@! TA.AperFunction,ComponentPad*
G36*
G01*
X235000000Y-64800000D02*
X235000000Y-61200000D01*
G75*
G02*
X235200000Y-61000000I200000J0D01*
G01*
X238800000Y-61000000D01*
G75*
G02*
X239000000Y-61200000I0J-200000D01*
G01*
X239000000Y-64800000D01*
G75*
G02*
X238800000Y-65000000I-200000J0D01*
G01*
X235200000Y-65000000D01*
G75*
G02*
X235000000Y-64800000I0J200000D01*
G01*
G37*
G04 #@! TD.AperFunction*
G04 #@! TA.AperFunction,ComponentPad*
G36*
G01*
X205000000Y-34800000D02*
X205000000Y-31200000D01*
G75*
G02*
X205200000Y-31000000I200000J0D01*
G01*
X208800000Y-31000000D01*
G75*
G02*
X209000000Y-31200000I0J-200000D01*
G01*
X209000000Y-34800000D01*
G75*
G02*
X208800000Y-35000000I-200000J0D01*
G01*
X205200000Y-35000000D01*
G75*
G02*
X205000000Y-34800000I0J200000D01*
G01*
G37*
G04 #@! TD.AperFunction*
G04 #@! TA.AperFunction,ComponentPad*
G36*
G01*
X55000000Y-154800000D02*
X55000000Y-151200000D01*
G75*
G02*
X55200000Y-151000000I200000J0D01*
G01*
X58800000Y-151000000D01*
G75*
G02*
X59000000Y-151200000I0J-200000D01*
G01*
X59000000Y-154800000D01*
G75*
G02*
X58800000Y-155000000I-200000J0D01*
G01*
X55200000Y-155000000D01*
G75*
G02*
X55000000Y-154800000I0J200000D01*
G01*
G37*
G04 #@! TD.AperFunction*
G04 #@! TA.AperFunction,ComponentPad*
G36*
G01*
X205000000Y-124800000D02*
X205000000Y-121200000D01*
G75*
G02*
X205200000Y-121000000I200000J0D01*
G01*
X208800000Y-121000000D01*
G75*
G02*
X209000000Y-121200000I0J-200000D01*
G01*
X209000000Y-124800000D01*
G75*
G02*
X208800000Y-125000000I-200000J0D01*
G01*
X205200000Y-125000000D01*
G75*
G02*
X205000000Y-124800000I0J200000D01*
G01*
G37*
G04 #@! TD.AperFunction*
G04 #@! TA.AperFunction,ComponentPad*
G36*
G01*
X235000000Y-154800000D02*
X235000000Y-151200000D01*
G75*
G02*
X235200000Y-151000000I200000J0D01*
G01*
X238800000Y-151000000D01*
G75*
G02*
X239000000Y-151200000I0J-200000D01*
G01*
X239000000Y-154800000D01*
G75*
G02*
X238800000Y-155000000I-200000J0D01*
G01*
X235200000Y-155000000D01*
G75*
G02*
X235000000Y-154800000I0J200000D01*
G01*
G37*
G04 #@! TD.AperFunction*
G04 #@! TA.AperFunction,ComponentPad*
G36*
G01*
X55000000Y-64800000D02*
X55000000Y-61200000D01*
G75*
G02*
X55200000Y-61000000I200000J0D01*
G01*
X58800000Y-61000000D01*
G75*
G02*
X59000000Y-61200000I0J-200000D01*
G01*
X59000000Y-64800000D01*
G75*
G02*
X58800000Y-65000000I-200000J0D01*
G01*
X55200000Y-65000000D01*
G75*
G02*
X55000000Y-64800000I0J200000D01*
G01*
G37*
G04 #@! TD.AperFunction*
G04 #@! TA.AperFunction,ComponentPad*
G36*
G01*
X115000000Y-154800000D02*
X115000000Y-151200000D01*
G75*
G02*
X115200000Y-151000000I200000J0D01*
G01*
X118800000Y-151000000D01*
G75*
G02*
X119000000Y-151200000I0J-200000D01*
G01*
X119000000Y-154800000D01*
G75*
G02*
X118800000Y-155000000I-200000J0D01*
G01*
X115200000Y-155000000D01*
G75*
G02*
X115000000Y-154800000I0J200000D01*
G01*
G37*
G04 #@! TD.AperFunction*
G04 #@! TA.AperFunction,ComponentPad*
G36*
G01*
X205000000Y-154800000D02*
X205000000Y-151200000D01*
G75*
G02*
X205200000Y-151000000I200000J0D01*
G01*
X208800000Y-151000000D01*
G75*
G02*
X209000000Y-151200000I0J-200000D01*
G01*
X209000000Y-154800000D01*
G75*
G02*
X208800000Y-155000000I-200000J0D01*
G01*
X205200000Y-155000000D01*
G75*
G02*
X205000000Y-154800000I0J200000D01*
G01*
G37*
G04 #@! TD.AperFunction*
G04 #@! TA.AperFunction,ComponentPad*
G36*
G01*
X175000000Y-154800000D02*
X175000000Y-151200000D01*
G75*
G02*
X175200000Y-151000000I200000J0D01*
G01*
X178800000Y-151000000D01*
G75*
G02*
X179000000Y-151200000I0J-200000D01*
G01*
X179000000Y-154800000D01*
G75*
G02*
X178800000Y-155000000I-200000J0D01*
G01*
X175200000Y-155000000D01*
G75*
G02*
X175000000Y-154800000I0J200000D01*
G01*
G37*
G04 #@! TD.AperFunction*
G04 #@! TA.AperFunction,ComponentPad*
G36*
G01*
X235000000Y-34800000D02*
X235000000Y-31200000D01*
G75*
G02*
X235200000Y-31000000I200000J0D01*
G01*
X238800000Y-31000000D01*
G75*
G02*
X239000000Y-31200000I0J-200000D01*
G01*
X239000000Y-34800000D01*
G75*
G02*
X238800000Y-35000000I-200000J0D01*
G01*
X235200000Y-35000000D01*
G75*
G02*
X235000000Y-34800000I0J200000D01*
G01*
G37*
G04 #@! TD.AperFunction*
G04 #@! TA.AperFunction,ComponentPad*
G36*
G01*
X55000000Y-124800000D02*
X55000000Y-121200000D01*
G75*
G02*
X55200000Y-121000000I200000J0D01*
G01*
X58800000Y-121000000D01*
G75*
G02*
X59000000Y-121200000I0J-200000D01*
G01*
X59000000Y-124800000D01*
G75*
G02*
X58800000Y-125000000I-200000J0D01*
G01*
X55200000Y-125000000D01*
G75*
G02*
X55000000Y-124800000I0J200000D01*
G01*
G37*
G04 #@! TD.AperFunction*
G04 #@! TA.AperFunction,ComponentPad*
G36*
G01*
X115000000Y-34800000D02*
X115000000Y-31200000D01*
G75*
G02*
X115200000Y-31000000I200000J0D01*
G01*
X118800000Y-31000000D01*
G75*
G02*
X119000000Y-31200000I0J-200000D01*
G01*
X119000000Y-34800000D01*
G75*
G02*
X118800000Y-35000000I-200000J0D01*
G01*
X115200000Y-35000000D01*
G75*
G02*
X115000000Y-34800000I0J200000D01*
G01*
G37*
G04 #@! TD.AperFunction*
G04 #@! TA.AperFunction,ComponentPad*
G36*
G01*
X205000000Y-64800000D02*
X205000000Y-61200000D01*
G75*
G02*
X205200000Y-61000000I200000J0D01*
G01*
X208800000Y-61000000D01*
G75*
G02*
X209000000Y-61200000I0J-200000D01*
G01*
X209000000Y-64800000D01*
G75*
G02*
X208800000Y-65000000I-200000J0D01*
G01*
X205200000Y-65000000D01*
G75*
G02*
X205000000Y-64800000I0J200000D01*
G01*
G37*
G04 #@! TD.AperFunction*
G04 #@! TA.AperFunction,ComponentPad*
G36*
G01*
X175000000Y-124800000D02*
X175000000Y-121200000D01*
G75*
G02*
X175200000Y-121000000I200000J0D01*
G01*
X178800000Y-121000000D01*
G75*
G02*
X179000000Y-121200000I0J-200000D01*
G01*
X179000000Y-124800000D01*
G75*
G02*
X178800000Y-125000000I-200000J0D01*
G01*
X175200000Y-125000000D01*
G75*
G02*
X175000000Y-124800000I0J200000D01*
G01*
G37*
G04 #@! TD.AperFunction*
G04 #@! TA.AperFunction,ComponentPad*
G36*
G01*
X175000000Y-34800000D02*
X175000000Y-31200000D01*
G75*
G02*
X175200000Y-31000000I200000J0D01*
G01*
X178800000Y-31000000D01*
G75*
G02*
X179000000Y-31200000I0J-200000D01*
G01*
X179000000Y-34800000D01*
G75*
G02*
X178800000Y-35000000I-200000J0D01*
G01*
X175200000Y-35000000D01*
G75*
G02*
X175000000Y-34800000I0J200000D01*
G01*
G37*
G04 #@! TD.AperFunction*
G04 #@! TA.AperFunction,ComponentPad*
G36*
G01*
X235000000Y-124800000D02*
X235000000Y-121200000D01*
G75*
G02*
X235200000Y-121000000I200000J0D01*
G01*
X238800000Y-121000000D01*
G75*
G02*
X239000000Y-121200000I0J-200000D01*
G01*
X239000000Y-124800000D01*
G75*
G02*
X238800000Y-125000000I-200000J0D01*
G01*
X235200000Y-125000000D01*
G75*
G02*
X235000000Y-124800000I0J200000D01*
G01*
G37*
G04 #@! TD.AperFunction*
G04 #@! TA.AperFunction,ComponentPad*
G36*
G01*
X115000000Y-64800000D02*
X115000000Y-61200000D01*
G75*
G02*
X115200000Y-61000000I200000J0D01*
G01*
X118800000Y-61000000D01*
G75*
G02*
X119000000Y-61200000I0J-200000D01*
G01*
X119000000Y-64800000D01*
G75*
G02*
X118800000Y-65000000I-200000J0D01*
G01*
X115200000Y-65000000D01*
G75*
G02*
X115000000Y-64800000I0J200000D01*
G01*
G37*
G04 #@! TD.AperFunction*
G04 #@! TA.AperFunction,ComponentPad*
G36*
G01*
X115000000Y-124800000D02*
X115000000Y-121200000D01*
G75*
G02*
X115200000Y-121000000I200000J0D01*
G01*
X118800000Y-121000000D01*
G75*
G02*
X119000000Y-121200000I0J-200000D01*
G01*
X119000000Y-124800000D01*
G75*
G02*
X118800000Y-125000000I-200000J0D01*
G01*
X115200000Y-125000000D01*
G75*
G02*
X115000000Y-124800000I0J200000D01*
G01*
G37*
G04 #@! TD.AperFunction*
G04 #@! TA.AperFunction,ComponentPad*
G36*
G01*
X55000000Y-34800000D02*
X55000000Y-31200000D01*
G75*
G02*
X55200000Y-31000000I200000J0D01*
G01*
X58800000Y-31000000D01*
G75*
G02*
X59000000Y-31200000I0J-200000D01*
G01*
X59000000Y-34800000D01*
G75*
G02*
X58800000Y-35000000I-200000J0D01*
G01*
X55200000Y-35000000D01*
G75*
G02*
X55000000Y-34800000I0J200000D01*
G01*
G37*
G04 #@! TD.AperFunction*
G04 #@! TA.AperFunction,ComponentPad*
G36*
G01*
X175000000Y-64800000D02*
X175000000Y-61200000D01*
G75*
G02*
X175200000Y-61000000I200000J0D01*
G01*
X178800000Y-61000000D01*
G75*
G02*
X179000000Y-61200000I0J-200000D01*
G01*
X179000000Y-64800000D01*
G75*
G02*
X178800000Y-65000000I-200000J0D01*
G01*
X175200000Y-65000000D01*
G75*
G02*
X175000000Y-64800000I0J200000D01*
G01*
G37*
G04 #@! TD.AperFunction*
G04 #@! TA.AperFunction,SMDPad,CuDef*
G36*
G01*
X79250000Y-44400000D02*
X79250000Y-45600000D01*
G75*
G02*
X79100000Y-45750000I-150000J0D01*
G01*
X66900000Y-45750000D01*
G75*
G02*
X66750000Y-45600000I0J150000D01*
G01*
X66750000Y-44400000D01*
G75*
G02*
X66900000Y-44250000I150000J0D01*
G01*
X79100000Y-44250000D01*
G75*
G02*
X79250000Y-44400000I0J-150000D01*
G01*
G37*
G04 #@! TD.AperFunction*
G04 #@! TA.AperFunction,SMDPad,CuDef*
G36*
G01*
X107250000Y-44400000D02*
X107250000Y-45600000D01*
G75*
G02*
X107100000Y-45750000I-150000J0D01*
G01*
X94900000Y-45750000D01*
G75*
G02*
X94750000Y-45600000I0J150000D01*
G01*
X94750000Y-44400000D01*
G75*
G02*
X94900000Y-44250000I150000J0D01*
G01*
X107100000Y-44250000D01*
G75*
G02*
X107250000Y-44400000I0J-150000D01*
G01*
G37*
G04 #@! TD.AperFunction*
G04 #@! TA.AperFunction,SMDPad,CuDef*
G36*
G01*
X61600000Y-133250000D02*
X60400000Y-133250000D01*
G75*
G02*
X60250000Y-133100000I0J150000D01*
G01*
X60250000Y-120900000D01*
G75*
G02*
X60400000Y-120750000I150000J0D01*
G01*
X61600000Y-120750000D01*
G75*
G02*
X61750000Y-120900000I0J-150000D01*
G01*
X61750000Y-133100000D01*
G75*
G02*
X61600000Y-133250000I-150000J0D01*
G01*
G37*
G04 #@! TD.AperFunction*
G04 #@! TA.AperFunction,SMDPad,CuDef*
G36*
G01*
X112400000Y-135750000D02*
X113600000Y-135750000D01*
G75*
G02*
X113750000Y-135900000I0J-150000D01*
G01*
X113750000Y-148100000D01*
G75*
G02*
X113600000Y-148250000I-150000J0D01*
G01*
X112400000Y-148250000D01*
G75*
G02*
X112250000Y-148100000I0J150000D01*
G01*
X112250000Y-135900000D01*
G75*
G02*
X112400000Y-135750000I150000J0D01*
G01*
G37*
G04 #@! TD.AperFunction*
G04 #@! TA.AperFunction,SMDPad,CuDef*
G36*
G01*
X60400000Y-135750000D02*
X61600000Y-135750000D01*
G75*
G02*
X61750000Y-135900000I0J-150000D01*
G01*
X61750000Y-148100000D01*
G75*
G02*
X61600000Y-148250000I-150000J0D01*
G01*
X60400000Y-148250000D01*
G75*
G02*
X60250000Y-148100000I0J150000D01*
G01*
X60250000Y-135900000D01*
G75*
G02*
X60400000Y-135750000I150000J0D01*
G01*
G37*
G04 #@! TD.AperFunction*
G04 #@! TA.AperFunction,SMDPad,CuDef*
G36*
G01*
X60400000Y-105750000D02*
X61600000Y-105750000D01*
G75*
G02*
X61750000Y-105900000I0J-150000D01*
G01*
X61750000Y-118100000D01*
G75*
G02*
X61600000Y-118250000I-150000J0D01*
G01*
X60400000Y-118250000D01*
G75*
G02*
X60250000Y-118100000I0J150000D01*
G01*
X60250000Y-105900000D01*
G75*
G02*
X60400000Y-105750000I150000J0D01*
G01*
G37*
G04 #@! TD.AperFunction*
G04 #@! TA.AperFunction,SMDPad,CuDef*
G36*
G01*
X86400000Y-75750000D02*
X87600000Y-75750000D01*
G75*
G02*
X87750000Y-75900000I0J-150000D01*
G01*
X87750000Y-88100000D01*
G75*
G02*
X87600000Y-88250000I-150000J0D01*
G01*
X86400000Y-88250000D01*
G75*
G02*
X86250000Y-88100000I0J150000D01*
G01*
X86250000Y-75900000D01*
G75*
G02*
X86400000Y-75750000I150000J0D01*
G01*
G37*
G04 #@! TD.AperFunction*
G04 #@! TA.AperFunction,SMDPad,CuDef*
G36*
G01*
X60400000Y-60750000D02*
X61600000Y-60750000D01*
G75*
G02*
X61750000Y-60900000I0J-150000D01*
G01*
X61750000Y-73100000D01*
G75*
G02*
X61600000Y-73250000I-150000J0D01*
G01*
X60400000Y-73250000D01*
G75*
G02*
X60250000Y-73100000I0J150000D01*
G01*
X60250000Y-60900000D01*
G75*
G02*
X60400000Y-60750000I150000J0D01*
G01*
G37*
G04 #@! TD.AperFunction*
G04 #@! TA.AperFunction,SMDPad,CuDef*
G36*
G01*
X112400000Y-46750000D02*
X113600000Y-46750000D01*
G75*
G02*
X113750000Y-46900000I0J-150000D01*
G01*
X113750000Y-59100000D01*
G75*
G02*
X113600000Y-59250000I-150000J0D01*
G01*
X112400000Y-59250000D01*
G75*
G02*
X112250000Y-59100000I0J150000D01*
G01*
X112250000Y-46900000D01*
G75*
G02*
X112400000Y-46750000I150000J0D01*
G01*
G37*
G04 #@! TD.AperFunction*
G04 #@! TA.AperFunction,SMDPad,CuDef*
G36*
G01*
X60400000Y-46750000D02*
X61600000Y-46750000D01*
G75*
G02*
X61750000Y-46900000I0J-150000D01*
G01*
X61750000Y-59100000D01*
G75*
G02*
X61600000Y-59250000I-150000J0D01*
G01*
X60400000Y-59250000D01*
G75*
G02*
X60250000Y-59100000I0J150000D01*
G01*
X60250000Y-46900000D01*
G75*
G02*
X60400000Y-46750000I150000J0D01*
G01*
G37*
G04 #@! TD.AperFunction*
G04 #@! TA.AperFunction,SMDPad,CuDef*
G36*
G01*
X86400000Y-135750000D02*
X87600000Y-135750000D01*
G75*
G02*
X87750000Y-135900000I0J-150000D01*
G01*
X87750000Y-148100000D01*
G75*
G02*
X87600000Y-148250000I-150000J0D01*
G01*
X86400000Y-148250000D01*
G75*
G02*
X86250000Y-148100000I0J150000D01*
G01*
X86250000Y-135900000D01*
G75*
G02*
X86400000Y-135750000I150000J0D01*
G01*
G37*
G04 #@! TD.AperFunction*
G04 #@! TA.AperFunction,SMDPad,CuDef*
G36*
G01*
X112400000Y-75750000D02*
X113600000Y-75750000D01*
G75*
G02*
X113750000Y-75900000I0J-150000D01*
G01*
X113750000Y-88100000D01*
G75*
G02*
X113600000Y-88250000I-150000J0D01*
G01*
X112400000Y-88250000D01*
G75*
G02*
X112250000Y-88100000I0J150000D01*
G01*
X112250000Y-75900000D01*
G75*
G02*
X112400000Y-75750000I150000J0D01*
G01*
G37*
G04 #@! TD.AperFunction*
G04 #@! TA.AperFunction,SMDPad,CuDef*
G36*
G01*
X86400000Y-60750000D02*
X87600000Y-60750000D01*
G75*
G02*
X87750000Y-60900000I0J-150000D01*
G01*
X87750000Y-73100000D01*
G75*
G02*
X87600000Y-73250000I-150000J0D01*
G01*
X86400000Y-73250000D01*
G75*
G02*
X86250000Y-73100000I0J150000D01*
G01*
X86250000Y-60900000D01*
G75*
G02*
X86400000Y-60750000I150000J0D01*
G01*
G37*
G04 #@! TD.AperFunction*
G04 #@! TA.AperFunction,SMDPad,CuDef*
G36*
G01*
X112400000Y-60750000D02*
X113600000Y-60750000D01*
G75*
G02*
X113750000Y-60900000I0J-150000D01*
G01*
X113750000Y-73100000D01*
G75*
G02*
X113600000Y-73250000I-150000J0D01*
G01*
X112400000Y-73250000D01*
G75*
G02*
X112250000Y-73100000I0J150000D01*
G01*
X112250000Y-60900000D01*
G75*
G02*
X112400000Y-60750000I150000J0D01*
G01*
G37*
G04 #@! TD.AperFunction*
G04 #@! TA.AperFunction,SMDPad,CuDef*
G36*
G01*
X86400000Y-120750000D02*
X87600000Y-120750000D01*
G75*
G02*
X87750000Y-120900000I0J-150000D01*
G01*
X87750000Y-133100000D01*
G75*
G02*
X87600000Y-133250000I-150000J0D01*
G01*
X86400000Y-133250000D01*
G75*
G02*
X86250000Y-133100000I0J150000D01*
G01*
X86250000Y-120900000D01*
G75*
G02*
X86400000Y-120750000I150000J0D01*
G01*
G37*
G04 #@! TD.AperFunction*
G04 #@! TA.AperFunction,SMDPad,CuDef*
G36*
G01*
X60400000Y-75750000D02*
X61600000Y-75750000D01*
G75*
G02*
X61750000Y-75900000I0J-150000D01*
G01*
X61750000Y-88100000D01*
G75*
G02*
X61600000Y-88250000I-150000J0D01*
G01*
X60400000Y-88250000D01*
G75*
G02*
X60250000Y-88100000I0J150000D01*
G01*
X60250000Y-75900000D01*
G75*
G02*
X60400000Y-75750000I150000J0D01*
G01*
G37*
G04 #@! TD.AperFunction*
G04 #@! TA.AperFunction,SMDPad,CuDef*
G36*
G01*
X112400000Y-120750000D02*
X113600000Y-120750000D01*
G75*
G02*
X113750000Y-120900000I0J-150000D01*
G01*
X113750000Y-133100000D01*
G75*
G02*
X113600000Y-133250000I-150000J0D01*
G01*
X112400000Y-133250000D01*
G75*
G02*
X112250000Y-133100000I0J150000D01*
G01*
X112250000Y-120900000D01*
G75*
G02*
X112400000Y-120750000I150000J0D01*
G01*
G37*
G04 #@! TD.AperFunction*
G04 #@! TA.AperFunction,SMDPad,CuDef*
G36*
G01*
X163250000Y-37400000D02*
X163250000Y-38600000D01*
G75*
G02*
X163100000Y-38750000I-150000J0D01*
G01*
X150900000Y-38750000D01*
G75*
G02*
X150750000Y-38600000I0J150000D01*
G01*
X150750000Y-37400000D01*
G75*
G02*
X150900000Y-37250000I150000J0D01*
G01*
X163100000Y-37250000D01*
G75*
G02*
X163250000Y-37400000I0J-150000D01*
G01*
G37*
G04 #@! TD.AperFunction*
G04 #@! TA.AperFunction,SMDPad,CuDef*
G36*
G01*
X112400000Y-90750000D02*
X113600000Y-90750000D01*
G75*
G02*
X113750000Y-90900000I0J-150000D01*
G01*
X113750000Y-103100000D01*
G75*
G02*
X113600000Y-103250000I-150000J0D01*
G01*
X112400000Y-103250000D01*
G75*
G02*
X112250000Y-103100000I0J150000D01*
G01*
X112250000Y-90900000D01*
G75*
G02*
X112400000Y-90750000I150000J0D01*
G01*
G37*
G04 #@! TD.AperFunction*
G04 #@! TA.AperFunction,SMDPad,CuDef*
G36*
G01*
X86400000Y-105750000D02*
X87600000Y-105750000D01*
G75*
G02*
X87750000Y-105900000I0J-150000D01*
G01*
X87750000Y-118100000D01*
G75*
G02*
X87600000Y-118250000I-150000J0D01*
G01*
X86400000Y-118250000D01*
G75*
G02*
X86250000Y-118100000I0J150000D01*
G01*
X86250000Y-105900000D01*
G75*
G02*
X86400000Y-105750000I150000J0D01*
G01*
G37*
G04 #@! TD.AperFunction*
G04 #@! TA.AperFunction,SMDPad,CuDef*
G36*
G01*
X112400000Y-105750000D02*
X113600000Y-105750000D01*
G75*
G02*
X113750000Y-105900000I0J-150000D01*
G01*
X113750000Y-118100000D01*
G75*
G02*
X113600000Y-118250000I-150000J0D01*
G01*
X112400000Y-118250000D01*
G75*
G02*
X112250000Y-118100000I0J150000D01*
G01*
X112250000Y-105900000D01*
G75*
G02*
X112400000Y-105750000I150000J0D01*
G01*
G37*
G04 #@! TD.AperFunction*
G04 #@! TA.AperFunction,SMDPad,CuDef*
G36*
G01*
X86400000Y-90750000D02*
X87600000Y-90750000D01*
G75*
G02*
X87750000Y-90900000I0J-150000D01*
G01*
X87750000Y-103100000D01*
G75*
G02*
X87600000Y-103250000I-150000J0D01*
G01*
X86400000Y-103250000D01*
G75*
G02*
X86250000Y-103100000I0J150000D01*
G01*
X86250000Y-90900000D01*
G75*
G02*
X86400000Y-90750000I150000J0D01*
G01*
G37*
G04 #@! TD.AperFunction*
G04 #@! TA.AperFunction,SMDPad,CuDef*
G36*
G01*
X86400000Y-46750000D02*
X87600000Y-46750000D01*
G75*
G02*
X87750000Y-46900000I0J-150000D01*
G01*
X87750000Y-59100000D01*
G75*
G02*
X87600000Y-59250000I-150000J0D01*
G01*
X86400000Y-59250000D01*
G75*
G02*
X86250000Y-59100000I0J150000D01*
G01*
X86250000Y-46900000D01*
G75*
G02*
X86400000Y-46750000I150000J0D01*
G01*
G37*
G04 #@! TD.AperFunction*
G04 #@! TA.AperFunction,SMDPad,CuDef*
G36*
G01*
X60400000Y-90750000D02*
X61600000Y-90750000D01*
G75*
G02*
X61750000Y-90900000I0J-150000D01*
G01*
X61750000Y-103100000D01*
G75*
G02*
X61600000Y-103250000I-150000J0D01*
G01*
X60400000Y-103250000D01*
G75*
G02*
X60250000Y-103100000I0J150000D01*
G01*
X60250000Y-90900000D01*
G75*
G02*
X60400000Y-90750000I150000J0D01*
G01*
G37*
G04 #@! TD.AperFunction*
M02*
