G04 #@! TF.GenerationSoftware,KiCad,Pcbnew,6.0.10+dfsg-1~bpo11+1*
G04 #@! TF.ProjectId,storage,73746f72-6167-4652-9e6b-696361645f70,5.0*
G04 #@! TF.SameCoordinates,Original*
G04 #@! TF.FileFunction,Copper,L6,Bot*
G04 #@! TF.FilePolarity,Positive*
%FSLAX46Y46*%
G04 Gerber Fmt 4.6, Leading zero omitted, Abs format (unit mm)*
%MOMM*%
%LPD*%
G01*
G04 APERTURE LIST*
G04 #@! TA.AperFunction,NonConductor*
%ADD10C,0.150000*%
G04 #@! TD*
G04 #@! TA.AperFunction,NonConductor*
%ADD11C,2.075000*%
G04 #@! TD*
%ADD12C,0.300000*%
G04 #@! TA.AperFunction,NonConductor*
%ADD13C,0.300000*%
G04 #@! TD*
G04 #@! TA.AperFunction,Profile*
%ADD14C,0.120000*%
G04 #@! TD*
G04 APERTURE END LIST*
D10*
X89000000Y-150500000D02*
X93000000Y-150500000D01*
X93000000Y-150500000D02*
X93000000Y-148500000D01*
X93000000Y-148500000D02*
X89000000Y-148500000D01*
X89000000Y-148500000D02*
X89000000Y-150500000D01*
X228000000Y-101000000D02*
X232000000Y-101000000D01*
X232000000Y-101000000D02*
X232000000Y-103000000D01*
X232000000Y-103000000D02*
X228000000Y-103000000D01*
X228000000Y-103000000D02*
X228000000Y-101000000D01*
G36*
X228000000Y-101000000D02*
G01*
X232000000Y-101000000D01*
X232000000Y-103000000D01*
X228000000Y-103000000D01*
X228000000Y-101000000D01*
G37*
X89000000Y-91000000D02*
X93000000Y-91000000D01*
X93000000Y-91000000D02*
X93000000Y-89000000D01*
X93000000Y-89000000D02*
X89000000Y-89000000D01*
X89000000Y-89000000D02*
X89000000Y-91000000D01*
X108000000Y-48000000D02*
X112000000Y-48000000D01*
X112000000Y-48000000D02*
X112000000Y-46000000D01*
X112000000Y-46000000D02*
X108000000Y-46000000D01*
X108000000Y-46000000D02*
X108000000Y-48000000D01*
X253000000Y-156000000D02*
X257000000Y-156000000D01*
X257000000Y-156000000D02*
X257000000Y-154000000D01*
X257000000Y-154000000D02*
X253000000Y-154000000D01*
X253000000Y-154000000D02*
X253000000Y-156000000D01*
X56000000Y-46000000D02*
X60000000Y-46000000D01*
X60000000Y-46000000D02*
X60000000Y-44000000D01*
X60000000Y-44000000D02*
X56000000Y-44000000D01*
X56000000Y-44000000D02*
X56000000Y-46000000D01*
X152000000Y-32000000D02*
X156000000Y-32000000D01*
X156000000Y-32000000D02*
X156000000Y-34000000D01*
X156000000Y-34000000D02*
X152000000Y-34000000D01*
X152000000Y-34000000D02*
X152000000Y-32000000D01*
G36*
X152000000Y-32000000D02*
G01*
X156000000Y-32000000D01*
X156000000Y-34000000D01*
X152000000Y-34000000D01*
X152000000Y-32000000D01*
G37*
X228000000Y-65000000D02*
X232000000Y-65000000D01*
X232000000Y-65000000D02*
X232000000Y-67000000D01*
X232000000Y-67000000D02*
X228000000Y-67000000D01*
X228000000Y-67000000D02*
X228000000Y-65000000D01*
G36*
X228000000Y-65000000D02*
G01*
X232000000Y-65000000D01*
X232000000Y-67000000D01*
X228000000Y-67000000D01*
X228000000Y-65000000D01*
G37*
G36*
X112000000Y-43000000D02*
G01*
X111000000Y-44000000D01*
X109000000Y-44000000D01*
X108000000Y-43000000D01*
X109000000Y-42000000D01*
X111000000Y-42000000D01*
X112000000Y-43000000D01*
G37*
X112000000Y-43000000D02*
X111000000Y-44000000D01*
X109000000Y-44000000D01*
X108000000Y-43000000D01*
X109000000Y-42000000D01*
X111000000Y-42000000D01*
X112000000Y-43000000D01*
G36*
X232000000Y-69000000D02*
G01*
X231000000Y-70000000D01*
X229000000Y-70000000D01*
X228000000Y-69000000D01*
X229000000Y-68000000D01*
X231000000Y-68000000D01*
X232000000Y-69000000D01*
G37*
X232000000Y-69000000D02*
X231000000Y-70000000D01*
X229000000Y-70000000D01*
X228000000Y-69000000D01*
X229000000Y-68000000D01*
X231000000Y-68000000D01*
X232000000Y-69000000D01*
X170000000Y-48000000D02*
X174000000Y-48000000D01*
X174000000Y-48000000D02*
X174000000Y-46000000D01*
X174000000Y-46000000D02*
X170000000Y-46000000D01*
X170000000Y-46000000D02*
X170000000Y-48000000D01*
X107000000Y-91000000D02*
X111000000Y-91000000D01*
X111000000Y-91000000D02*
X111000000Y-89000000D01*
X111000000Y-89000000D02*
X107000000Y-89000000D01*
X107000000Y-89000000D02*
X107000000Y-91000000D01*
X85000000Y-153000000D02*
X89000000Y-153000000D01*
X89000000Y-153000000D02*
X89000000Y-155000000D01*
X89000000Y-155000000D02*
X85000000Y-155000000D01*
X85000000Y-155000000D02*
X85000000Y-153000000D01*
G36*
X85000000Y-153000000D02*
G01*
X89000000Y-153000000D01*
X89000000Y-155000000D01*
X85000000Y-155000000D01*
X85000000Y-153000000D01*
G37*
X82000000Y-48000000D02*
X86000000Y-48000000D01*
X86000000Y-48000000D02*
X86000000Y-46000000D01*
X86000000Y-46000000D02*
X82000000Y-46000000D01*
X82000000Y-46000000D02*
X82000000Y-48000000D01*
G36*
X257000000Y-159000000D02*
G01*
X256000000Y-160000000D01*
X254000000Y-160000000D01*
X253000000Y-159000000D01*
X254000000Y-158000000D01*
X256000000Y-158000000D01*
X257000000Y-159000000D01*
G37*
X257000000Y-159000000D02*
X256000000Y-160000000D01*
X254000000Y-160000000D01*
X253000000Y-159000000D01*
X254000000Y-158000000D01*
X256000000Y-158000000D01*
X257000000Y-159000000D01*
G36*
X207000000Y-47000000D02*
G01*
X206000000Y-48000000D01*
X204000000Y-48000000D01*
X203000000Y-47000000D01*
X204000000Y-46000000D01*
X206000000Y-46000000D01*
X207000000Y-47000000D01*
G37*
X207000000Y-47000000D02*
X206000000Y-48000000D01*
X204000000Y-48000000D01*
X203000000Y-47000000D01*
X204000000Y-46000000D01*
X206000000Y-46000000D01*
X207000000Y-47000000D01*
X210000000Y-118000000D02*
X214000000Y-118000000D01*
X214000000Y-118000000D02*
X214000000Y-116000000D01*
X214000000Y-116000000D02*
X210000000Y-116000000D01*
X210000000Y-116000000D02*
X210000000Y-118000000D01*
G36*
X126000000Y-43000000D02*
G01*
X125000000Y-44000000D01*
X123000000Y-44000000D01*
X122000000Y-43000000D01*
X123000000Y-42000000D01*
X125000000Y-42000000D01*
X126000000Y-43000000D01*
G37*
X126000000Y-43000000D02*
X125000000Y-44000000D01*
X123000000Y-44000000D01*
X122000000Y-43000000D01*
X123000000Y-42000000D01*
X125000000Y-42000000D01*
X126000000Y-43000000D01*
X169000000Y-39000000D02*
X173000000Y-39000000D01*
X173000000Y-39000000D02*
X173000000Y-41000000D01*
X173000000Y-41000000D02*
X169000000Y-41000000D01*
X169000000Y-41000000D02*
X169000000Y-39000000D01*
G36*
X169000000Y-39000000D02*
G01*
X173000000Y-39000000D01*
X173000000Y-41000000D01*
X169000000Y-41000000D01*
X169000000Y-39000000D01*
G37*
X228000000Y-61000000D02*
X232000000Y-61000000D01*
X232000000Y-61000000D02*
X232000000Y-59000000D01*
X232000000Y-59000000D02*
X228000000Y-59000000D01*
X228000000Y-59000000D02*
X228000000Y-61000000D01*
X63000000Y-91000000D02*
X67000000Y-91000000D01*
X67000000Y-91000000D02*
X67000000Y-89000000D01*
X67000000Y-89000000D02*
X63000000Y-89000000D01*
X63000000Y-89000000D02*
X63000000Y-91000000D01*
G36*
X92000000Y-43000000D02*
G01*
X91000000Y-44000000D01*
X89000000Y-44000000D01*
X88000000Y-43000000D01*
X89000000Y-42000000D01*
X91000000Y-42000000D01*
X92000000Y-43000000D01*
G37*
X92000000Y-43000000D02*
X91000000Y-44000000D01*
X89000000Y-44000000D01*
X88000000Y-43000000D01*
X89000000Y-42000000D01*
X91000000Y-42000000D01*
X92000000Y-43000000D01*
G36*
X173000000Y-123000000D02*
G01*
X172000000Y-124000000D01*
X170000000Y-124000000D01*
X169000000Y-123000000D01*
X170000000Y-122000000D01*
X172000000Y-122000000D01*
X173000000Y-123000000D01*
G37*
X173000000Y-123000000D02*
X172000000Y-124000000D01*
X170000000Y-124000000D01*
X169000000Y-123000000D01*
X170000000Y-122000000D01*
X172000000Y-122000000D01*
X173000000Y-123000000D01*
D11*
X256037500Y-147000000D02*
G75*
G03*
X256037500Y-147000000I-1037500J0D01*
G01*
D10*
X228000000Y-58000000D02*
X232000000Y-58000000D01*
X232000000Y-58000000D02*
X232000000Y-56000000D01*
X232000000Y-56000000D02*
X228000000Y-56000000D01*
X228000000Y-56000000D02*
X228000000Y-58000000D01*
G36*
X214000000Y-114000000D02*
G01*
X213000000Y-115000000D01*
X211000000Y-115000000D01*
X210000000Y-114000000D01*
X211000000Y-113000000D01*
X213000000Y-113000000D01*
X214000000Y-114000000D01*
G37*
X214000000Y-114000000D02*
X213000000Y-115000000D01*
X211000000Y-115000000D01*
X210000000Y-114000000D01*
X211000000Y-113000000D01*
X213000000Y-113000000D01*
X214000000Y-114000000D01*
G36*
X232000000Y-47000000D02*
G01*
X231000000Y-48000000D01*
X229000000Y-48000000D01*
X228000000Y-47000000D01*
X229000000Y-46000000D01*
X231000000Y-46000000D01*
X232000000Y-47000000D01*
G37*
X232000000Y-47000000D02*
X231000000Y-48000000D01*
X229000000Y-48000000D01*
X228000000Y-47000000D01*
X229000000Y-46000000D01*
X231000000Y-46000000D01*
X232000000Y-47000000D01*
X228000000Y-55000000D02*
X232000000Y-55000000D01*
X232000000Y-55000000D02*
X232000000Y-53000000D01*
X232000000Y-53000000D02*
X228000000Y-53000000D01*
X228000000Y-53000000D02*
X228000000Y-55000000D01*
G36*
X257000000Y-144000000D02*
G01*
X253000000Y-144000000D01*
X255000000Y-142000000D01*
X257000000Y-144000000D01*
G37*
X257000000Y-144000000D02*
X253000000Y-144000000D01*
X255000000Y-142000000D01*
X257000000Y-144000000D01*
X88000000Y-48000000D02*
X92000000Y-48000000D01*
X92000000Y-48000000D02*
X92000000Y-46000000D01*
X92000000Y-46000000D02*
X88000000Y-46000000D01*
X88000000Y-46000000D02*
X88000000Y-48000000D01*
G36*
X214000000Y-108000000D02*
G01*
X213000000Y-109000000D01*
X211000000Y-109000000D01*
X210000000Y-108000000D01*
X211000000Y-107000000D01*
X213000000Y-107000000D01*
X214000000Y-108000000D01*
G37*
X214000000Y-108000000D02*
X213000000Y-109000000D01*
X211000000Y-109000000D01*
X210000000Y-108000000D01*
X211000000Y-107000000D01*
X213000000Y-107000000D01*
X214000000Y-108000000D01*
D11*
X206037500Y-42000000D02*
G75*
G03*
X206037500Y-42000000I-1037500J0D01*
G01*
D10*
X82000000Y-44000000D02*
X86000000Y-44000000D01*
X86000000Y-44000000D02*
X86000000Y-42000000D01*
X86000000Y-42000000D02*
X82000000Y-42000000D01*
X82000000Y-42000000D02*
X82000000Y-44000000D01*
G36*
X214000000Y-111000000D02*
G01*
X213000000Y-112000000D01*
X211000000Y-112000000D01*
X210000000Y-111000000D01*
X211000000Y-110000000D01*
X213000000Y-110000000D01*
X214000000Y-111000000D01*
G37*
X214000000Y-111000000D02*
X213000000Y-112000000D01*
X211000000Y-112000000D01*
X210000000Y-111000000D01*
X211000000Y-110000000D01*
X213000000Y-110000000D01*
X214000000Y-111000000D01*
X253000000Y-134000000D02*
X257000000Y-134000000D01*
X257000000Y-134000000D02*
X257000000Y-136000000D01*
X257000000Y-136000000D02*
X253000000Y-136000000D01*
X253000000Y-136000000D02*
X253000000Y-134000000D01*
G36*
X253000000Y-134000000D02*
G01*
X257000000Y-134000000D01*
X257000000Y-136000000D01*
X253000000Y-136000000D01*
X253000000Y-134000000D01*
G37*
X165000000Y-48000000D02*
X169000000Y-48000000D01*
X169000000Y-48000000D02*
X169000000Y-46000000D01*
X169000000Y-46000000D02*
X165000000Y-46000000D01*
X165000000Y-46000000D02*
X165000000Y-48000000D01*
D11*
X231037500Y-39000000D02*
G75*
G03*
X231037500Y-39000000I-1037500J0D01*
G01*
X231037500Y-116000000D02*
G75*
G03*
X231037500Y-116000000I-1037500J0D01*
G01*
D10*
X55000000Y-56000000D02*
X59000000Y-56000000D01*
X59000000Y-56000000D02*
X59000000Y-58000000D01*
X59000000Y-58000000D02*
X55000000Y-58000000D01*
X55000000Y-58000000D02*
X55000000Y-56000000D01*
G36*
X55000000Y-56000000D02*
G01*
X59000000Y-56000000D01*
X59000000Y-58000000D01*
X55000000Y-58000000D01*
X55000000Y-56000000D01*
G37*
G36*
X232000000Y-105000000D02*
G01*
X231000000Y-106000000D01*
X229000000Y-106000000D01*
X228000000Y-105000000D01*
X229000000Y-104000000D01*
X231000000Y-104000000D01*
X232000000Y-105000000D01*
G37*
X232000000Y-105000000D02*
X231000000Y-106000000D01*
X229000000Y-106000000D01*
X228000000Y-105000000D01*
X229000000Y-104000000D01*
X231000000Y-104000000D01*
X232000000Y-105000000D01*
X165000000Y-32000000D02*
X169000000Y-32000000D01*
X169000000Y-32000000D02*
X169000000Y-34000000D01*
X169000000Y-34000000D02*
X165000000Y-34000000D01*
X165000000Y-34000000D02*
X165000000Y-32000000D01*
G36*
X165000000Y-32000000D02*
G01*
X169000000Y-32000000D01*
X169000000Y-34000000D01*
X165000000Y-34000000D01*
X165000000Y-32000000D01*
G37*
X253000000Y-140000000D02*
X257000000Y-140000000D01*
X257000000Y-140000000D02*
X257000000Y-138000000D01*
X257000000Y-138000000D02*
X253000000Y-138000000D01*
X253000000Y-138000000D02*
X253000000Y-140000000D01*
D12*
D13*
X259718809Y-136055952D02*
X258575952Y-136055952D01*
X259147380Y-136055952D02*
X259147380Y-133555952D01*
X258956904Y-133913095D01*
X258766428Y-134151190D01*
X258575952Y-134270238D01*
X260290238Y-134389285D02*
X261052142Y-134389285D01*
X260575952Y-136055952D02*
X260575952Y-133913095D01*
X260671190Y-133675000D01*
X260861666Y-133555952D01*
X261052142Y-133555952D01*
X263147380Y-135936904D02*
X263337857Y-136055952D01*
X263718809Y-136055952D01*
X263909285Y-135936904D01*
X264004523Y-135698809D01*
X264004523Y-135579761D01*
X263909285Y-135341666D01*
X263718809Y-135222619D01*
X263433095Y-135222619D01*
X263242619Y-135103571D01*
X263147380Y-134865476D01*
X263147380Y-134746428D01*
X263242619Y-134508333D01*
X263433095Y-134389285D01*
X263718809Y-134389285D01*
X263909285Y-134508333D01*
X265147380Y-136055952D02*
X264956904Y-135936904D01*
X264861666Y-135817857D01*
X264766428Y-135579761D01*
X264766428Y-134865476D01*
X264861666Y-134627380D01*
X264956904Y-134508333D01*
X265147380Y-134389285D01*
X265433095Y-134389285D01*
X265623571Y-134508333D01*
X265718809Y-134627380D01*
X265814047Y-134865476D01*
X265814047Y-135579761D01*
X265718809Y-135817857D01*
X265623571Y-135936904D01*
X265433095Y-136055952D01*
X265147380Y-136055952D01*
X267528333Y-135936904D02*
X267337857Y-136055952D01*
X266956904Y-136055952D01*
X266766428Y-135936904D01*
X266671190Y-135817857D01*
X266575952Y-135579761D01*
X266575952Y-134865476D01*
X266671190Y-134627380D01*
X266766428Y-134508333D01*
X266956904Y-134389285D01*
X267337857Y-134389285D01*
X267528333Y-134508333D01*
X268385476Y-136055952D02*
X268385476Y-133555952D01*
X268575952Y-135103571D02*
X269147380Y-136055952D01*
X269147380Y-134389285D02*
X268385476Y-135341666D01*
X270766428Y-135936904D02*
X270575952Y-136055952D01*
X270195000Y-136055952D01*
X270004523Y-135936904D01*
X269909285Y-135698809D01*
X269909285Y-134746428D01*
X270004523Y-134508333D01*
X270195000Y-134389285D01*
X270575952Y-134389285D01*
X270766428Y-134508333D01*
X270861666Y-134746428D01*
X270861666Y-134984523D01*
X269909285Y-135222619D01*
X271433095Y-134389285D02*
X272195000Y-134389285D01*
X271718809Y-133555952D02*
X271718809Y-135698809D01*
X271814047Y-135936904D01*
X272004523Y-136055952D01*
X272195000Y-136055952D01*
X258671190Y-138414285D02*
X258671190Y-140557142D01*
X258575952Y-140795238D01*
X258385476Y-140914285D01*
X258290238Y-140914285D01*
X258671190Y-137580952D02*
X258575952Y-137700000D01*
X258671190Y-137819047D01*
X258766428Y-137700000D01*
X258671190Y-137580952D01*
X258671190Y-137819047D01*
X260480714Y-138414285D02*
X260480714Y-140080952D01*
X259623571Y-138414285D02*
X259623571Y-139723809D01*
X259718809Y-139961904D01*
X259909285Y-140080952D01*
X260195000Y-140080952D01*
X260385476Y-139961904D01*
X260480714Y-139842857D01*
X261433095Y-138414285D02*
X261433095Y-140080952D01*
X261433095Y-138652380D02*
X261528333Y-138533333D01*
X261718809Y-138414285D01*
X262004523Y-138414285D01*
X262195000Y-138533333D01*
X262290238Y-138771428D01*
X262290238Y-140080952D01*
X264099761Y-139961904D02*
X263909285Y-140080952D01*
X263528333Y-140080952D01*
X263337857Y-139961904D01*
X263242619Y-139842857D01*
X263147380Y-139604761D01*
X263147380Y-138890476D01*
X263242619Y-138652380D01*
X263337857Y-138533333D01*
X263528333Y-138414285D01*
X263909285Y-138414285D01*
X264099761Y-138533333D01*
X264671190Y-138414285D02*
X265433095Y-138414285D01*
X264956904Y-137580952D02*
X264956904Y-139723809D01*
X265052142Y-139961904D01*
X265242619Y-140080952D01*
X265433095Y-140080952D01*
X266099761Y-140080952D02*
X266099761Y-138414285D01*
X266099761Y-137580952D02*
X266004523Y-137700000D01*
X266099761Y-137819047D01*
X266195000Y-137700000D01*
X266099761Y-137580952D01*
X266099761Y-137819047D01*
X267337857Y-140080952D02*
X267147380Y-139961904D01*
X267052142Y-139842857D01*
X266956904Y-139604761D01*
X266956904Y-138890476D01*
X267052142Y-138652380D01*
X267147380Y-138533333D01*
X267337857Y-138414285D01*
X267623571Y-138414285D01*
X267814047Y-138533333D01*
X267909285Y-138652380D01*
X268004523Y-138890476D01*
X268004523Y-139604761D01*
X267909285Y-139842857D01*
X267814047Y-139961904D01*
X267623571Y-140080952D01*
X267337857Y-140080952D01*
X268861666Y-138414285D02*
X268861666Y-140080952D01*
X268861666Y-138652380D02*
X268956904Y-138533333D01*
X269147380Y-138414285D01*
X269433095Y-138414285D01*
X269623571Y-138533333D01*
X269718809Y-138771428D01*
X269718809Y-140080952D01*
X272195000Y-140080952D02*
X272195000Y-137580952D01*
X272195000Y-138533333D02*
X272385476Y-138414285D01*
X272766428Y-138414285D01*
X272956904Y-138533333D01*
X273052142Y-138652380D01*
X273147380Y-138890476D01*
X273147380Y-139604761D01*
X273052142Y-139842857D01*
X272956904Y-139961904D01*
X272766428Y-140080952D01*
X272385476Y-140080952D01*
X272195000Y-139961904D01*
X274290238Y-140080952D02*
X274099761Y-139961904D01*
X274004523Y-139842857D01*
X273909285Y-139604761D01*
X273909285Y-138890476D01*
X274004523Y-138652380D01*
X274099761Y-138533333D01*
X274290238Y-138414285D01*
X274575952Y-138414285D01*
X274766428Y-138533333D01*
X274861666Y-138652380D01*
X274956904Y-138890476D01*
X274956904Y-139604761D01*
X274861666Y-139842857D01*
X274766428Y-139961904D01*
X274575952Y-140080952D01*
X274290238Y-140080952D01*
X275623571Y-140080952D02*
X276671190Y-138414285D01*
X275623571Y-138414285D02*
X276671190Y-140080952D01*
X258480714Y-141605952D02*
X259718809Y-141605952D01*
X259052142Y-142558333D01*
X259337857Y-142558333D01*
X259528333Y-142677380D01*
X259623571Y-142796428D01*
X259718809Y-143034523D01*
X259718809Y-143629761D01*
X259623571Y-143867857D01*
X259528333Y-143986904D01*
X259337857Y-144105952D01*
X258766428Y-144105952D01*
X258575952Y-143986904D01*
X258480714Y-143867857D01*
X260290238Y-142439285D02*
X261052142Y-142439285D01*
X260575952Y-144105952D02*
X260575952Y-141963095D01*
X260671190Y-141725000D01*
X260861666Y-141605952D01*
X261052142Y-141605952D01*
X263147380Y-143986904D02*
X263337857Y-144105952D01*
X263718809Y-144105952D01*
X263909285Y-143986904D01*
X264004523Y-143748809D01*
X264004523Y-143629761D01*
X263909285Y-143391666D01*
X263718809Y-143272619D01*
X263433095Y-143272619D01*
X263242619Y-143153571D01*
X263147380Y-142915476D01*
X263147380Y-142796428D01*
X263242619Y-142558333D01*
X263433095Y-142439285D01*
X263718809Y-142439285D01*
X263909285Y-142558333D01*
X265147380Y-144105952D02*
X264956904Y-143986904D01*
X264861666Y-143867857D01*
X264766428Y-143629761D01*
X264766428Y-142915476D01*
X264861666Y-142677380D01*
X264956904Y-142558333D01*
X265147380Y-142439285D01*
X265433095Y-142439285D01*
X265623571Y-142558333D01*
X265718809Y-142677380D01*
X265814047Y-142915476D01*
X265814047Y-143629761D01*
X265718809Y-143867857D01*
X265623571Y-143986904D01*
X265433095Y-144105952D01*
X265147380Y-144105952D01*
X267528333Y-143986904D02*
X267337857Y-144105952D01*
X266956904Y-144105952D01*
X266766428Y-143986904D01*
X266671190Y-143867857D01*
X266575952Y-143629761D01*
X266575952Y-142915476D01*
X266671190Y-142677380D01*
X266766428Y-142558333D01*
X266956904Y-142439285D01*
X267337857Y-142439285D01*
X267528333Y-142558333D01*
X268385476Y-144105952D02*
X268385476Y-141605952D01*
X268575952Y-143153571D02*
X269147380Y-144105952D01*
X269147380Y-142439285D02*
X268385476Y-143391666D01*
X270766428Y-143986904D02*
X270575952Y-144105952D01*
X270195000Y-144105952D01*
X270004523Y-143986904D01*
X269909285Y-143748809D01*
X269909285Y-142796428D01*
X270004523Y-142558333D01*
X270195000Y-142439285D01*
X270575952Y-142439285D01*
X270766428Y-142558333D01*
X270861666Y-142796428D01*
X270861666Y-143034523D01*
X269909285Y-143272619D01*
X271433095Y-142439285D02*
X272195000Y-142439285D01*
X271718809Y-141605952D02*
X271718809Y-143748809D01*
X271814047Y-143986904D01*
X272004523Y-144105952D01*
X272195000Y-144105952D01*
X258575952Y-148011904D02*
X258766428Y-148130952D01*
X259147380Y-148130952D01*
X259337857Y-148011904D01*
X259433095Y-147773809D01*
X259433095Y-147654761D01*
X259337857Y-147416666D01*
X259147380Y-147297619D01*
X258861666Y-147297619D01*
X258671190Y-147178571D01*
X258575952Y-146940476D01*
X258575952Y-146821428D01*
X258671190Y-146583333D01*
X258861666Y-146464285D01*
X259147380Y-146464285D01*
X259337857Y-146583333D01*
X260099761Y-146464285D02*
X260480714Y-148130952D01*
X260861666Y-146940476D01*
X261242619Y-148130952D01*
X261623571Y-146464285D01*
X262385476Y-148130952D02*
X262385476Y-146464285D01*
X262385476Y-145630952D02*
X262290238Y-145750000D01*
X262385476Y-145869047D01*
X262480714Y-145750000D01*
X262385476Y-145630952D01*
X262385476Y-145869047D01*
X263052142Y-146464285D02*
X263814047Y-146464285D01*
X263337857Y-145630952D02*
X263337857Y-147773809D01*
X263433095Y-148011904D01*
X263623571Y-148130952D01*
X263814047Y-148130952D01*
X265337857Y-148011904D02*
X265147380Y-148130952D01*
X264766428Y-148130952D01*
X264575952Y-148011904D01*
X264480714Y-147892857D01*
X264385476Y-147654761D01*
X264385476Y-146940476D01*
X264480714Y-146702380D01*
X264575952Y-146583333D01*
X264766428Y-146464285D01*
X265147380Y-146464285D01*
X265337857Y-146583333D01*
X266195000Y-148130952D02*
X266195000Y-145630952D01*
X267052142Y-148130952D02*
X267052142Y-146821428D01*
X266956904Y-146583333D01*
X266766428Y-146464285D01*
X266480714Y-146464285D01*
X266290238Y-146583333D01*
X266195000Y-146702380D01*
X258956904Y-152155952D02*
X258766428Y-152036904D01*
X258671190Y-151798809D01*
X258671190Y-149655952D01*
X259718809Y-152155952D02*
X259718809Y-150489285D01*
X259718809Y-149655952D02*
X259623571Y-149775000D01*
X259718809Y-149894047D01*
X259814047Y-149775000D01*
X259718809Y-149655952D01*
X259718809Y-149894047D01*
X261528333Y-150489285D02*
X261528333Y-152513095D01*
X261433095Y-152751190D01*
X261337857Y-152870238D01*
X261147380Y-152989285D01*
X260861666Y-152989285D01*
X260671190Y-152870238D01*
X261528333Y-152036904D02*
X261337857Y-152155952D01*
X260956904Y-152155952D01*
X260766428Y-152036904D01*
X260671190Y-151917857D01*
X260575952Y-151679761D01*
X260575952Y-150965476D01*
X260671190Y-150727380D01*
X260766428Y-150608333D01*
X260956904Y-150489285D01*
X261337857Y-150489285D01*
X261528333Y-150608333D01*
X262480714Y-152155952D02*
X262480714Y-149655952D01*
X263337857Y-152155952D02*
X263337857Y-150846428D01*
X263242619Y-150608333D01*
X263052142Y-150489285D01*
X262766428Y-150489285D01*
X262575952Y-150608333D01*
X262480714Y-150727380D01*
X264004523Y-150489285D02*
X264766428Y-150489285D01*
X264290238Y-149655952D02*
X264290238Y-151798809D01*
X264385476Y-152036904D01*
X264575952Y-152155952D01*
X264766428Y-152155952D01*
X258956904Y-156180952D02*
X258766428Y-156061904D01*
X258671190Y-155823809D01*
X258671190Y-153680952D01*
X259718809Y-156180952D02*
X259718809Y-154514285D01*
X259718809Y-153680952D02*
X259623571Y-153800000D01*
X259718809Y-153919047D01*
X259814047Y-153800000D01*
X259718809Y-153680952D01*
X259718809Y-153919047D01*
X261528333Y-154514285D02*
X261528333Y-156538095D01*
X261433095Y-156776190D01*
X261337857Y-156895238D01*
X261147380Y-157014285D01*
X260861666Y-157014285D01*
X260671190Y-156895238D01*
X261528333Y-156061904D02*
X261337857Y-156180952D01*
X260956904Y-156180952D01*
X260766428Y-156061904D01*
X260671190Y-155942857D01*
X260575952Y-155704761D01*
X260575952Y-154990476D01*
X260671190Y-154752380D01*
X260766428Y-154633333D01*
X260956904Y-154514285D01*
X261337857Y-154514285D01*
X261528333Y-154633333D01*
X262480714Y-156180952D02*
X262480714Y-153680952D01*
X263337857Y-156180952D02*
X263337857Y-154871428D01*
X263242619Y-154633333D01*
X263052142Y-154514285D01*
X262766428Y-154514285D01*
X262575952Y-154633333D01*
X262480714Y-154752380D01*
X264004523Y-154514285D02*
X264766428Y-154514285D01*
X264290238Y-153680952D02*
X264290238Y-155823809D01*
X264385476Y-156061904D01*
X264575952Y-156180952D01*
X264766428Y-156180952D01*
X266956904Y-154514285D02*
X266956904Y-156657142D01*
X266861666Y-156895238D01*
X266671190Y-157014285D01*
X266575952Y-157014285D01*
X266956904Y-153680952D02*
X266861666Y-153800000D01*
X266956904Y-153919047D01*
X267052142Y-153800000D01*
X266956904Y-153680952D01*
X266956904Y-153919047D01*
X268766428Y-154514285D02*
X268766428Y-156180952D01*
X267909285Y-154514285D02*
X267909285Y-155823809D01*
X268004523Y-156061904D01*
X268195000Y-156180952D01*
X268480714Y-156180952D01*
X268671190Y-156061904D01*
X268766428Y-155942857D01*
X269718809Y-154514285D02*
X269718809Y-156180952D01*
X269718809Y-154752380D02*
X269814047Y-154633333D01*
X270004523Y-154514285D01*
X270290238Y-154514285D01*
X270480714Y-154633333D01*
X270575952Y-154871428D01*
X270575952Y-156180952D01*
X272385476Y-156061904D02*
X272195000Y-156180952D01*
X271814047Y-156180952D01*
X271623571Y-156061904D01*
X271528333Y-155942857D01*
X271433095Y-155704761D01*
X271433095Y-154990476D01*
X271528333Y-154752380D01*
X271623571Y-154633333D01*
X271814047Y-154514285D01*
X272195000Y-154514285D01*
X272385476Y-154633333D01*
X272956904Y-154514285D02*
X273718809Y-154514285D01*
X273242619Y-153680952D02*
X273242619Y-155823809D01*
X273337857Y-156061904D01*
X273528333Y-156180952D01*
X273718809Y-156180952D01*
X274385476Y-156180952D02*
X274385476Y-154514285D01*
X274385476Y-153680952D02*
X274290238Y-153800000D01*
X274385476Y-153919047D01*
X274480714Y-153800000D01*
X274385476Y-153680952D01*
X274385476Y-153919047D01*
X275623571Y-156180952D02*
X275433095Y-156061904D01*
X275337857Y-155942857D01*
X275242619Y-155704761D01*
X275242619Y-154990476D01*
X275337857Y-154752380D01*
X275433095Y-154633333D01*
X275623571Y-154514285D01*
X275909285Y-154514285D01*
X276099761Y-154633333D01*
X276195000Y-154752380D01*
X276290238Y-154990476D01*
X276290238Y-155704761D01*
X276195000Y-155942857D01*
X276099761Y-156061904D01*
X275909285Y-156180952D01*
X275623571Y-156180952D01*
X277147380Y-154514285D02*
X277147380Y-156180952D01*
X277147380Y-154752380D02*
X277242619Y-154633333D01*
X277433095Y-154514285D01*
X277718809Y-154514285D01*
X277909285Y-154633333D01*
X278004523Y-154871428D01*
X278004523Y-156180952D01*
X259433095Y-160086904D02*
X259242619Y-160205952D01*
X258861666Y-160205952D01*
X258671190Y-160086904D01*
X258575952Y-159848809D01*
X258575952Y-158896428D01*
X258671190Y-158658333D01*
X258861666Y-158539285D01*
X259242619Y-158539285D01*
X259433095Y-158658333D01*
X259528333Y-158896428D01*
X259528333Y-159134523D01*
X258575952Y-159372619D01*
X260099761Y-158539285D02*
X260861666Y-158539285D01*
X260385476Y-157705952D02*
X260385476Y-159848809D01*
X260480714Y-160086904D01*
X260671190Y-160205952D01*
X260861666Y-160205952D01*
X261528333Y-160205952D02*
X261528333Y-157705952D01*
X262385476Y-160205952D02*
X262385476Y-158896428D01*
X262290238Y-158658333D01*
X262099761Y-158539285D01*
X261814047Y-158539285D01*
X261623571Y-158658333D01*
X261528333Y-158777380D01*
X264099761Y-160086904D02*
X263909285Y-160205952D01*
X263528333Y-160205952D01*
X263337857Y-160086904D01*
X263242619Y-159848809D01*
X263242619Y-158896428D01*
X263337857Y-158658333D01*
X263528333Y-158539285D01*
X263909285Y-158539285D01*
X264099761Y-158658333D01*
X264195000Y-158896428D01*
X264195000Y-159134523D01*
X263242619Y-159372619D01*
X265052142Y-160205952D02*
X265052142Y-158539285D01*
X265052142Y-159015476D02*
X265147380Y-158777380D01*
X265242619Y-158658333D01*
X265433095Y-158539285D01*
X265623571Y-158539285D01*
X266290238Y-158539285D02*
X266290238Y-160205952D01*
X266290238Y-158777380D02*
X266385476Y-158658333D01*
X266575952Y-158539285D01*
X266861666Y-158539285D01*
X267052142Y-158658333D01*
X267147380Y-158896428D01*
X267147380Y-160205952D01*
X268861666Y-160086904D02*
X268671190Y-160205952D01*
X268290238Y-160205952D01*
X268099761Y-160086904D01*
X268004523Y-159848809D01*
X268004523Y-158896428D01*
X268099761Y-158658333D01*
X268290238Y-158539285D01*
X268671190Y-158539285D01*
X268861666Y-158658333D01*
X268956904Y-158896428D01*
X268956904Y-159134523D01*
X268004523Y-159372619D01*
X269528333Y-158539285D02*
X270290238Y-158539285D01*
X269814047Y-157705952D02*
X269814047Y-159848809D01*
X269909285Y-160086904D01*
X270099761Y-160205952D01*
X270290238Y-160205952D01*
D14*
X235000000Y-30000000D02*
X239000000Y-30000000D01*
X184000000Y-27000000D02*
X184000000Y-35000000D01*
X211000000Y-32000000D02*
X233000000Y-32000000D01*
X201000000Y-30000000D02*
X209000000Y-30000000D01*
X240000000Y-31000000D02*
X240000000Y-35000000D01*
X51000000Y-26000000D02*
X183000000Y-26000000D01*
X204000000Y-155000000D02*
X204000000Y-150000000D01*
X203000000Y-149000000D02*
X185000000Y-149000000D01*
X238000000Y-127000000D02*
X238000000Y-149000000D01*
X234000000Y-155000000D02*
X234000000Y-151000000D01*
X240000000Y-151000000D02*
X240000000Y-155000000D01*
X200000000Y-35000000D02*
X200000000Y-31000000D01*
X240000000Y-61000000D02*
X240000000Y-65000000D01*
X185000000Y-36000000D02*
X199000000Y-36000000D01*
X233000000Y-150000000D02*
X211000000Y-150000000D01*
X240000000Y-121000000D02*
X240000000Y-125000000D01*
X210000000Y-151000000D02*
X210000000Y-155000000D01*
X183000000Y-160000000D02*
X51000000Y-160000000D01*
X238000000Y-67000000D02*
X238000000Y-119000000D01*
X209000000Y-156000000D02*
X205000000Y-156000000D01*
X50000000Y-159000000D02*
X50000000Y-27000000D01*
X239000000Y-156000000D02*
X235000000Y-156000000D01*
X184000000Y-150000000D02*
X184000000Y-159000000D01*
X238000000Y-37000000D02*
X238000000Y-59000000D01*
X238000000Y-59000000D02*
G75*
G03*
X239000000Y-60000000I1000000J0D01*
G01*
X240000000Y-61000000D02*
G75*
G03*
X239000000Y-60000000I-1000000J0D01*
G01*
X209000000Y-156000000D02*
G75*
G03*
X210000000Y-155000000I0J1000000D01*
G01*
X238000000Y-149000000D02*
G75*
G03*
X239000000Y-150000000I1000000J0D01*
G01*
X183000000Y-160000000D02*
G75*
G03*
X184000000Y-159000000I0J1000000D01*
G01*
X235000000Y-30000000D02*
G75*
G03*
X234000000Y-31000000I0J-1000000D01*
G01*
X239000000Y-126000000D02*
G75*
G03*
X238000000Y-127000000I0J-1000000D01*
G01*
X234000000Y-155000000D02*
G75*
G03*
X235000000Y-156000000I1000000J0D01*
G01*
X204000000Y-150000000D02*
G75*
G03*
X203000000Y-149000000I-1000000J0D01*
G01*
X184000000Y-35000000D02*
G75*
G03*
X185000000Y-36000000I1000000J0D01*
G01*
X239000000Y-126000000D02*
G75*
G03*
X240000000Y-125000000I0J1000000D01*
G01*
X239000000Y-36000000D02*
G75*
G03*
X238000000Y-37000000I0J-1000000D01*
G01*
X210000000Y-31000000D02*
G75*
G03*
X209000000Y-30000000I-1000000J0D01*
G01*
X211000000Y-150000000D02*
G75*
G03*
X210000000Y-151000000I0J-1000000D01*
G01*
X238000000Y-119000000D02*
G75*
G03*
X239000000Y-120000000I1000000J0D01*
G01*
X199000000Y-36000000D02*
G75*
G03*
X200000000Y-35000000I0J1000000D01*
G01*
X210000000Y-31000000D02*
G75*
G03*
X211000000Y-32000000I1000000J0D01*
G01*
X240000000Y-151000000D02*
G75*
G03*
X239000000Y-150000000I-1000000J0D01*
G01*
X185000000Y-149000000D02*
G75*
G03*
X184000000Y-150000000I0J-1000000D01*
G01*
X204000000Y-155000000D02*
G75*
G03*
X205000000Y-156000000I1000000J0D01*
G01*
X184000000Y-27000000D02*
G75*
G03*
X183000000Y-26000000I-1000000J0D01*
G01*
X50000000Y-159000000D02*
G75*
G03*
X51000000Y-160000000I999999J-1D01*
G01*
X233000000Y-32000000D02*
G75*
G03*
X234000000Y-31000000I0J1000000D01*
G01*
X239000000Y-156000000D02*
G75*
G03*
X240000000Y-155000000I0J1000000D01*
G01*
X239000000Y-36000000D02*
G75*
G03*
X240000000Y-35000000I0J1000000D01*
G01*
X239000000Y-66000000D02*
G75*
G03*
X238000000Y-67000000I0J-1000000D01*
G01*
X239000000Y-66000000D02*
G75*
G03*
X240000000Y-65000000I0J1000000D01*
G01*
X240000000Y-121000000D02*
G75*
G03*
X239000000Y-120000000I-1000000J0D01*
G01*
X201000000Y-30000000D02*
G75*
G03*
X200000000Y-31000000I0J-1000000D01*
G01*
X51000000Y-26000000D02*
G75*
G03*
X50000000Y-27000000I-1J-999999D01*
G01*
X234000000Y-151000000D02*
G75*
G03*
X233000000Y-150000000I-1000000J0D01*
G01*
X240000000Y-31000000D02*
G75*
G03*
X239000000Y-30000000I-1000000J0D01*
G01*
G04 #@! TA.AperFunction,ComponentPad*
G36*
G01*
X205000000Y-34800000D02*
X205000000Y-31200000D01*
G75*
G02*
X205200000Y-31000000I200000J0D01*
G01*
X208800000Y-31000000D01*
G75*
G02*
X209000000Y-31200000I0J-200000D01*
G01*
X209000000Y-34800000D01*
G75*
G02*
X208800000Y-35000000I-200000J0D01*
G01*
X205200000Y-35000000D01*
G75*
G02*
X205000000Y-34800000I0J200000D01*
G01*
G37*
G04 #@! TD.AperFunction*
G04 #@! TA.AperFunction,ComponentPad*
G36*
G01*
X205000000Y-154800000D02*
X205000000Y-151200000D01*
G75*
G02*
X205200000Y-151000000I200000J0D01*
G01*
X208800000Y-151000000D01*
G75*
G02*
X209000000Y-151200000I0J-200000D01*
G01*
X209000000Y-154800000D01*
G75*
G02*
X208800000Y-155000000I-200000J0D01*
G01*
X205200000Y-155000000D01*
G75*
G02*
X205000000Y-154800000I0J200000D01*
G01*
G37*
G04 #@! TD.AperFunction*
G04 #@! TA.AperFunction,ComponentPad*
G36*
G01*
X55000000Y-34800000D02*
X55000000Y-31200000D01*
G75*
G02*
X55200000Y-31000000I200000J0D01*
G01*
X58800000Y-31000000D01*
G75*
G02*
X59000000Y-31200000I0J-200000D01*
G01*
X59000000Y-34800000D01*
G75*
G02*
X58800000Y-35000000I-200000J0D01*
G01*
X55200000Y-35000000D01*
G75*
G02*
X55000000Y-34800000I0J200000D01*
G01*
G37*
G04 #@! TD.AperFunction*
G04 #@! TA.AperFunction,ComponentPad*
G36*
G01*
X235000000Y-64800000D02*
X235000000Y-61200000D01*
G75*
G02*
X235200000Y-61000000I200000J0D01*
G01*
X238800000Y-61000000D01*
G75*
G02*
X239000000Y-61200000I0J-200000D01*
G01*
X239000000Y-64800000D01*
G75*
G02*
X238800000Y-65000000I-200000J0D01*
G01*
X235200000Y-65000000D01*
G75*
G02*
X235000000Y-64800000I0J200000D01*
G01*
G37*
G04 #@! TD.AperFunction*
G04 #@! TA.AperFunction,ComponentPad*
G36*
G01*
X235000000Y-154800000D02*
X235000000Y-151200000D01*
G75*
G02*
X235200000Y-151000000I200000J0D01*
G01*
X238800000Y-151000000D01*
G75*
G02*
X239000000Y-151200000I0J-200000D01*
G01*
X239000000Y-154800000D01*
G75*
G02*
X238800000Y-155000000I-200000J0D01*
G01*
X235200000Y-155000000D01*
G75*
G02*
X235000000Y-154800000I0J200000D01*
G01*
G37*
G04 #@! TD.AperFunction*
G04 #@! TA.AperFunction,ComponentPad*
G36*
G01*
X175000000Y-64800000D02*
X175000000Y-61200000D01*
G75*
G02*
X175200000Y-61000000I200000J0D01*
G01*
X178800000Y-61000000D01*
G75*
G02*
X179000000Y-61200000I0J-200000D01*
G01*
X179000000Y-64800000D01*
G75*
G02*
X178800000Y-65000000I-200000J0D01*
G01*
X175200000Y-65000000D01*
G75*
G02*
X175000000Y-64800000I0J200000D01*
G01*
G37*
G04 #@! TD.AperFunction*
G04 #@! TA.AperFunction,ComponentPad*
G36*
G01*
X175000000Y-34800000D02*
X175000000Y-31200000D01*
G75*
G02*
X175200000Y-31000000I200000J0D01*
G01*
X178800000Y-31000000D01*
G75*
G02*
X179000000Y-31200000I0J-200000D01*
G01*
X179000000Y-34800000D01*
G75*
G02*
X178800000Y-35000000I-200000J0D01*
G01*
X175200000Y-35000000D01*
G75*
G02*
X175000000Y-34800000I0J200000D01*
G01*
G37*
G04 #@! TD.AperFunction*
G04 #@! TA.AperFunction,ComponentPad*
G36*
G01*
X235000000Y-124800000D02*
X235000000Y-121200000D01*
G75*
G02*
X235200000Y-121000000I200000J0D01*
G01*
X238800000Y-121000000D01*
G75*
G02*
X239000000Y-121200000I0J-200000D01*
G01*
X239000000Y-124800000D01*
G75*
G02*
X238800000Y-125000000I-200000J0D01*
G01*
X235200000Y-125000000D01*
G75*
G02*
X235000000Y-124800000I0J200000D01*
G01*
G37*
G04 #@! TD.AperFunction*
G04 #@! TA.AperFunction,ComponentPad*
G36*
G01*
X115000000Y-154800000D02*
X115000000Y-151200000D01*
G75*
G02*
X115200000Y-151000000I200000J0D01*
G01*
X118800000Y-151000000D01*
G75*
G02*
X119000000Y-151200000I0J-200000D01*
G01*
X119000000Y-154800000D01*
G75*
G02*
X118800000Y-155000000I-200000J0D01*
G01*
X115200000Y-155000000D01*
G75*
G02*
X115000000Y-154800000I0J200000D01*
G01*
G37*
G04 #@! TD.AperFunction*
G04 #@! TA.AperFunction,ComponentPad*
G36*
G01*
X55000000Y-64800000D02*
X55000000Y-61200000D01*
G75*
G02*
X55200000Y-61000000I200000J0D01*
G01*
X58800000Y-61000000D01*
G75*
G02*
X59000000Y-61200000I0J-200000D01*
G01*
X59000000Y-64800000D01*
G75*
G02*
X58800000Y-65000000I-200000J0D01*
G01*
X55200000Y-65000000D01*
G75*
G02*
X55000000Y-64800000I0J200000D01*
G01*
G37*
G04 #@! TD.AperFunction*
G04 #@! TA.AperFunction,ComponentPad*
G36*
G01*
X115000000Y-34800000D02*
X115000000Y-31200000D01*
G75*
G02*
X115200000Y-31000000I200000J0D01*
G01*
X118800000Y-31000000D01*
G75*
G02*
X119000000Y-31200000I0J-200000D01*
G01*
X119000000Y-34800000D01*
G75*
G02*
X118800000Y-35000000I-200000J0D01*
G01*
X115200000Y-35000000D01*
G75*
G02*
X115000000Y-34800000I0J200000D01*
G01*
G37*
G04 #@! TD.AperFunction*
G04 #@! TA.AperFunction,ComponentPad*
G36*
G01*
X115000000Y-124800000D02*
X115000000Y-121200000D01*
G75*
G02*
X115200000Y-121000000I200000J0D01*
G01*
X118800000Y-121000000D01*
G75*
G02*
X119000000Y-121200000I0J-200000D01*
G01*
X119000000Y-124800000D01*
G75*
G02*
X118800000Y-125000000I-200000J0D01*
G01*
X115200000Y-125000000D01*
G75*
G02*
X115000000Y-124800000I0J200000D01*
G01*
G37*
G04 #@! TD.AperFunction*
G04 #@! TA.AperFunction,ComponentPad*
G36*
G01*
X205000000Y-64800000D02*
X205000000Y-61200000D01*
G75*
G02*
X205200000Y-61000000I200000J0D01*
G01*
X208800000Y-61000000D01*
G75*
G02*
X209000000Y-61200000I0J-200000D01*
G01*
X209000000Y-64800000D01*
G75*
G02*
X208800000Y-65000000I-200000J0D01*
G01*
X205200000Y-65000000D01*
G75*
G02*
X205000000Y-64800000I0J200000D01*
G01*
G37*
G04 #@! TD.AperFunction*
G04 #@! TA.AperFunction,ComponentPad*
G36*
G01*
X175000000Y-154800000D02*
X175000000Y-151200000D01*
G75*
G02*
X175200000Y-151000000I200000J0D01*
G01*
X178800000Y-151000000D01*
G75*
G02*
X179000000Y-151200000I0J-200000D01*
G01*
X179000000Y-154800000D01*
G75*
G02*
X178800000Y-155000000I-200000J0D01*
G01*
X175200000Y-155000000D01*
G75*
G02*
X175000000Y-154800000I0J200000D01*
G01*
G37*
G04 #@! TD.AperFunction*
G04 #@! TA.AperFunction,ComponentPad*
G36*
G01*
X205000000Y-124800000D02*
X205000000Y-121200000D01*
G75*
G02*
X205200000Y-121000000I200000J0D01*
G01*
X208800000Y-121000000D01*
G75*
G02*
X209000000Y-121200000I0J-200000D01*
G01*
X209000000Y-124800000D01*
G75*
G02*
X208800000Y-125000000I-200000J0D01*
G01*
X205200000Y-125000000D01*
G75*
G02*
X205000000Y-124800000I0J200000D01*
G01*
G37*
G04 #@! TD.AperFunction*
G04 #@! TA.AperFunction,ComponentPad*
G36*
G01*
X175000000Y-124800000D02*
X175000000Y-121200000D01*
G75*
G02*
X175200000Y-121000000I200000J0D01*
G01*
X178800000Y-121000000D01*
G75*
G02*
X179000000Y-121200000I0J-200000D01*
G01*
X179000000Y-124800000D01*
G75*
G02*
X178800000Y-125000000I-200000J0D01*
G01*
X175200000Y-125000000D01*
G75*
G02*
X175000000Y-124800000I0J200000D01*
G01*
G37*
G04 #@! TD.AperFunction*
G04 #@! TA.AperFunction,ComponentPad*
G36*
G01*
X235000000Y-34800000D02*
X235000000Y-31200000D01*
G75*
G02*
X235200000Y-31000000I200000J0D01*
G01*
X238800000Y-31000000D01*
G75*
G02*
X239000000Y-31200000I0J-200000D01*
G01*
X239000000Y-34800000D01*
G75*
G02*
X238800000Y-35000000I-200000J0D01*
G01*
X235200000Y-35000000D01*
G75*
G02*
X235000000Y-34800000I0J200000D01*
G01*
G37*
G04 #@! TD.AperFunction*
G04 #@! TA.AperFunction,ComponentPad*
G36*
G01*
X115000000Y-64800000D02*
X115000000Y-61200000D01*
G75*
G02*
X115200000Y-61000000I200000J0D01*
G01*
X118800000Y-61000000D01*
G75*
G02*
X119000000Y-61200000I0J-200000D01*
G01*
X119000000Y-64800000D01*
G75*
G02*
X118800000Y-65000000I-200000J0D01*
G01*
X115200000Y-65000000D01*
G75*
G02*
X115000000Y-64800000I0J200000D01*
G01*
G37*
G04 #@! TD.AperFunction*
G04 #@! TA.AperFunction,ComponentPad*
G36*
G01*
X55000000Y-124800000D02*
X55000000Y-121200000D01*
G75*
G02*
X55200000Y-121000000I200000J0D01*
G01*
X58800000Y-121000000D01*
G75*
G02*
X59000000Y-121200000I0J-200000D01*
G01*
X59000000Y-124800000D01*
G75*
G02*
X58800000Y-125000000I-200000J0D01*
G01*
X55200000Y-125000000D01*
G75*
G02*
X55000000Y-124800000I0J200000D01*
G01*
G37*
G04 #@! TD.AperFunction*
G04 #@! TA.AperFunction,ComponentPad*
G36*
G01*
X55000000Y-154800000D02*
X55000000Y-151200000D01*
G75*
G02*
X55200000Y-151000000I200000J0D01*
G01*
X58800000Y-151000000D01*
G75*
G02*
X59000000Y-151200000I0J-200000D01*
G01*
X59000000Y-154800000D01*
G75*
G02*
X58800000Y-155000000I-200000J0D01*
G01*
X55200000Y-155000000D01*
G75*
G02*
X55000000Y-154800000I0J200000D01*
G01*
G37*
G04 #@! TD.AperFunction*
G04 #@! TA.AperFunction,SMDPad,CuDef*
G36*
G01*
X79250000Y-44400000D02*
X79250000Y-45600000D01*
G75*
G02*
X79100000Y-45750000I-150000J0D01*
G01*
X66900000Y-45750000D01*
G75*
G02*
X66750000Y-45600000I0J150000D01*
G01*
X66750000Y-44400000D01*
G75*
G02*
X66900000Y-44250000I150000J0D01*
G01*
X79100000Y-44250000D01*
G75*
G02*
X79250000Y-44400000I0J-150000D01*
G01*
G37*
G04 #@! TD.AperFunction*
G04 #@! TA.AperFunction,SMDPad,CuDef*
G36*
G01*
X107250000Y-44400000D02*
X107250000Y-45600000D01*
G75*
G02*
X107100000Y-45750000I-150000J0D01*
G01*
X94900000Y-45750000D01*
G75*
G02*
X94750000Y-45600000I0J150000D01*
G01*
X94750000Y-44400000D01*
G75*
G02*
X94900000Y-44250000I150000J0D01*
G01*
X107100000Y-44250000D01*
G75*
G02*
X107250000Y-44400000I0J-150000D01*
G01*
G37*
G04 #@! TD.AperFunction*
G04 #@! TA.AperFunction,SMDPad,CuDef*
G36*
G01*
X61600000Y-133250000D02*
X60400000Y-133250000D01*
G75*
G02*
X60250000Y-133100000I0J150000D01*
G01*
X60250000Y-120900000D01*
G75*
G02*
X60400000Y-120750000I150000J0D01*
G01*
X61600000Y-120750000D01*
G75*
G02*
X61750000Y-120900000I0J-150000D01*
G01*
X61750000Y-133100000D01*
G75*
G02*
X61600000Y-133250000I-150000J0D01*
G01*
G37*
G04 #@! TD.AperFunction*
G04 #@! TA.AperFunction,SMDPad,CuDef*
G36*
G01*
X112400000Y-135750000D02*
X113600000Y-135750000D01*
G75*
G02*
X113750000Y-135900000I0J-150000D01*
G01*
X113750000Y-148100000D01*
G75*
G02*
X113600000Y-148250000I-150000J0D01*
G01*
X112400000Y-148250000D01*
G75*
G02*
X112250000Y-148100000I0J150000D01*
G01*
X112250000Y-135900000D01*
G75*
G02*
X112400000Y-135750000I150000J0D01*
G01*
G37*
G04 #@! TD.AperFunction*
G04 #@! TA.AperFunction,SMDPad,CuDef*
G36*
G01*
X216400000Y-86750000D02*
X217600000Y-86750000D01*
G75*
G02*
X217750000Y-86900000I0J-150000D01*
G01*
X217750000Y-99100000D01*
G75*
G02*
X217600000Y-99250000I-150000J0D01*
G01*
X216400000Y-99250000D01*
G75*
G02*
X216250000Y-99100000I0J150000D01*
G01*
X216250000Y-86900000D01*
G75*
G02*
X216400000Y-86750000I150000J0D01*
G01*
G37*
G04 #@! TD.AperFunction*
G04 #@! TA.AperFunction,SMDPad,CuDef*
G36*
G01*
X60400000Y-135750000D02*
X61600000Y-135750000D01*
G75*
G02*
X61750000Y-135900000I0J-150000D01*
G01*
X61750000Y-148100000D01*
G75*
G02*
X61600000Y-148250000I-150000J0D01*
G01*
X60400000Y-148250000D01*
G75*
G02*
X60250000Y-148100000I0J150000D01*
G01*
X60250000Y-135900000D01*
G75*
G02*
X60400000Y-135750000I150000J0D01*
G01*
G37*
G04 #@! TD.AperFunction*
G04 #@! TA.AperFunction,SMDPad,CuDef*
G36*
G01*
X60400000Y-105750000D02*
X61600000Y-105750000D01*
G75*
G02*
X61750000Y-105900000I0J-150000D01*
G01*
X61750000Y-118100000D01*
G75*
G02*
X61600000Y-118250000I-150000J0D01*
G01*
X60400000Y-118250000D01*
G75*
G02*
X60250000Y-118100000I0J150000D01*
G01*
X60250000Y-105900000D01*
G75*
G02*
X60400000Y-105750000I150000J0D01*
G01*
G37*
G04 #@! TD.AperFunction*
G04 #@! TA.AperFunction,SMDPad,CuDef*
G36*
G01*
X86400000Y-75750000D02*
X87600000Y-75750000D01*
G75*
G02*
X87750000Y-75900000I0J-150000D01*
G01*
X87750000Y-88100000D01*
G75*
G02*
X87600000Y-88250000I-150000J0D01*
G01*
X86400000Y-88250000D01*
G75*
G02*
X86250000Y-88100000I0J150000D01*
G01*
X86250000Y-75900000D01*
G75*
G02*
X86400000Y-75750000I150000J0D01*
G01*
G37*
G04 #@! TD.AperFunction*
G04 #@! TA.AperFunction,SMDPad,CuDef*
G36*
G01*
X60400000Y-60750000D02*
X61600000Y-60750000D01*
G75*
G02*
X61750000Y-60900000I0J-150000D01*
G01*
X61750000Y-73100000D01*
G75*
G02*
X61600000Y-73250000I-150000J0D01*
G01*
X60400000Y-73250000D01*
G75*
G02*
X60250000Y-73100000I0J150000D01*
G01*
X60250000Y-60900000D01*
G75*
G02*
X60400000Y-60750000I150000J0D01*
G01*
G37*
G04 #@! TD.AperFunction*
G04 #@! TA.AperFunction,SMDPad,CuDef*
G36*
G01*
X216400000Y-50750000D02*
X217600000Y-50750000D01*
G75*
G02*
X217750000Y-50900000I0J-150000D01*
G01*
X217750000Y-63100000D01*
G75*
G02*
X217600000Y-63250000I-150000J0D01*
G01*
X216400000Y-63250000D01*
G75*
G02*
X216250000Y-63100000I0J150000D01*
G01*
X216250000Y-50900000D01*
G75*
G02*
X216400000Y-50750000I150000J0D01*
G01*
G37*
G04 #@! TD.AperFunction*
G04 #@! TA.AperFunction,SMDPad,CuDef*
G36*
G01*
X227250000Y-45400000D02*
X227250000Y-46600000D01*
G75*
G02*
X227100000Y-46750000I-150000J0D01*
G01*
X214900000Y-46750000D01*
G75*
G02*
X214750000Y-46600000I0J150000D01*
G01*
X214750000Y-45400000D01*
G75*
G02*
X214900000Y-45250000I150000J0D01*
G01*
X227100000Y-45250000D01*
G75*
G02*
X227250000Y-45400000I0J-150000D01*
G01*
G37*
G04 #@! TD.AperFunction*
G04 #@! TA.AperFunction,SMDPad,CuDef*
G36*
G01*
X112400000Y-46750000D02*
X113600000Y-46750000D01*
G75*
G02*
X113750000Y-46900000I0J-150000D01*
G01*
X113750000Y-59100000D01*
G75*
G02*
X113600000Y-59250000I-150000J0D01*
G01*
X112400000Y-59250000D01*
G75*
G02*
X112250000Y-59100000I0J150000D01*
G01*
X112250000Y-46900000D01*
G75*
G02*
X112400000Y-46750000I150000J0D01*
G01*
G37*
G04 #@! TD.AperFunction*
G04 #@! TA.AperFunction,SMDPad,CuDef*
G36*
G01*
X60400000Y-46750000D02*
X61600000Y-46750000D01*
G75*
G02*
X61750000Y-46900000I0J-150000D01*
G01*
X61750000Y-59100000D01*
G75*
G02*
X61600000Y-59250000I-150000J0D01*
G01*
X60400000Y-59250000D01*
G75*
G02*
X60250000Y-59100000I0J150000D01*
G01*
X60250000Y-46900000D01*
G75*
G02*
X60400000Y-46750000I150000J0D01*
G01*
G37*
G04 #@! TD.AperFunction*
G04 #@! TA.AperFunction,SMDPad,CuDef*
G36*
G01*
X86400000Y-135750000D02*
X87600000Y-135750000D01*
G75*
G02*
X87750000Y-135900000I0J-150000D01*
G01*
X87750000Y-148100000D01*
G75*
G02*
X87600000Y-148250000I-150000J0D01*
G01*
X86400000Y-148250000D01*
G75*
G02*
X86250000Y-148100000I0J150000D01*
G01*
X86250000Y-135900000D01*
G75*
G02*
X86400000Y-135750000I150000J0D01*
G01*
G37*
G04 #@! TD.AperFunction*
G04 #@! TA.AperFunction,SMDPad,CuDef*
G36*
G01*
X216400000Y-68750000D02*
X217600000Y-68750000D01*
G75*
G02*
X217750000Y-68900000I0J-150000D01*
G01*
X217750000Y-81100000D01*
G75*
G02*
X217600000Y-81250000I-150000J0D01*
G01*
X216400000Y-81250000D01*
G75*
G02*
X216250000Y-81100000I0J150000D01*
G01*
X216250000Y-68900000D01*
G75*
G02*
X216400000Y-68750000I150000J0D01*
G01*
G37*
G04 #@! TD.AperFunction*
G04 #@! TA.AperFunction,SMDPad,CuDef*
G36*
G01*
X112400000Y-75750000D02*
X113600000Y-75750000D01*
G75*
G02*
X113750000Y-75900000I0J-150000D01*
G01*
X113750000Y-88100000D01*
G75*
G02*
X113600000Y-88250000I-150000J0D01*
G01*
X112400000Y-88250000D01*
G75*
G02*
X112250000Y-88100000I0J150000D01*
G01*
X112250000Y-75900000D01*
G75*
G02*
X112400000Y-75750000I150000J0D01*
G01*
G37*
G04 #@! TD.AperFunction*
G04 #@! TA.AperFunction,SMDPad,CuDef*
G36*
G01*
X86400000Y-60750000D02*
X87600000Y-60750000D01*
G75*
G02*
X87750000Y-60900000I0J-150000D01*
G01*
X87750000Y-73100000D01*
G75*
G02*
X87600000Y-73250000I-150000J0D01*
G01*
X86400000Y-73250000D01*
G75*
G02*
X86250000Y-73100000I0J150000D01*
G01*
X86250000Y-60900000D01*
G75*
G02*
X86400000Y-60750000I150000J0D01*
G01*
G37*
G04 #@! TD.AperFunction*
G04 #@! TA.AperFunction,SMDPad,CuDef*
G36*
G01*
X112400000Y-60750000D02*
X113600000Y-60750000D01*
G75*
G02*
X113750000Y-60900000I0J-150000D01*
G01*
X113750000Y-73100000D01*
G75*
G02*
X113600000Y-73250000I-150000J0D01*
G01*
X112400000Y-73250000D01*
G75*
G02*
X112250000Y-73100000I0J150000D01*
G01*
X112250000Y-60900000D01*
G75*
G02*
X112400000Y-60750000I150000J0D01*
G01*
G37*
G04 #@! TD.AperFunction*
G04 #@! TA.AperFunction,SMDPad,CuDef*
G36*
G01*
X86400000Y-120750000D02*
X87600000Y-120750000D01*
G75*
G02*
X87750000Y-120900000I0J-150000D01*
G01*
X87750000Y-133100000D01*
G75*
G02*
X87600000Y-133250000I-150000J0D01*
G01*
X86400000Y-133250000D01*
G75*
G02*
X86250000Y-133100000I0J150000D01*
G01*
X86250000Y-120900000D01*
G75*
G02*
X86400000Y-120750000I150000J0D01*
G01*
G37*
G04 #@! TD.AperFunction*
G04 #@! TA.AperFunction,SMDPad,CuDef*
G36*
G01*
X60400000Y-75750000D02*
X61600000Y-75750000D01*
G75*
G02*
X61750000Y-75900000I0J-150000D01*
G01*
X61750000Y-88100000D01*
G75*
G02*
X61600000Y-88250000I-150000J0D01*
G01*
X60400000Y-88250000D01*
G75*
G02*
X60250000Y-88100000I0J150000D01*
G01*
X60250000Y-75900000D01*
G75*
G02*
X60400000Y-75750000I150000J0D01*
G01*
G37*
G04 #@! TD.AperFunction*
G04 #@! TA.AperFunction,SMDPad,CuDef*
G36*
G01*
X112400000Y-120750000D02*
X113600000Y-120750000D01*
G75*
G02*
X113750000Y-120900000I0J-150000D01*
G01*
X113750000Y-133100000D01*
G75*
G02*
X113600000Y-133250000I-150000J0D01*
G01*
X112400000Y-133250000D01*
G75*
G02*
X112250000Y-133100000I0J150000D01*
G01*
X112250000Y-120900000D01*
G75*
G02*
X112400000Y-120750000I150000J0D01*
G01*
G37*
G04 #@! TD.AperFunction*
G04 #@! TA.AperFunction,SMDPad,CuDef*
G36*
G01*
X163250000Y-37400000D02*
X163250000Y-38600000D01*
G75*
G02*
X163100000Y-38750000I-150000J0D01*
G01*
X150900000Y-38750000D01*
G75*
G02*
X150750000Y-38600000I0J150000D01*
G01*
X150750000Y-37400000D01*
G75*
G02*
X150900000Y-37250000I150000J0D01*
G01*
X163100000Y-37250000D01*
G75*
G02*
X163250000Y-37400000I0J-150000D01*
G01*
G37*
G04 #@! TD.AperFunction*
G04 #@! TA.AperFunction,SMDPad,CuDef*
G36*
G01*
X216400000Y-104750000D02*
X217600000Y-104750000D01*
G75*
G02*
X217750000Y-104900000I0J-150000D01*
G01*
X217750000Y-117100000D01*
G75*
G02*
X217600000Y-117250000I-150000J0D01*
G01*
X216400000Y-117250000D01*
G75*
G02*
X216250000Y-117100000I0J150000D01*
G01*
X216250000Y-104900000D01*
G75*
G02*
X216400000Y-104750000I150000J0D01*
G01*
G37*
G04 #@! TD.AperFunction*
G04 #@! TA.AperFunction,SMDPad,CuDef*
G36*
G01*
X112400000Y-90750000D02*
X113600000Y-90750000D01*
G75*
G02*
X113750000Y-90900000I0J-150000D01*
G01*
X113750000Y-103100000D01*
G75*
G02*
X113600000Y-103250000I-150000J0D01*
G01*
X112400000Y-103250000D01*
G75*
G02*
X112250000Y-103100000I0J150000D01*
G01*
X112250000Y-90900000D01*
G75*
G02*
X112400000Y-90750000I150000J0D01*
G01*
G37*
G04 #@! TD.AperFunction*
G04 #@! TA.AperFunction,SMDPad,CuDef*
G36*
G01*
X86400000Y-105750000D02*
X87600000Y-105750000D01*
G75*
G02*
X87750000Y-105900000I0J-150000D01*
G01*
X87750000Y-118100000D01*
G75*
G02*
X87600000Y-118250000I-150000J0D01*
G01*
X86400000Y-118250000D01*
G75*
G02*
X86250000Y-118100000I0J150000D01*
G01*
X86250000Y-105900000D01*
G75*
G02*
X86400000Y-105750000I150000J0D01*
G01*
G37*
G04 #@! TD.AperFunction*
G04 #@! TA.AperFunction,SMDPad,CuDef*
G36*
G01*
X112400000Y-105750000D02*
X113600000Y-105750000D01*
G75*
G02*
X113750000Y-105900000I0J-150000D01*
G01*
X113750000Y-118100000D01*
G75*
G02*
X113600000Y-118250000I-150000J0D01*
G01*
X112400000Y-118250000D01*
G75*
G02*
X112250000Y-118100000I0J150000D01*
G01*
X112250000Y-105900000D01*
G75*
G02*
X112400000Y-105750000I150000J0D01*
G01*
G37*
G04 #@! TD.AperFunction*
G04 #@! TA.AperFunction,SMDPad,CuDef*
G36*
G01*
X86400000Y-90750000D02*
X87600000Y-90750000D01*
G75*
G02*
X87750000Y-90900000I0J-150000D01*
G01*
X87750000Y-103100000D01*
G75*
G02*
X87600000Y-103250000I-150000J0D01*
G01*
X86400000Y-103250000D01*
G75*
G02*
X86250000Y-103100000I0J150000D01*
G01*
X86250000Y-90900000D01*
G75*
G02*
X86400000Y-90750000I150000J0D01*
G01*
G37*
G04 #@! TD.AperFunction*
G04 #@! TA.AperFunction,SMDPad,CuDef*
G36*
G01*
X86400000Y-46750000D02*
X87600000Y-46750000D01*
G75*
G02*
X87750000Y-46900000I0J-150000D01*
G01*
X87750000Y-59100000D01*
G75*
G02*
X87600000Y-59250000I-150000J0D01*
G01*
X86400000Y-59250000D01*
G75*
G02*
X86250000Y-59100000I0J150000D01*
G01*
X86250000Y-46900000D01*
G75*
G02*
X86400000Y-46750000I150000J0D01*
G01*
G37*
G04 #@! TD.AperFunction*
G04 #@! TA.AperFunction,SMDPad,CuDef*
G36*
G01*
X60400000Y-90750000D02*
X61600000Y-90750000D01*
G75*
G02*
X61750000Y-90900000I0J-150000D01*
G01*
X61750000Y-103100000D01*
G75*
G02*
X61600000Y-103250000I-150000J0D01*
G01*
X60400000Y-103250000D01*
G75*
G02*
X60250000Y-103100000I0J150000D01*
G01*
X60250000Y-90900000D01*
G75*
G02*
X60400000Y-90750000I150000J0D01*
G01*
G37*
G04 #@! TD.AperFunction*
G04 #@! TA.AperFunction,SMDPad,CuDef*
G36*
G01*
X140250000Y-37400000D02*
X140250000Y-38600000D01*
G75*
G02*
X140100000Y-38750000I-150000J0D01*
G01*
X127900000Y-38750000D01*
G75*
G02*
X127750000Y-38600000I0J150000D01*
G01*
X127750000Y-37400000D01*
G75*
G02*
X127900000Y-37250000I150000J0D01*
G01*
X140100000Y-37250000D01*
G75*
G02*
X140250000Y-37400000I0J-150000D01*
G01*
G37*
G04 #@! TD.AperFunction*
G04 #@! TA.AperFunction,SMDPad,CuDef*
G36*
G01*
X193250000Y-57400000D02*
X193250000Y-58600000D01*
G75*
G02*
X193100000Y-58750000I-150000J0D01*
G01*
X180900000Y-58750000D01*
G75*
G02*
X180750000Y-58600000I0J150000D01*
G01*
X180750000Y-57400000D01*
G75*
G02*
X180900000Y-57250000I150000J0D01*
G01*
X193100000Y-57250000D01*
G75*
G02*
X193250000Y-57400000I0J-150000D01*
G01*
G37*
G04 #@! TD.AperFunction*
M02*
