G04 #@! TF.GenerationSoftware,KiCad,Pcbnew,6.0.10+dfsg-1~bpo11+1*
G04 #@! TF.ProjectId,storage,73746f72-6167-4652-9e6b-696361645f70,5.0*
G04 #@! TF.SameCoordinates,Original*
G04 #@! TF.FileFunction,Soldermask,Bot*
G04 #@! TF.FilePolarity,Negative*
%FSLAX46Y46*%
G04 Gerber Fmt 4.6, Leading zero omitted, Abs format (unit mm)*
%MOMM*%
%LPD*%
G01*
G04 APERTURE LIST*
G04 #@! TA.AperFunction,Profile*
%ADD10C,0.120000*%
G04 #@! TD*
G04 APERTURE END LIST*
D10*
X203000000Y-149000000D02*
X185000000Y-149000000D01*
X240000000Y-151000000D02*
X240000000Y-155000000D01*
X210000000Y-151000000D02*
X210000000Y-155000000D01*
X209000000Y-156000000D02*
X205000000Y-156000000D01*
X240000000Y-121000000D02*
X240000000Y-125000000D01*
X201000000Y-30000000D02*
X209000000Y-30000000D01*
X185000000Y-36000000D02*
X199000000Y-36000000D01*
X233000000Y-150000000D02*
X211000000Y-150000000D01*
X240000000Y-31000000D02*
X240000000Y-35000000D01*
X239000000Y-156000000D02*
X235000000Y-156000000D01*
X238000000Y-67000000D02*
X238000000Y-119000000D01*
X184000000Y-150000000D02*
X184000000Y-159000000D01*
X200000000Y-35000000D02*
X200000000Y-31000000D01*
X183000000Y-160000000D02*
X51000000Y-160000000D01*
X234000000Y-155000000D02*
X234000000Y-151000000D01*
X204000000Y-155000000D02*
X204000000Y-150000000D01*
X51000000Y-26000000D02*
X183000000Y-26000000D01*
X184000000Y-27000000D02*
X184000000Y-35000000D01*
X235000000Y-30000000D02*
X239000000Y-30000000D01*
X211000000Y-32000000D02*
X233000000Y-32000000D01*
X238000000Y-127000000D02*
X238000000Y-149000000D01*
X238000000Y-37000000D02*
X238000000Y-59000000D01*
X240000000Y-61000000D02*
X240000000Y-65000000D01*
X50000000Y-159000000D02*
X50000000Y-27000000D01*
X239000000Y-36000000D02*
G75*
G03*
X240000000Y-35000000I0J1000000D01*
G01*
X211000000Y-150000000D02*
G75*
G03*
X210000000Y-151000000I0J-1000000D01*
G01*
X204000000Y-155000000D02*
G75*
G03*
X205000000Y-156000000I1000000J0D01*
G01*
X184000000Y-27000000D02*
G75*
G03*
X183000000Y-26000000I-1000000J0D01*
G01*
X240000000Y-121000000D02*
G75*
G03*
X239000000Y-120000000I-1000000J0D01*
G01*
X238000000Y-59000000D02*
G75*
G03*
X239000000Y-60000000I1000000J0D01*
G01*
X239000000Y-36000000D02*
G75*
G03*
X238000000Y-37000000I0J-1000000D01*
G01*
X239000000Y-126000000D02*
G75*
G03*
X240000000Y-125000000I0J1000000D01*
G01*
X240000000Y-61000000D02*
G75*
G03*
X239000000Y-60000000I-1000000J0D01*
G01*
X199000000Y-36000000D02*
G75*
G03*
X200000000Y-35000000I0J1000000D01*
G01*
X233000000Y-32000000D02*
G75*
G03*
X234000000Y-31000000I0J1000000D01*
G01*
X210000000Y-31000000D02*
G75*
G03*
X209000000Y-30000000I-1000000J0D01*
G01*
X210000000Y-31000000D02*
G75*
G03*
X211000000Y-32000000I1000000J0D01*
G01*
X185000000Y-149000000D02*
G75*
G03*
X184000000Y-150000000I0J-1000000D01*
G01*
X238000000Y-149000000D02*
G75*
G03*
X239000000Y-150000000I1000000J0D01*
G01*
X201000000Y-30000000D02*
G75*
G03*
X200000000Y-31000000I0J-1000000D01*
G01*
X234000000Y-155000000D02*
G75*
G03*
X235000000Y-156000000I1000000J0D01*
G01*
X239000000Y-156000000D02*
G75*
G03*
X240000000Y-155000000I0J1000000D01*
G01*
X238000000Y-119000000D02*
G75*
G03*
X239000000Y-120000000I1000000J0D01*
G01*
X239000000Y-126000000D02*
G75*
G03*
X238000000Y-127000000I0J-1000000D01*
G01*
X240000000Y-31000000D02*
G75*
G03*
X239000000Y-30000000I-1000000J0D01*
G01*
X204000000Y-150000000D02*
G75*
G03*
X203000000Y-149000000I-1000000J0D01*
G01*
X50000000Y-159000000D02*
G75*
G03*
X51000000Y-160000000I999999J-1D01*
G01*
X234000000Y-151000000D02*
G75*
G03*
X233000000Y-150000000I-1000000J0D01*
G01*
X209000000Y-156000000D02*
G75*
G03*
X210000000Y-155000000I0J1000000D01*
G01*
X51000000Y-26000000D02*
G75*
G03*
X50000000Y-27000000I-1J-999999D01*
G01*
X239000000Y-66000000D02*
G75*
G03*
X240000000Y-65000000I0J1000000D01*
G01*
X184000000Y-35000000D02*
G75*
G03*
X185000000Y-36000000I1000000J0D01*
G01*
X235000000Y-30000000D02*
G75*
G03*
X234000000Y-31000000I0J-1000000D01*
G01*
X239000000Y-66000000D02*
G75*
G03*
X238000000Y-67000000I0J-1000000D01*
G01*
X183000000Y-160000000D02*
G75*
G03*
X184000000Y-159000000I0J1000000D01*
G01*
X240000000Y-151000000D02*
G75*
G03*
X239000000Y-150000000I-1000000J0D01*
G01*
G36*
G01*
X235000000Y-64800000D02*
X235000000Y-61200000D01*
G75*
G02*
X235200000Y-61000000I200000J0D01*
G01*
X238800000Y-61000000D01*
G75*
G02*
X239000000Y-61200000I0J-200000D01*
G01*
X239000000Y-64800000D01*
G75*
G02*
X238800000Y-65000000I-200000J0D01*
G01*
X235200000Y-65000000D01*
G75*
G02*
X235000000Y-64800000I0J200000D01*
G01*
G37*
G36*
G01*
X205000000Y-34800000D02*
X205000000Y-31200000D01*
G75*
G02*
X205200000Y-31000000I200000J0D01*
G01*
X208800000Y-31000000D01*
G75*
G02*
X209000000Y-31200000I0J-200000D01*
G01*
X209000000Y-34800000D01*
G75*
G02*
X208800000Y-35000000I-200000J0D01*
G01*
X205200000Y-35000000D01*
G75*
G02*
X205000000Y-34800000I0J200000D01*
G01*
G37*
G36*
G01*
X55000000Y-154800000D02*
X55000000Y-151200000D01*
G75*
G02*
X55200000Y-151000000I200000J0D01*
G01*
X58800000Y-151000000D01*
G75*
G02*
X59000000Y-151200000I0J-200000D01*
G01*
X59000000Y-154800000D01*
G75*
G02*
X58800000Y-155000000I-200000J0D01*
G01*
X55200000Y-155000000D01*
G75*
G02*
X55000000Y-154800000I0J200000D01*
G01*
G37*
G36*
G01*
X205000000Y-124800000D02*
X205000000Y-121200000D01*
G75*
G02*
X205200000Y-121000000I200000J0D01*
G01*
X208800000Y-121000000D01*
G75*
G02*
X209000000Y-121200000I0J-200000D01*
G01*
X209000000Y-124800000D01*
G75*
G02*
X208800000Y-125000000I-200000J0D01*
G01*
X205200000Y-125000000D01*
G75*
G02*
X205000000Y-124800000I0J200000D01*
G01*
G37*
G36*
G01*
X235000000Y-154800000D02*
X235000000Y-151200000D01*
G75*
G02*
X235200000Y-151000000I200000J0D01*
G01*
X238800000Y-151000000D01*
G75*
G02*
X239000000Y-151200000I0J-200000D01*
G01*
X239000000Y-154800000D01*
G75*
G02*
X238800000Y-155000000I-200000J0D01*
G01*
X235200000Y-155000000D01*
G75*
G02*
X235000000Y-154800000I0J200000D01*
G01*
G37*
G36*
G01*
X55000000Y-64800000D02*
X55000000Y-61200000D01*
G75*
G02*
X55200000Y-61000000I200000J0D01*
G01*
X58800000Y-61000000D01*
G75*
G02*
X59000000Y-61200000I0J-200000D01*
G01*
X59000000Y-64800000D01*
G75*
G02*
X58800000Y-65000000I-200000J0D01*
G01*
X55200000Y-65000000D01*
G75*
G02*
X55000000Y-64800000I0J200000D01*
G01*
G37*
G36*
G01*
X115000000Y-154800000D02*
X115000000Y-151200000D01*
G75*
G02*
X115200000Y-151000000I200000J0D01*
G01*
X118800000Y-151000000D01*
G75*
G02*
X119000000Y-151200000I0J-200000D01*
G01*
X119000000Y-154800000D01*
G75*
G02*
X118800000Y-155000000I-200000J0D01*
G01*
X115200000Y-155000000D01*
G75*
G02*
X115000000Y-154800000I0J200000D01*
G01*
G37*
G36*
G01*
X205000000Y-154800000D02*
X205000000Y-151200000D01*
G75*
G02*
X205200000Y-151000000I200000J0D01*
G01*
X208800000Y-151000000D01*
G75*
G02*
X209000000Y-151200000I0J-200000D01*
G01*
X209000000Y-154800000D01*
G75*
G02*
X208800000Y-155000000I-200000J0D01*
G01*
X205200000Y-155000000D01*
G75*
G02*
X205000000Y-154800000I0J200000D01*
G01*
G37*
G36*
G01*
X175000000Y-154800000D02*
X175000000Y-151200000D01*
G75*
G02*
X175200000Y-151000000I200000J0D01*
G01*
X178800000Y-151000000D01*
G75*
G02*
X179000000Y-151200000I0J-200000D01*
G01*
X179000000Y-154800000D01*
G75*
G02*
X178800000Y-155000000I-200000J0D01*
G01*
X175200000Y-155000000D01*
G75*
G02*
X175000000Y-154800000I0J200000D01*
G01*
G37*
G36*
G01*
X235000000Y-34800000D02*
X235000000Y-31200000D01*
G75*
G02*
X235200000Y-31000000I200000J0D01*
G01*
X238800000Y-31000000D01*
G75*
G02*
X239000000Y-31200000I0J-200000D01*
G01*
X239000000Y-34800000D01*
G75*
G02*
X238800000Y-35000000I-200000J0D01*
G01*
X235200000Y-35000000D01*
G75*
G02*
X235000000Y-34800000I0J200000D01*
G01*
G37*
G36*
G01*
X55000000Y-124800000D02*
X55000000Y-121200000D01*
G75*
G02*
X55200000Y-121000000I200000J0D01*
G01*
X58800000Y-121000000D01*
G75*
G02*
X59000000Y-121200000I0J-200000D01*
G01*
X59000000Y-124800000D01*
G75*
G02*
X58800000Y-125000000I-200000J0D01*
G01*
X55200000Y-125000000D01*
G75*
G02*
X55000000Y-124800000I0J200000D01*
G01*
G37*
G36*
G01*
X115000000Y-34800000D02*
X115000000Y-31200000D01*
G75*
G02*
X115200000Y-31000000I200000J0D01*
G01*
X118800000Y-31000000D01*
G75*
G02*
X119000000Y-31200000I0J-200000D01*
G01*
X119000000Y-34800000D01*
G75*
G02*
X118800000Y-35000000I-200000J0D01*
G01*
X115200000Y-35000000D01*
G75*
G02*
X115000000Y-34800000I0J200000D01*
G01*
G37*
G36*
G01*
X205000000Y-64800000D02*
X205000000Y-61200000D01*
G75*
G02*
X205200000Y-61000000I200000J0D01*
G01*
X208800000Y-61000000D01*
G75*
G02*
X209000000Y-61200000I0J-200000D01*
G01*
X209000000Y-64800000D01*
G75*
G02*
X208800000Y-65000000I-200000J0D01*
G01*
X205200000Y-65000000D01*
G75*
G02*
X205000000Y-64800000I0J200000D01*
G01*
G37*
G36*
G01*
X175000000Y-124800000D02*
X175000000Y-121200000D01*
G75*
G02*
X175200000Y-121000000I200000J0D01*
G01*
X178800000Y-121000000D01*
G75*
G02*
X179000000Y-121200000I0J-200000D01*
G01*
X179000000Y-124800000D01*
G75*
G02*
X178800000Y-125000000I-200000J0D01*
G01*
X175200000Y-125000000D01*
G75*
G02*
X175000000Y-124800000I0J200000D01*
G01*
G37*
G36*
G01*
X175000000Y-34800000D02*
X175000000Y-31200000D01*
G75*
G02*
X175200000Y-31000000I200000J0D01*
G01*
X178800000Y-31000000D01*
G75*
G02*
X179000000Y-31200000I0J-200000D01*
G01*
X179000000Y-34800000D01*
G75*
G02*
X178800000Y-35000000I-200000J0D01*
G01*
X175200000Y-35000000D01*
G75*
G02*
X175000000Y-34800000I0J200000D01*
G01*
G37*
G36*
G01*
X235000000Y-124800000D02*
X235000000Y-121200000D01*
G75*
G02*
X235200000Y-121000000I200000J0D01*
G01*
X238800000Y-121000000D01*
G75*
G02*
X239000000Y-121200000I0J-200000D01*
G01*
X239000000Y-124800000D01*
G75*
G02*
X238800000Y-125000000I-200000J0D01*
G01*
X235200000Y-125000000D01*
G75*
G02*
X235000000Y-124800000I0J200000D01*
G01*
G37*
G36*
G01*
X115000000Y-64800000D02*
X115000000Y-61200000D01*
G75*
G02*
X115200000Y-61000000I200000J0D01*
G01*
X118800000Y-61000000D01*
G75*
G02*
X119000000Y-61200000I0J-200000D01*
G01*
X119000000Y-64800000D01*
G75*
G02*
X118800000Y-65000000I-200000J0D01*
G01*
X115200000Y-65000000D01*
G75*
G02*
X115000000Y-64800000I0J200000D01*
G01*
G37*
G36*
G01*
X115000000Y-124800000D02*
X115000000Y-121200000D01*
G75*
G02*
X115200000Y-121000000I200000J0D01*
G01*
X118800000Y-121000000D01*
G75*
G02*
X119000000Y-121200000I0J-200000D01*
G01*
X119000000Y-124800000D01*
G75*
G02*
X118800000Y-125000000I-200000J0D01*
G01*
X115200000Y-125000000D01*
G75*
G02*
X115000000Y-124800000I0J200000D01*
G01*
G37*
G36*
G01*
X55000000Y-34800000D02*
X55000000Y-31200000D01*
G75*
G02*
X55200000Y-31000000I200000J0D01*
G01*
X58800000Y-31000000D01*
G75*
G02*
X59000000Y-31200000I0J-200000D01*
G01*
X59000000Y-34800000D01*
G75*
G02*
X58800000Y-35000000I-200000J0D01*
G01*
X55200000Y-35000000D01*
G75*
G02*
X55000000Y-34800000I0J200000D01*
G01*
G37*
G36*
G01*
X175000000Y-64800000D02*
X175000000Y-61200000D01*
G75*
G02*
X175200000Y-61000000I200000J0D01*
G01*
X178800000Y-61000000D01*
G75*
G02*
X179000000Y-61200000I0J-200000D01*
G01*
X179000000Y-64800000D01*
G75*
G02*
X178800000Y-65000000I-200000J0D01*
G01*
X175200000Y-65000000D01*
G75*
G02*
X175000000Y-64800000I0J200000D01*
G01*
G37*
G36*
G01*
X79250000Y-44400000D02*
X79250000Y-45600000D01*
G75*
G02*
X79100000Y-45750000I-150000J0D01*
G01*
X66900000Y-45750000D01*
G75*
G02*
X66750000Y-45600000I0J150000D01*
G01*
X66750000Y-44400000D01*
G75*
G02*
X66900000Y-44250000I150000J0D01*
G01*
X79100000Y-44250000D01*
G75*
G02*
X79250000Y-44400000I0J-150000D01*
G01*
G37*
G36*
G01*
X107250000Y-44400000D02*
X107250000Y-45600000D01*
G75*
G02*
X107100000Y-45750000I-150000J0D01*
G01*
X94900000Y-45750000D01*
G75*
G02*
X94750000Y-45600000I0J150000D01*
G01*
X94750000Y-44400000D01*
G75*
G02*
X94900000Y-44250000I150000J0D01*
G01*
X107100000Y-44250000D01*
G75*
G02*
X107250000Y-44400000I0J-150000D01*
G01*
G37*
G36*
G01*
X61600000Y-133250000D02*
X60400000Y-133250000D01*
G75*
G02*
X60250000Y-133100000I0J150000D01*
G01*
X60250000Y-120900000D01*
G75*
G02*
X60400000Y-120750000I150000J0D01*
G01*
X61600000Y-120750000D01*
G75*
G02*
X61750000Y-120900000I0J-150000D01*
G01*
X61750000Y-133100000D01*
G75*
G02*
X61600000Y-133250000I-150000J0D01*
G01*
G37*
G36*
G01*
X112400000Y-135750000D02*
X113600000Y-135750000D01*
G75*
G02*
X113750000Y-135900000I0J-150000D01*
G01*
X113750000Y-148100000D01*
G75*
G02*
X113600000Y-148250000I-150000J0D01*
G01*
X112400000Y-148250000D01*
G75*
G02*
X112250000Y-148100000I0J150000D01*
G01*
X112250000Y-135900000D01*
G75*
G02*
X112400000Y-135750000I150000J0D01*
G01*
G37*
G36*
G01*
X60400000Y-135750000D02*
X61600000Y-135750000D01*
G75*
G02*
X61750000Y-135900000I0J-150000D01*
G01*
X61750000Y-148100000D01*
G75*
G02*
X61600000Y-148250000I-150000J0D01*
G01*
X60400000Y-148250000D01*
G75*
G02*
X60250000Y-148100000I0J150000D01*
G01*
X60250000Y-135900000D01*
G75*
G02*
X60400000Y-135750000I150000J0D01*
G01*
G37*
G36*
G01*
X60400000Y-105750000D02*
X61600000Y-105750000D01*
G75*
G02*
X61750000Y-105900000I0J-150000D01*
G01*
X61750000Y-118100000D01*
G75*
G02*
X61600000Y-118250000I-150000J0D01*
G01*
X60400000Y-118250000D01*
G75*
G02*
X60250000Y-118100000I0J150000D01*
G01*
X60250000Y-105900000D01*
G75*
G02*
X60400000Y-105750000I150000J0D01*
G01*
G37*
G36*
G01*
X86400000Y-75750000D02*
X87600000Y-75750000D01*
G75*
G02*
X87750000Y-75900000I0J-150000D01*
G01*
X87750000Y-88100000D01*
G75*
G02*
X87600000Y-88250000I-150000J0D01*
G01*
X86400000Y-88250000D01*
G75*
G02*
X86250000Y-88100000I0J150000D01*
G01*
X86250000Y-75900000D01*
G75*
G02*
X86400000Y-75750000I150000J0D01*
G01*
G37*
G36*
G01*
X60400000Y-60750000D02*
X61600000Y-60750000D01*
G75*
G02*
X61750000Y-60900000I0J-150000D01*
G01*
X61750000Y-73100000D01*
G75*
G02*
X61600000Y-73250000I-150000J0D01*
G01*
X60400000Y-73250000D01*
G75*
G02*
X60250000Y-73100000I0J150000D01*
G01*
X60250000Y-60900000D01*
G75*
G02*
X60400000Y-60750000I150000J0D01*
G01*
G37*
G36*
G01*
X112400000Y-46750000D02*
X113600000Y-46750000D01*
G75*
G02*
X113750000Y-46900000I0J-150000D01*
G01*
X113750000Y-59100000D01*
G75*
G02*
X113600000Y-59250000I-150000J0D01*
G01*
X112400000Y-59250000D01*
G75*
G02*
X112250000Y-59100000I0J150000D01*
G01*
X112250000Y-46900000D01*
G75*
G02*
X112400000Y-46750000I150000J0D01*
G01*
G37*
G36*
G01*
X60400000Y-46750000D02*
X61600000Y-46750000D01*
G75*
G02*
X61750000Y-46900000I0J-150000D01*
G01*
X61750000Y-59100000D01*
G75*
G02*
X61600000Y-59250000I-150000J0D01*
G01*
X60400000Y-59250000D01*
G75*
G02*
X60250000Y-59100000I0J150000D01*
G01*
X60250000Y-46900000D01*
G75*
G02*
X60400000Y-46750000I150000J0D01*
G01*
G37*
G36*
G01*
X86400000Y-135750000D02*
X87600000Y-135750000D01*
G75*
G02*
X87750000Y-135900000I0J-150000D01*
G01*
X87750000Y-148100000D01*
G75*
G02*
X87600000Y-148250000I-150000J0D01*
G01*
X86400000Y-148250000D01*
G75*
G02*
X86250000Y-148100000I0J150000D01*
G01*
X86250000Y-135900000D01*
G75*
G02*
X86400000Y-135750000I150000J0D01*
G01*
G37*
G36*
G01*
X112400000Y-75750000D02*
X113600000Y-75750000D01*
G75*
G02*
X113750000Y-75900000I0J-150000D01*
G01*
X113750000Y-88100000D01*
G75*
G02*
X113600000Y-88250000I-150000J0D01*
G01*
X112400000Y-88250000D01*
G75*
G02*
X112250000Y-88100000I0J150000D01*
G01*
X112250000Y-75900000D01*
G75*
G02*
X112400000Y-75750000I150000J0D01*
G01*
G37*
G36*
G01*
X86400000Y-60750000D02*
X87600000Y-60750000D01*
G75*
G02*
X87750000Y-60900000I0J-150000D01*
G01*
X87750000Y-73100000D01*
G75*
G02*
X87600000Y-73250000I-150000J0D01*
G01*
X86400000Y-73250000D01*
G75*
G02*
X86250000Y-73100000I0J150000D01*
G01*
X86250000Y-60900000D01*
G75*
G02*
X86400000Y-60750000I150000J0D01*
G01*
G37*
G36*
G01*
X112400000Y-60750000D02*
X113600000Y-60750000D01*
G75*
G02*
X113750000Y-60900000I0J-150000D01*
G01*
X113750000Y-73100000D01*
G75*
G02*
X113600000Y-73250000I-150000J0D01*
G01*
X112400000Y-73250000D01*
G75*
G02*
X112250000Y-73100000I0J150000D01*
G01*
X112250000Y-60900000D01*
G75*
G02*
X112400000Y-60750000I150000J0D01*
G01*
G37*
G36*
G01*
X86400000Y-120750000D02*
X87600000Y-120750000D01*
G75*
G02*
X87750000Y-120900000I0J-150000D01*
G01*
X87750000Y-133100000D01*
G75*
G02*
X87600000Y-133250000I-150000J0D01*
G01*
X86400000Y-133250000D01*
G75*
G02*
X86250000Y-133100000I0J150000D01*
G01*
X86250000Y-120900000D01*
G75*
G02*
X86400000Y-120750000I150000J0D01*
G01*
G37*
G36*
G01*
X60400000Y-75750000D02*
X61600000Y-75750000D01*
G75*
G02*
X61750000Y-75900000I0J-150000D01*
G01*
X61750000Y-88100000D01*
G75*
G02*
X61600000Y-88250000I-150000J0D01*
G01*
X60400000Y-88250000D01*
G75*
G02*
X60250000Y-88100000I0J150000D01*
G01*
X60250000Y-75900000D01*
G75*
G02*
X60400000Y-75750000I150000J0D01*
G01*
G37*
G36*
G01*
X112400000Y-120750000D02*
X113600000Y-120750000D01*
G75*
G02*
X113750000Y-120900000I0J-150000D01*
G01*
X113750000Y-133100000D01*
G75*
G02*
X113600000Y-133250000I-150000J0D01*
G01*
X112400000Y-133250000D01*
G75*
G02*
X112250000Y-133100000I0J150000D01*
G01*
X112250000Y-120900000D01*
G75*
G02*
X112400000Y-120750000I150000J0D01*
G01*
G37*
G36*
G01*
X163250000Y-37400000D02*
X163250000Y-38600000D01*
G75*
G02*
X163100000Y-38750000I-150000J0D01*
G01*
X150900000Y-38750000D01*
G75*
G02*
X150750000Y-38600000I0J150000D01*
G01*
X150750000Y-37400000D01*
G75*
G02*
X150900000Y-37250000I150000J0D01*
G01*
X163100000Y-37250000D01*
G75*
G02*
X163250000Y-37400000I0J-150000D01*
G01*
G37*
G36*
G01*
X112400000Y-90750000D02*
X113600000Y-90750000D01*
G75*
G02*
X113750000Y-90900000I0J-150000D01*
G01*
X113750000Y-103100000D01*
G75*
G02*
X113600000Y-103250000I-150000J0D01*
G01*
X112400000Y-103250000D01*
G75*
G02*
X112250000Y-103100000I0J150000D01*
G01*
X112250000Y-90900000D01*
G75*
G02*
X112400000Y-90750000I150000J0D01*
G01*
G37*
G36*
G01*
X86400000Y-105750000D02*
X87600000Y-105750000D01*
G75*
G02*
X87750000Y-105900000I0J-150000D01*
G01*
X87750000Y-118100000D01*
G75*
G02*
X87600000Y-118250000I-150000J0D01*
G01*
X86400000Y-118250000D01*
G75*
G02*
X86250000Y-118100000I0J150000D01*
G01*
X86250000Y-105900000D01*
G75*
G02*
X86400000Y-105750000I150000J0D01*
G01*
G37*
G36*
G01*
X112400000Y-105750000D02*
X113600000Y-105750000D01*
G75*
G02*
X113750000Y-105900000I0J-150000D01*
G01*
X113750000Y-118100000D01*
G75*
G02*
X113600000Y-118250000I-150000J0D01*
G01*
X112400000Y-118250000D01*
G75*
G02*
X112250000Y-118100000I0J150000D01*
G01*
X112250000Y-105900000D01*
G75*
G02*
X112400000Y-105750000I150000J0D01*
G01*
G37*
G36*
G01*
X86400000Y-90750000D02*
X87600000Y-90750000D01*
G75*
G02*
X87750000Y-90900000I0J-150000D01*
G01*
X87750000Y-103100000D01*
G75*
G02*
X87600000Y-103250000I-150000J0D01*
G01*
X86400000Y-103250000D01*
G75*
G02*
X86250000Y-103100000I0J150000D01*
G01*
X86250000Y-90900000D01*
G75*
G02*
X86400000Y-90750000I150000J0D01*
G01*
G37*
G36*
G01*
X86400000Y-46750000D02*
X87600000Y-46750000D01*
G75*
G02*
X87750000Y-46900000I0J-150000D01*
G01*
X87750000Y-59100000D01*
G75*
G02*
X87600000Y-59250000I-150000J0D01*
G01*
X86400000Y-59250000D01*
G75*
G02*
X86250000Y-59100000I0J150000D01*
G01*
X86250000Y-46900000D01*
G75*
G02*
X86400000Y-46750000I150000J0D01*
G01*
G37*
G36*
G01*
X60400000Y-90750000D02*
X61600000Y-90750000D01*
G75*
G02*
X61750000Y-90900000I0J-150000D01*
G01*
X61750000Y-103100000D01*
G75*
G02*
X61600000Y-103250000I-150000J0D01*
G01*
X60400000Y-103250000D01*
G75*
G02*
X60250000Y-103100000I0J150000D01*
G01*
X60250000Y-90900000D01*
G75*
G02*
X60400000Y-90750000I150000J0D01*
G01*
G37*
M02*
