%TF.GenerationSoftware,KiCad,Pcbnew,6.0.10+dfsg-1~bpo11+1*%
%TF.ProjectId,storage,73746f72-6167-4652-9e6b-696361645f70,5.0*%
%TF.SameCoordinates,Original*%
%TF.FileFunction,Drillmap*%
%TF.FilePolarity,Positive*%
%FSLAX45Y45*%
G04 Gerber Fmt 4.5, Leading zero omitted, Abs format (unit mm)*
%MOMM*%
%LPD*%
G01*
G04 APERTURE LIST*
%ADD10C,0.200000*%
%ADD11C,0.320000*%
G04 APERTURE END LIST*
D10*
D11*
X5540000Y-3140000D02*
X5860000Y-3460000D01*
X5860000Y-3140000D02*
X5540000Y-3460000D01*
X5540000Y-6140000D02*
X5860000Y-6460000D01*
X5860000Y-6140000D02*
X5540000Y-6460000D01*
X5540000Y-12140000D02*
X5860000Y-12460000D01*
X5860000Y-12140000D02*
X5540000Y-12460000D01*
X5540000Y-15140000D02*
X5860000Y-15460000D01*
X5860000Y-15140000D02*
X5540000Y-15460000D01*
X11540000Y-3140000D02*
X11860000Y-3460000D01*
X11860000Y-3140000D02*
X11540000Y-3460000D01*
X11540000Y-6140000D02*
X11860000Y-6460000D01*
X11860000Y-6140000D02*
X11540000Y-6460000D01*
X11540000Y-12140000D02*
X11860000Y-12460000D01*
X11860000Y-12140000D02*
X11540000Y-12460000D01*
X11540000Y-15140000D02*
X11860000Y-15460000D01*
X11860000Y-15140000D02*
X11540000Y-15460000D01*
X17540000Y-3140000D02*
X17860000Y-3460000D01*
X17860000Y-3140000D02*
X17540000Y-3460000D01*
X17540000Y-6140000D02*
X17860000Y-6460000D01*
X17860000Y-6140000D02*
X17540000Y-6460000D01*
X17540000Y-12140000D02*
X17860000Y-12460000D01*
X17860000Y-12140000D02*
X17540000Y-12460000D01*
X17540000Y-15140000D02*
X17860000Y-15460000D01*
X17860000Y-15140000D02*
X17540000Y-15460000D01*
X20540000Y-3140000D02*
X20860000Y-3460000D01*
X20860000Y-3140000D02*
X20540000Y-3460000D01*
X20540000Y-6140000D02*
X20860000Y-6460000D01*
X20860000Y-6140000D02*
X20540000Y-6460000D01*
X20540000Y-12140000D02*
X20860000Y-12460000D01*
X20860000Y-12140000D02*
X20540000Y-12460000D01*
X20540000Y-15140000D02*
X20860000Y-15460000D01*
X20860000Y-15140000D02*
X20540000Y-15460000D01*
X23540000Y-3140000D02*
X23860000Y-3460000D01*
X23860000Y-3140000D02*
X23540000Y-3460000D01*
X23540000Y-6140000D02*
X23860000Y-6460000D01*
X23860000Y-6140000D02*
X23540000Y-6460000D01*
X23540000Y-12140000D02*
X23860000Y-12460000D01*
X23860000Y-12140000D02*
X23540000Y-12460000D01*
X23540000Y-15140000D02*
X23860000Y-15460000D01*
X23860000Y-15140000D02*
X23540000Y-15460000D01*
D10*
X5251619Y-16316476D02*
X5251619Y-16116476D01*
X5299238Y-16116476D01*
X5327810Y-16126000D01*
X5346857Y-16145048D01*
X5356381Y-16164095D01*
X5365905Y-16202190D01*
X5365905Y-16230762D01*
X5356381Y-16268857D01*
X5346857Y-16287905D01*
X5327810Y-16306952D01*
X5299238Y-16316476D01*
X5251619Y-16316476D01*
X5451619Y-16316476D02*
X5451619Y-16183143D01*
X5451619Y-16221238D02*
X5461143Y-16202190D01*
X5470667Y-16192667D01*
X5489714Y-16183143D01*
X5508762Y-16183143D01*
X5575429Y-16316476D02*
X5575429Y-16183143D01*
X5575429Y-16116476D02*
X5565905Y-16126000D01*
X5575429Y-16135524D01*
X5584952Y-16126000D01*
X5575429Y-16116476D01*
X5575429Y-16135524D01*
X5699238Y-16316476D02*
X5680190Y-16306952D01*
X5670667Y-16287905D01*
X5670667Y-16116476D01*
X5804000Y-16316476D02*
X5784952Y-16306952D01*
X5775428Y-16287905D01*
X5775428Y-16116476D01*
X6032571Y-16316476D02*
X6032571Y-16116476D01*
X6099238Y-16259333D01*
X6165905Y-16116476D01*
X6165905Y-16316476D01*
X6346857Y-16316476D02*
X6346857Y-16211714D01*
X6337333Y-16192667D01*
X6318286Y-16183143D01*
X6280190Y-16183143D01*
X6261143Y-16192667D01*
X6346857Y-16306952D02*
X6327809Y-16316476D01*
X6280190Y-16316476D01*
X6261143Y-16306952D01*
X6251619Y-16287905D01*
X6251619Y-16268857D01*
X6261143Y-16249809D01*
X6280190Y-16240286D01*
X6327809Y-16240286D01*
X6346857Y-16230762D01*
X6442095Y-16183143D02*
X6442095Y-16383143D01*
X6442095Y-16192667D02*
X6461143Y-16183143D01*
X6499238Y-16183143D01*
X6518286Y-16192667D01*
X6527809Y-16202190D01*
X6537333Y-16221238D01*
X6537333Y-16278381D01*
X6527809Y-16297428D01*
X6518286Y-16306952D01*
X6499238Y-16316476D01*
X6461143Y-16316476D01*
X6442095Y-16306952D01*
X6623048Y-16297428D02*
X6632571Y-16306952D01*
X6623048Y-16316476D01*
X6613524Y-16306952D01*
X6623048Y-16297428D01*
X6623048Y-16316476D01*
X6623048Y-16192667D02*
X6632571Y-16202190D01*
X6623048Y-16211714D01*
X6613524Y-16202190D01*
X6623048Y-16192667D01*
X6623048Y-16211714D01*
X4794000Y-16546000D02*
X4994000Y-16746000D01*
X4994000Y-16546000D02*
X4794000Y-16746000D01*
X5232571Y-16536476D02*
X5356381Y-16536476D01*
X5289714Y-16612667D01*
X5318286Y-16612667D01*
X5337333Y-16622190D01*
X5346857Y-16631714D01*
X5356381Y-16650762D01*
X5356381Y-16698381D01*
X5346857Y-16717428D01*
X5337333Y-16726952D01*
X5318286Y-16736476D01*
X5261143Y-16736476D01*
X5242095Y-16726952D01*
X5232571Y-16717428D01*
X5442095Y-16717428D02*
X5451619Y-16726952D01*
X5442095Y-16736476D01*
X5432571Y-16726952D01*
X5442095Y-16717428D01*
X5442095Y-16736476D01*
X5527810Y-16555524D02*
X5537333Y-16546000D01*
X5556381Y-16536476D01*
X5604000Y-16536476D01*
X5623048Y-16546000D01*
X5632571Y-16555524D01*
X5642095Y-16574571D01*
X5642095Y-16593619D01*
X5632571Y-16622190D01*
X5518286Y-16736476D01*
X5642095Y-16736476D01*
X5765905Y-16536476D02*
X5784952Y-16536476D01*
X5804000Y-16546000D01*
X5813524Y-16555524D01*
X5823048Y-16574571D01*
X5832571Y-16612667D01*
X5832571Y-16660286D01*
X5823048Y-16698381D01*
X5813524Y-16717428D01*
X5804000Y-16726952D01*
X5784952Y-16736476D01*
X5765905Y-16736476D01*
X5746857Y-16726952D01*
X5737333Y-16717428D01*
X5727809Y-16698381D01*
X5718286Y-16660286D01*
X5718286Y-16612667D01*
X5727809Y-16574571D01*
X5737333Y-16555524D01*
X5746857Y-16546000D01*
X5765905Y-16536476D01*
X5956381Y-16536476D02*
X5975428Y-16536476D01*
X5994476Y-16546000D01*
X6004000Y-16555524D01*
X6013524Y-16574571D01*
X6023048Y-16612667D01*
X6023048Y-16660286D01*
X6013524Y-16698381D01*
X6004000Y-16717428D01*
X5994476Y-16726952D01*
X5975428Y-16736476D01*
X5956381Y-16736476D01*
X5937333Y-16726952D01*
X5927809Y-16717428D01*
X5918286Y-16698381D01*
X5908762Y-16660286D01*
X5908762Y-16612667D01*
X5918286Y-16574571D01*
X5927809Y-16555524D01*
X5937333Y-16546000D01*
X5956381Y-16536476D01*
X6108762Y-16736476D02*
X6108762Y-16603143D01*
X6108762Y-16622190D02*
X6118286Y-16612667D01*
X6137333Y-16603143D01*
X6165905Y-16603143D01*
X6184952Y-16612667D01*
X6194476Y-16631714D01*
X6194476Y-16736476D01*
X6194476Y-16631714D02*
X6204000Y-16612667D01*
X6223048Y-16603143D01*
X6251619Y-16603143D01*
X6270667Y-16612667D01*
X6280190Y-16631714D01*
X6280190Y-16736476D01*
X6375428Y-16736476D02*
X6375428Y-16603143D01*
X6375428Y-16622190D02*
X6384952Y-16612667D01*
X6404000Y-16603143D01*
X6432571Y-16603143D01*
X6451619Y-16612667D01*
X6461143Y-16631714D01*
X6461143Y-16736476D01*
X6461143Y-16631714D02*
X6470667Y-16612667D01*
X6489714Y-16603143D01*
X6518286Y-16603143D01*
X6537333Y-16612667D01*
X6546857Y-16631714D01*
X6546857Y-16736476D01*
X6937333Y-16526952D02*
X6765905Y-16784095D01*
X7194476Y-16536476D02*
X7213524Y-16536476D01*
X7232571Y-16546000D01*
X7242095Y-16555524D01*
X7251619Y-16574571D01*
X7261143Y-16612667D01*
X7261143Y-16660286D01*
X7251619Y-16698381D01*
X7242095Y-16717428D01*
X7232571Y-16726952D01*
X7213524Y-16736476D01*
X7194476Y-16736476D01*
X7175428Y-16726952D01*
X7165905Y-16717428D01*
X7156381Y-16698381D01*
X7146857Y-16660286D01*
X7146857Y-16612667D01*
X7156381Y-16574571D01*
X7165905Y-16555524D01*
X7175428Y-16546000D01*
X7194476Y-16536476D01*
X7346857Y-16717428D02*
X7356381Y-16726952D01*
X7346857Y-16736476D01*
X7337333Y-16726952D01*
X7346857Y-16717428D01*
X7346857Y-16736476D01*
X7546857Y-16736476D02*
X7432571Y-16736476D01*
X7489714Y-16736476D02*
X7489714Y-16536476D01*
X7470667Y-16565048D01*
X7451619Y-16584095D01*
X7432571Y-16593619D01*
X7623048Y-16555524D02*
X7632571Y-16546000D01*
X7651619Y-16536476D01*
X7699238Y-16536476D01*
X7718286Y-16546000D01*
X7727809Y-16555524D01*
X7737333Y-16574571D01*
X7737333Y-16593619D01*
X7727809Y-16622190D01*
X7613524Y-16736476D01*
X7737333Y-16736476D01*
X7908762Y-16536476D02*
X7870667Y-16536476D01*
X7851619Y-16546000D01*
X7842095Y-16555524D01*
X7823048Y-16584095D01*
X7813524Y-16622190D01*
X7813524Y-16698381D01*
X7823048Y-16717428D01*
X7832571Y-16726952D01*
X7851619Y-16736476D01*
X7889714Y-16736476D01*
X7908762Y-16726952D01*
X7918286Y-16717428D01*
X7927809Y-16698381D01*
X7927809Y-16650762D01*
X7918286Y-16631714D01*
X7908762Y-16622190D01*
X7889714Y-16612667D01*
X7851619Y-16612667D01*
X7832571Y-16622190D01*
X7823048Y-16631714D01*
X7813524Y-16650762D01*
X8051619Y-16536476D02*
X8070667Y-16536476D01*
X8089714Y-16546000D01*
X8099238Y-16555524D01*
X8108762Y-16574571D01*
X8118286Y-16612667D01*
X8118286Y-16660286D01*
X8108762Y-16698381D01*
X8099238Y-16717428D01*
X8089714Y-16726952D01*
X8070667Y-16736476D01*
X8051619Y-16736476D01*
X8032571Y-16726952D01*
X8023048Y-16717428D01*
X8013524Y-16698381D01*
X8004000Y-16660286D01*
X8004000Y-16612667D01*
X8013524Y-16574571D01*
X8023048Y-16555524D01*
X8032571Y-16546000D01*
X8051619Y-16536476D01*
X8194476Y-16536476D02*
X8194476Y-16574571D01*
X8270667Y-16536476D02*
X8270667Y-16574571D01*
X8565905Y-16812667D02*
X8556381Y-16803143D01*
X8537333Y-16774571D01*
X8527810Y-16755524D01*
X8518286Y-16726952D01*
X8508762Y-16679333D01*
X8508762Y-16641238D01*
X8518286Y-16593619D01*
X8527810Y-16565048D01*
X8537333Y-16546000D01*
X8556381Y-16517428D01*
X8565905Y-16507905D01*
X8632571Y-16555524D02*
X8642095Y-16546000D01*
X8661143Y-16536476D01*
X8708762Y-16536476D01*
X8727810Y-16546000D01*
X8737333Y-16555524D01*
X8746857Y-16574571D01*
X8746857Y-16593619D01*
X8737333Y-16622190D01*
X8623048Y-16736476D01*
X8746857Y-16736476D01*
X8870667Y-16536476D02*
X8889714Y-16536476D01*
X8908762Y-16546000D01*
X8918286Y-16555524D01*
X8927810Y-16574571D01*
X8937333Y-16612667D01*
X8937333Y-16660286D01*
X8927810Y-16698381D01*
X8918286Y-16717428D01*
X8908762Y-16726952D01*
X8889714Y-16736476D01*
X8870667Y-16736476D01*
X8851619Y-16726952D01*
X8842095Y-16717428D01*
X8832571Y-16698381D01*
X8823048Y-16660286D01*
X8823048Y-16612667D01*
X8832571Y-16574571D01*
X8842095Y-16555524D01*
X8851619Y-16546000D01*
X8870667Y-16536476D01*
X9175429Y-16736476D02*
X9175429Y-16536476D01*
X9261143Y-16736476D02*
X9261143Y-16631714D01*
X9251619Y-16612667D01*
X9232571Y-16603143D01*
X9204000Y-16603143D01*
X9184952Y-16612667D01*
X9175429Y-16622190D01*
X9384952Y-16736476D02*
X9365905Y-16726952D01*
X9356381Y-16717428D01*
X9346857Y-16698381D01*
X9346857Y-16641238D01*
X9356381Y-16622190D01*
X9365905Y-16612667D01*
X9384952Y-16603143D01*
X9413524Y-16603143D01*
X9432571Y-16612667D01*
X9442095Y-16622190D01*
X9451619Y-16641238D01*
X9451619Y-16698381D01*
X9442095Y-16717428D01*
X9432571Y-16726952D01*
X9413524Y-16736476D01*
X9384952Y-16736476D01*
X9565905Y-16736476D02*
X9546857Y-16726952D01*
X9537333Y-16707905D01*
X9537333Y-16536476D01*
X9718286Y-16726952D02*
X9699238Y-16736476D01*
X9661143Y-16736476D01*
X9642095Y-16726952D01*
X9632571Y-16707905D01*
X9632571Y-16631714D01*
X9642095Y-16612667D01*
X9661143Y-16603143D01*
X9699238Y-16603143D01*
X9718286Y-16612667D01*
X9727810Y-16631714D01*
X9727810Y-16650762D01*
X9632571Y-16669809D01*
X9804000Y-16726952D02*
X9823048Y-16736476D01*
X9861143Y-16736476D01*
X9880190Y-16726952D01*
X9889714Y-16707905D01*
X9889714Y-16698381D01*
X9880190Y-16679333D01*
X9861143Y-16669809D01*
X9832571Y-16669809D01*
X9813524Y-16660286D01*
X9804000Y-16641238D01*
X9804000Y-16631714D01*
X9813524Y-16612667D01*
X9832571Y-16603143D01*
X9861143Y-16603143D01*
X9880190Y-16612667D01*
X9956381Y-16812667D02*
X9965905Y-16803143D01*
X9984952Y-16774571D01*
X9994476Y-16755524D01*
X10004000Y-16726952D01*
X10013524Y-16679333D01*
X10013524Y-16641238D01*
X10004000Y-16593619D01*
X9994476Y-16565048D01*
X9984952Y-16546000D01*
X9965905Y-16517428D01*
X9956381Y-16507905D01*
M02*
