G04 #@! TF.GenerationSoftware,KiCad,Pcbnew,6.0.10+dfsg-1~bpo11+1*
G04 #@! TF.ProjectId,storage,73746f72-6167-4652-9e6b-696361645f70,5.0*
G04 #@! TF.SameCoordinates,Original*
G04 #@! TF.FileFunction,Copper,L6,Bot*
G04 #@! TF.FilePolarity,Positive*
%FSLAX46Y46*%
G04 Gerber Fmt 4.6, Leading zero omitted, Abs format (unit mm)*
%MOMM*%
%LPD*%
G01*
G04 APERTURE LIST*
G04 #@! TA.AperFunction,NonConductor*
%ADD10C,0.150000*%
G04 #@! TD*
G04 #@! TA.AperFunction,NonConductor*
%ADD11C,2.075000*%
G04 #@! TD*
%ADD12C,0.300000*%
G04 #@! TA.AperFunction,NonConductor*
%ADD13C,0.300000*%
G04 #@! TD*
G04 #@! TA.AperFunction,Profile*
%ADD14C,0.120000*%
G04 #@! TD*
G04 APERTURE END LIST*
D10*
X89000000Y-150500000D02*
X93000000Y-150500000D01*
X93000000Y-150500000D02*
X93000000Y-148500000D01*
X93000000Y-148500000D02*
X89000000Y-148500000D01*
X89000000Y-148500000D02*
X89000000Y-150500000D01*
X89000000Y-91000000D02*
X93000000Y-91000000D01*
X93000000Y-91000000D02*
X93000000Y-89000000D01*
X93000000Y-89000000D02*
X89000000Y-89000000D01*
X89000000Y-89000000D02*
X89000000Y-91000000D01*
X108000000Y-48000000D02*
X112000000Y-48000000D01*
X112000000Y-48000000D02*
X112000000Y-46000000D01*
X112000000Y-46000000D02*
X108000000Y-46000000D01*
X108000000Y-46000000D02*
X108000000Y-48000000D01*
X247000000Y-103000000D02*
X251000000Y-103000000D01*
X251000000Y-103000000D02*
X251000000Y-101000000D01*
X251000000Y-101000000D02*
X247000000Y-101000000D01*
X247000000Y-101000000D02*
X247000000Y-103000000D01*
X56000000Y-46000000D02*
X60000000Y-46000000D01*
X60000000Y-46000000D02*
X60000000Y-44000000D01*
X60000000Y-44000000D02*
X56000000Y-44000000D01*
X56000000Y-44000000D02*
X56000000Y-46000000D01*
X152000000Y-32000000D02*
X156000000Y-32000000D01*
X156000000Y-32000000D02*
X156000000Y-34000000D01*
X156000000Y-34000000D02*
X152000000Y-34000000D01*
X152000000Y-34000000D02*
X152000000Y-32000000D01*
G36*
X152000000Y-32000000D02*
G01*
X156000000Y-32000000D01*
X156000000Y-34000000D01*
X152000000Y-34000000D01*
X152000000Y-32000000D01*
G37*
G36*
X112000000Y-43000000D02*
G01*
X111000000Y-44000000D01*
X109000000Y-44000000D01*
X108000000Y-43000000D01*
X109000000Y-42000000D01*
X111000000Y-42000000D01*
X112000000Y-43000000D01*
G37*
X112000000Y-43000000D02*
X111000000Y-44000000D01*
X109000000Y-44000000D01*
X108000000Y-43000000D01*
X109000000Y-42000000D01*
X111000000Y-42000000D01*
X112000000Y-43000000D01*
X170000000Y-48000000D02*
X174000000Y-48000000D01*
X174000000Y-48000000D02*
X174000000Y-46000000D01*
X174000000Y-46000000D02*
X170000000Y-46000000D01*
X170000000Y-46000000D02*
X170000000Y-48000000D01*
X107000000Y-91000000D02*
X111000000Y-91000000D01*
X111000000Y-91000000D02*
X111000000Y-89000000D01*
X111000000Y-89000000D02*
X107000000Y-89000000D01*
X107000000Y-89000000D02*
X107000000Y-91000000D01*
X85000000Y-153000000D02*
X89000000Y-153000000D01*
X89000000Y-153000000D02*
X89000000Y-155000000D01*
X89000000Y-155000000D02*
X85000000Y-155000000D01*
X85000000Y-155000000D02*
X85000000Y-153000000D01*
G36*
X85000000Y-153000000D02*
G01*
X89000000Y-153000000D01*
X89000000Y-155000000D01*
X85000000Y-155000000D01*
X85000000Y-153000000D01*
G37*
X82000000Y-48000000D02*
X86000000Y-48000000D01*
X86000000Y-48000000D02*
X86000000Y-46000000D01*
X86000000Y-46000000D02*
X82000000Y-46000000D01*
X82000000Y-46000000D02*
X82000000Y-48000000D01*
G36*
X251000000Y-106000000D02*
G01*
X250000000Y-107000000D01*
X248000000Y-107000000D01*
X247000000Y-106000000D01*
X248000000Y-105000000D01*
X250000000Y-105000000D01*
X251000000Y-106000000D01*
G37*
X251000000Y-106000000D02*
X250000000Y-107000000D01*
X248000000Y-107000000D01*
X247000000Y-106000000D01*
X248000000Y-105000000D01*
X250000000Y-105000000D01*
X251000000Y-106000000D01*
G36*
X207000000Y-47000000D02*
G01*
X206000000Y-48000000D01*
X204000000Y-48000000D01*
X203000000Y-47000000D01*
X204000000Y-46000000D01*
X206000000Y-46000000D01*
X207000000Y-47000000D01*
G37*
X207000000Y-47000000D02*
X206000000Y-48000000D01*
X204000000Y-48000000D01*
X203000000Y-47000000D01*
X204000000Y-46000000D01*
X206000000Y-46000000D01*
X207000000Y-47000000D01*
X210000000Y-146000000D02*
X214000000Y-146000000D01*
X214000000Y-146000000D02*
X214000000Y-144000000D01*
X214000000Y-144000000D02*
X210000000Y-144000000D01*
X210000000Y-144000000D02*
X210000000Y-146000000D01*
G36*
X126000000Y-43000000D02*
G01*
X125000000Y-44000000D01*
X123000000Y-44000000D01*
X122000000Y-43000000D01*
X123000000Y-42000000D01*
X125000000Y-42000000D01*
X126000000Y-43000000D01*
G37*
X126000000Y-43000000D02*
X125000000Y-44000000D01*
X123000000Y-44000000D01*
X122000000Y-43000000D01*
X123000000Y-42000000D01*
X125000000Y-42000000D01*
X126000000Y-43000000D01*
X169000000Y-39000000D02*
X173000000Y-39000000D01*
X173000000Y-39000000D02*
X173000000Y-41000000D01*
X173000000Y-41000000D02*
X169000000Y-41000000D01*
X169000000Y-41000000D02*
X169000000Y-39000000D01*
G36*
X169000000Y-39000000D02*
G01*
X173000000Y-39000000D01*
X173000000Y-41000000D01*
X169000000Y-41000000D01*
X169000000Y-39000000D01*
G37*
X228000000Y-61000000D02*
X232000000Y-61000000D01*
X232000000Y-61000000D02*
X232000000Y-59000000D01*
X232000000Y-59000000D02*
X228000000Y-59000000D01*
X228000000Y-59000000D02*
X228000000Y-61000000D01*
X63000000Y-91000000D02*
X67000000Y-91000000D01*
X67000000Y-91000000D02*
X67000000Y-89000000D01*
X67000000Y-89000000D02*
X63000000Y-89000000D01*
X63000000Y-89000000D02*
X63000000Y-91000000D01*
G36*
X92000000Y-43000000D02*
G01*
X91000000Y-44000000D01*
X89000000Y-44000000D01*
X88000000Y-43000000D01*
X89000000Y-42000000D01*
X91000000Y-42000000D01*
X92000000Y-43000000D01*
G37*
X92000000Y-43000000D02*
X91000000Y-44000000D01*
X89000000Y-44000000D01*
X88000000Y-43000000D01*
X89000000Y-42000000D01*
X91000000Y-42000000D01*
X92000000Y-43000000D01*
D11*
X250037500Y-94000000D02*
G75*
G03*
X250037500Y-94000000I-1037500J0D01*
G01*
D10*
X228000000Y-58000000D02*
X232000000Y-58000000D01*
X232000000Y-58000000D02*
X232000000Y-56000000D01*
X232000000Y-56000000D02*
X228000000Y-56000000D01*
X228000000Y-56000000D02*
X228000000Y-58000000D01*
G36*
X218500000Y-144900000D02*
G01*
X217500000Y-145900000D01*
X215500000Y-145900000D01*
X214500000Y-144900000D01*
X215500000Y-143900000D01*
X217500000Y-143900000D01*
X218500000Y-144900000D01*
G37*
X218500000Y-144900000D02*
X217500000Y-145900000D01*
X215500000Y-145900000D01*
X214500000Y-144900000D01*
X215500000Y-143900000D01*
X217500000Y-143900000D01*
X218500000Y-144900000D01*
G36*
X232000000Y-47000000D02*
G01*
X231000000Y-48000000D01*
X229000000Y-48000000D01*
X228000000Y-47000000D01*
X229000000Y-46000000D01*
X231000000Y-46000000D01*
X232000000Y-47000000D01*
G37*
X232000000Y-47000000D02*
X231000000Y-48000000D01*
X229000000Y-48000000D01*
X228000000Y-47000000D01*
X229000000Y-46000000D01*
X231000000Y-46000000D01*
X232000000Y-47000000D01*
G36*
X251000000Y-91000000D02*
G01*
X247000000Y-91000000D01*
X249000000Y-89000000D01*
X251000000Y-91000000D01*
G37*
X251000000Y-91000000D02*
X247000000Y-91000000D01*
X249000000Y-89000000D01*
X251000000Y-91000000D01*
X88000000Y-48000000D02*
X92000000Y-48000000D01*
X92000000Y-48000000D02*
X92000000Y-46000000D01*
X92000000Y-46000000D02*
X88000000Y-46000000D01*
X88000000Y-46000000D02*
X88000000Y-48000000D01*
G36*
X221400000Y-142700000D02*
G01*
X220400000Y-143700000D01*
X218400000Y-143700000D01*
X217400000Y-142700000D01*
X218400000Y-141700000D01*
X220400000Y-141700000D01*
X221400000Y-142700000D01*
G37*
X221400000Y-142700000D02*
X220400000Y-143700000D01*
X218400000Y-143700000D01*
X217400000Y-142700000D01*
X218400000Y-141700000D01*
X220400000Y-141700000D01*
X221400000Y-142700000D01*
D11*
X206037500Y-42000000D02*
G75*
G03*
X206037500Y-42000000I-1037500J0D01*
G01*
D10*
X82000000Y-44000000D02*
X86000000Y-44000000D01*
X86000000Y-44000000D02*
X86000000Y-42000000D01*
X86000000Y-42000000D02*
X82000000Y-42000000D01*
X82000000Y-42000000D02*
X82000000Y-44000000D01*
G36*
X217000000Y-142000000D02*
G01*
X216000000Y-143000000D01*
X214000000Y-143000000D01*
X213000000Y-142000000D01*
X214000000Y-141000000D01*
X216000000Y-141000000D01*
X217000000Y-142000000D01*
G37*
X217000000Y-142000000D02*
X216000000Y-143000000D01*
X214000000Y-143000000D01*
X213000000Y-142000000D01*
X214000000Y-141000000D01*
X216000000Y-141000000D01*
X217000000Y-142000000D01*
X247000000Y-81000000D02*
X251000000Y-81000000D01*
X251000000Y-81000000D02*
X251000000Y-83000000D01*
X251000000Y-83000000D02*
X247000000Y-83000000D01*
X247000000Y-83000000D02*
X247000000Y-81000000D01*
G36*
X247000000Y-81000000D02*
G01*
X251000000Y-81000000D01*
X251000000Y-83000000D01*
X247000000Y-83000000D01*
X247000000Y-81000000D01*
G37*
X165000000Y-48000000D02*
X169000000Y-48000000D01*
X169000000Y-48000000D02*
X169000000Y-46000000D01*
X169000000Y-46000000D02*
X165000000Y-46000000D01*
X165000000Y-46000000D02*
X165000000Y-48000000D01*
D11*
X231037500Y-39000000D02*
G75*
G03*
X231037500Y-39000000I-1037500J0D01*
G01*
X231037500Y-144000000D02*
G75*
G03*
X231037500Y-144000000I-1037500J0D01*
G01*
D10*
X55000000Y-56000000D02*
X59000000Y-56000000D01*
X59000000Y-56000000D02*
X59000000Y-58000000D01*
X59000000Y-58000000D02*
X55000000Y-58000000D01*
X55000000Y-58000000D02*
X55000000Y-56000000D01*
G36*
X55000000Y-56000000D02*
G01*
X59000000Y-56000000D01*
X59000000Y-58000000D01*
X55000000Y-58000000D01*
X55000000Y-56000000D01*
G37*
X165000000Y-32000000D02*
X169000000Y-32000000D01*
X169000000Y-32000000D02*
X169000000Y-34000000D01*
X169000000Y-34000000D02*
X165000000Y-34000000D01*
X165000000Y-34000000D02*
X165000000Y-32000000D01*
G36*
X165000000Y-32000000D02*
G01*
X169000000Y-32000000D01*
X169000000Y-34000000D01*
X165000000Y-34000000D01*
X165000000Y-32000000D01*
G37*
X247000000Y-87000000D02*
X251000000Y-87000000D01*
X251000000Y-87000000D02*
X251000000Y-85000000D01*
X251000000Y-85000000D02*
X247000000Y-85000000D01*
X247000000Y-85000000D02*
X247000000Y-87000000D01*
D12*
D13*
X253718809Y-83055952D02*
X252575952Y-83055952D01*
X253147380Y-83055952D02*
X253147380Y-80555952D01*
X252956904Y-80913095D01*
X252766428Y-81151190D01*
X252575952Y-81270238D01*
X254290238Y-81389285D02*
X255052142Y-81389285D01*
X254575952Y-83055952D02*
X254575952Y-80913095D01*
X254671190Y-80675000D01*
X254861666Y-80555952D01*
X255052142Y-80555952D01*
X257147380Y-82936904D02*
X257337857Y-83055952D01*
X257718809Y-83055952D01*
X257909285Y-82936904D01*
X258004523Y-82698809D01*
X258004523Y-82579761D01*
X257909285Y-82341666D01*
X257718809Y-82222619D01*
X257433095Y-82222619D01*
X257242619Y-82103571D01*
X257147380Y-81865476D01*
X257147380Y-81746428D01*
X257242619Y-81508333D01*
X257433095Y-81389285D01*
X257718809Y-81389285D01*
X257909285Y-81508333D01*
X259147380Y-83055952D02*
X258956904Y-82936904D01*
X258861666Y-82817857D01*
X258766428Y-82579761D01*
X258766428Y-81865476D01*
X258861666Y-81627380D01*
X258956904Y-81508333D01*
X259147380Y-81389285D01*
X259433095Y-81389285D01*
X259623571Y-81508333D01*
X259718809Y-81627380D01*
X259814047Y-81865476D01*
X259814047Y-82579761D01*
X259718809Y-82817857D01*
X259623571Y-82936904D01*
X259433095Y-83055952D01*
X259147380Y-83055952D01*
X261528333Y-82936904D02*
X261337857Y-83055952D01*
X260956904Y-83055952D01*
X260766428Y-82936904D01*
X260671190Y-82817857D01*
X260575952Y-82579761D01*
X260575952Y-81865476D01*
X260671190Y-81627380D01*
X260766428Y-81508333D01*
X260956904Y-81389285D01*
X261337857Y-81389285D01*
X261528333Y-81508333D01*
X262385476Y-83055952D02*
X262385476Y-80555952D01*
X262575952Y-82103571D02*
X263147380Y-83055952D01*
X263147380Y-81389285D02*
X262385476Y-82341666D01*
X264766428Y-82936904D02*
X264575952Y-83055952D01*
X264195000Y-83055952D01*
X264004523Y-82936904D01*
X263909285Y-82698809D01*
X263909285Y-81746428D01*
X264004523Y-81508333D01*
X264195000Y-81389285D01*
X264575952Y-81389285D01*
X264766428Y-81508333D01*
X264861666Y-81746428D01*
X264861666Y-81984523D01*
X263909285Y-82222619D01*
X265433095Y-81389285D02*
X266195000Y-81389285D01*
X265718809Y-80555952D02*
X265718809Y-82698809D01*
X265814047Y-82936904D01*
X266004523Y-83055952D01*
X266195000Y-83055952D01*
X252671190Y-85414285D02*
X252671190Y-87557142D01*
X252575952Y-87795238D01*
X252385476Y-87914285D01*
X252290238Y-87914285D01*
X252671190Y-84580952D02*
X252575952Y-84700000D01*
X252671190Y-84819047D01*
X252766428Y-84700000D01*
X252671190Y-84580952D01*
X252671190Y-84819047D01*
X254480714Y-85414285D02*
X254480714Y-87080952D01*
X253623571Y-85414285D02*
X253623571Y-86723809D01*
X253718809Y-86961904D01*
X253909285Y-87080952D01*
X254195000Y-87080952D01*
X254385476Y-86961904D01*
X254480714Y-86842857D01*
X255433095Y-85414285D02*
X255433095Y-87080952D01*
X255433095Y-85652380D02*
X255528333Y-85533333D01*
X255718809Y-85414285D01*
X256004523Y-85414285D01*
X256195000Y-85533333D01*
X256290238Y-85771428D01*
X256290238Y-87080952D01*
X258099761Y-86961904D02*
X257909285Y-87080952D01*
X257528333Y-87080952D01*
X257337857Y-86961904D01*
X257242619Y-86842857D01*
X257147380Y-86604761D01*
X257147380Y-85890476D01*
X257242619Y-85652380D01*
X257337857Y-85533333D01*
X257528333Y-85414285D01*
X257909285Y-85414285D01*
X258099761Y-85533333D01*
X258671190Y-85414285D02*
X259433095Y-85414285D01*
X258956904Y-84580952D02*
X258956904Y-86723809D01*
X259052142Y-86961904D01*
X259242619Y-87080952D01*
X259433095Y-87080952D01*
X260099761Y-87080952D02*
X260099761Y-85414285D01*
X260099761Y-84580952D02*
X260004523Y-84700000D01*
X260099761Y-84819047D01*
X260195000Y-84700000D01*
X260099761Y-84580952D01*
X260099761Y-84819047D01*
X261337857Y-87080952D02*
X261147380Y-86961904D01*
X261052142Y-86842857D01*
X260956904Y-86604761D01*
X260956904Y-85890476D01*
X261052142Y-85652380D01*
X261147380Y-85533333D01*
X261337857Y-85414285D01*
X261623571Y-85414285D01*
X261814047Y-85533333D01*
X261909285Y-85652380D01*
X262004523Y-85890476D01*
X262004523Y-86604761D01*
X261909285Y-86842857D01*
X261814047Y-86961904D01*
X261623571Y-87080952D01*
X261337857Y-87080952D01*
X262861666Y-85414285D02*
X262861666Y-87080952D01*
X262861666Y-85652380D02*
X262956904Y-85533333D01*
X263147380Y-85414285D01*
X263433095Y-85414285D01*
X263623571Y-85533333D01*
X263718809Y-85771428D01*
X263718809Y-87080952D01*
X266195000Y-87080952D02*
X266195000Y-84580952D01*
X266195000Y-85533333D02*
X266385476Y-85414285D01*
X266766428Y-85414285D01*
X266956904Y-85533333D01*
X267052142Y-85652380D01*
X267147380Y-85890476D01*
X267147380Y-86604761D01*
X267052142Y-86842857D01*
X266956904Y-86961904D01*
X266766428Y-87080952D01*
X266385476Y-87080952D01*
X266195000Y-86961904D01*
X268290238Y-87080952D02*
X268099761Y-86961904D01*
X268004523Y-86842857D01*
X267909285Y-86604761D01*
X267909285Y-85890476D01*
X268004523Y-85652380D01*
X268099761Y-85533333D01*
X268290238Y-85414285D01*
X268575952Y-85414285D01*
X268766428Y-85533333D01*
X268861666Y-85652380D01*
X268956904Y-85890476D01*
X268956904Y-86604761D01*
X268861666Y-86842857D01*
X268766428Y-86961904D01*
X268575952Y-87080952D01*
X268290238Y-87080952D01*
X269623571Y-87080952D02*
X270671190Y-85414285D01*
X269623571Y-85414285D02*
X270671190Y-87080952D01*
X252480714Y-88605952D02*
X253718809Y-88605952D01*
X253052142Y-89558333D01*
X253337857Y-89558333D01*
X253528333Y-89677380D01*
X253623571Y-89796428D01*
X253718809Y-90034523D01*
X253718809Y-90629761D01*
X253623571Y-90867857D01*
X253528333Y-90986904D01*
X253337857Y-91105952D01*
X252766428Y-91105952D01*
X252575952Y-90986904D01*
X252480714Y-90867857D01*
X254290238Y-89439285D02*
X255052142Y-89439285D01*
X254575952Y-91105952D02*
X254575952Y-88963095D01*
X254671190Y-88725000D01*
X254861666Y-88605952D01*
X255052142Y-88605952D01*
X257147380Y-90986904D02*
X257337857Y-91105952D01*
X257718809Y-91105952D01*
X257909285Y-90986904D01*
X258004523Y-90748809D01*
X258004523Y-90629761D01*
X257909285Y-90391666D01*
X257718809Y-90272619D01*
X257433095Y-90272619D01*
X257242619Y-90153571D01*
X257147380Y-89915476D01*
X257147380Y-89796428D01*
X257242619Y-89558333D01*
X257433095Y-89439285D01*
X257718809Y-89439285D01*
X257909285Y-89558333D01*
X259147380Y-91105952D02*
X258956904Y-90986904D01*
X258861666Y-90867857D01*
X258766428Y-90629761D01*
X258766428Y-89915476D01*
X258861666Y-89677380D01*
X258956904Y-89558333D01*
X259147380Y-89439285D01*
X259433095Y-89439285D01*
X259623571Y-89558333D01*
X259718809Y-89677380D01*
X259814047Y-89915476D01*
X259814047Y-90629761D01*
X259718809Y-90867857D01*
X259623571Y-90986904D01*
X259433095Y-91105952D01*
X259147380Y-91105952D01*
X261528333Y-90986904D02*
X261337857Y-91105952D01*
X260956904Y-91105952D01*
X260766428Y-90986904D01*
X260671190Y-90867857D01*
X260575952Y-90629761D01*
X260575952Y-89915476D01*
X260671190Y-89677380D01*
X260766428Y-89558333D01*
X260956904Y-89439285D01*
X261337857Y-89439285D01*
X261528333Y-89558333D01*
X262385476Y-91105952D02*
X262385476Y-88605952D01*
X262575952Y-90153571D02*
X263147380Y-91105952D01*
X263147380Y-89439285D02*
X262385476Y-90391666D01*
X264766428Y-90986904D02*
X264575952Y-91105952D01*
X264195000Y-91105952D01*
X264004523Y-90986904D01*
X263909285Y-90748809D01*
X263909285Y-89796428D01*
X264004523Y-89558333D01*
X264195000Y-89439285D01*
X264575952Y-89439285D01*
X264766428Y-89558333D01*
X264861666Y-89796428D01*
X264861666Y-90034523D01*
X263909285Y-90272619D01*
X265433095Y-89439285D02*
X266195000Y-89439285D01*
X265718809Y-88605952D02*
X265718809Y-90748809D01*
X265814047Y-90986904D01*
X266004523Y-91105952D01*
X266195000Y-91105952D01*
X252575952Y-95011904D02*
X252766428Y-95130952D01*
X253147380Y-95130952D01*
X253337857Y-95011904D01*
X253433095Y-94773809D01*
X253433095Y-94654761D01*
X253337857Y-94416666D01*
X253147380Y-94297619D01*
X252861666Y-94297619D01*
X252671190Y-94178571D01*
X252575952Y-93940476D01*
X252575952Y-93821428D01*
X252671190Y-93583333D01*
X252861666Y-93464285D01*
X253147380Y-93464285D01*
X253337857Y-93583333D01*
X254099761Y-93464285D02*
X254480714Y-95130952D01*
X254861666Y-93940476D01*
X255242619Y-95130952D01*
X255623571Y-93464285D01*
X256385476Y-95130952D02*
X256385476Y-93464285D01*
X256385476Y-92630952D02*
X256290238Y-92750000D01*
X256385476Y-92869047D01*
X256480714Y-92750000D01*
X256385476Y-92630952D01*
X256385476Y-92869047D01*
X257052142Y-93464285D02*
X257814047Y-93464285D01*
X257337857Y-92630952D02*
X257337857Y-94773809D01*
X257433095Y-95011904D01*
X257623571Y-95130952D01*
X257814047Y-95130952D01*
X259337857Y-95011904D02*
X259147380Y-95130952D01*
X258766428Y-95130952D01*
X258575952Y-95011904D01*
X258480714Y-94892857D01*
X258385476Y-94654761D01*
X258385476Y-93940476D01*
X258480714Y-93702380D01*
X258575952Y-93583333D01*
X258766428Y-93464285D01*
X259147380Y-93464285D01*
X259337857Y-93583333D01*
X260195000Y-95130952D02*
X260195000Y-92630952D01*
X261052142Y-95130952D02*
X261052142Y-93821428D01*
X260956904Y-93583333D01*
X260766428Y-93464285D01*
X260480714Y-93464285D01*
X260290238Y-93583333D01*
X260195000Y-93702380D01*
X252956904Y-99155952D02*
X252766428Y-99036904D01*
X252671190Y-98798809D01*
X252671190Y-96655952D01*
X253718809Y-99155952D02*
X253718809Y-97489285D01*
X253718809Y-96655952D02*
X253623571Y-96775000D01*
X253718809Y-96894047D01*
X253814047Y-96775000D01*
X253718809Y-96655952D01*
X253718809Y-96894047D01*
X255528333Y-97489285D02*
X255528333Y-99513095D01*
X255433095Y-99751190D01*
X255337857Y-99870238D01*
X255147380Y-99989285D01*
X254861666Y-99989285D01*
X254671190Y-99870238D01*
X255528333Y-99036904D02*
X255337857Y-99155952D01*
X254956904Y-99155952D01*
X254766428Y-99036904D01*
X254671190Y-98917857D01*
X254575952Y-98679761D01*
X254575952Y-97965476D01*
X254671190Y-97727380D01*
X254766428Y-97608333D01*
X254956904Y-97489285D01*
X255337857Y-97489285D01*
X255528333Y-97608333D01*
X256480714Y-99155952D02*
X256480714Y-96655952D01*
X257337857Y-99155952D02*
X257337857Y-97846428D01*
X257242619Y-97608333D01*
X257052142Y-97489285D01*
X256766428Y-97489285D01*
X256575952Y-97608333D01*
X256480714Y-97727380D01*
X258004523Y-97489285D02*
X258766428Y-97489285D01*
X258290238Y-96655952D02*
X258290238Y-98798809D01*
X258385476Y-99036904D01*
X258575952Y-99155952D01*
X258766428Y-99155952D01*
X252956904Y-103180952D02*
X252766428Y-103061904D01*
X252671190Y-102823809D01*
X252671190Y-100680952D01*
X253718809Y-103180952D02*
X253718809Y-101514285D01*
X253718809Y-100680952D02*
X253623571Y-100800000D01*
X253718809Y-100919047D01*
X253814047Y-100800000D01*
X253718809Y-100680952D01*
X253718809Y-100919047D01*
X255528333Y-101514285D02*
X255528333Y-103538095D01*
X255433095Y-103776190D01*
X255337857Y-103895238D01*
X255147380Y-104014285D01*
X254861666Y-104014285D01*
X254671190Y-103895238D01*
X255528333Y-103061904D02*
X255337857Y-103180952D01*
X254956904Y-103180952D01*
X254766428Y-103061904D01*
X254671190Y-102942857D01*
X254575952Y-102704761D01*
X254575952Y-101990476D01*
X254671190Y-101752380D01*
X254766428Y-101633333D01*
X254956904Y-101514285D01*
X255337857Y-101514285D01*
X255528333Y-101633333D01*
X256480714Y-103180952D02*
X256480714Y-100680952D01*
X257337857Y-103180952D02*
X257337857Y-101871428D01*
X257242619Y-101633333D01*
X257052142Y-101514285D01*
X256766428Y-101514285D01*
X256575952Y-101633333D01*
X256480714Y-101752380D01*
X258004523Y-101514285D02*
X258766428Y-101514285D01*
X258290238Y-100680952D02*
X258290238Y-102823809D01*
X258385476Y-103061904D01*
X258575952Y-103180952D01*
X258766428Y-103180952D01*
X260956904Y-101514285D02*
X260956904Y-103657142D01*
X260861666Y-103895238D01*
X260671190Y-104014285D01*
X260575952Y-104014285D01*
X260956904Y-100680952D02*
X260861666Y-100800000D01*
X260956904Y-100919047D01*
X261052142Y-100800000D01*
X260956904Y-100680952D01*
X260956904Y-100919047D01*
X262766428Y-101514285D02*
X262766428Y-103180952D01*
X261909285Y-101514285D02*
X261909285Y-102823809D01*
X262004523Y-103061904D01*
X262195000Y-103180952D01*
X262480714Y-103180952D01*
X262671190Y-103061904D01*
X262766428Y-102942857D01*
X263718809Y-101514285D02*
X263718809Y-103180952D01*
X263718809Y-101752380D02*
X263814047Y-101633333D01*
X264004523Y-101514285D01*
X264290238Y-101514285D01*
X264480714Y-101633333D01*
X264575952Y-101871428D01*
X264575952Y-103180952D01*
X266385476Y-103061904D02*
X266195000Y-103180952D01*
X265814047Y-103180952D01*
X265623571Y-103061904D01*
X265528333Y-102942857D01*
X265433095Y-102704761D01*
X265433095Y-101990476D01*
X265528333Y-101752380D01*
X265623571Y-101633333D01*
X265814047Y-101514285D01*
X266195000Y-101514285D01*
X266385476Y-101633333D01*
X266956904Y-101514285D02*
X267718809Y-101514285D01*
X267242619Y-100680952D02*
X267242619Y-102823809D01*
X267337857Y-103061904D01*
X267528333Y-103180952D01*
X267718809Y-103180952D01*
X268385476Y-103180952D02*
X268385476Y-101514285D01*
X268385476Y-100680952D02*
X268290238Y-100800000D01*
X268385476Y-100919047D01*
X268480714Y-100800000D01*
X268385476Y-100680952D01*
X268385476Y-100919047D01*
X269623571Y-103180952D02*
X269433095Y-103061904D01*
X269337857Y-102942857D01*
X269242619Y-102704761D01*
X269242619Y-101990476D01*
X269337857Y-101752380D01*
X269433095Y-101633333D01*
X269623571Y-101514285D01*
X269909285Y-101514285D01*
X270099761Y-101633333D01*
X270195000Y-101752380D01*
X270290238Y-101990476D01*
X270290238Y-102704761D01*
X270195000Y-102942857D01*
X270099761Y-103061904D01*
X269909285Y-103180952D01*
X269623571Y-103180952D01*
X271147380Y-101514285D02*
X271147380Y-103180952D01*
X271147380Y-101752380D02*
X271242619Y-101633333D01*
X271433095Y-101514285D01*
X271718809Y-101514285D01*
X271909285Y-101633333D01*
X272004523Y-101871428D01*
X272004523Y-103180952D01*
X253433095Y-107086904D02*
X253242619Y-107205952D01*
X252861666Y-107205952D01*
X252671190Y-107086904D01*
X252575952Y-106848809D01*
X252575952Y-105896428D01*
X252671190Y-105658333D01*
X252861666Y-105539285D01*
X253242619Y-105539285D01*
X253433095Y-105658333D01*
X253528333Y-105896428D01*
X253528333Y-106134523D01*
X252575952Y-106372619D01*
X254099761Y-105539285D02*
X254861666Y-105539285D01*
X254385476Y-104705952D02*
X254385476Y-106848809D01*
X254480714Y-107086904D01*
X254671190Y-107205952D01*
X254861666Y-107205952D01*
X255528333Y-107205952D02*
X255528333Y-104705952D01*
X256385476Y-107205952D02*
X256385476Y-105896428D01*
X256290238Y-105658333D01*
X256099761Y-105539285D01*
X255814047Y-105539285D01*
X255623571Y-105658333D01*
X255528333Y-105777380D01*
X258099761Y-107086904D02*
X257909285Y-107205952D01*
X257528333Y-107205952D01*
X257337857Y-107086904D01*
X257242619Y-106848809D01*
X257242619Y-105896428D01*
X257337857Y-105658333D01*
X257528333Y-105539285D01*
X257909285Y-105539285D01*
X258099761Y-105658333D01*
X258195000Y-105896428D01*
X258195000Y-106134523D01*
X257242619Y-106372619D01*
X259052142Y-107205952D02*
X259052142Y-105539285D01*
X259052142Y-106015476D02*
X259147380Y-105777380D01*
X259242619Y-105658333D01*
X259433095Y-105539285D01*
X259623571Y-105539285D01*
X260290238Y-105539285D02*
X260290238Y-107205952D01*
X260290238Y-105777380D02*
X260385476Y-105658333D01*
X260575952Y-105539285D01*
X260861666Y-105539285D01*
X261052142Y-105658333D01*
X261147380Y-105896428D01*
X261147380Y-107205952D01*
X262861666Y-107086904D02*
X262671190Y-107205952D01*
X262290238Y-107205952D01*
X262099761Y-107086904D01*
X262004523Y-106848809D01*
X262004523Y-105896428D01*
X262099761Y-105658333D01*
X262290238Y-105539285D01*
X262671190Y-105539285D01*
X262861666Y-105658333D01*
X262956904Y-105896428D01*
X262956904Y-106134523D01*
X262004523Y-106372619D01*
X263528333Y-105539285D02*
X264290238Y-105539285D01*
X263814047Y-104705952D02*
X263814047Y-106848809D01*
X263909285Y-107086904D01*
X264099761Y-107205952D01*
X264290238Y-107205952D01*
D14*
X203000000Y-149000000D02*
X185000000Y-149000000D01*
X240000000Y-151000000D02*
X240000000Y-155000000D01*
X210000000Y-151000000D02*
X210000000Y-155000000D01*
X209000000Y-156000000D02*
X205000000Y-156000000D01*
X240000000Y-121000000D02*
X240000000Y-125000000D01*
X201000000Y-30000000D02*
X209000000Y-30000000D01*
X185000000Y-36000000D02*
X199000000Y-36000000D01*
X233000000Y-150000000D02*
X211000000Y-150000000D01*
X240000000Y-31000000D02*
X240000000Y-35000000D01*
X239000000Y-156000000D02*
X235000000Y-156000000D01*
X238000000Y-67000000D02*
X238000000Y-119000000D01*
X184000000Y-150000000D02*
X184000000Y-159000000D01*
X200000000Y-35000000D02*
X200000000Y-31000000D01*
X183000000Y-160000000D02*
X51000000Y-160000000D01*
X234000000Y-155000000D02*
X234000000Y-151000000D01*
X204000000Y-155000000D02*
X204000000Y-150000000D01*
X51000000Y-26000000D02*
X183000000Y-26000000D01*
X184000000Y-27000000D02*
X184000000Y-35000000D01*
X235000000Y-30000000D02*
X239000000Y-30000000D01*
X211000000Y-32000000D02*
X233000000Y-32000000D01*
X238000000Y-127000000D02*
X238000000Y-149000000D01*
X238000000Y-37000000D02*
X238000000Y-59000000D01*
X240000000Y-61000000D02*
X240000000Y-65000000D01*
X50000000Y-159000000D02*
X50000000Y-27000000D01*
X239000000Y-36000000D02*
G75*
G03*
X240000000Y-35000000I0J1000000D01*
G01*
X211000000Y-150000000D02*
G75*
G03*
X210000000Y-151000000I0J-1000000D01*
G01*
X204000000Y-155000000D02*
G75*
G03*
X205000000Y-156000000I1000000J0D01*
G01*
X184000000Y-27000000D02*
G75*
G03*
X183000000Y-26000000I-1000000J0D01*
G01*
X240000000Y-121000000D02*
G75*
G03*
X239000000Y-120000000I-1000000J0D01*
G01*
X238000000Y-59000000D02*
G75*
G03*
X239000000Y-60000000I1000000J0D01*
G01*
X239000000Y-36000000D02*
G75*
G03*
X238000000Y-37000000I0J-1000000D01*
G01*
X239000000Y-126000000D02*
G75*
G03*
X240000000Y-125000000I0J1000000D01*
G01*
X240000000Y-61000000D02*
G75*
G03*
X239000000Y-60000000I-1000000J0D01*
G01*
X199000000Y-36000000D02*
G75*
G03*
X200000000Y-35000000I0J1000000D01*
G01*
X233000000Y-32000000D02*
G75*
G03*
X234000000Y-31000000I0J1000000D01*
G01*
X210000000Y-31000000D02*
G75*
G03*
X209000000Y-30000000I-1000000J0D01*
G01*
X210000000Y-31000000D02*
G75*
G03*
X211000000Y-32000000I1000000J0D01*
G01*
X185000000Y-149000000D02*
G75*
G03*
X184000000Y-150000000I0J-1000000D01*
G01*
X238000000Y-149000000D02*
G75*
G03*
X239000000Y-150000000I1000000J0D01*
G01*
X201000000Y-30000000D02*
G75*
G03*
X200000000Y-31000000I0J-1000000D01*
G01*
X234000000Y-155000000D02*
G75*
G03*
X235000000Y-156000000I1000000J0D01*
G01*
X239000000Y-156000000D02*
G75*
G03*
X240000000Y-155000000I0J1000000D01*
G01*
X238000000Y-119000000D02*
G75*
G03*
X239000000Y-120000000I1000000J0D01*
G01*
X239000000Y-126000000D02*
G75*
G03*
X238000000Y-127000000I0J-1000000D01*
G01*
X240000000Y-31000000D02*
G75*
G03*
X239000000Y-30000000I-1000000J0D01*
G01*
X204000000Y-150000000D02*
G75*
G03*
X203000000Y-149000000I-1000000J0D01*
G01*
X50000000Y-159000000D02*
G75*
G03*
X51000000Y-160000000I999999J-1D01*
G01*
X234000000Y-151000000D02*
G75*
G03*
X233000000Y-150000000I-1000000J0D01*
G01*
X209000000Y-156000000D02*
G75*
G03*
X210000000Y-155000000I0J1000000D01*
G01*
X51000000Y-26000000D02*
G75*
G03*
X50000000Y-27000000I-1J-999999D01*
G01*
X239000000Y-66000000D02*
G75*
G03*
X240000000Y-65000000I0J1000000D01*
G01*
X184000000Y-35000000D02*
G75*
G03*
X185000000Y-36000000I1000000J0D01*
G01*
X235000000Y-30000000D02*
G75*
G03*
X234000000Y-31000000I0J-1000000D01*
G01*
X239000000Y-66000000D02*
G75*
G03*
X238000000Y-67000000I0J-1000000D01*
G01*
X183000000Y-160000000D02*
G75*
G03*
X184000000Y-159000000I0J1000000D01*
G01*
X240000000Y-151000000D02*
G75*
G03*
X239000000Y-150000000I-1000000J0D01*
G01*
G04 #@! TA.AperFunction,ComponentPad*
G36*
G01*
X235000000Y-64800000D02*
X235000000Y-61200000D01*
G75*
G02*
X235200000Y-61000000I200000J0D01*
G01*
X238800000Y-61000000D01*
G75*
G02*
X239000000Y-61200000I0J-200000D01*
G01*
X239000000Y-64800000D01*
G75*
G02*
X238800000Y-65000000I-200000J0D01*
G01*
X235200000Y-65000000D01*
G75*
G02*
X235000000Y-64800000I0J200000D01*
G01*
G37*
G04 #@! TD.AperFunction*
G04 #@! TA.AperFunction,ComponentPad*
G36*
G01*
X205000000Y-34800000D02*
X205000000Y-31200000D01*
G75*
G02*
X205200000Y-31000000I200000J0D01*
G01*
X208800000Y-31000000D01*
G75*
G02*
X209000000Y-31200000I0J-200000D01*
G01*
X209000000Y-34800000D01*
G75*
G02*
X208800000Y-35000000I-200000J0D01*
G01*
X205200000Y-35000000D01*
G75*
G02*
X205000000Y-34800000I0J200000D01*
G01*
G37*
G04 #@! TD.AperFunction*
G04 #@! TA.AperFunction,ComponentPad*
G36*
G01*
X55000000Y-154800000D02*
X55000000Y-151200000D01*
G75*
G02*
X55200000Y-151000000I200000J0D01*
G01*
X58800000Y-151000000D01*
G75*
G02*
X59000000Y-151200000I0J-200000D01*
G01*
X59000000Y-154800000D01*
G75*
G02*
X58800000Y-155000000I-200000J0D01*
G01*
X55200000Y-155000000D01*
G75*
G02*
X55000000Y-154800000I0J200000D01*
G01*
G37*
G04 #@! TD.AperFunction*
G04 #@! TA.AperFunction,ComponentPad*
G36*
G01*
X205000000Y-124800000D02*
X205000000Y-121200000D01*
G75*
G02*
X205200000Y-121000000I200000J0D01*
G01*
X208800000Y-121000000D01*
G75*
G02*
X209000000Y-121200000I0J-200000D01*
G01*
X209000000Y-124800000D01*
G75*
G02*
X208800000Y-125000000I-200000J0D01*
G01*
X205200000Y-125000000D01*
G75*
G02*
X205000000Y-124800000I0J200000D01*
G01*
G37*
G04 #@! TD.AperFunction*
G04 #@! TA.AperFunction,ComponentPad*
G36*
G01*
X235000000Y-154800000D02*
X235000000Y-151200000D01*
G75*
G02*
X235200000Y-151000000I200000J0D01*
G01*
X238800000Y-151000000D01*
G75*
G02*
X239000000Y-151200000I0J-200000D01*
G01*
X239000000Y-154800000D01*
G75*
G02*
X238800000Y-155000000I-200000J0D01*
G01*
X235200000Y-155000000D01*
G75*
G02*
X235000000Y-154800000I0J200000D01*
G01*
G37*
G04 #@! TD.AperFunction*
G04 #@! TA.AperFunction,ComponentPad*
G36*
G01*
X55000000Y-64800000D02*
X55000000Y-61200000D01*
G75*
G02*
X55200000Y-61000000I200000J0D01*
G01*
X58800000Y-61000000D01*
G75*
G02*
X59000000Y-61200000I0J-200000D01*
G01*
X59000000Y-64800000D01*
G75*
G02*
X58800000Y-65000000I-200000J0D01*
G01*
X55200000Y-65000000D01*
G75*
G02*
X55000000Y-64800000I0J200000D01*
G01*
G37*
G04 #@! TD.AperFunction*
G04 #@! TA.AperFunction,ComponentPad*
G36*
G01*
X115000000Y-154800000D02*
X115000000Y-151200000D01*
G75*
G02*
X115200000Y-151000000I200000J0D01*
G01*
X118800000Y-151000000D01*
G75*
G02*
X119000000Y-151200000I0J-200000D01*
G01*
X119000000Y-154800000D01*
G75*
G02*
X118800000Y-155000000I-200000J0D01*
G01*
X115200000Y-155000000D01*
G75*
G02*
X115000000Y-154800000I0J200000D01*
G01*
G37*
G04 #@! TD.AperFunction*
G04 #@! TA.AperFunction,ComponentPad*
G36*
G01*
X205000000Y-154800000D02*
X205000000Y-151200000D01*
G75*
G02*
X205200000Y-151000000I200000J0D01*
G01*
X208800000Y-151000000D01*
G75*
G02*
X209000000Y-151200000I0J-200000D01*
G01*
X209000000Y-154800000D01*
G75*
G02*
X208800000Y-155000000I-200000J0D01*
G01*
X205200000Y-155000000D01*
G75*
G02*
X205000000Y-154800000I0J200000D01*
G01*
G37*
G04 #@! TD.AperFunction*
G04 #@! TA.AperFunction,ComponentPad*
G36*
G01*
X175000000Y-154800000D02*
X175000000Y-151200000D01*
G75*
G02*
X175200000Y-151000000I200000J0D01*
G01*
X178800000Y-151000000D01*
G75*
G02*
X179000000Y-151200000I0J-200000D01*
G01*
X179000000Y-154800000D01*
G75*
G02*
X178800000Y-155000000I-200000J0D01*
G01*
X175200000Y-155000000D01*
G75*
G02*
X175000000Y-154800000I0J200000D01*
G01*
G37*
G04 #@! TD.AperFunction*
G04 #@! TA.AperFunction,ComponentPad*
G36*
G01*
X235000000Y-34800000D02*
X235000000Y-31200000D01*
G75*
G02*
X235200000Y-31000000I200000J0D01*
G01*
X238800000Y-31000000D01*
G75*
G02*
X239000000Y-31200000I0J-200000D01*
G01*
X239000000Y-34800000D01*
G75*
G02*
X238800000Y-35000000I-200000J0D01*
G01*
X235200000Y-35000000D01*
G75*
G02*
X235000000Y-34800000I0J200000D01*
G01*
G37*
G04 #@! TD.AperFunction*
G04 #@! TA.AperFunction,ComponentPad*
G36*
G01*
X55000000Y-124800000D02*
X55000000Y-121200000D01*
G75*
G02*
X55200000Y-121000000I200000J0D01*
G01*
X58800000Y-121000000D01*
G75*
G02*
X59000000Y-121200000I0J-200000D01*
G01*
X59000000Y-124800000D01*
G75*
G02*
X58800000Y-125000000I-200000J0D01*
G01*
X55200000Y-125000000D01*
G75*
G02*
X55000000Y-124800000I0J200000D01*
G01*
G37*
G04 #@! TD.AperFunction*
G04 #@! TA.AperFunction,ComponentPad*
G36*
G01*
X115000000Y-34800000D02*
X115000000Y-31200000D01*
G75*
G02*
X115200000Y-31000000I200000J0D01*
G01*
X118800000Y-31000000D01*
G75*
G02*
X119000000Y-31200000I0J-200000D01*
G01*
X119000000Y-34800000D01*
G75*
G02*
X118800000Y-35000000I-200000J0D01*
G01*
X115200000Y-35000000D01*
G75*
G02*
X115000000Y-34800000I0J200000D01*
G01*
G37*
G04 #@! TD.AperFunction*
G04 #@! TA.AperFunction,ComponentPad*
G36*
G01*
X205000000Y-64800000D02*
X205000000Y-61200000D01*
G75*
G02*
X205200000Y-61000000I200000J0D01*
G01*
X208800000Y-61000000D01*
G75*
G02*
X209000000Y-61200000I0J-200000D01*
G01*
X209000000Y-64800000D01*
G75*
G02*
X208800000Y-65000000I-200000J0D01*
G01*
X205200000Y-65000000D01*
G75*
G02*
X205000000Y-64800000I0J200000D01*
G01*
G37*
G04 #@! TD.AperFunction*
G04 #@! TA.AperFunction,ComponentPad*
G36*
G01*
X175000000Y-124800000D02*
X175000000Y-121200000D01*
G75*
G02*
X175200000Y-121000000I200000J0D01*
G01*
X178800000Y-121000000D01*
G75*
G02*
X179000000Y-121200000I0J-200000D01*
G01*
X179000000Y-124800000D01*
G75*
G02*
X178800000Y-125000000I-200000J0D01*
G01*
X175200000Y-125000000D01*
G75*
G02*
X175000000Y-124800000I0J200000D01*
G01*
G37*
G04 #@! TD.AperFunction*
G04 #@! TA.AperFunction,ComponentPad*
G36*
G01*
X175000000Y-34800000D02*
X175000000Y-31200000D01*
G75*
G02*
X175200000Y-31000000I200000J0D01*
G01*
X178800000Y-31000000D01*
G75*
G02*
X179000000Y-31200000I0J-200000D01*
G01*
X179000000Y-34800000D01*
G75*
G02*
X178800000Y-35000000I-200000J0D01*
G01*
X175200000Y-35000000D01*
G75*
G02*
X175000000Y-34800000I0J200000D01*
G01*
G37*
G04 #@! TD.AperFunction*
G04 #@! TA.AperFunction,ComponentPad*
G36*
G01*
X235000000Y-124800000D02*
X235000000Y-121200000D01*
G75*
G02*
X235200000Y-121000000I200000J0D01*
G01*
X238800000Y-121000000D01*
G75*
G02*
X239000000Y-121200000I0J-200000D01*
G01*
X239000000Y-124800000D01*
G75*
G02*
X238800000Y-125000000I-200000J0D01*
G01*
X235200000Y-125000000D01*
G75*
G02*
X235000000Y-124800000I0J200000D01*
G01*
G37*
G04 #@! TD.AperFunction*
G04 #@! TA.AperFunction,ComponentPad*
G36*
G01*
X115000000Y-64800000D02*
X115000000Y-61200000D01*
G75*
G02*
X115200000Y-61000000I200000J0D01*
G01*
X118800000Y-61000000D01*
G75*
G02*
X119000000Y-61200000I0J-200000D01*
G01*
X119000000Y-64800000D01*
G75*
G02*
X118800000Y-65000000I-200000J0D01*
G01*
X115200000Y-65000000D01*
G75*
G02*
X115000000Y-64800000I0J200000D01*
G01*
G37*
G04 #@! TD.AperFunction*
G04 #@! TA.AperFunction,ComponentPad*
G36*
G01*
X115000000Y-124800000D02*
X115000000Y-121200000D01*
G75*
G02*
X115200000Y-121000000I200000J0D01*
G01*
X118800000Y-121000000D01*
G75*
G02*
X119000000Y-121200000I0J-200000D01*
G01*
X119000000Y-124800000D01*
G75*
G02*
X118800000Y-125000000I-200000J0D01*
G01*
X115200000Y-125000000D01*
G75*
G02*
X115000000Y-124800000I0J200000D01*
G01*
G37*
G04 #@! TD.AperFunction*
G04 #@! TA.AperFunction,ComponentPad*
G36*
G01*
X55000000Y-34800000D02*
X55000000Y-31200000D01*
G75*
G02*
X55200000Y-31000000I200000J0D01*
G01*
X58800000Y-31000000D01*
G75*
G02*
X59000000Y-31200000I0J-200000D01*
G01*
X59000000Y-34800000D01*
G75*
G02*
X58800000Y-35000000I-200000J0D01*
G01*
X55200000Y-35000000D01*
G75*
G02*
X55000000Y-34800000I0J200000D01*
G01*
G37*
G04 #@! TD.AperFunction*
G04 #@! TA.AperFunction,ComponentPad*
G36*
G01*
X175000000Y-64800000D02*
X175000000Y-61200000D01*
G75*
G02*
X175200000Y-61000000I200000J0D01*
G01*
X178800000Y-61000000D01*
G75*
G02*
X179000000Y-61200000I0J-200000D01*
G01*
X179000000Y-64800000D01*
G75*
G02*
X178800000Y-65000000I-200000J0D01*
G01*
X175200000Y-65000000D01*
G75*
G02*
X175000000Y-64800000I0J200000D01*
G01*
G37*
G04 #@! TD.AperFunction*
G04 #@! TA.AperFunction,SMDPad,CuDef*
G36*
G01*
X79250000Y-44400000D02*
X79250000Y-45600000D01*
G75*
G02*
X79100000Y-45750000I-150000J0D01*
G01*
X66900000Y-45750000D01*
G75*
G02*
X66750000Y-45600000I0J150000D01*
G01*
X66750000Y-44400000D01*
G75*
G02*
X66900000Y-44250000I150000J0D01*
G01*
X79100000Y-44250000D01*
G75*
G02*
X79250000Y-44400000I0J-150000D01*
G01*
G37*
G04 #@! TD.AperFunction*
G04 #@! TA.AperFunction,SMDPad,CuDef*
G36*
G01*
X107250000Y-44400000D02*
X107250000Y-45600000D01*
G75*
G02*
X107100000Y-45750000I-150000J0D01*
G01*
X94900000Y-45750000D01*
G75*
G02*
X94750000Y-45600000I0J150000D01*
G01*
X94750000Y-44400000D01*
G75*
G02*
X94900000Y-44250000I150000J0D01*
G01*
X107100000Y-44250000D01*
G75*
G02*
X107250000Y-44400000I0J-150000D01*
G01*
G37*
G04 #@! TD.AperFunction*
G04 #@! TA.AperFunction,SMDPad,CuDef*
G36*
G01*
X61600000Y-133250000D02*
X60400000Y-133250000D01*
G75*
G02*
X60250000Y-133100000I0J150000D01*
G01*
X60250000Y-120900000D01*
G75*
G02*
X60400000Y-120750000I150000J0D01*
G01*
X61600000Y-120750000D01*
G75*
G02*
X61750000Y-120900000I0J-150000D01*
G01*
X61750000Y-133100000D01*
G75*
G02*
X61600000Y-133250000I-150000J0D01*
G01*
G37*
G04 #@! TD.AperFunction*
G04 #@! TA.AperFunction,SMDPad,CuDef*
G36*
G01*
X112400000Y-135750000D02*
X113600000Y-135750000D01*
G75*
G02*
X113750000Y-135900000I0J-150000D01*
G01*
X113750000Y-148100000D01*
G75*
G02*
X113600000Y-148250000I-150000J0D01*
G01*
X112400000Y-148250000D01*
G75*
G02*
X112250000Y-148100000I0J150000D01*
G01*
X112250000Y-135900000D01*
G75*
G02*
X112400000Y-135750000I150000J0D01*
G01*
G37*
G04 #@! TD.AperFunction*
G04 #@! TA.AperFunction,SMDPad,CuDef*
G36*
G01*
X60400000Y-135750000D02*
X61600000Y-135750000D01*
G75*
G02*
X61750000Y-135900000I0J-150000D01*
G01*
X61750000Y-148100000D01*
G75*
G02*
X61600000Y-148250000I-150000J0D01*
G01*
X60400000Y-148250000D01*
G75*
G02*
X60250000Y-148100000I0J150000D01*
G01*
X60250000Y-135900000D01*
G75*
G02*
X60400000Y-135750000I150000J0D01*
G01*
G37*
G04 #@! TD.AperFunction*
G04 #@! TA.AperFunction,SMDPad,CuDef*
G36*
G01*
X60400000Y-105750000D02*
X61600000Y-105750000D01*
G75*
G02*
X61750000Y-105900000I0J-150000D01*
G01*
X61750000Y-118100000D01*
G75*
G02*
X61600000Y-118250000I-150000J0D01*
G01*
X60400000Y-118250000D01*
G75*
G02*
X60250000Y-118100000I0J150000D01*
G01*
X60250000Y-105900000D01*
G75*
G02*
X60400000Y-105750000I150000J0D01*
G01*
G37*
G04 #@! TD.AperFunction*
G04 #@! TA.AperFunction,SMDPad,CuDef*
G36*
G01*
X86400000Y-75750000D02*
X87600000Y-75750000D01*
G75*
G02*
X87750000Y-75900000I0J-150000D01*
G01*
X87750000Y-88100000D01*
G75*
G02*
X87600000Y-88250000I-150000J0D01*
G01*
X86400000Y-88250000D01*
G75*
G02*
X86250000Y-88100000I0J150000D01*
G01*
X86250000Y-75900000D01*
G75*
G02*
X86400000Y-75750000I150000J0D01*
G01*
G37*
G04 #@! TD.AperFunction*
G04 #@! TA.AperFunction,SMDPad,CuDef*
G36*
G01*
X60400000Y-60750000D02*
X61600000Y-60750000D01*
G75*
G02*
X61750000Y-60900000I0J-150000D01*
G01*
X61750000Y-73100000D01*
G75*
G02*
X61600000Y-73250000I-150000J0D01*
G01*
X60400000Y-73250000D01*
G75*
G02*
X60250000Y-73100000I0J150000D01*
G01*
X60250000Y-60900000D01*
G75*
G02*
X60400000Y-60750000I150000J0D01*
G01*
G37*
G04 #@! TD.AperFunction*
G04 #@! TA.AperFunction,SMDPad,CuDef*
G36*
G01*
X227250000Y-45400000D02*
X227250000Y-46600000D01*
G75*
G02*
X227100000Y-46750000I-150000J0D01*
G01*
X214900000Y-46750000D01*
G75*
G02*
X214750000Y-46600000I0J150000D01*
G01*
X214750000Y-45400000D01*
G75*
G02*
X214900000Y-45250000I150000J0D01*
G01*
X227100000Y-45250000D01*
G75*
G02*
X227250000Y-45400000I0J-150000D01*
G01*
G37*
G04 #@! TD.AperFunction*
G04 #@! TA.AperFunction,SMDPad,CuDef*
G36*
G01*
X112400000Y-46750000D02*
X113600000Y-46750000D01*
G75*
G02*
X113750000Y-46900000I0J-150000D01*
G01*
X113750000Y-59100000D01*
G75*
G02*
X113600000Y-59250000I-150000J0D01*
G01*
X112400000Y-59250000D01*
G75*
G02*
X112250000Y-59100000I0J150000D01*
G01*
X112250000Y-46900000D01*
G75*
G02*
X112400000Y-46750000I150000J0D01*
G01*
G37*
G04 #@! TD.AperFunction*
G04 #@! TA.AperFunction,SMDPad,CuDef*
G36*
G01*
X60400000Y-46750000D02*
X61600000Y-46750000D01*
G75*
G02*
X61750000Y-46900000I0J-150000D01*
G01*
X61750000Y-59100000D01*
G75*
G02*
X61600000Y-59250000I-150000J0D01*
G01*
X60400000Y-59250000D01*
G75*
G02*
X60250000Y-59100000I0J150000D01*
G01*
X60250000Y-46900000D01*
G75*
G02*
X60400000Y-46750000I150000J0D01*
G01*
G37*
G04 #@! TD.AperFunction*
G04 #@! TA.AperFunction,SMDPad,CuDef*
G36*
G01*
X86400000Y-135750000D02*
X87600000Y-135750000D01*
G75*
G02*
X87750000Y-135900000I0J-150000D01*
G01*
X87750000Y-148100000D01*
G75*
G02*
X87600000Y-148250000I-150000J0D01*
G01*
X86400000Y-148250000D01*
G75*
G02*
X86250000Y-148100000I0J150000D01*
G01*
X86250000Y-135900000D01*
G75*
G02*
X86400000Y-135750000I150000J0D01*
G01*
G37*
G04 #@! TD.AperFunction*
G04 #@! TA.AperFunction,SMDPad,CuDef*
G36*
G01*
X112400000Y-75750000D02*
X113600000Y-75750000D01*
G75*
G02*
X113750000Y-75900000I0J-150000D01*
G01*
X113750000Y-88100000D01*
G75*
G02*
X113600000Y-88250000I-150000J0D01*
G01*
X112400000Y-88250000D01*
G75*
G02*
X112250000Y-88100000I0J150000D01*
G01*
X112250000Y-75900000D01*
G75*
G02*
X112400000Y-75750000I150000J0D01*
G01*
G37*
G04 #@! TD.AperFunction*
G04 #@! TA.AperFunction,SMDPad,CuDef*
G36*
G01*
X86400000Y-60750000D02*
X87600000Y-60750000D01*
G75*
G02*
X87750000Y-60900000I0J-150000D01*
G01*
X87750000Y-73100000D01*
G75*
G02*
X87600000Y-73250000I-150000J0D01*
G01*
X86400000Y-73250000D01*
G75*
G02*
X86250000Y-73100000I0J150000D01*
G01*
X86250000Y-60900000D01*
G75*
G02*
X86400000Y-60750000I150000J0D01*
G01*
G37*
G04 #@! TD.AperFunction*
G04 #@! TA.AperFunction,SMDPad,CuDef*
G36*
G01*
X112400000Y-60750000D02*
X113600000Y-60750000D01*
G75*
G02*
X113750000Y-60900000I0J-150000D01*
G01*
X113750000Y-73100000D01*
G75*
G02*
X113600000Y-73250000I-150000J0D01*
G01*
X112400000Y-73250000D01*
G75*
G02*
X112250000Y-73100000I0J150000D01*
G01*
X112250000Y-60900000D01*
G75*
G02*
X112400000Y-60750000I150000J0D01*
G01*
G37*
G04 #@! TD.AperFunction*
G04 #@! TA.AperFunction,SMDPad,CuDef*
G36*
G01*
X86400000Y-120750000D02*
X87600000Y-120750000D01*
G75*
G02*
X87750000Y-120900000I0J-150000D01*
G01*
X87750000Y-133100000D01*
G75*
G02*
X87600000Y-133250000I-150000J0D01*
G01*
X86400000Y-133250000D01*
G75*
G02*
X86250000Y-133100000I0J150000D01*
G01*
X86250000Y-120900000D01*
G75*
G02*
X86400000Y-120750000I150000J0D01*
G01*
G37*
G04 #@! TD.AperFunction*
G04 #@! TA.AperFunction,SMDPad,CuDef*
G36*
G01*
X60400000Y-75750000D02*
X61600000Y-75750000D01*
G75*
G02*
X61750000Y-75900000I0J-150000D01*
G01*
X61750000Y-88100000D01*
G75*
G02*
X61600000Y-88250000I-150000J0D01*
G01*
X60400000Y-88250000D01*
G75*
G02*
X60250000Y-88100000I0J150000D01*
G01*
X60250000Y-75900000D01*
G75*
G02*
X60400000Y-75750000I150000J0D01*
G01*
G37*
G04 #@! TD.AperFunction*
G04 #@! TA.AperFunction,SMDPad,CuDef*
G36*
G01*
X112400000Y-120750000D02*
X113600000Y-120750000D01*
G75*
G02*
X113750000Y-120900000I0J-150000D01*
G01*
X113750000Y-133100000D01*
G75*
G02*
X113600000Y-133250000I-150000J0D01*
G01*
X112400000Y-133250000D01*
G75*
G02*
X112250000Y-133100000I0J150000D01*
G01*
X112250000Y-120900000D01*
G75*
G02*
X112400000Y-120750000I150000J0D01*
G01*
G37*
G04 #@! TD.AperFunction*
G04 #@! TA.AperFunction,SMDPad,CuDef*
G36*
G01*
X163250000Y-37400000D02*
X163250000Y-38600000D01*
G75*
G02*
X163100000Y-38750000I-150000J0D01*
G01*
X150900000Y-38750000D01*
G75*
G02*
X150750000Y-38600000I0J150000D01*
G01*
X150750000Y-37400000D01*
G75*
G02*
X150900000Y-37250000I150000J0D01*
G01*
X163100000Y-37250000D01*
G75*
G02*
X163250000Y-37400000I0J-150000D01*
G01*
G37*
G04 #@! TD.AperFunction*
G04 #@! TA.AperFunction,SMDPad,CuDef*
G36*
G01*
X112400000Y-90750000D02*
X113600000Y-90750000D01*
G75*
G02*
X113750000Y-90900000I0J-150000D01*
G01*
X113750000Y-103100000D01*
G75*
G02*
X113600000Y-103250000I-150000J0D01*
G01*
X112400000Y-103250000D01*
G75*
G02*
X112250000Y-103100000I0J150000D01*
G01*
X112250000Y-90900000D01*
G75*
G02*
X112400000Y-90750000I150000J0D01*
G01*
G37*
G04 #@! TD.AperFunction*
G04 #@! TA.AperFunction,SMDPad,CuDef*
G36*
G01*
X86400000Y-105750000D02*
X87600000Y-105750000D01*
G75*
G02*
X87750000Y-105900000I0J-150000D01*
G01*
X87750000Y-118100000D01*
G75*
G02*
X87600000Y-118250000I-150000J0D01*
G01*
X86400000Y-118250000D01*
G75*
G02*
X86250000Y-118100000I0J150000D01*
G01*
X86250000Y-105900000D01*
G75*
G02*
X86400000Y-105750000I150000J0D01*
G01*
G37*
G04 #@! TD.AperFunction*
G04 #@! TA.AperFunction,SMDPad,CuDef*
G36*
G01*
X112400000Y-105750000D02*
X113600000Y-105750000D01*
G75*
G02*
X113750000Y-105900000I0J-150000D01*
G01*
X113750000Y-118100000D01*
G75*
G02*
X113600000Y-118250000I-150000J0D01*
G01*
X112400000Y-118250000D01*
G75*
G02*
X112250000Y-118100000I0J150000D01*
G01*
X112250000Y-105900000D01*
G75*
G02*
X112400000Y-105750000I150000J0D01*
G01*
G37*
G04 #@! TD.AperFunction*
G04 #@! TA.AperFunction,SMDPad,CuDef*
G36*
G01*
X86400000Y-90750000D02*
X87600000Y-90750000D01*
G75*
G02*
X87750000Y-90900000I0J-150000D01*
G01*
X87750000Y-103100000D01*
G75*
G02*
X87600000Y-103250000I-150000J0D01*
G01*
X86400000Y-103250000D01*
G75*
G02*
X86250000Y-103100000I0J150000D01*
G01*
X86250000Y-90900000D01*
G75*
G02*
X86400000Y-90750000I150000J0D01*
G01*
G37*
G04 #@! TD.AperFunction*
G04 #@! TA.AperFunction,SMDPad,CuDef*
G36*
G01*
X86400000Y-46750000D02*
X87600000Y-46750000D01*
G75*
G02*
X87750000Y-46900000I0J-150000D01*
G01*
X87750000Y-59100000D01*
G75*
G02*
X87600000Y-59250000I-150000J0D01*
G01*
X86400000Y-59250000D01*
G75*
G02*
X86250000Y-59100000I0J150000D01*
G01*
X86250000Y-46900000D01*
G75*
G02*
X86400000Y-46750000I150000J0D01*
G01*
G37*
G04 #@! TD.AperFunction*
G04 #@! TA.AperFunction,SMDPad,CuDef*
G36*
G01*
X60400000Y-90750000D02*
X61600000Y-90750000D01*
G75*
G02*
X61750000Y-90900000I0J-150000D01*
G01*
X61750000Y-103100000D01*
G75*
G02*
X61600000Y-103250000I-150000J0D01*
G01*
X60400000Y-103250000D01*
G75*
G02*
X60250000Y-103100000I0J150000D01*
G01*
X60250000Y-90900000D01*
G75*
G02*
X60400000Y-90750000I150000J0D01*
G01*
G37*
G04 #@! TD.AperFunction*
M02*
