M48
; FORMAT={-:-/ absolute / metric / decimal}
; #@! TF.GenerationSoftware,Kicad,Pcbnew,6.0.10+dfsg-1~bpo11+1
; #@! TF.FileFunction,Plated,1,6,PTH
FMAT,2
METRIC
; #@! TA.AperFunction,Plated,PTH,ComponentDrill
T1C3.200
%
G90
G05
T1
X57.0Y-33.0
X57.0Y-63.0
X57.0Y-123.0
X57.0Y-153.0
X117.0Y-33.0
X117.0Y-63.0
X117.0Y-123.0
X117.0Y-153.0
X177.0Y-33.0
X177.0Y-63.0
X177.0Y-123.0
X177.0Y-153.0
X207.0Y-33.0
X207.0Y-63.0
X207.0Y-123.0
X207.0Y-153.0
X237.0Y-33.0
X237.0Y-63.0
X237.0Y-123.0
X237.0Y-153.0
T0
M30
