G04 #@! TF.GenerationSoftware,KiCad,Pcbnew,6.0.10+dfsg-1~bpo11+1*
G04 #@! TF.ProjectId,storage,73746f72-6167-4652-9e6b-696361645f70,5.0*
G04 #@! TF.SameCoordinates,Original*
G04 #@! TF.FileFunction,Legend,Top*
G04 #@! TF.FilePolarity,Positive*
%FSLAX46Y46*%
G04 Gerber Fmt 4.6, Leading zero omitted, Abs format (unit mm)*
%MOMM*%
%LPD*%
G01*
G04 APERTURE LIST*
%ADD10C,0.080000*%
%ADD11C,0.150000*%
%ADD12C,0.120000*%
G04 #@! TA.AperFunction,Profile*
%ADD13C,0.120000*%
G04 #@! TD*
G04 APERTURE END LIST*
D10*
X170835333Y-39823809D02*
X170759142Y-39861904D01*
X170606761Y-39861904D01*
X170530571Y-39823809D01*
X170492476Y-39785714D01*
X170454380Y-39709523D01*
X170454380Y-39480952D01*
X170492476Y-39404761D01*
X170530571Y-39366666D01*
X170606761Y-39328571D01*
X170759142Y-39328571D01*
X170835333Y-39366666D01*
X171521047Y-39861904D02*
X171521047Y-39442857D01*
X171482952Y-39366666D01*
X171406761Y-39328571D01*
X171254380Y-39328571D01*
X171178190Y-39366666D01*
X171521047Y-39823809D02*
X171444857Y-39861904D01*
X171254380Y-39861904D01*
X171178190Y-39823809D01*
X171140095Y-39747619D01*
X171140095Y-39671428D01*
X171178190Y-39595238D01*
X171254380Y-39557142D01*
X171444857Y-39557142D01*
X171521047Y-39519047D01*
X171902000Y-39861904D02*
X171902000Y-39061904D01*
X171902000Y-39366666D02*
X171978190Y-39328571D01*
X172130571Y-39328571D01*
X172206761Y-39366666D01*
X172244857Y-39404761D01*
X172282952Y-39480952D01*
X172282952Y-39709523D01*
X172244857Y-39785714D01*
X172206761Y-39823809D01*
X172130571Y-39861904D01*
X171978190Y-39861904D01*
X171902000Y-39823809D01*
X172625809Y-39861904D02*
X172625809Y-39328571D01*
X172625809Y-39061904D02*
X172587714Y-39100000D01*
X172625809Y-39138095D01*
X172663904Y-39100000D01*
X172625809Y-39061904D01*
X172625809Y-39138095D01*
X173006761Y-39328571D02*
X173006761Y-39861904D01*
X173006761Y-39404761D02*
X173044857Y-39366666D01*
X173121047Y-39328571D01*
X173235333Y-39328571D01*
X173311523Y-39366666D01*
X173349619Y-39442857D01*
X173349619Y-39861904D01*
X174035333Y-39823809D02*
X173959142Y-39861904D01*
X173806761Y-39861904D01*
X173730571Y-39823809D01*
X173692476Y-39747619D01*
X173692476Y-39442857D01*
X173730571Y-39366666D01*
X173806761Y-39328571D01*
X173959142Y-39328571D01*
X174035333Y-39366666D01*
X174073428Y-39442857D01*
X174073428Y-39519047D01*
X173692476Y-39595238D01*
X174302000Y-39328571D02*
X174606761Y-39328571D01*
X174416285Y-39061904D02*
X174416285Y-39747619D01*
X174454380Y-39823809D01*
X174530571Y-39861904D01*
X174606761Y-39861904D01*
X175368666Y-39328571D02*
X175673428Y-39328571D01*
X175482952Y-39061904D02*
X175482952Y-39747619D01*
X175521047Y-39823809D01*
X175597238Y-39861904D01*
X175673428Y-39861904D01*
X176054380Y-39861904D02*
X175978190Y-39823809D01*
X175940095Y-39785714D01*
X175902000Y-39709523D01*
X175902000Y-39480952D01*
X175940095Y-39404761D01*
X175978190Y-39366666D01*
X176054380Y-39328571D01*
X176168666Y-39328571D01*
X176244857Y-39366666D01*
X176282952Y-39404761D01*
X176321047Y-39480952D01*
X176321047Y-39709523D01*
X176282952Y-39785714D01*
X176244857Y-39823809D01*
X176168666Y-39861904D01*
X176054380Y-39861904D01*
X176587714Y-39328571D02*
X176740095Y-39861904D01*
X176892476Y-39480952D01*
X177044857Y-39861904D01*
X177197238Y-39328571D01*
X177806761Y-39823809D02*
X177730571Y-39861904D01*
X177578190Y-39861904D01*
X177502000Y-39823809D01*
X177463904Y-39747619D01*
X177463904Y-39442857D01*
X177502000Y-39366666D01*
X177578190Y-39328571D01*
X177730571Y-39328571D01*
X177806761Y-39366666D01*
X177844857Y-39442857D01*
X177844857Y-39519047D01*
X177463904Y-39595238D01*
X178187714Y-39861904D02*
X178187714Y-39328571D01*
X178187714Y-39480952D02*
X178225809Y-39404761D01*
X178263904Y-39366666D01*
X178340095Y-39328571D01*
X178416285Y-39328571D01*
X103111904Y-90507523D02*
X102578571Y-90507523D01*
X102654761Y-90507523D02*
X102616666Y-90469428D01*
X102578571Y-90393238D01*
X102578571Y-90278952D01*
X102616666Y-90202761D01*
X102692857Y-90164666D01*
X103111904Y-90164666D01*
X102692857Y-90164666D02*
X102616666Y-90126571D01*
X102578571Y-90050380D01*
X102578571Y-89936095D01*
X102616666Y-89859904D01*
X102692857Y-89821809D01*
X103111904Y-89821809D01*
X103111904Y-89098000D02*
X102692857Y-89098000D01*
X102616666Y-89136095D01*
X102578571Y-89212285D01*
X102578571Y-89364666D01*
X102616666Y-89440857D01*
X103073809Y-89098000D02*
X103111904Y-89174190D01*
X103111904Y-89364666D01*
X103073809Y-89440857D01*
X102997619Y-89478952D01*
X102921428Y-89478952D01*
X102845238Y-89440857D01*
X102807142Y-89364666D01*
X102807142Y-89174190D01*
X102769047Y-89098000D01*
X102578571Y-88831333D02*
X102578571Y-88526571D01*
X102311904Y-88717047D02*
X102997619Y-88717047D01*
X103073809Y-88678952D01*
X103111904Y-88602761D01*
X103111904Y-88526571D01*
X103073809Y-87955142D02*
X103111904Y-88031333D01*
X103111904Y-88183714D01*
X103073809Y-88259904D01*
X102997619Y-88298000D01*
X102692857Y-88298000D01*
X102616666Y-88259904D01*
X102578571Y-88183714D01*
X102578571Y-88031333D01*
X102616666Y-87955142D01*
X102692857Y-87917047D01*
X102769047Y-87917047D01*
X102845238Y-88298000D01*
X103111904Y-86964666D02*
X102311904Y-86964666D01*
X102616666Y-86964666D02*
X102578571Y-86888476D01*
X102578571Y-86736095D01*
X102616666Y-86659904D01*
X102654761Y-86621809D01*
X102730952Y-86583714D01*
X102959523Y-86583714D01*
X103035714Y-86621809D01*
X103073809Y-86659904D01*
X103111904Y-86736095D01*
X103111904Y-86888476D01*
X103073809Y-86964666D01*
X103111904Y-86126571D02*
X103073809Y-86202761D01*
X103035714Y-86240857D01*
X102959523Y-86278952D01*
X102730952Y-86278952D01*
X102654761Y-86240857D01*
X102616666Y-86202761D01*
X102578571Y-86126571D01*
X102578571Y-86012285D01*
X102616666Y-85936095D01*
X102654761Y-85898000D01*
X102730952Y-85859904D01*
X102959523Y-85859904D01*
X103035714Y-85898000D01*
X103073809Y-85936095D01*
X103111904Y-86012285D01*
X103111904Y-86126571D01*
X103111904Y-85593238D02*
X102578571Y-85174190D01*
X102578571Y-85593238D02*
X103111904Y-85174190D01*
X102578571Y-83917047D02*
X103226190Y-83917047D01*
X103302380Y-83955142D01*
X103340476Y-83993238D01*
X103378571Y-84069428D01*
X103378571Y-84183714D01*
X103340476Y-84259904D01*
X103073809Y-83917047D02*
X103111904Y-83993238D01*
X103111904Y-84145619D01*
X103073809Y-84221809D01*
X103035714Y-84259904D01*
X102959523Y-84298000D01*
X102730952Y-84298000D01*
X102654761Y-84259904D01*
X102616666Y-84221809D01*
X102578571Y-84145619D01*
X102578571Y-83993238D01*
X102616666Y-83917047D01*
X103111904Y-83536095D02*
X102578571Y-83536095D01*
X102730952Y-83536095D02*
X102654761Y-83498000D01*
X102616666Y-83459904D01*
X102578571Y-83383714D01*
X102578571Y-83307523D01*
X103111904Y-83040857D02*
X102578571Y-83040857D01*
X102311904Y-83040857D02*
X102350000Y-83078952D01*
X102388095Y-83040857D01*
X102350000Y-83002761D01*
X102311904Y-83040857D01*
X102388095Y-83040857D01*
X103111904Y-82317047D02*
X102311904Y-82317047D01*
X103073809Y-82317047D02*
X103111904Y-82393238D01*
X103111904Y-82545619D01*
X103073809Y-82621809D01*
X103035714Y-82659904D01*
X102959523Y-82698000D01*
X102730952Y-82698000D01*
X102654761Y-82659904D01*
X102616666Y-82621809D01*
X102578571Y-82545619D01*
X102578571Y-82393238D01*
X102616666Y-82317047D01*
D11*
X55287976Y-29404761D02*
X55430833Y-29452380D01*
X55668928Y-29452380D01*
X55764166Y-29404761D01*
X55811785Y-29357142D01*
X55859404Y-29261904D01*
X55859404Y-29166666D01*
X55811785Y-29071428D01*
X55764166Y-29023809D01*
X55668928Y-28976190D01*
X55478452Y-28928571D01*
X55383214Y-28880952D01*
X55335595Y-28833333D01*
X55287976Y-28738095D01*
X55287976Y-28642857D01*
X55335595Y-28547619D01*
X55383214Y-28500000D01*
X55478452Y-28452380D01*
X55716547Y-28452380D01*
X55859404Y-28500000D01*
X56145119Y-28785714D02*
X56526071Y-28785714D01*
X56287976Y-28452380D02*
X56287976Y-29309523D01*
X56335595Y-29404761D01*
X56430833Y-29452380D01*
X56526071Y-29452380D01*
X57002261Y-29452380D02*
X56907023Y-29404761D01*
X56859404Y-29357142D01*
X56811785Y-29261904D01*
X56811785Y-28976190D01*
X56859404Y-28880952D01*
X56907023Y-28833333D01*
X57002261Y-28785714D01*
X57145119Y-28785714D01*
X57240357Y-28833333D01*
X57287976Y-28880952D01*
X57335595Y-28976190D01*
X57335595Y-29261904D01*
X57287976Y-29357142D01*
X57240357Y-29404761D01*
X57145119Y-29452380D01*
X57002261Y-29452380D01*
X57764166Y-29452380D02*
X57764166Y-28785714D01*
X57764166Y-28976190D02*
X57811785Y-28880952D01*
X57859404Y-28833333D01*
X57954642Y-28785714D01*
X58049880Y-28785714D01*
X58811785Y-29452380D02*
X58811785Y-28928571D01*
X58764166Y-28833333D01*
X58668928Y-28785714D01*
X58478452Y-28785714D01*
X58383214Y-28833333D01*
X58811785Y-29404761D02*
X58716547Y-29452380D01*
X58478452Y-29452380D01*
X58383214Y-29404761D01*
X58335595Y-29309523D01*
X58335595Y-29214285D01*
X58383214Y-29119047D01*
X58478452Y-29071428D01*
X58716547Y-29071428D01*
X58811785Y-29023809D01*
X59716547Y-28785714D02*
X59716547Y-29595238D01*
X59668928Y-29690476D01*
X59621309Y-29738095D01*
X59526071Y-29785714D01*
X59383214Y-29785714D01*
X59287976Y-29738095D01*
X59716547Y-29404761D02*
X59621309Y-29452380D01*
X59430833Y-29452380D01*
X59335595Y-29404761D01*
X59287976Y-29357142D01*
X59240357Y-29261904D01*
X59240357Y-28976190D01*
X59287976Y-28880952D01*
X59335595Y-28833333D01*
X59430833Y-28785714D01*
X59621309Y-28785714D01*
X59716547Y-28833333D01*
X60573690Y-29404761D02*
X60478452Y-29452380D01*
X60287976Y-29452380D01*
X60192738Y-29404761D01*
X60145119Y-29309523D01*
X60145119Y-28928571D01*
X60192738Y-28833333D01*
X60287976Y-28785714D01*
X60478452Y-28785714D01*
X60573690Y-28833333D01*
X60621309Y-28928571D01*
X60621309Y-29023809D01*
X60145119Y-29119047D01*
X60811785Y-29547619D02*
X61573690Y-29547619D01*
X62335595Y-29452380D02*
X61764166Y-29452380D01*
X62049880Y-29452380D02*
X62049880Y-28452380D01*
X61954642Y-28595238D01*
X61859404Y-28690476D01*
X61764166Y-28738095D01*
D10*
X227671428Y-80628190D02*
X227671428Y-80932952D01*
X227138095Y-80742476D02*
X227823809Y-80742476D01*
X227900000Y-80780571D01*
X227938095Y-80856761D01*
X227938095Y-80932952D01*
X227671428Y-81542476D02*
X227138095Y-81542476D01*
X227671428Y-81199619D02*
X227252380Y-81199619D01*
X227176190Y-81237714D01*
X227138095Y-81313904D01*
X227138095Y-81428190D01*
X227176190Y-81504380D01*
X227214285Y-81542476D01*
X227671428Y-81923428D02*
X227138095Y-81923428D01*
X227595238Y-81923428D02*
X227633333Y-81961523D01*
X227671428Y-82037714D01*
X227671428Y-82152000D01*
X227633333Y-82228190D01*
X227557142Y-82266285D01*
X227138095Y-82266285D01*
X227176190Y-83599619D02*
X227138095Y-83523428D01*
X227138095Y-83371047D01*
X227176190Y-83294857D01*
X227214285Y-83256761D01*
X227290476Y-83218666D01*
X227519047Y-83218666D01*
X227595238Y-83256761D01*
X227633333Y-83294857D01*
X227671428Y-83371047D01*
X227671428Y-83523428D01*
X227633333Y-83599619D01*
X227138095Y-84285333D02*
X227557142Y-84285333D01*
X227633333Y-84247238D01*
X227671428Y-84171047D01*
X227671428Y-84018666D01*
X227633333Y-83942476D01*
X227176190Y-84285333D02*
X227138095Y-84209142D01*
X227138095Y-84018666D01*
X227176190Y-83942476D01*
X227252380Y-83904380D01*
X227328571Y-83904380D01*
X227404761Y-83942476D01*
X227442857Y-84018666D01*
X227442857Y-84209142D01*
X227480952Y-84285333D01*
X227138095Y-84666285D02*
X227671428Y-84666285D01*
X227519047Y-84666285D02*
X227595238Y-84704380D01*
X227633333Y-84742476D01*
X227671428Y-84818666D01*
X227671428Y-84894857D01*
X227671428Y-85047238D02*
X227671428Y-85352000D01*
X227938095Y-85161523D02*
X227252380Y-85161523D01*
X227176190Y-85199619D01*
X227138095Y-85275809D01*
X227138095Y-85352000D01*
X62388095Y-71085333D02*
X63188095Y-71085333D01*
X62426190Y-71085333D02*
X62388095Y-71009142D01*
X62388095Y-70856761D01*
X62426190Y-70780571D01*
X62464285Y-70742476D01*
X62540476Y-70704380D01*
X62769047Y-70704380D01*
X62845238Y-70742476D01*
X62883333Y-70780571D01*
X62921428Y-70856761D01*
X62921428Y-71009142D01*
X62883333Y-71085333D01*
X62388095Y-71466285D02*
X62921428Y-71466285D01*
X62769047Y-71466285D02*
X62845238Y-71504380D01*
X62883333Y-71542476D01*
X62921428Y-71618666D01*
X62921428Y-71694857D01*
X62388095Y-72304380D02*
X62807142Y-72304380D01*
X62883333Y-72266285D01*
X62921428Y-72190095D01*
X62921428Y-72037714D01*
X62883333Y-71961523D01*
X62426190Y-72304380D02*
X62388095Y-72228190D01*
X62388095Y-72037714D01*
X62426190Y-71961523D01*
X62502380Y-71923428D01*
X62578571Y-71923428D01*
X62654761Y-71961523D01*
X62692857Y-72037714D01*
X62692857Y-72228190D01*
X62730952Y-72304380D01*
X62921428Y-72609142D02*
X62388095Y-72761523D01*
X62769047Y-72913904D01*
X62388095Y-73066285D01*
X62921428Y-73218666D01*
X62426190Y-73828190D02*
X62388095Y-73752000D01*
X62388095Y-73599619D01*
X62426190Y-73523428D01*
X62502380Y-73485333D01*
X62807142Y-73485333D01*
X62883333Y-73523428D01*
X62921428Y-73599619D01*
X62921428Y-73752000D01*
X62883333Y-73828190D01*
X62807142Y-73866285D01*
X62730952Y-73866285D01*
X62654761Y-73485333D01*
X62388095Y-74209142D02*
X62921428Y-74209142D01*
X62769047Y-74209142D02*
X62845238Y-74247238D01*
X62883333Y-74285333D01*
X62921428Y-74361523D01*
X62921428Y-74437714D01*
X62426190Y-75656761D02*
X62388095Y-75580571D01*
X62388095Y-75428190D01*
X62426190Y-75352000D01*
X62464285Y-75313904D01*
X62540476Y-75275809D01*
X62769047Y-75275809D01*
X62845238Y-75313904D01*
X62883333Y-75352000D01*
X62921428Y-75428190D01*
X62921428Y-75580571D01*
X62883333Y-75656761D01*
X62388095Y-76342476D02*
X62807142Y-76342476D01*
X62883333Y-76304380D01*
X62921428Y-76228190D01*
X62921428Y-76075809D01*
X62883333Y-75999619D01*
X62426190Y-76342476D02*
X62388095Y-76266285D01*
X62388095Y-76075809D01*
X62426190Y-75999619D01*
X62502380Y-75961523D01*
X62578571Y-75961523D01*
X62654761Y-75999619D01*
X62692857Y-76075809D01*
X62692857Y-76266285D01*
X62730952Y-76342476D01*
X62388095Y-76723428D02*
X63188095Y-76723428D01*
X62883333Y-76723428D02*
X62921428Y-76799619D01*
X62921428Y-76952000D01*
X62883333Y-77028190D01*
X62845238Y-77066285D01*
X62769047Y-77104380D01*
X62540476Y-77104380D01*
X62464285Y-77066285D01*
X62426190Y-77028190D01*
X62388095Y-76952000D01*
X62388095Y-76799619D01*
X62426190Y-76723428D01*
X62388095Y-77447238D02*
X62921428Y-77447238D01*
X63188095Y-77447238D02*
X63150000Y-77409142D01*
X63111904Y-77447238D01*
X63150000Y-77485333D01*
X63188095Y-77447238D01*
X63111904Y-77447238D01*
X62921428Y-77828190D02*
X62388095Y-77828190D01*
X62845238Y-77828190D02*
X62883333Y-77866285D01*
X62921428Y-77942476D01*
X62921428Y-78056761D01*
X62883333Y-78132952D01*
X62807142Y-78171047D01*
X62388095Y-78171047D01*
X62426190Y-78856761D02*
X62388095Y-78780571D01*
X62388095Y-78628190D01*
X62426190Y-78552000D01*
X62502380Y-78513904D01*
X62807142Y-78513904D01*
X62883333Y-78552000D01*
X62921428Y-78628190D01*
X62921428Y-78780571D01*
X62883333Y-78856761D01*
X62807142Y-78894857D01*
X62730952Y-78894857D01*
X62654761Y-78513904D01*
X62921428Y-79123428D02*
X62921428Y-79428190D01*
X63188095Y-79237714D02*
X62502380Y-79237714D01*
X62426190Y-79275809D01*
X62388095Y-79352000D01*
X62388095Y-79428190D01*
X145835333Y-39823809D02*
X145759142Y-39861904D01*
X145606761Y-39861904D01*
X145530571Y-39823809D01*
X145492476Y-39785714D01*
X145454380Y-39709523D01*
X145454380Y-39480952D01*
X145492476Y-39404761D01*
X145530571Y-39366666D01*
X145606761Y-39328571D01*
X145759142Y-39328571D01*
X145835333Y-39366666D01*
X146521047Y-39861904D02*
X146521047Y-39442857D01*
X146482952Y-39366666D01*
X146406761Y-39328571D01*
X146254380Y-39328571D01*
X146178190Y-39366666D01*
X146521047Y-39823809D02*
X146444857Y-39861904D01*
X146254380Y-39861904D01*
X146178190Y-39823809D01*
X146140095Y-39747619D01*
X146140095Y-39671428D01*
X146178190Y-39595238D01*
X146254380Y-39557142D01*
X146444857Y-39557142D01*
X146521047Y-39519047D01*
X146902000Y-39861904D02*
X146902000Y-39061904D01*
X146902000Y-39366666D02*
X146978190Y-39328571D01*
X147130571Y-39328571D01*
X147206761Y-39366666D01*
X147244857Y-39404761D01*
X147282952Y-39480952D01*
X147282952Y-39709523D01*
X147244857Y-39785714D01*
X147206761Y-39823809D01*
X147130571Y-39861904D01*
X146978190Y-39861904D01*
X146902000Y-39823809D01*
X147625809Y-39861904D02*
X147625809Y-39328571D01*
X147625809Y-39061904D02*
X147587714Y-39100000D01*
X147625809Y-39138095D01*
X147663904Y-39100000D01*
X147625809Y-39061904D01*
X147625809Y-39138095D01*
X148006761Y-39328571D02*
X148006761Y-39861904D01*
X148006761Y-39404761D02*
X148044857Y-39366666D01*
X148121047Y-39328571D01*
X148235333Y-39328571D01*
X148311523Y-39366666D01*
X148349619Y-39442857D01*
X148349619Y-39861904D01*
X149035333Y-39823809D02*
X148959142Y-39861904D01*
X148806761Y-39861904D01*
X148730571Y-39823809D01*
X148692476Y-39747619D01*
X148692476Y-39442857D01*
X148730571Y-39366666D01*
X148806761Y-39328571D01*
X148959142Y-39328571D01*
X149035333Y-39366666D01*
X149073428Y-39442857D01*
X149073428Y-39519047D01*
X148692476Y-39595238D01*
X149302000Y-39328571D02*
X149606761Y-39328571D01*
X149416285Y-39061904D02*
X149416285Y-39747619D01*
X149454380Y-39823809D01*
X149530571Y-39861904D01*
X149606761Y-39861904D01*
X150368666Y-39328571D02*
X150673428Y-39328571D01*
X150482952Y-39061904D02*
X150482952Y-39747619D01*
X150521047Y-39823809D01*
X150597238Y-39861904D01*
X150673428Y-39861904D01*
X151054380Y-39861904D02*
X150978190Y-39823809D01*
X150940095Y-39785714D01*
X150902000Y-39709523D01*
X150902000Y-39480952D01*
X150940095Y-39404761D01*
X150978190Y-39366666D01*
X151054380Y-39328571D01*
X151168666Y-39328571D01*
X151244857Y-39366666D01*
X151282952Y-39404761D01*
X151321047Y-39480952D01*
X151321047Y-39709523D01*
X151282952Y-39785714D01*
X151244857Y-39823809D01*
X151168666Y-39861904D01*
X151054380Y-39861904D01*
X151587714Y-39328571D02*
X151740095Y-39861904D01*
X151892476Y-39480952D01*
X152044857Y-39861904D01*
X152197238Y-39328571D01*
X152806761Y-39823809D02*
X152730571Y-39861904D01*
X152578190Y-39861904D01*
X152502000Y-39823809D01*
X152463904Y-39747619D01*
X152463904Y-39442857D01*
X152502000Y-39366666D01*
X152578190Y-39328571D01*
X152730571Y-39328571D01*
X152806761Y-39366666D01*
X152844857Y-39442857D01*
X152844857Y-39519047D01*
X152463904Y-39595238D01*
X153187714Y-39861904D02*
X153187714Y-39328571D01*
X153187714Y-39480952D02*
X153225809Y-39404761D01*
X153263904Y-39366666D01*
X153340095Y-39328571D01*
X153416285Y-39328571D01*
X165835333Y-39823809D02*
X165759142Y-39861904D01*
X165606761Y-39861904D01*
X165530571Y-39823809D01*
X165492476Y-39785714D01*
X165454380Y-39709523D01*
X165454380Y-39480952D01*
X165492476Y-39404761D01*
X165530571Y-39366666D01*
X165606761Y-39328571D01*
X165759142Y-39328571D01*
X165835333Y-39366666D01*
X166521047Y-39861904D02*
X166521047Y-39442857D01*
X166482952Y-39366666D01*
X166406761Y-39328571D01*
X166254380Y-39328571D01*
X166178190Y-39366666D01*
X166521047Y-39823809D02*
X166444857Y-39861904D01*
X166254380Y-39861904D01*
X166178190Y-39823809D01*
X166140095Y-39747619D01*
X166140095Y-39671428D01*
X166178190Y-39595238D01*
X166254380Y-39557142D01*
X166444857Y-39557142D01*
X166521047Y-39519047D01*
X166902000Y-39861904D02*
X166902000Y-39061904D01*
X166902000Y-39366666D02*
X166978190Y-39328571D01*
X167130571Y-39328571D01*
X167206761Y-39366666D01*
X167244857Y-39404761D01*
X167282952Y-39480952D01*
X167282952Y-39709523D01*
X167244857Y-39785714D01*
X167206761Y-39823809D01*
X167130571Y-39861904D01*
X166978190Y-39861904D01*
X166902000Y-39823809D01*
X167625809Y-39861904D02*
X167625809Y-39328571D01*
X167625809Y-39061904D02*
X167587714Y-39100000D01*
X167625809Y-39138095D01*
X167663904Y-39100000D01*
X167625809Y-39061904D01*
X167625809Y-39138095D01*
X168006761Y-39328571D02*
X168006761Y-39861904D01*
X168006761Y-39404761D02*
X168044857Y-39366666D01*
X168121047Y-39328571D01*
X168235333Y-39328571D01*
X168311523Y-39366666D01*
X168349619Y-39442857D01*
X168349619Y-39861904D01*
X169035333Y-39823809D02*
X168959142Y-39861904D01*
X168806761Y-39861904D01*
X168730571Y-39823809D01*
X168692476Y-39747619D01*
X168692476Y-39442857D01*
X168730571Y-39366666D01*
X168806761Y-39328571D01*
X168959142Y-39328571D01*
X169035333Y-39366666D01*
X169073428Y-39442857D01*
X169073428Y-39519047D01*
X168692476Y-39595238D01*
X169302000Y-39328571D02*
X169606761Y-39328571D01*
X169416285Y-39061904D02*
X169416285Y-39747619D01*
X169454380Y-39823809D01*
X169530571Y-39861904D01*
X169606761Y-39861904D01*
X170368666Y-39328571D02*
X170673428Y-39328571D01*
X170482952Y-39061904D02*
X170482952Y-39747619D01*
X170521047Y-39823809D01*
X170597238Y-39861904D01*
X170673428Y-39861904D01*
X171054380Y-39861904D02*
X170978190Y-39823809D01*
X170940095Y-39785714D01*
X170902000Y-39709523D01*
X170902000Y-39480952D01*
X170940095Y-39404761D01*
X170978190Y-39366666D01*
X171054380Y-39328571D01*
X171168666Y-39328571D01*
X171244857Y-39366666D01*
X171282952Y-39404761D01*
X171321047Y-39480952D01*
X171321047Y-39709523D01*
X171282952Y-39785714D01*
X171244857Y-39823809D01*
X171168666Y-39861904D01*
X171054380Y-39861904D01*
X171587714Y-39328571D02*
X171740095Y-39861904D01*
X171892476Y-39480952D01*
X172044857Y-39861904D01*
X172197238Y-39328571D01*
X172806761Y-39823809D02*
X172730571Y-39861904D01*
X172578190Y-39861904D01*
X172502000Y-39823809D01*
X172463904Y-39747619D01*
X172463904Y-39442857D01*
X172502000Y-39366666D01*
X172578190Y-39328571D01*
X172730571Y-39328571D01*
X172806761Y-39366666D01*
X172844857Y-39442857D01*
X172844857Y-39519047D01*
X172463904Y-39595238D01*
X173187714Y-39861904D02*
X173187714Y-39328571D01*
X173187714Y-39480952D02*
X173225809Y-39404761D01*
X173263904Y-39366666D01*
X173340095Y-39328571D01*
X173416285Y-39328571D01*
X233171428Y-94742476D02*
X232371428Y-94742476D01*
X233133333Y-94742476D02*
X233171428Y-94818666D01*
X233171428Y-94971047D01*
X233133333Y-95047238D01*
X233095238Y-95085333D01*
X233019047Y-95123428D01*
X232790476Y-95123428D01*
X232714285Y-95085333D01*
X232676190Y-95047238D01*
X232638095Y-94971047D01*
X232638095Y-94818666D01*
X232676190Y-94742476D01*
X232638095Y-95809142D02*
X233057142Y-95809142D01*
X233133333Y-95771047D01*
X233171428Y-95694857D01*
X233171428Y-95542476D01*
X233133333Y-95466285D01*
X232676190Y-95809142D02*
X232638095Y-95732952D01*
X232638095Y-95542476D01*
X232676190Y-95466285D01*
X232752380Y-95428190D01*
X232828571Y-95428190D01*
X232904761Y-95466285D01*
X232942857Y-95542476D01*
X232942857Y-95732952D01*
X232980952Y-95809142D01*
X232638095Y-96190095D02*
X233171428Y-96190095D01*
X233438095Y-96190095D02*
X233400000Y-96152000D01*
X233361904Y-96190095D01*
X233400000Y-96228190D01*
X233438095Y-96190095D01*
X233361904Y-96190095D01*
X233171428Y-96571047D02*
X232638095Y-96571047D01*
X233095238Y-96571047D02*
X233133333Y-96609142D01*
X233171428Y-96685333D01*
X233171428Y-96799619D01*
X233133333Y-96875809D01*
X233057142Y-96913904D01*
X232638095Y-96913904D01*
X233171428Y-97180571D02*
X233171428Y-97485333D01*
X233438095Y-97294857D02*
X232752380Y-97294857D01*
X232676190Y-97332952D01*
X232638095Y-97409142D01*
X232638095Y-97485333D01*
X232638095Y-97752000D02*
X233171428Y-97752000D01*
X233438095Y-97752000D02*
X233400000Y-97713904D01*
X233361904Y-97752000D01*
X233400000Y-97790095D01*
X233438095Y-97752000D01*
X233361904Y-97752000D01*
X233171428Y-98132952D02*
X232638095Y-98132952D01*
X233095238Y-98132952D02*
X233133333Y-98171047D01*
X233171428Y-98247238D01*
X233171428Y-98361523D01*
X233133333Y-98437714D01*
X233057142Y-98475809D01*
X232638095Y-98475809D01*
X233171428Y-99199619D02*
X232523809Y-99199619D01*
X232447619Y-99161523D01*
X232409523Y-99123428D01*
X232371428Y-99047238D01*
X232371428Y-98932952D01*
X232409523Y-98856761D01*
X232676190Y-99199619D02*
X232638095Y-99123428D01*
X232638095Y-98971047D01*
X232676190Y-98894857D01*
X232714285Y-98856761D01*
X232790476Y-98818666D01*
X233019047Y-98818666D01*
X233095238Y-98856761D01*
X233133333Y-98894857D01*
X233171428Y-98971047D01*
X233171428Y-99123428D01*
X233133333Y-99199619D01*
X77611904Y-89914666D02*
X76811904Y-89914666D01*
X77573809Y-89914666D02*
X77611904Y-89990857D01*
X77611904Y-90143238D01*
X77573809Y-90219428D01*
X77535714Y-90257523D01*
X77459523Y-90295619D01*
X77230952Y-90295619D01*
X77154761Y-90257523D01*
X77116666Y-90219428D01*
X77078571Y-90143238D01*
X77078571Y-89990857D01*
X77116666Y-89914666D01*
X77611904Y-89533714D02*
X77078571Y-89533714D01*
X77230952Y-89533714D02*
X77154761Y-89495619D01*
X77116666Y-89457523D01*
X77078571Y-89381333D01*
X77078571Y-89305142D01*
X77611904Y-88695619D02*
X77192857Y-88695619D01*
X77116666Y-88733714D01*
X77078571Y-88809904D01*
X77078571Y-88962285D01*
X77116666Y-89038476D01*
X77573809Y-88695619D02*
X77611904Y-88771809D01*
X77611904Y-88962285D01*
X77573809Y-89038476D01*
X77497619Y-89076571D01*
X77421428Y-89076571D01*
X77345238Y-89038476D01*
X77307142Y-88962285D01*
X77307142Y-88771809D01*
X77269047Y-88695619D01*
X77078571Y-88390857D02*
X77611904Y-88238476D01*
X77230952Y-88086095D01*
X77611904Y-87933714D01*
X77078571Y-87781333D01*
X77573809Y-87171809D02*
X77611904Y-87248000D01*
X77611904Y-87400380D01*
X77573809Y-87476571D01*
X77497619Y-87514666D01*
X77192857Y-87514666D01*
X77116666Y-87476571D01*
X77078571Y-87400380D01*
X77078571Y-87248000D01*
X77116666Y-87171809D01*
X77192857Y-87133714D01*
X77269047Y-87133714D01*
X77345238Y-87514666D01*
X77611904Y-86790857D02*
X77078571Y-86790857D01*
X77230952Y-86790857D02*
X77154761Y-86752761D01*
X77116666Y-86714666D01*
X77078571Y-86638476D01*
X77078571Y-86562285D01*
X77573809Y-85343238D02*
X77611904Y-85419428D01*
X77611904Y-85571809D01*
X77573809Y-85648000D01*
X77535714Y-85686095D01*
X77459523Y-85724190D01*
X77230952Y-85724190D01*
X77154761Y-85686095D01*
X77116666Y-85648000D01*
X77078571Y-85571809D01*
X77078571Y-85419428D01*
X77116666Y-85343238D01*
X77611904Y-84657523D02*
X77192857Y-84657523D01*
X77116666Y-84695619D01*
X77078571Y-84771809D01*
X77078571Y-84924190D01*
X77116666Y-85000380D01*
X77573809Y-84657523D02*
X77611904Y-84733714D01*
X77611904Y-84924190D01*
X77573809Y-85000380D01*
X77497619Y-85038476D01*
X77421428Y-85038476D01*
X77345238Y-85000380D01*
X77307142Y-84924190D01*
X77307142Y-84733714D01*
X77269047Y-84657523D01*
X77611904Y-84276571D02*
X76811904Y-84276571D01*
X77116666Y-84276571D02*
X77078571Y-84200380D01*
X77078571Y-84048000D01*
X77116666Y-83971809D01*
X77154761Y-83933714D01*
X77230952Y-83895619D01*
X77459523Y-83895619D01*
X77535714Y-83933714D01*
X77573809Y-83971809D01*
X77611904Y-84048000D01*
X77611904Y-84200380D01*
X77573809Y-84276571D01*
X77611904Y-83552761D02*
X77078571Y-83552761D01*
X76811904Y-83552761D02*
X76850000Y-83590857D01*
X76888095Y-83552761D01*
X76850000Y-83514666D01*
X76811904Y-83552761D01*
X76888095Y-83552761D01*
X77078571Y-83171809D02*
X77611904Y-83171809D01*
X77154761Y-83171809D02*
X77116666Y-83133714D01*
X77078571Y-83057523D01*
X77078571Y-82943238D01*
X77116666Y-82867047D01*
X77192857Y-82828952D01*
X77611904Y-82828952D01*
X77573809Y-82143238D02*
X77611904Y-82219428D01*
X77611904Y-82371809D01*
X77573809Y-82448000D01*
X77497619Y-82486095D01*
X77192857Y-82486095D01*
X77116666Y-82448000D01*
X77078571Y-82371809D01*
X77078571Y-82219428D01*
X77116666Y-82143238D01*
X77192857Y-82105142D01*
X77269047Y-82105142D01*
X77345238Y-82486095D01*
X77078571Y-81876571D02*
X77078571Y-81571809D01*
X76811904Y-81762285D02*
X77497619Y-81762285D01*
X77573809Y-81724190D01*
X77611904Y-81648000D01*
X77611904Y-81571809D01*
X125835333Y-39823809D02*
X125759142Y-39861904D01*
X125606761Y-39861904D01*
X125530571Y-39823809D01*
X125492476Y-39785714D01*
X125454380Y-39709523D01*
X125454380Y-39480952D01*
X125492476Y-39404761D01*
X125530571Y-39366666D01*
X125606761Y-39328571D01*
X125759142Y-39328571D01*
X125835333Y-39366666D01*
X126521047Y-39861904D02*
X126521047Y-39442857D01*
X126482952Y-39366666D01*
X126406761Y-39328571D01*
X126254380Y-39328571D01*
X126178190Y-39366666D01*
X126521047Y-39823809D02*
X126444857Y-39861904D01*
X126254380Y-39861904D01*
X126178190Y-39823809D01*
X126140095Y-39747619D01*
X126140095Y-39671428D01*
X126178190Y-39595238D01*
X126254380Y-39557142D01*
X126444857Y-39557142D01*
X126521047Y-39519047D01*
X126902000Y-39861904D02*
X126902000Y-39061904D01*
X126902000Y-39366666D02*
X126978190Y-39328571D01*
X127130571Y-39328571D01*
X127206761Y-39366666D01*
X127244857Y-39404761D01*
X127282952Y-39480952D01*
X127282952Y-39709523D01*
X127244857Y-39785714D01*
X127206761Y-39823809D01*
X127130571Y-39861904D01*
X126978190Y-39861904D01*
X126902000Y-39823809D01*
X127625809Y-39861904D02*
X127625809Y-39328571D01*
X127625809Y-39061904D02*
X127587714Y-39100000D01*
X127625809Y-39138095D01*
X127663904Y-39100000D01*
X127625809Y-39061904D01*
X127625809Y-39138095D01*
X128006761Y-39328571D02*
X128006761Y-39861904D01*
X128006761Y-39404761D02*
X128044857Y-39366666D01*
X128121047Y-39328571D01*
X128235333Y-39328571D01*
X128311523Y-39366666D01*
X128349619Y-39442857D01*
X128349619Y-39861904D01*
X129035333Y-39823809D02*
X128959142Y-39861904D01*
X128806761Y-39861904D01*
X128730571Y-39823809D01*
X128692476Y-39747619D01*
X128692476Y-39442857D01*
X128730571Y-39366666D01*
X128806761Y-39328571D01*
X128959142Y-39328571D01*
X129035333Y-39366666D01*
X129073428Y-39442857D01*
X129073428Y-39519047D01*
X128692476Y-39595238D01*
X129302000Y-39328571D02*
X129606761Y-39328571D01*
X129416285Y-39061904D02*
X129416285Y-39747619D01*
X129454380Y-39823809D01*
X129530571Y-39861904D01*
X129606761Y-39861904D01*
X130368666Y-39328571D02*
X130673428Y-39328571D01*
X130482952Y-39061904D02*
X130482952Y-39747619D01*
X130521047Y-39823809D01*
X130597238Y-39861904D01*
X130673428Y-39861904D01*
X131054380Y-39861904D02*
X130978190Y-39823809D01*
X130940095Y-39785714D01*
X130902000Y-39709523D01*
X130902000Y-39480952D01*
X130940095Y-39404761D01*
X130978190Y-39366666D01*
X131054380Y-39328571D01*
X131168666Y-39328571D01*
X131244857Y-39366666D01*
X131282952Y-39404761D01*
X131321047Y-39480952D01*
X131321047Y-39709523D01*
X131282952Y-39785714D01*
X131244857Y-39823809D01*
X131168666Y-39861904D01*
X131054380Y-39861904D01*
X131587714Y-39328571D02*
X131740095Y-39861904D01*
X131892476Y-39480952D01*
X132044857Y-39861904D01*
X132197238Y-39328571D01*
X132806761Y-39823809D02*
X132730571Y-39861904D01*
X132578190Y-39861904D01*
X132502000Y-39823809D01*
X132463904Y-39747619D01*
X132463904Y-39442857D01*
X132502000Y-39366666D01*
X132578190Y-39328571D01*
X132730571Y-39328571D01*
X132806761Y-39366666D01*
X132844857Y-39442857D01*
X132844857Y-39519047D01*
X132463904Y-39595238D01*
X133187714Y-39861904D02*
X133187714Y-39328571D01*
X133187714Y-39480952D02*
X133225809Y-39404761D01*
X133263904Y-39366666D01*
X133340095Y-39328571D01*
X133416285Y-39328571D01*
X160835333Y-39823809D02*
X160759142Y-39861904D01*
X160606761Y-39861904D01*
X160530571Y-39823809D01*
X160492476Y-39785714D01*
X160454380Y-39709523D01*
X160454380Y-39480952D01*
X160492476Y-39404761D01*
X160530571Y-39366666D01*
X160606761Y-39328571D01*
X160759142Y-39328571D01*
X160835333Y-39366666D01*
X161521047Y-39861904D02*
X161521047Y-39442857D01*
X161482952Y-39366666D01*
X161406761Y-39328571D01*
X161254380Y-39328571D01*
X161178190Y-39366666D01*
X161521047Y-39823809D02*
X161444857Y-39861904D01*
X161254380Y-39861904D01*
X161178190Y-39823809D01*
X161140095Y-39747619D01*
X161140095Y-39671428D01*
X161178190Y-39595238D01*
X161254380Y-39557142D01*
X161444857Y-39557142D01*
X161521047Y-39519047D01*
X161902000Y-39861904D02*
X161902000Y-39061904D01*
X161902000Y-39366666D02*
X161978190Y-39328571D01*
X162130571Y-39328571D01*
X162206761Y-39366666D01*
X162244857Y-39404761D01*
X162282952Y-39480952D01*
X162282952Y-39709523D01*
X162244857Y-39785714D01*
X162206761Y-39823809D01*
X162130571Y-39861904D01*
X161978190Y-39861904D01*
X161902000Y-39823809D01*
X162625809Y-39861904D02*
X162625809Y-39328571D01*
X162625809Y-39061904D02*
X162587714Y-39100000D01*
X162625809Y-39138095D01*
X162663904Y-39100000D01*
X162625809Y-39061904D01*
X162625809Y-39138095D01*
X163006761Y-39328571D02*
X163006761Y-39861904D01*
X163006761Y-39404761D02*
X163044857Y-39366666D01*
X163121047Y-39328571D01*
X163235333Y-39328571D01*
X163311523Y-39366666D01*
X163349619Y-39442857D01*
X163349619Y-39861904D01*
X164035333Y-39823809D02*
X163959142Y-39861904D01*
X163806761Y-39861904D01*
X163730571Y-39823809D01*
X163692476Y-39747619D01*
X163692476Y-39442857D01*
X163730571Y-39366666D01*
X163806761Y-39328571D01*
X163959142Y-39328571D01*
X164035333Y-39366666D01*
X164073428Y-39442857D01*
X164073428Y-39519047D01*
X163692476Y-39595238D01*
X164302000Y-39328571D02*
X164606761Y-39328571D01*
X164416285Y-39061904D02*
X164416285Y-39747619D01*
X164454380Y-39823809D01*
X164530571Y-39861904D01*
X164606761Y-39861904D01*
X165368666Y-39328571D02*
X165673428Y-39328571D01*
X165482952Y-39061904D02*
X165482952Y-39747619D01*
X165521047Y-39823809D01*
X165597238Y-39861904D01*
X165673428Y-39861904D01*
X166054380Y-39861904D02*
X165978190Y-39823809D01*
X165940095Y-39785714D01*
X165902000Y-39709523D01*
X165902000Y-39480952D01*
X165940095Y-39404761D01*
X165978190Y-39366666D01*
X166054380Y-39328571D01*
X166168666Y-39328571D01*
X166244857Y-39366666D01*
X166282952Y-39404761D01*
X166321047Y-39480952D01*
X166321047Y-39709523D01*
X166282952Y-39785714D01*
X166244857Y-39823809D01*
X166168666Y-39861904D01*
X166054380Y-39861904D01*
X166587714Y-39328571D02*
X166740095Y-39861904D01*
X166892476Y-39480952D01*
X167044857Y-39861904D01*
X167197238Y-39328571D01*
X167806761Y-39823809D02*
X167730571Y-39861904D01*
X167578190Y-39861904D01*
X167502000Y-39823809D01*
X167463904Y-39747619D01*
X167463904Y-39442857D01*
X167502000Y-39366666D01*
X167578190Y-39328571D01*
X167730571Y-39328571D01*
X167806761Y-39366666D01*
X167844857Y-39442857D01*
X167844857Y-39519047D01*
X167463904Y-39595238D01*
X168187714Y-39861904D02*
X168187714Y-39328571D01*
X168187714Y-39480952D02*
X168225809Y-39404761D01*
X168263904Y-39366666D01*
X168340095Y-39328571D01*
X168416285Y-39328571D01*
X227671428Y-57742476D02*
X226871428Y-57742476D01*
X227633333Y-57742476D02*
X227671428Y-57818666D01*
X227671428Y-57971047D01*
X227633333Y-58047238D01*
X227595238Y-58085333D01*
X227519047Y-58123428D01*
X227290476Y-58123428D01*
X227214285Y-58085333D01*
X227176190Y-58047238D01*
X227138095Y-57971047D01*
X227138095Y-57818666D01*
X227176190Y-57742476D01*
X227671428Y-58809142D02*
X227138095Y-58809142D01*
X227671428Y-58466285D02*
X227252380Y-58466285D01*
X227176190Y-58504380D01*
X227138095Y-58580571D01*
X227138095Y-58694857D01*
X227176190Y-58771047D01*
X227214285Y-58809142D01*
X227138095Y-59304380D02*
X227176190Y-59228190D01*
X227252380Y-59190095D01*
X227938095Y-59190095D01*
X227176190Y-59571047D02*
X227138095Y-59647238D01*
X227138095Y-59799619D01*
X227176190Y-59875809D01*
X227252380Y-59913904D01*
X227290476Y-59913904D01*
X227366666Y-59875809D01*
X227404761Y-59799619D01*
X227404761Y-59685333D01*
X227442857Y-59609142D01*
X227519047Y-59571047D01*
X227557142Y-59571047D01*
X227633333Y-59609142D01*
X227671428Y-59685333D01*
X227671428Y-59799619D01*
X227633333Y-59875809D01*
X227176190Y-60561523D02*
X227138095Y-60485333D01*
X227138095Y-60332952D01*
X227176190Y-60256761D01*
X227252380Y-60218666D01*
X227557142Y-60218666D01*
X227633333Y-60256761D01*
X227671428Y-60332952D01*
X227671428Y-60485333D01*
X227633333Y-60561523D01*
X227557142Y-60599619D01*
X227480952Y-60599619D01*
X227404761Y-60218666D01*
X227671428Y-61552000D02*
X226985714Y-61552000D01*
X226909523Y-61513904D01*
X226871428Y-61437714D01*
X226871428Y-61399619D01*
X227938095Y-61552000D02*
X227900000Y-61513904D01*
X227861904Y-61552000D01*
X227900000Y-61590095D01*
X227938095Y-61552000D01*
X227861904Y-61552000D01*
X227176190Y-62237714D02*
X227138095Y-62161523D01*
X227138095Y-62009142D01*
X227176190Y-61932952D01*
X227252380Y-61894857D01*
X227557142Y-61894857D01*
X227633333Y-61932952D01*
X227671428Y-62009142D01*
X227671428Y-62161523D01*
X227633333Y-62237714D01*
X227557142Y-62275809D01*
X227480952Y-62275809D01*
X227404761Y-61894857D01*
X227671428Y-62504380D02*
X227671428Y-62809142D01*
X227938095Y-62618666D02*
X227252380Y-62618666D01*
X227176190Y-62656761D01*
X227138095Y-62732952D01*
X227138095Y-62809142D01*
X104628190Y-44828571D02*
X104932952Y-44828571D01*
X104742476Y-44561904D02*
X104742476Y-45247619D01*
X104780571Y-45323809D01*
X104856761Y-45361904D01*
X104932952Y-45361904D01*
X105199619Y-45361904D02*
X105199619Y-44828571D01*
X105199619Y-44980952D02*
X105237714Y-44904761D01*
X105275809Y-44866666D01*
X105352000Y-44828571D01*
X105428190Y-44828571D01*
X106037714Y-45361904D02*
X106037714Y-44942857D01*
X105999619Y-44866666D01*
X105923428Y-44828571D01*
X105771047Y-44828571D01*
X105694857Y-44866666D01*
X106037714Y-45323809D02*
X105961523Y-45361904D01*
X105771047Y-45361904D01*
X105694857Y-45323809D01*
X105656761Y-45247619D01*
X105656761Y-45171428D01*
X105694857Y-45095238D01*
X105771047Y-45057142D01*
X105961523Y-45057142D01*
X106037714Y-45019047D01*
X106380571Y-45323809D02*
X106456761Y-45361904D01*
X106609142Y-45361904D01*
X106685333Y-45323809D01*
X106723428Y-45247619D01*
X106723428Y-45209523D01*
X106685333Y-45133333D01*
X106609142Y-45095238D01*
X106494857Y-45095238D01*
X106418666Y-45057142D01*
X106380571Y-44980952D01*
X106380571Y-44942857D01*
X106418666Y-44866666D01*
X106494857Y-44828571D01*
X106609142Y-44828571D01*
X106685333Y-44866666D01*
X107066285Y-45361904D02*
X107066285Y-44561904D01*
X107409142Y-45361904D02*
X107409142Y-44942857D01*
X107371047Y-44866666D01*
X107294857Y-44828571D01*
X107180571Y-44828571D01*
X107104380Y-44866666D01*
X107066285Y-44904761D01*
X108399619Y-45361904D02*
X108399619Y-44561904D01*
X108399619Y-44866666D02*
X108475809Y-44828571D01*
X108628190Y-44828571D01*
X108704380Y-44866666D01*
X108742476Y-44904761D01*
X108780571Y-44980952D01*
X108780571Y-45209523D01*
X108742476Y-45285714D01*
X108704380Y-45323809D01*
X108628190Y-45361904D01*
X108475809Y-45361904D01*
X108399619Y-45323809D01*
X109237714Y-45361904D02*
X109161523Y-45323809D01*
X109123428Y-45285714D01*
X109085333Y-45209523D01*
X109085333Y-44980952D01*
X109123428Y-44904761D01*
X109161523Y-44866666D01*
X109237714Y-44828571D01*
X109352000Y-44828571D01*
X109428190Y-44866666D01*
X109466285Y-44904761D01*
X109504380Y-44980952D01*
X109504380Y-45209523D01*
X109466285Y-45285714D01*
X109428190Y-45323809D01*
X109352000Y-45361904D01*
X109237714Y-45361904D01*
X109732952Y-44828571D02*
X110037714Y-44828571D01*
X109847238Y-44561904D02*
X109847238Y-45247619D01*
X109885333Y-45323809D01*
X109961523Y-45361904D01*
X110037714Y-45361904D01*
X110190095Y-44828571D02*
X110494857Y-44828571D01*
X110304380Y-44561904D02*
X110304380Y-45247619D01*
X110342476Y-45323809D01*
X110418666Y-45361904D01*
X110494857Y-45361904D01*
X110875809Y-45361904D02*
X110799619Y-45323809D01*
X110761523Y-45247619D01*
X110761523Y-44561904D01*
X111485333Y-45323809D02*
X111409142Y-45361904D01*
X111256761Y-45361904D01*
X111180571Y-45323809D01*
X111142476Y-45247619D01*
X111142476Y-44942857D01*
X111180571Y-44866666D01*
X111256761Y-44828571D01*
X111409142Y-44828571D01*
X111485333Y-44866666D01*
X111523428Y-44942857D01*
X111523428Y-45019047D01*
X111142476Y-45095238D01*
X111828190Y-45323809D02*
X111904380Y-45361904D01*
X112056761Y-45361904D01*
X112132952Y-45323809D01*
X112171047Y-45247619D01*
X112171047Y-45209523D01*
X112132952Y-45133333D01*
X112056761Y-45095238D01*
X111942476Y-45095238D01*
X111866285Y-45057142D01*
X111828190Y-44980952D01*
X111828190Y-44942857D01*
X111866285Y-44866666D01*
X111942476Y-44828571D01*
X112056761Y-44828571D01*
X112132952Y-44866666D01*
X155835333Y-39823809D02*
X155759142Y-39861904D01*
X155606761Y-39861904D01*
X155530571Y-39823809D01*
X155492476Y-39785714D01*
X155454380Y-39709523D01*
X155454380Y-39480952D01*
X155492476Y-39404761D01*
X155530571Y-39366666D01*
X155606761Y-39328571D01*
X155759142Y-39328571D01*
X155835333Y-39366666D01*
X156521047Y-39861904D02*
X156521047Y-39442857D01*
X156482952Y-39366666D01*
X156406761Y-39328571D01*
X156254380Y-39328571D01*
X156178190Y-39366666D01*
X156521047Y-39823809D02*
X156444857Y-39861904D01*
X156254380Y-39861904D01*
X156178190Y-39823809D01*
X156140095Y-39747619D01*
X156140095Y-39671428D01*
X156178190Y-39595238D01*
X156254380Y-39557142D01*
X156444857Y-39557142D01*
X156521047Y-39519047D01*
X156902000Y-39861904D02*
X156902000Y-39061904D01*
X156902000Y-39366666D02*
X156978190Y-39328571D01*
X157130571Y-39328571D01*
X157206761Y-39366666D01*
X157244857Y-39404761D01*
X157282952Y-39480952D01*
X157282952Y-39709523D01*
X157244857Y-39785714D01*
X157206761Y-39823809D01*
X157130571Y-39861904D01*
X156978190Y-39861904D01*
X156902000Y-39823809D01*
X157625809Y-39861904D02*
X157625809Y-39328571D01*
X157625809Y-39061904D02*
X157587714Y-39100000D01*
X157625809Y-39138095D01*
X157663904Y-39100000D01*
X157625809Y-39061904D01*
X157625809Y-39138095D01*
X158006761Y-39328571D02*
X158006761Y-39861904D01*
X158006761Y-39404761D02*
X158044857Y-39366666D01*
X158121047Y-39328571D01*
X158235333Y-39328571D01*
X158311523Y-39366666D01*
X158349619Y-39442857D01*
X158349619Y-39861904D01*
X159035333Y-39823809D02*
X158959142Y-39861904D01*
X158806761Y-39861904D01*
X158730571Y-39823809D01*
X158692476Y-39747619D01*
X158692476Y-39442857D01*
X158730571Y-39366666D01*
X158806761Y-39328571D01*
X158959142Y-39328571D01*
X159035333Y-39366666D01*
X159073428Y-39442857D01*
X159073428Y-39519047D01*
X158692476Y-39595238D01*
X159302000Y-39328571D02*
X159606761Y-39328571D01*
X159416285Y-39061904D02*
X159416285Y-39747619D01*
X159454380Y-39823809D01*
X159530571Y-39861904D01*
X159606761Y-39861904D01*
X160368666Y-39328571D02*
X160673428Y-39328571D01*
X160482952Y-39061904D02*
X160482952Y-39747619D01*
X160521047Y-39823809D01*
X160597238Y-39861904D01*
X160673428Y-39861904D01*
X161054380Y-39861904D02*
X160978190Y-39823809D01*
X160940095Y-39785714D01*
X160902000Y-39709523D01*
X160902000Y-39480952D01*
X160940095Y-39404761D01*
X160978190Y-39366666D01*
X161054380Y-39328571D01*
X161168666Y-39328571D01*
X161244857Y-39366666D01*
X161282952Y-39404761D01*
X161321047Y-39480952D01*
X161321047Y-39709523D01*
X161282952Y-39785714D01*
X161244857Y-39823809D01*
X161168666Y-39861904D01*
X161054380Y-39861904D01*
X161587714Y-39328571D02*
X161740095Y-39861904D01*
X161892476Y-39480952D01*
X162044857Y-39861904D01*
X162197238Y-39328571D01*
X162806761Y-39823809D02*
X162730571Y-39861904D01*
X162578190Y-39861904D01*
X162502000Y-39823809D01*
X162463904Y-39747619D01*
X162463904Y-39442857D01*
X162502000Y-39366666D01*
X162578190Y-39328571D01*
X162730571Y-39328571D01*
X162806761Y-39366666D01*
X162844857Y-39442857D01*
X162844857Y-39519047D01*
X162463904Y-39595238D01*
X163187714Y-39861904D02*
X163187714Y-39328571D01*
X163187714Y-39480952D02*
X163225809Y-39404761D01*
X163263904Y-39366666D01*
X163340095Y-39328571D01*
X163416285Y-39328571D01*
X76361904Y-68164666D02*
X75561904Y-68164666D01*
X76323809Y-68164666D02*
X76361904Y-68240857D01*
X76361904Y-68393238D01*
X76323809Y-68469428D01*
X76285714Y-68507523D01*
X76209523Y-68545619D01*
X75980952Y-68545619D01*
X75904761Y-68507523D01*
X75866666Y-68469428D01*
X75828571Y-68393238D01*
X75828571Y-68240857D01*
X75866666Y-68164666D01*
X76361904Y-67669428D02*
X76323809Y-67745619D01*
X76285714Y-67783714D01*
X76209523Y-67821809D01*
X75980952Y-67821809D01*
X75904761Y-67783714D01*
X75866666Y-67745619D01*
X75828571Y-67669428D01*
X75828571Y-67555142D01*
X75866666Y-67478952D01*
X75904761Y-67440857D01*
X75980952Y-67402761D01*
X76209523Y-67402761D01*
X76285714Y-67440857D01*
X76323809Y-67478952D01*
X76361904Y-67555142D01*
X76361904Y-67669428D01*
X75828571Y-66717047D02*
X76361904Y-66717047D01*
X75828571Y-67059904D02*
X76247619Y-67059904D01*
X76323809Y-67021809D01*
X76361904Y-66945619D01*
X76361904Y-66831333D01*
X76323809Y-66755142D01*
X76285714Y-66717047D01*
X76361904Y-66336095D02*
X75561904Y-66336095D01*
X75866666Y-66336095D02*
X75828571Y-66259904D01*
X75828571Y-66107523D01*
X75866666Y-66031333D01*
X75904761Y-65993238D01*
X75980952Y-65955142D01*
X76209523Y-65955142D01*
X76285714Y-65993238D01*
X76323809Y-66031333D01*
X76361904Y-66107523D01*
X76361904Y-66259904D01*
X76323809Y-66336095D01*
X76361904Y-65498000D02*
X76323809Y-65574190D01*
X76247619Y-65612285D01*
X75561904Y-65612285D01*
X76323809Y-64888476D02*
X76361904Y-64964666D01*
X76361904Y-65117047D01*
X76323809Y-65193238D01*
X76247619Y-65231333D01*
X75942857Y-65231333D01*
X75866666Y-65193238D01*
X75828571Y-65117047D01*
X75828571Y-64964666D01*
X75866666Y-64888476D01*
X75942857Y-64850380D01*
X76019047Y-64850380D01*
X76095238Y-65231333D01*
X75828571Y-63898000D02*
X76628571Y-63898000D01*
X75866666Y-63898000D02*
X75828571Y-63821809D01*
X75828571Y-63669428D01*
X75866666Y-63593238D01*
X75904761Y-63555142D01*
X75980952Y-63517047D01*
X76209523Y-63517047D01*
X76285714Y-63555142D01*
X76323809Y-63593238D01*
X76361904Y-63669428D01*
X76361904Y-63821809D01*
X76323809Y-63898000D01*
X76361904Y-62831333D02*
X75942857Y-62831333D01*
X75866666Y-62869428D01*
X75828571Y-62945619D01*
X75828571Y-63098000D01*
X75866666Y-63174190D01*
X76323809Y-62831333D02*
X76361904Y-62907523D01*
X76361904Y-63098000D01*
X76323809Y-63174190D01*
X76247619Y-63212285D01*
X76171428Y-63212285D01*
X76095238Y-63174190D01*
X76057142Y-63098000D01*
X76057142Y-62907523D01*
X76019047Y-62831333D01*
X76361904Y-62336095D02*
X76323809Y-62412285D01*
X76247619Y-62450380D01*
X75561904Y-62450380D01*
X76323809Y-61726571D02*
X76361904Y-61802761D01*
X76361904Y-61955142D01*
X76323809Y-62031333D01*
X76247619Y-62069428D01*
X75942857Y-62069428D01*
X75866666Y-62031333D01*
X75828571Y-61955142D01*
X75828571Y-61802761D01*
X75866666Y-61726571D01*
X75942857Y-61688476D01*
X76019047Y-61688476D01*
X76095238Y-62069428D01*
X75828571Y-61459904D02*
X75828571Y-61155142D01*
X75561904Y-61345619D02*
X76247619Y-61345619D01*
X76323809Y-61307523D01*
X76361904Y-61231333D01*
X76361904Y-61155142D01*
X76323809Y-60317047D02*
X76361904Y-60240857D01*
X76361904Y-60088476D01*
X76323809Y-60012285D01*
X76247619Y-59974190D01*
X76209523Y-59974190D01*
X76133333Y-60012285D01*
X76095238Y-60088476D01*
X76095238Y-60202761D01*
X76057142Y-60278952D01*
X75980952Y-60317047D01*
X75942857Y-60317047D01*
X75866666Y-60278952D01*
X75828571Y-60202761D01*
X75828571Y-60088476D01*
X75866666Y-60012285D01*
X76361904Y-59631333D02*
X75561904Y-59631333D01*
X76361904Y-59288476D02*
X75942857Y-59288476D01*
X75866666Y-59326571D01*
X75828571Y-59402761D01*
X75828571Y-59517047D01*
X75866666Y-59593238D01*
X75904761Y-59631333D01*
X76323809Y-58602761D02*
X76361904Y-58678952D01*
X76361904Y-58831333D01*
X76323809Y-58907523D01*
X76247619Y-58945619D01*
X75942857Y-58945619D01*
X75866666Y-58907523D01*
X75828571Y-58831333D01*
X75828571Y-58678952D01*
X75866666Y-58602761D01*
X75942857Y-58564666D01*
X76019047Y-58564666D01*
X76095238Y-58945619D01*
X76361904Y-58107523D02*
X76323809Y-58183714D01*
X76247619Y-58221809D01*
X75561904Y-58221809D01*
X75828571Y-57917047D02*
X75828571Y-57612285D01*
X76361904Y-57802761D02*
X75676190Y-57802761D01*
X75600000Y-57764666D01*
X75561904Y-57688476D01*
X75561904Y-57612285D01*
X140835333Y-39823809D02*
X140759142Y-39861904D01*
X140606761Y-39861904D01*
X140530571Y-39823809D01*
X140492476Y-39785714D01*
X140454380Y-39709523D01*
X140454380Y-39480952D01*
X140492476Y-39404761D01*
X140530571Y-39366666D01*
X140606761Y-39328571D01*
X140759142Y-39328571D01*
X140835333Y-39366666D01*
X141521047Y-39861904D02*
X141521047Y-39442857D01*
X141482952Y-39366666D01*
X141406761Y-39328571D01*
X141254380Y-39328571D01*
X141178190Y-39366666D01*
X141521047Y-39823809D02*
X141444857Y-39861904D01*
X141254380Y-39861904D01*
X141178190Y-39823809D01*
X141140095Y-39747619D01*
X141140095Y-39671428D01*
X141178190Y-39595238D01*
X141254380Y-39557142D01*
X141444857Y-39557142D01*
X141521047Y-39519047D01*
X141902000Y-39861904D02*
X141902000Y-39061904D01*
X141902000Y-39366666D02*
X141978190Y-39328571D01*
X142130571Y-39328571D01*
X142206761Y-39366666D01*
X142244857Y-39404761D01*
X142282952Y-39480952D01*
X142282952Y-39709523D01*
X142244857Y-39785714D01*
X142206761Y-39823809D01*
X142130571Y-39861904D01*
X141978190Y-39861904D01*
X141902000Y-39823809D01*
X142625809Y-39861904D02*
X142625809Y-39328571D01*
X142625809Y-39061904D02*
X142587714Y-39100000D01*
X142625809Y-39138095D01*
X142663904Y-39100000D01*
X142625809Y-39061904D01*
X142625809Y-39138095D01*
X143006761Y-39328571D02*
X143006761Y-39861904D01*
X143006761Y-39404761D02*
X143044857Y-39366666D01*
X143121047Y-39328571D01*
X143235333Y-39328571D01*
X143311523Y-39366666D01*
X143349619Y-39442857D01*
X143349619Y-39861904D01*
X144035333Y-39823809D02*
X143959142Y-39861904D01*
X143806761Y-39861904D01*
X143730571Y-39823809D01*
X143692476Y-39747619D01*
X143692476Y-39442857D01*
X143730571Y-39366666D01*
X143806761Y-39328571D01*
X143959142Y-39328571D01*
X144035333Y-39366666D01*
X144073428Y-39442857D01*
X144073428Y-39519047D01*
X143692476Y-39595238D01*
X144302000Y-39328571D02*
X144606761Y-39328571D01*
X144416285Y-39061904D02*
X144416285Y-39747619D01*
X144454380Y-39823809D01*
X144530571Y-39861904D01*
X144606761Y-39861904D01*
X145368666Y-39328571D02*
X145673428Y-39328571D01*
X145482952Y-39061904D02*
X145482952Y-39747619D01*
X145521047Y-39823809D01*
X145597238Y-39861904D01*
X145673428Y-39861904D01*
X146054380Y-39861904D02*
X145978190Y-39823809D01*
X145940095Y-39785714D01*
X145902000Y-39709523D01*
X145902000Y-39480952D01*
X145940095Y-39404761D01*
X145978190Y-39366666D01*
X146054380Y-39328571D01*
X146168666Y-39328571D01*
X146244857Y-39366666D01*
X146282952Y-39404761D01*
X146321047Y-39480952D01*
X146321047Y-39709523D01*
X146282952Y-39785714D01*
X146244857Y-39823809D01*
X146168666Y-39861904D01*
X146054380Y-39861904D01*
X146587714Y-39328571D02*
X146740095Y-39861904D01*
X146892476Y-39480952D01*
X147044857Y-39861904D01*
X147197238Y-39328571D01*
X147806761Y-39823809D02*
X147730571Y-39861904D01*
X147578190Y-39861904D01*
X147502000Y-39823809D01*
X147463904Y-39747619D01*
X147463904Y-39442857D01*
X147502000Y-39366666D01*
X147578190Y-39328571D01*
X147730571Y-39328571D01*
X147806761Y-39366666D01*
X147844857Y-39442857D01*
X147844857Y-39519047D01*
X147463904Y-39595238D01*
X148187714Y-39861904D02*
X148187714Y-39328571D01*
X148187714Y-39480952D02*
X148225809Y-39404761D01*
X148263904Y-39366666D01*
X148340095Y-39328571D01*
X148416285Y-39328571D01*
X104328571Y-148257523D02*
X105128571Y-148257523D01*
X104366666Y-148257523D02*
X104328571Y-148181333D01*
X104328571Y-148028952D01*
X104366666Y-147952761D01*
X104404761Y-147914666D01*
X104480952Y-147876571D01*
X104709523Y-147876571D01*
X104785714Y-147914666D01*
X104823809Y-147952761D01*
X104861904Y-148028952D01*
X104861904Y-148181333D01*
X104823809Y-148257523D01*
X104861904Y-147190857D02*
X104442857Y-147190857D01*
X104366666Y-147228952D01*
X104328571Y-147305142D01*
X104328571Y-147457523D01*
X104366666Y-147533714D01*
X104823809Y-147190857D02*
X104861904Y-147267047D01*
X104861904Y-147457523D01*
X104823809Y-147533714D01*
X104747619Y-147571809D01*
X104671428Y-147571809D01*
X104595238Y-147533714D01*
X104557142Y-147457523D01*
X104557142Y-147267047D01*
X104519047Y-147190857D01*
X104861904Y-146695619D02*
X104823809Y-146771809D01*
X104747619Y-146809904D01*
X104061904Y-146809904D01*
X104823809Y-146086095D02*
X104861904Y-146162285D01*
X104861904Y-146314666D01*
X104823809Y-146390857D01*
X104747619Y-146428952D01*
X104442857Y-146428952D01*
X104366666Y-146390857D01*
X104328571Y-146314666D01*
X104328571Y-146162285D01*
X104366666Y-146086095D01*
X104442857Y-146048000D01*
X104519047Y-146048000D01*
X104595238Y-146428952D01*
X104328571Y-145819428D02*
X104328571Y-145514666D01*
X104061904Y-145705142D02*
X104747619Y-145705142D01*
X104823809Y-145667047D01*
X104861904Y-145590857D01*
X104861904Y-145514666D01*
X104861904Y-144638476D02*
X104328571Y-144638476D01*
X104480952Y-144638476D02*
X104404761Y-144600380D01*
X104366666Y-144562285D01*
X104328571Y-144486095D01*
X104328571Y-144409904D01*
X104861904Y-143800380D02*
X104442857Y-143800380D01*
X104366666Y-143838476D01*
X104328571Y-143914666D01*
X104328571Y-144067047D01*
X104366666Y-144143238D01*
X104823809Y-143800380D02*
X104861904Y-143876571D01*
X104861904Y-144067047D01*
X104823809Y-144143238D01*
X104747619Y-144181333D01*
X104671428Y-144181333D01*
X104595238Y-144143238D01*
X104557142Y-144067047D01*
X104557142Y-143876571D01*
X104519047Y-143800380D01*
X104823809Y-143076571D02*
X104861904Y-143152761D01*
X104861904Y-143305142D01*
X104823809Y-143381333D01*
X104785714Y-143419428D01*
X104709523Y-143457523D01*
X104480952Y-143457523D01*
X104404761Y-143419428D01*
X104366666Y-143381333D01*
X104328571Y-143305142D01*
X104328571Y-143152761D01*
X104366666Y-143076571D01*
X104861904Y-142733714D02*
X104061904Y-142733714D01*
X104557142Y-142657523D02*
X104861904Y-142428952D01*
X104328571Y-142428952D02*
X104633333Y-142733714D01*
X63671428Y-92742476D02*
X62871428Y-92742476D01*
X63633333Y-92742476D02*
X63671428Y-92818666D01*
X63671428Y-92971047D01*
X63633333Y-93047238D01*
X63595238Y-93085333D01*
X63519047Y-93123428D01*
X63290476Y-93123428D01*
X63214285Y-93085333D01*
X63176190Y-93047238D01*
X63138095Y-92971047D01*
X63138095Y-92818666D01*
X63176190Y-92742476D01*
X63138095Y-93809142D02*
X63557142Y-93809142D01*
X63633333Y-93771047D01*
X63671428Y-93694857D01*
X63671428Y-93542476D01*
X63633333Y-93466285D01*
X63176190Y-93809142D02*
X63138095Y-93732952D01*
X63138095Y-93542476D01*
X63176190Y-93466285D01*
X63252380Y-93428190D01*
X63328571Y-93428190D01*
X63404761Y-93466285D01*
X63442857Y-93542476D01*
X63442857Y-93732952D01*
X63480952Y-93809142D01*
X63138095Y-94304380D02*
X63176190Y-94228190D01*
X63252380Y-94190095D01*
X63938095Y-94190095D01*
X63176190Y-94913904D02*
X63138095Y-94837714D01*
X63138095Y-94685333D01*
X63176190Y-94609142D01*
X63252380Y-94571047D01*
X63557142Y-94571047D01*
X63633333Y-94609142D01*
X63671428Y-94685333D01*
X63671428Y-94837714D01*
X63633333Y-94913904D01*
X63557142Y-94952000D01*
X63480952Y-94952000D01*
X63404761Y-94571047D01*
X63671428Y-95180571D02*
X63671428Y-95485333D01*
X63938095Y-95294857D02*
X63252380Y-95294857D01*
X63176190Y-95332952D01*
X63138095Y-95409142D01*
X63138095Y-95485333D01*
X63138095Y-96361523D02*
X63671428Y-96361523D01*
X63519047Y-96361523D02*
X63595238Y-96399619D01*
X63633333Y-96437714D01*
X63671428Y-96513904D01*
X63671428Y-96590095D01*
X63138095Y-97199619D02*
X63557142Y-97199619D01*
X63633333Y-97161523D01*
X63671428Y-97085333D01*
X63671428Y-96932952D01*
X63633333Y-96856761D01*
X63176190Y-97199619D02*
X63138095Y-97123428D01*
X63138095Y-96932952D01*
X63176190Y-96856761D01*
X63252380Y-96818666D01*
X63328571Y-96818666D01*
X63404761Y-96856761D01*
X63442857Y-96932952D01*
X63442857Y-97123428D01*
X63480952Y-97199619D01*
X63176190Y-97923428D02*
X63138095Y-97847238D01*
X63138095Y-97694857D01*
X63176190Y-97618666D01*
X63214285Y-97580571D01*
X63290476Y-97542476D01*
X63519047Y-97542476D01*
X63595238Y-97580571D01*
X63633333Y-97618666D01*
X63671428Y-97694857D01*
X63671428Y-97847238D01*
X63633333Y-97923428D01*
X63138095Y-98266285D02*
X63938095Y-98266285D01*
X63442857Y-98342476D02*
X63138095Y-98571047D01*
X63671428Y-98571047D02*
X63366666Y-98266285D01*
X228176190Y-37085333D02*
X228138095Y-37009142D01*
X228138095Y-36856761D01*
X228176190Y-36780571D01*
X228214285Y-36742476D01*
X228290476Y-36704380D01*
X228519047Y-36704380D01*
X228595238Y-36742476D01*
X228633333Y-36780571D01*
X228671428Y-36856761D01*
X228671428Y-37009142D01*
X228633333Y-37085333D01*
X228138095Y-37542476D02*
X228176190Y-37466285D01*
X228252380Y-37428190D01*
X228938095Y-37428190D01*
X228176190Y-38152000D02*
X228138095Y-38075809D01*
X228138095Y-37923428D01*
X228176190Y-37847238D01*
X228252380Y-37809142D01*
X228557142Y-37809142D01*
X228633333Y-37847238D01*
X228671428Y-37923428D01*
X228671428Y-38075809D01*
X228633333Y-38152000D01*
X228557142Y-38190095D01*
X228480952Y-38190095D01*
X228404761Y-37809142D01*
X228176190Y-38837714D02*
X228138095Y-38761523D01*
X228138095Y-38609142D01*
X228176190Y-38532952D01*
X228252380Y-38494857D01*
X228557142Y-38494857D01*
X228633333Y-38532952D01*
X228671428Y-38609142D01*
X228671428Y-38761523D01*
X228633333Y-38837714D01*
X228557142Y-38875809D01*
X228480952Y-38875809D01*
X228404761Y-38494857D01*
X228671428Y-39218666D02*
X228138095Y-39218666D01*
X228595238Y-39218666D02*
X228633333Y-39256761D01*
X228671428Y-39332952D01*
X228671428Y-39447238D01*
X228633333Y-39523428D01*
X228557142Y-39561523D01*
X228138095Y-39561523D01*
X228176190Y-40894857D02*
X228138095Y-40818666D01*
X228138095Y-40666285D01*
X228176190Y-40590095D01*
X228214285Y-40552000D01*
X228290476Y-40513904D01*
X228519047Y-40513904D01*
X228595238Y-40552000D01*
X228633333Y-40590095D01*
X228671428Y-40666285D01*
X228671428Y-40818666D01*
X228633333Y-40894857D01*
X228138095Y-41352000D02*
X228176190Y-41275809D01*
X228252380Y-41237714D01*
X228938095Y-41237714D01*
X228138095Y-41771047D02*
X228176190Y-41694857D01*
X228214285Y-41656761D01*
X228290476Y-41618666D01*
X228519047Y-41618666D01*
X228595238Y-41656761D01*
X228633333Y-41694857D01*
X228671428Y-41771047D01*
X228671428Y-41885333D01*
X228633333Y-41961523D01*
X228595238Y-41999619D01*
X228519047Y-42037714D01*
X228290476Y-42037714D01*
X228214285Y-41999619D01*
X228176190Y-41961523D01*
X228138095Y-41885333D01*
X228138095Y-41771047D01*
X228671428Y-42266285D02*
X228671428Y-42571047D01*
X228938095Y-42380571D02*
X228252380Y-42380571D01*
X228176190Y-42418666D01*
X228138095Y-42494857D01*
X228138095Y-42571047D01*
X228138095Y-42837714D02*
X228938095Y-42837714D01*
X228138095Y-43180571D02*
X228557142Y-43180571D01*
X228633333Y-43142476D01*
X228671428Y-43066285D01*
X228671428Y-42952000D01*
X228633333Y-42875809D01*
X228595238Y-42837714D01*
X228176190Y-43866285D02*
X228138095Y-43790095D01*
X228138095Y-43637714D01*
X228176190Y-43561523D01*
X228252380Y-43523428D01*
X228557142Y-43523428D01*
X228633333Y-43561523D01*
X228671428Y-43637714D01*
X228671428Y-43790095D01*
X228633333Y-43866285D01*
X228557142Y-43904380D01*
X228480952Y-43904380D01*
X228404761Y-43523428D01*
X228176190Y-44209142D02*
X228138095Y-44285333D01*
X228138095Y-44437714D01*
X228176190Y-44513904D01*
X228252380Y-44552000D01*
X228290476Y-44552000D01*
X228366666Y-44513904D01*
X228404761Y-44437714D01*
X228404761Y-44323428D01*
X228442857Y-44247238D01*
X228519047Y-44209142D01*
X228557142Y-44209142D01*
X228633333Y-44247238D01*
X228671428Y-44323428D01*
X228671428Y-44437714D01*
X228633333Y-44513904D01*
X104328571Y-119257523D02*
X105128571Y-119257523D01*
X104366666Y-119257523D02*
X104328571Y-119181333D01*
X104328571Y-119028952D01*
X104366666Y-118952761D01*
X104404761Y-118914666D01*
X104480952Y-118876571D01*
X104709523Y-118876571D01*
X104785714Y-118914666D01*
X104823809Y-118952761D01*
X104861904Y-119028952D01*
X104861904Y-119181333D01*
X104823809Y-119257523D01*
X104861904Y-118190857D02*
X104442857Y-118190857D01*
X104366666Y-118228952D01*
X104328571Y-118305142D01*
X104328571Y-118457523D01*
X104366666Y-118533714D01*
X104823809Y-118190857D02*
X104861904Y-118267047D01*
X104861904Y-118457523D01*
X104823809Y-118533714D01*
X104747619Y-118571809D01*
X104671428Y-118571809D01*
X104595238Y-118533714D01*
X104557142Y-118457523D01*
X104557142Y-118267047D01*
X104519047Y-118190857D01*
X104861904Y-117695619D02*
X104823809Y-117771809D01*
X104747619Y-117809904D01*
X104061904Y-117809904D01*
X104823809Y-117086095D02*
X104861904Y-117162285D01*
X104861904Y-117314666D01*
X104823809Y-117390857D01*
X104747619Y-117428952D01*
X104442857Y-117428952D01*
X104366666Y-117390857D01*
X104328571Y-117314666D01*
X104328571Y-117162285D01*
X104366666Y-117086095D01*
X104442857Y-117048000D01*
X104519047Y-117048000D01*
X104595238Y-117428952D01*
X104328571Y-116819428D02*
X104328571Y-116514666D01*
X104061904Y-116705142D02*
X104747619Y-116705142D01*
X104823809Y-116667047D01*
X104861904Y-116590857D01*
X104861904Y-116514666D01*
X104861904Y-115638476D02*
X104328571Y-115638476D01*
X104480952Y-115638476D02*
X104404761Y-115600380D01*
X104366666Y-115562285D01*
X104328571Y-115486095D01*
X104328571Y-115409904D01*
X104861904Y-114800380D02*
X104442857Y-114800380D01*
X104366666Y-114838476D01*
X104328571Y-114914666D01*
X104328571Y-115067047D01*
X104366666Y-115143238D01*
X104823809Y-114800380D02*
X104861904Y-114876571D01*
X104861904Y-115067047D01*
X104823809Y-115143238D01*
X104747619Y-115181333D01*
X104671428Y-115181333D01*
X104595238Y-115143238D01*
X104557142Y-115067047D01*
X104557142Y-114876571D01*
X104519047Y-114800380D01*
X104823809Y-114076571D02*
X104861904Y-114152761D01*
X104861904Y-114305142D01*
X104823809Y-114381333D01*
X104785714Y-114419428D01*
X104709523Y-114457523D01*
X104480952Y-114457523D01*
X104404761Y-114419428D01*
X104366666Y-114381333D01*
X104328571Y-114305142D01*
X104328571Y-114152761D01*
X104366666Y-114076571D01*
X104861904Y-113733714D02*
X104061904Y-113733714D01*
X104557142Y-113657523D02*
X104861904Y-113428952D01*
X104328571Y-113428952D02*
X104633333Y-113733714D01*
X135835333Y-39823809D02*
X135759142Y-39861904D01*
X135606761Y-39861904D01*
X135530571Y-39823809D01*
X135492476Y-39785714D01*
X135454380Y-39709523D01*
X135454380Y-39480952D01*
X135492476Y-39404761D01*
X135530571Y-39366666D01*
X135606761Y-39328571D01*
X135759142Y-39328571D01*
X135835333Y-39366666D01*
X136521047Y-39861904D02*
X136521047Y-39442857D01*
X136482952Y-39366666D01*
X136406761Y-39328571D01*
X136254380Y-39328571D01*
X136178190Y-39366666D01*
X136521047Y-39823809D02*
X136444857Y-39861904D01*
X136254380Y-39861904D01*
X136178190Y-39823809D01*
X136140095Y-39747619D01*
X136140095Y-39671428D01*
X136178190Y-39595238D01*
X136254380Y-39557142D01*
X136444857Y-39557142D01*
X136521047Y-39519047D01*
X136902000Y-39861904D02*
X136902000Y-39061904D01*
X136902000Y-39366666D02*
X136978190Y-39328571D01*
X137130571Y-39328571D01*
X137206761Y-39366666D01*
X137244857Y-39404761D01*
X137282952Y-39480952D01*
X137282952Y-39709523D01*
X137244857Y-39785714D01*
X137206761Y-39823809D01*
X137130571Y-39861904D01*
X136978190Y-39861904D01*
X136902000Y-39823809D01*
X137625809Y-39861904D02*
X137625809Y-39328571D01*
X137625809Y-39061904D02*
X137587714Y-39100000D01*
X137625809Y-39138095D01*
X137663904Y-39100000D01*
X137625809Y-39061904D01*
X137625809Y-39138095D01*
X138006761Y-39328571D02*
X138006761Y-39861904D01*
X138006761Y-39404761D02*
X138044857Y-39366666D01*
X138121047Y-39328571D01*
X138235333Y-39328571D01*
X138311523Y-39366666D01*
X138349619Y-39442857D01*
X138349619Y-39861904D01*
X139035333Y-39823809D02*
X138959142Y-39861904D01*
X138806761Y-39861904D01*
X138730571Y-39823809D01*
X138692476Y-39747619D01*
X138692476Y-39442857D01*
X138730571Y-39366666D01*
X138806761Y-39328571D01*
X138959142Y-39328571D01*
X139035333Y-39366666D01*
X139073428Y-39442857D01*
X139073428Y-39519047D01*
X138692476Y-39595238D01*
X139302000Y-39328571D02*
X139606761Y-39328571D01*
X139416285Y-39061904D02*
X139416285Y-39747619D01*
X139454380Y-39823809D01*
X139530571Y-39861904D01*
X139606761Y-39861904D01*
X140368666Y-39328571D02*
X140673428Y-39328571D01*
X140482952Y-39061904D02*
X140482952Y-39747619D01*
X140521047Y-39823809D01*
X140597238Y-39861904D01*
X140673428Y-39861904D01*
X141054380Y-39861904D02*
X140978190Y-39823809D01*
X140940095Y-39785714D01*
X140902000Y-39709523D01*
X140902000Y-39480952D01*
X140940095Y-39404761D01*
X140978190Y-39366666D01*
X141054380Y-39328571D01*
X141168666Y-39328571D01*
X141244857Y-39366666D01*
X141282952Y-39404761D01*
X141321047Y-39480952D01*
X141321047Y-39709523D01*
X141282952Y-39785714D01*
X141244857Y-39823809D01*
X141168666Y-39861904D01*
X141054380Y-39861904D01*
X141587714Y-39328571D02*
X141740095Y-39861904D01*
X141892476Y-39480952D01*
X142044857Y-39861904D01*
X142197238Y-39328571D01*
X142806761Y-39823809D02*
X142730571Y-39861904D01*
X142578190Y-39861904D01*
X142502000Y-39823809D01*
X142463904Y-39747619D01*
X142463904Y-39442857D01*
X142502000Y-39366666D01*
X142578190Y-39328571D01*
X142730571Y-39328571D01*
X142806761Y-39366666D01*
X142844857Y-39442857D01*
X142844857Y-39519047D01*
X142463904Y-39595238D01*
X143187714Y-39861904D02*
X143187714Y-39328571D01*
X143187714Y-39480952D02*
X143225809Y-39404761D01*
X143263904Y-39366666D01*
X143340095Y-39328571D01*
X143416285Y-39328571D01*
X63671428Y-121742476D02*
X62871428Y-121742476D01*
X63633333Y-121742476D02*
X63671428Y-121818666D01*
X63671428Y-121971047D01*
X63633333Y-122047238D01*
X63595238Y-122085333D01*
X63519047Y-122123428D01*
X63290476Y-122123428D01*
X63214285Y-122085333D01*
X63176190Y-122047238D01*
X63138095Y-121971047D01*
X63138095Y-121818666D01*
X63176190Y-121742476D01*
X63138095Y-122809142D02*
X63557142Y-122809142D01*
X63633333Y-122771047D01*
X63671428Y-122694857D01*
X63671428Y-122542476D01*
X63633333Y-122466285D01*
X63176190Y-122809142D02*
X63138095Y-122732952D01*
X63138095Y-122542476D01*
X63176190Y-122466285D01*
X63252380Y-122428190D01*
X63328571Y-122428190D01*
X63404761Y-122466285D01*
X63442857Y-122542476D01*
X63442857Y-122732952D01*
X63480952Y-122809142D01*
X63138095Y-123304380D02*
X63176190Y-123228190D01*
X63252380Y-123190095D01*
X63938095Y-123190095D01*
X63176190Y-123913904D02*
X63138095Y-123837714D01*
X63138095Y-123685333D01*
X63176190Y-123609142D01*
X63252380Y-123571047D01*
X63557142Y-123571047D01*
X63633333Y-123609142D01*
X63671428Y-123685333D01*
X63671428Y-123837714D01*
X63633333Y-123913904D01*
X63557142Y-123952000D01*
X63480952Y-123952000D01*
X63404761Y-123571047D01*
X63671428Y-124180571D02*
X63671428Y-124485333D01*
X63938095Y-124294857D02*
X63252380Y-124294857D01*
X63176190Y-124332952D01*
X63138095Y-124409142D01*
X63138095Y-124485333D01*
X63138095Y-125361523D02*
X63671428Y-125361523D01*
X63519047Y-125361523D02*
X63595238Y-125399619D01*
X63633333Y-125437714D01*
X63671428Y-125513904D01*
X63671428Y-125590095D01*
X63138095Y-126199619D02*
X63557142Y-126199619D01*
X63633333Y-126161523D01*
X63671428Y-126085333D01*
X63671428Y-125932952D01*
X63633333Y-125856761D01*
X63176190Y-126199619D02*
X63138095Y-126123428D01*
X63138095Y-125932952D01*
X63176190Y-125856761D01*
X63252380Y-125818666D01*
X63328571Y-125818666D01*
X63404761Y-125856761D01*
X63442857Y-125932952D01*
X63442857Y-126123428D01*
X63480952Y-126199619D01*
X63176190Y-126923428D02*
X63138095Y-126847238D01*
X63138095Y-126694857D01*
X63176190Y-126618666D01*
X63214285Y-126580571D01*
X63290476Y-126542476D01*
X63519047Y-126542476D01*
X63595238Y-126580571D01*
X63633333Y-126618666D01*
X63671428Y-126694857D01*
X63671428Y-126847238D01*
X63633333Y-126923428D01*
X63138095Y-127266285D02*
X63938095Y-127266285D01*
X63442857Y-127342476D02*
X63138095Y-127571047D01*
X63671428Y-127571047D02*
X63366666Y-127266285D01*
X130835333Y-39823809D02*
X130759142Y-39861904D01*
X130606761Y-39861904D01*
X130530571Y-39823809D01*
X130492476Y-39785714D01*
X130454380Y-39709523D01*
X130454380Y-39480952D01*
X130492476Y-39404761D01*
X130530571Y-39366666D01*
X130606761Y-39328571D01*
X130759142Y-39328571D01*
X130835333Y-39366666D01*
X131521047Y-39861904D02*
X131521047Y-39442857D01*
X131482952Y-39366666D01*
X131406761Y-39328571D01*
X131254380Y-39328571D01*
X131178190Y-39366666D01*
X131521047Y-39823809D02*
X131444857Y-39861904D01*
X131254380Y-39861904D01*
X131178190Y-39823809D01*
X131140095Y-39747619D01*
X131140095Y-39671428D01*
X131178190Y-39595238D01*
X131254380Y-39557142D01*
X131444857Y-39557142D01*
X131521047Y-39519047D01*
X131902000Y-39861904D02*
X131902000Y-39061904D01*
X131902000Y-39366666D02*
X131978190Y-39328571D01*
X132130571Y-39328571D01*
X132206761Y-39366666D01*
X132244857Y-39404761D01*
X132282952Y-39480952D01*
X132282952Y-39709523D01*
X132244857Y-39785714D01*
X132206761Y-39823809D01*
X132130571Y-39861904D01*
X131978190Y-39861904D01*
X131902000Y-39823809D01*
X132625809Y-39861904D02*
X132625809Y-39328571D01*
X132625809Y-39061904D02*
X132587714Y-39100000D01*
X132625809Y-39138095D01*
X132663904Y-39100000D01*
X132625809Y-39061904D01*
X132625809Y-39138095D01*
X133006761Y-39328571D02*
X133006761Y-39861904D01*
X133006761Y-39404761D02*
X133044857Y-39366666D01*
X133121047Y-39328571D01*
X133235333Y-39328571D01*
X133311523Y-39366666D01*
X133349619Y-39442857D01*
X133349619Y-39861904D01*
X134035333Y-39823809D02*
X133959142Y-39861904D01*
X133806761Y-39861904D01*
X133730571Y-39823809D01*
X133692476Y-39747619D01*
X133692476Y-39442857D01*
X133730571Y-39366666D01*
X133806761Y-39328571D01*
X133959142Y-39328571D01*
X134035333Y-39366666D01*
X134073428Y-39442857D01*
X134073428Y-39519047D01*
X133692476Y-39595238D01*
X134302000Y-39328571D02*
X134606761Y-39328571D01*
X134416285Y-39061904D02*
X134416285Y-39747619D01*
X134454380Y-39823809D01*
X134530571Y-39861904D01*
X134606761Y-39861904D01*
X135368666Y-39328571D02*
X135673428Y-39328571D01*
X135482952Y-39061904D02*
X135482952Y-39747619D01*
X135521047Y-39823809D01*
X135597238Y-39861904D01*
X135673428Y-39861904D01*
X136054380Y-39861904D02*
X135978190Y-39823809D01*
X135940095Y-39785714D01*
X135902000Y-39709523D01*
X135902000Y-39480952D01*
X135940095Y-39404761D01*
X135978190Y-39366666D01*
X136054380Y-39328571D01*
X136168666Y-39328571D01*
X136244857Y-39366666D01*
X136282952Y-39404761D01*
X136321047Y-39480952D01*
X136321047Y-39709523D01*
X136282952Y-39785714D01*
X136244857Y-39823809D01*
X136168666Y-39861904D01*
X136054380Y-39861904D01*
X136587714Y-39328571D02*
X136740095Y-39861904D01*
X136892476Y-39480952D01*
X137044857Y-39861904D01*
X137197238Y-39328571D01*
X137806761Y-39823809D02*
X137730571Y-39861904D01*
X137578190Y-39861904D01*
X137502000Y-39823809D01*
X137463904Y-39747619D01*
X137463904Y-39442857D01*
X137502000Y-39366666D01*
X137578190Y-39328571D01*
X137730571Y-39328571D01*
X137806761Y-39366666D01*
X137844857Y-39442857D01*
X137844857Y-39519047D01*
X137463904Y-39595238D01*
X138187714Y-39861904D02*
X138187714Y-39328571D01*
X138187714Y-39480952D02*
X138225809Y-39404761D01*
X138263904Y-39366666D01*
X138340095Y-39328571D01*
X138416285Y-39328571D01*
X150835333Y-39823809D02*
X150759142Y-39861904D01*
X150606761Y-39861904D01*
X150530571Y-39823809D01*
X150492476Y-39785714D01*
X150454380Y-39709523D01*
X150454380Y-39480952D01*
X150492476Y-39404761D01*
X150530571Y-39366666D01*
X150606761Y-39328571D01*
X150759142Y-39328571D01*
X150835333Y-39366666D01*
X151521047Y-39861904D02*
X151521047Y-39442857D01*
X151482952Y-39366666D01*
X151406761Y-39328571D01*
X151254380Y-39328571D01*
X151178190Y-39366666D01*
X151521047Y-39823809D02*
X151444857Y-39861904D01*
X151254380Y-39861904D01*
X151178190Y-39823809D01*
X151140095Y-39747619D01*
X151140095Y-39671428D01*
X151178190Y-39595238D01*
X151254380Y-39557142D01*
X151444857Y-39557142D01*
X151521047Y-39519047D01*
X151902000Y-39861904D02*
X151902000Y-39061904D01*
X151902000Y-39366666D02*
X151978190Y-39328571D01*
X152130571Y-39328571D01*
X152206761Y-39366666D01*
X152244857Y-39404761D01*
X152282952Y-39480952D01*
X152282952Y-39709523D01*
X152244857Y-39785714D01*
X152206761Y-39823809D01*
X152130571Y-39861904D01*
X151978190Y-39861904D01*
X151902000Y-39823809D01*
X152625809Y-39861904D02*
X152625809Y-39328571D01*
X152625809Y-39061904D02*
X152587714Y-39100000D01*
X152625809Y-39138095D01*
X152663904Y-39100000D01*
X152625809Y-39061904D01*
X152625809Y-39138095D01*
X153006761Y-39328571D02*
X153006761Y-39861904D01*
X153006761Y-39404761D02*
X153044857Y-39366666D01*
X153121047Y-39328571D01*
X153235333Y-39328571D01*
X153311523Y-39366666D01*
X153349619Y-39442857D01*
X153349619Y-39861904D01*
X154035333Y-39823809D02*
X153959142Y-39861904D01*
X153806761Y-39861904D01*
X153730571Y-39823809D01*
X153692476Y-39747619D01*
X153692476Y-39442857D01*
X153730571Y-39366666D01*
X153806761Y-39328571D01*
X153959142Y-39328571D01*
X154035333Y-39366666D01*
X154073428Y-39442857D01*
X154073428Y-39519047D01*
X153692476Y-39595238D01*
X154302000Y-39328571D02*
X154606761Y-39328571D01*
X154416285Y-39061904D02*
X154416285Y-39747619D01*
X154454380Y-39823809D01*
X154530571Y-39861904D01*
X154606761Y-39861904D01*
X155368666Y-39328571D02*
X155673428Y-39328571D01*
X155482952Y-39061904D02*
X155482952Y-39747619D01*
X155521047Y-39823809D01*
X155597238Y-39861904D01*
X155673428Y-39861904D01*
X156054380Y-39861904D02*
X155978190Y-39823809D01*
X155940095Y-39785714D01*
X155902000Y-39709523D01*
X155902000Y-39480952D01*
X155940095Y-39404761D01*
X155978190Y-39366666D01*
X156054380Y-39328571D01*
X156168666Y-39328571D01*
X156244857Y-39366666D01*
X156282952Y-39404761D01*
X156321047Y-39480952D01*
X156321047Y-39709523D01*
X156282952Y-39785714D01*
X156244857Y-39823809D01*
X156168666Y-39861904D01*
X156054380Y-39861904D01*
X156587714Y-39328571D02*
X156740095Y-39861904D01*
X156892476Y-39480952D01*
X157044857Y-39861904D01*
X157197238Y-39328571D01*
X157806761Y-39823809D02*
X157730571Y-39861904D01*
X157578190Y-39861904D01*
X157502000Y-39823809D01*
X157463904Y-39747619D01*
X157463904Y-39442857D01*
X157502000Y-39366666D01*
X157578190Y-39328571D01*
X157730571Y-39328571D01*
X157806761Y-39366666D01*
X157844857Y-39442857D01*
X157844857Y-39519047D01*
X157463904Y-39595238D01*
X158187714Y-39861904D02*
X158187714Y-39328571D01*
X158187714Y-39480952D02*
X158225809Y-39404761D01*
X158263904Y-39366666D01*
X158340095Y-39328571D01*
X158416285Y-39328571D01*
D12*
X169750000Y-31500000D02*
X174250000Y-31500000D01*
X174250000Y-31500000D02*
X174250000Y-44500000D01*
X174250000Y-44500000D02*
X169750000Y-44500000D01*
X169750000Y-44500000D02*
X169750000Y-31500000D01*
X92250000Y-91250000D02*
X107750000Y-91250000D01*
X107750000Y-91250000D02*
X107750000Y-66750000D01*
X107750000Y-66750000D02*
X92250000Y-66750000D01*
X92250000Y-66750000D02*
X92250000Y-91250000D01*
X235000000Y-62000000D02*
X236000000Y-61000000D01*
X117000000Y-121000000D02*
X117000000Y-65000000D01*
X176000000Y-125000000D02*
X179000000Y-122000000D01*
X206000000Y-155000000D02*
X209000000Y-152000000D01*
X205000000Y-123000000D02*
X207000000Y-121000000D01*
X58000000Y-125000000D02*
X59000000Y-124000000D01*
X117000000Y-155000000D02*
X119000000Y-153000000D01*
X211000000Y-42000000D02*
X211000000Y-35000000D01*
X117000000Y-46000000D02*
X116000000Y-46000000D01*
X237000000Y-155000000D02*
X239000000Y-153000000D01*
X236000000Y-155000000D02*
X239000000Y-152000000D01*
X202000000Y-53000000D02*
X214000000Y-53000000D01*
X59000000Y-155000000D02*
X115000000Y-155000000D01*
X238000000Y-155000000D02*
X239000000Y-154000000D01*
X237000000Y-125000000D02*
X239000000Y-123000000D01*
X175000000Y-63000000D02*
X177000000Y-61000000D01*
X55000000Y-125000000D02*
X59000000Y-121000000D01*
X175000000Y-43000000D02*
X209000000Y-43000000D01*
X115000000Y-62000000D02*
X116000000Y-61000000D01*
X175000000Y-153000000D02*
X177000000Y-151000000D01*
X51000000Y-27000000D02*
X51000000Y-159000000D01*
X175000000Y-34000000D02*
X178000000Y-31000000D01*
X183000000Y-27000000D02*
X51000000Y-27000000D01*
X178000000Y-125000000D02*
X179000000Y-124000000D01*
X237000000Y-35000000D02*
X239000000Y-33000000D01*
X205000000Y-124000000D02*
X208000000Y-121000000D01*
X115000000Y-123000000D02*
X117000000Y-121000000D01*
X117000000Y-65000000D02*
X119000000Y-63000000D01*
X208000000Y-65000000D02*
X209000000Y-64000000D01*
X226000000Y-148000000D02*
X226000000Y-149000000D01*
X57000000Y-65000000D02*
X59000000Y-63000000D01*
X218000000Y-148000000D02*
X218000000Y-140000000D01*
X205000000Y-65000000D02*
X209000000Y-61000000D01*
X58000000Y-35000000D02*
X59000000Y-34000000D01*
X58000000Y-65000000D02*
X59000000Y-64000000D01*
X51000000Y-159000000D02*
X183000000Y-159000000D01*
X117000000Y-35000000D02*
X119000000Y-33000000D01*
X235000000Y-125000000D02*
X235000000Y-151000000D01*
X176000000Y-155000000D02*
X179000000Y-152000000D01*
X55000000Y-125000000D02*
X55000000Y-151000000D01*
X175000000Y-155000000D02*
X179000000Y-151000000D01*
X115000000Y-35000000D02*
X119000000Y-31000000D01*
X57000000Y-35000000D02*
X59000000Y-33000000D01*
X218000000Y-33000000D02*
X218000000Y-42000000D01*
X55000000Y-62000000D02*
X56000000Y-61000000D01*
X177000000Y-125000000D02*
X179000000Y-123000000D01*
X238000000Y-125000000D02*
X239000000Y-124000000D01*
X235000000Y-35000000D02*
X235000000Y-61000000D01*
X115000000Y-152000000D02*
X116000000Y-151000000D01*
X205000000Y-34000000D02*
X208000000Y-31000000D01*
X178000000Y-35000000D02*
X179000000Y-34000000D01*
X115000000Y-154000000D02*
X118000000Y-151000000D01*
X209000000Y-35000000D02*
X235000000Y-35000000D01*
X115000000Y-63000000D02*
X117000000Y-61000000D01*
X209000000Y-61000000D02*
X209000000Y-35000000D01*
X115000000Y-32000000D02*
X116000000Y-31000000D01*
X205000000Y-153000000D02*
X207000000Y-151000000D01*
X237000000Y-61000000D02*
X237000000Y-35000000D01*
X226000000Y-140000000D02*
X226000000Y-148000000D01*
X55000000Y-122000000D02*
X56000000Y-121000000D01*
X55000000Y-63000000D02*
X57000000Y-61000000D01*
X175000000Y-64000000D02*
X178000000Y-61000000D01*
X235000000Y-152000000D02*
X236000000Y-151000000D01*
X205000000Y-61000000D02*
X179000000Y-61000000D01*
X175000000Y-65000000D02*
X179000000Y-61000000D01*
X175000000Y-122000000D02*
X176000000Y-121000000D01*
X209000000Y-149000000D02*
X235000000Y-149000000D01*
X222000000Y-142000000D02*
X222000000Y-149000000D01*
X205000000Y-32000000D02*
X206000000Y-31000000D01*
X225000000Y-35000000D02*
X225000000Y-42000000D01*
X175000000Y-62000000D02*
X176000000Y-61000000D01*
X235000000Y-122000000D02*
X236000000Y-121000000D01*
X236000000Y-125000000D02*
X239000000Y-122000000D01*
X238000000Y-35000000D02*
X239000000Y-34000000D01*
X208000000Y-155000000D02*
X209000000Y-154000000D01*
X56000000Y-155000000D02*
X59000000Y-152000000D01*
X183000000Y-159000000D02*
X183000000Y-148000000D01*
X55000000Y-32000000D02*
X56000000Y-31000000D01*
X55000000Y-64000000D02*
X58000000Y-61000000D01*
X116000000Y-35000000D02*
X116000000Y-61000000D01*
X119000000Y-151000000D02*
X119000000Y-125000000D01*
X55000000Y-61000000D02*
X55000000Y-35000000D01*
X117000000Y-61000000D02*
X117000000Y-35000000D01*
X116000000Y-60000000D02*
X117000000Y-60000000D01*
X55000000Y-124000000D02*
X58000000Y-121000000D01*
X119000000Y-65000000D02*
X175000000Y-65000000D01*
X237000000Y-65000000D02*
X239000000Y-63000000D01*
X208000000Y-60000000D02*
X209000000Y-60000000D01*
X208000000Y-125000000D02*
X208000000Y-144000000D01*
X183000000Y-148000000D02*
X205000000Y-148000000D01*
X235000000Y-65000000D02*
X239000000Y-61000000D01*
X205000000Y-122000000D02*
X206000000Y-121000000D01*
X175000000Y-152000000D02*
X176000000Y-151000000D01*
X238000000Y-65000000D02*
X239000000Y-64000000D01*
X55000000Y-153000000D02*
X57000000Y-151000000D01*
X56000000Y-65000000D02*
X59000000Y-62000000D01*
X115000000Y-155000000D02*
X119000000Y-151000000D01*
X205000000Y-148000000D02*
X205000000Y-151000000D01*
X177000000Y-155000000D02*
X179000000Y-153000000D01*
X175000000Y-125000000D02*
X179000000Y-121000000D01*
X235000000Y-34000000D02*
X238000000Y-31000000D01*
X205000000Y-154000000D02*
X208000000Y-151000000D01*
X205000000Y-155000000D02*
X209000000Y-151000000D01*
X207000000Y-125000000D02*
X209000000Y-123000000D01*
X115000000Y-65000000D02*
X115000000Y-121000000D01*
X235000000Y-124000000D02*
X238000000Y-121000000D01*
X205000000Y-35000000D02*
X209000000Y-31000000D01*
X208000000Y-125000000D02*
X209000000Y-124000000D01*
X58000000Y-155000000D02*
X59000000Y-154000000D01*
X235000000Y-153000000D02*
X237000000Y-151000000D01*
X55000000Y-155000000D02*
X59000000Y-151000000D01*
X209000000Y-46000000D02*
X208000000Y-46000000D01*
X235000000Y-63000000D02*
X237000000Y-61000000D01*
X111000000Y-53000000D02*
X122000000Y-53000000D01*
X235000000Y-154000000D02*
X238000000Y-151000000D01*
X218000000Y-149000000D02*
X218000000Y-148000000D01*
X175000000Y-123000000D02*
X177000000Y-121000000D01*
X178000000Y-65000000D02*
X179000000Y-64000000D01*
X205000000Y-125000000D02*
X209000000Y-121000000D01*
X205000000Y-64000000D02*
X208000000Y-61000000D01*
X207000000Y-155000000D02*
X209000000Y-153000000D01*
X235000000Y-33000000D02*
X237000000Y-31000000D01*
X119000000Y-31000000D02*
X175000000Y-31000000D01*
X179000000Y-144000000D02*
X209000000Y-144000000D01*
X206000000Y-125000000D02*
X209000000Y-122000000D01*
X209000000Y-151000000D02*
X209000000Y-125000000D01*
X175000000Y-33000000D02*
X177000000Y-31000000D01*
X206000000Y-65000000D02*
X209000000Y-62000000D01*
X118000000Y-125000000D02*
X119000000Y-124000000D01*
X177000000Y-65000000D02*
X179000000Y-63000000D01*
X205000000Y-63000000D02*
X207000000Y-61000000D01*
X55000000Y-121000000D02*
X55000000Y-65000000D01*
X205000000Y-152000000D02*
X206000000Y-151000000D01*
X55000000Y-123000000D02*
X57000000Y-121000000D01*
X208000000Y-43000000D02*
X208000000Y-61000000D01*
X176000000Y-65000000D02*
X179000000Y-62000000D01*
X55000000Y-33000000D02*
X57000000Y-31000000D01*
X119000000Y-155000000D02*
X175000000Y-155000000D01*
X116000000Y-65000000D02*
X119000000Y-62000000D01*
X175000000Y-32000000D02*
X176000000Y-31000000D01*
X183000000Y-27000000D02*
X183000000Y-37000000D01*
X175000000Y-35000000D02*
X175000000Y-43000000D01*
X117000000Y-125000000D02*
X117000000Y-151000000D01*
X183000000Y-37000000D02*
X201000000Y-37000000D01*
X55000000Y-65000000D02*
X59000000Y-61000000D01*
X55000000Y-34000000D02*
X58000000Y-31000000D01*
X59000000Y-31000000D02*
X115000000Y-31000000D01*
X201000000Y-37000000D02*
X201000000Y-31000000D01*
X225000000Y-42000000D02*
X211000000Y-42000000D01*
X116000000Y-125000000D02*
X119000000Y-122000000D01*
X176000000Y-35000000D02*
X179000000Y-32000000D01*
X115000000Y-125000000D02*
X119000000Y-121000000D01*
X208000000Y-35000000D02*
X209000000Y-34000000D01*
X209000000Y-148000000D02*
X235000000Y-148000000D01*
X205000000Y-33000000D02*
X207000000Y-31000000D01*
X175000000Y-63000000D02*
X119000000Y-63000000D01*
X235000000Y-155000000D02*
X239000000Y-151000000D01*
X115000000Y-124000000D02*
X118000000Y-121000000D01*
X177000000Y-35000000D02*
X179000000Y-33000000D01*
X179000000Y-63000000D02*
X205000000Y-63000000D01*
X206000000Y-35000000D02*
X209000000Y-32000000D01*
X116000000Y-155000000D02*
X119000000Y-152000000D01*
X115000000Y-64000000D02*
X118000000Y-61000000D01*
X56000000Y-35000000D02*
X59000000Y-32000000D01*
X115000000Y-33000000D02*
X117000000Y-31000000D01*
X179000000Y-41000000D02*
X209000000Y-41000000D01*
X175000000Y-154000000D02*
X178000000Y-151000000D01*
X56000000Y-125000000D02*
X59000000Y-122000000D01*
X235000000Y-35000000D02*
X239000000Y-31000000D01*
X205000000Y-62000000D02*
X206000000Y-61000000D01*
X175000000Y-35000000D02*
X179000000Y-31000000D01*
X235000000Y-32000000D02*
X236000000Y-31000000D01*
X115000000Y-153000000D02*
X117000000Y-151000000D01*
X118000000Y-65000000D02*
X119000000Y-64000000D01*
X207000000Y-65000000D02*
X209000000Y-63000000D01*
X211000000Y-33000000D02*
X211000000Y-35000000D01*
X236000000Y-65000000D02*
X239000000Y-62000000D01*
X55000000Y-154000000D02*
X58000000Y-151000000D01*
X116000000Y-35000000D02*
X119000000Y-32000000D01*
X179000000Y-151000000D02*
X179000000Y-144000000D01*
X118000000Y-35000000D02*
X119000000Y-34000000D01*
X235000000Y-123000000D02*
X237000000Y-121000000D01*
X237000000Y-151000000D02*
X237000000Y-125000000D01*
X235000000Y-125000000D02*
X239000000Y-121000000D01*
X235000000Y-64000000D02*
X238000000Y-61000000D01*
X175000000Y-124000000D02*
X178000000Y-121000000D01*
X115000000Y-65000000D02*
X119000000Y-61000000D01*
X57000000Y-125000000D02*
X59000000Y-123000000D01*
X55000000Y-35000000D02*
X59000000Y-31000000D01*
X179000000Y-35000000D02*
X179000000Y-41000000D01*
X178000000Y-155000000D02*
X179000000Y-154000000D01*
X118000000Y-155000000D02*
X119000000Y-154000000D01*
X237000000Y-65000000D02*
X237000000Y-121000000D01*
X218000000Y-140000000D02*
X226000000Y-140000000D01*
X205000000Y-31000000D02*
X201000000Y-31000000D01*
X225000000Y-33000000D02*
X225000000Y-35000000D01*
X115000000Y-122000000D02*
X116000000Y-121000000D01*
X209000000Y-33000000D02*
X235000000Y-33000000D01*
X236000000Y-35000000D02*
X239000000Y-32000000D01*
X117000000Y-125000000D02*
X119000000Y-123000000D01*
X115000000Y-34000000D02*
X118000000Y-31000000D01*
X208000000Y-65000000D02*
X208000000Y-121000000D01*
X209000000Y-65000000D02*
X209000000Y-121000000D01*
X235000000Y-121000000D02*
X235000000Y-65000000D01*
X207000000Y-35000000D02*
X209000000Y-33000000D01*
X55000000Y-152000000D02*
X56000000Y-151000000D01*
X57000000Y-155000000D02*
X59000000Y-153000000D01*
X235000000Y-121000000D02*
X239000000Y-121000000D01*
X239000000Y-121000000D02*
X239000000Y-125000000D01*
X239000000Y-125000000D02*
X235000000Y-125000000D01*
X235000000Y-125000000D02*
X235000000Y-121000000D01*
X55000000Y-31000000D02*
X59000000Y-31000000D01*
X59000000Y-31000000D02*
X59000000Y-35000000D01*
X59000000Y-35000000D02*
X55000000Y-35000000D01*
X55000000Y-35000000D02*
X55000000Y-31000000D01*
X235000000Y-61000000D02*
X239000000Y-61000000D01*
X239000000Y-61000000D02*
X239000000Y-65000000D01*
X239000000Y-65000000D02*
X235000000Y-65000000D01*
X235000000Y-65000000D02*
X235000000Y-61000000D01*
X115000000Y-61000000D02*
X119000000Y-61000000D01*
X119000000Y-61000000D02*
X119000000Y-65000000D01*
X119000000Y-65000000D02*
X115000000Y-65000000D01*
X115000000Y-65000000D02*
X115000000Y-61000000D01*
X235000000Y-31000000D02*
X239000000Y-31000000D01*
X239000000Y-31000000D02*
X239000000Y-35000000D01*
X239000000Y-35000000D02*
X235000000Y-35000000D01*
X235000000Y-35000000D02*
X235000000Y-31000000D01*
X175000000Y-31000000D02*
X179000000Y-31000000D01*
X179000000Y-31000000D02*
X179000000Y-35000000D01*
X179000000Y-35000000D02*
X175000000Y-35000000D01*
X175000000Y-35000000D02*
X175000000Y-31000000D01*
X205000000Y-61000000D02*
X209000000Y-61000000D01*
X209000000Y-61000000D02*
X209000000Y-65000000D01*
X209000000Y-65000000D02*
X205000000Y-65000000D01*
X205000000Y-65000000D02*
X205000000Y-61000000D01*
X175000000Y-61000000D02*
X179000000Y-61000000D01*
X179000000Y-61000000D02*
X179000000Y-65000000D01*
X179000000Y-65000000D02*
X175000000Y-65000000D01*
X175000000Y-65000000D02*
X175000000Y-61000000D01*
X55000000Y-61000000D02*
X59000000Y-61000000D01*
X59000000Y-61000000D02*
X59000000Y-65000000D01*
X59000000Y-65000000D02*
X55000000Y-65000000D01*
X55000000Y-65000000D02*
X55000000Y-61000000D01*
X115000000Y-121000000D02*
X119000000Y-121000000D01*
X119000000Y-121000000D02*
X119000000Y-125000000D01*
X119000000Y-125000000D02*
X115000000Y-125000000D01*
X115000000Y-125000000D02*
X115000000Y-121000000D01*
X205000000Y-121000000D02*
X209000000Y-121000000D01*
X209000000Y-121000000D02*
X209000000Y-125000000D01*
X209000000Y-125000000D02*
X205000000Y-125000000D01*
X205000000Y-125000000D02*
X205000000Y-121000000D01*
X115000000Y-31000000D02*
X119000000Y-31000000D01*
X119000000Y-31000000D02*
X119000000Y-35000000D01*
X119000000Y-35000000D02*
X115000000Y-35000000D01*
X115000000Y-35000000D02*
X115000000Y-31000000D01*
X235000000Y-151000000D02*
X239000000Y-151000000D01*
X239000000Y-151000000D02*
X239000000Y-155000000D01*
X239000000Y-155000000D02*
X235000000Y-155000000D01*
X235000000Y-155000000D02*
X235000000Y-151000000D01*
X175000000Y-121000000D02*
X179000000Y-121000000D01*
X179000000Y-121000000D02*
X179000000Y-125000000D01*
X179000000Y-125000000D02*
X175000000Y-125000000D01*
X175000000Y-125000000D02*
X175000000Y-121000000D01*
X205000000Y-151000000D02*
X209000000Y-151000000D01*
X209000000Y-151000000D02*
X209000000Y-155000000D01*
X209000000Y-155000000D02*
X205000000Y-155000000D01*
X205000000Y-155000000D02*
X205000000Y-151000000D01*
X175000000Y-151000000D02*
X179000000Y-151000000D01*
X179000000Y-151000000D02*
X179000000Y-155000000D01*
X179000000Y-155000000D02*
X175000000Y-155000000D01*
X175000000Y-155000000D02*
X175000000Y-151000000D01*
X55000000Y-151000000D02*
X59000000Y-151000000D01*
X59000000Y-151000000D02*
X59000000Y-155000000D01*
X59000000Y-155000000D02*
X55000000Y-155000000D01*
X55000000Y-155000000D02*
X55000000Y-151000000D01*
X205000000Y-31000000D02*
X209000000Y-31000000D01*
X209000000Y-31000000D02*
X209000000Y-35000000D01*
X209000000Y-35000000D02*
X205000000Y-35000000D01*
X205000000Y-35000000D02*
X205000000Y-31000000D01*
X115000000Y-151000000D02*
X119000000Y-151000000D01*
X119000000Y-151000000D02*
X119000000Y-155000000D01*
X119000000Y-155000000D02*
X115000000Y-155000000D01*
X115000000Y-155000000D02*
X115000000Y-151000000D01*
X55000000Y-121000000D02*
X59000000Y-121000000D01*
X59000000Y-121000000D02*
X59000000Y-125000000D01*
X59000000Y-125000000D02*
X55000000Y-125000000D01*
X55000000Y-125000000D02*
X55000000Y-121000000D01*
D13*
X233000000Y-150000000D02*
X211000000Y-150000000D01*
X184000000Y-27000000D02*
X184000000Y-35000000D01*
X238000000Y-67000000D02*
X238000000Y-119000000D01*
X238000000Y-37000000D02*
X238000000Y-59000000D01*
X51000000Y-26000000D02*
X183000000Y-26000000D01*
X240000000Y-121000000D02*
X240000000Y-125000000D01*
X204000000Y-155000000D02*
X204000000Y-150000000D01*
X235000000Y-30000000D02*
X239000000Y-30000000D01*
X240000000Y-61000000D02*
X240000000Y-65000000D01*
X238000000Y-127000000D02*
X238000000Y-149000000D01*
X239000000Y-156000000D02*
X235000000Y-156000000D01*
X200000000Y-35000000D02*
X200000000Y-31000000D01*
X203000000Y-149000000D02*
X185000000Y-149000000D01*
X240000000Y-31000000D02*
X240000000Y-35000000D01*
X50000000Y-159000000D02*
X50000000Y-27000000D01*
X209000000Y-156000000D02*
X205000000Y-156000000D01*
X234000000Y-155000000D02*
X234000000Y-151000000D01*
X240000000Y-151000000D02*
X240000000Y-155000000D01*
X210000000Y-151000000D02*
X210000000Y-155000000D01*
X201000000Y-30000000D02*
X209000000Y-30000000D01*
X184000000Y-150000000D02*
X184000000Y-159000000D01*
X211000000Y-32000000D02*
X233000000Y-32000000D01*
X183000000Y-160000000D02*
X51000000Y-160000000D01*
X185000000Y-36000000D02*
X199000000Y-36000000D01*
X235000000Y-30000000D02*
G75*
G03*
X234000000Y-31000000I0J-1000000D01*
G01*
X240000000Y-61000000D02*
G75*
G03*
X239000000Y-60000000I-1000000J0D01*
G01*
X238000000Y-119000000D02*
G75*
G03*
X239000000Y-120000000I1000000J0D01*
G01*
X239000000Y-66000000D02*
G75*
G03*
X240000000Y-65000000I0J1000000D01*
G01*
X238000000Y-149000000D02*
G75*
G03*
X239000000Y-150000000I1000000J0D01*
G01*
X210000000Y-31000000D02*
G75*
G03*
X211000000Y-32000000I1000000J0D01*
G01*
X184000000Y-27000000D02*
G75*
G03*
X183000000Y-26000000I-1000000J0D01*
G01*
X185000000Y-149000000D02*
G75*
G03*
X184000000Y-150000000I0J-1000000D01*
G01*
X50000000Y-159000000D02*
G75*
G03*
X51000000Y-160000000I999999J-1D01*
G01*
X240000000Y-151000000D02*
G75*
G03*
X239000000Y-150000000I-1000000J0D01*
G01*
X239000000Y-126000000D02*
G75*
G03*
X240000000Y-125000000I0J1000000D01*
G01*
X239000000Y-126000000D02*
G75*
G03*
X238000000Y-127000000I0J-1000000D01*
G01*
X199000000Y-36000000D02*
G75*
G03*
X200000000Y-35000000I0J1000000D01*
G01*
X240000000Y-121000000D02*
G75*
G03*
X239000000Y-120000000I-1000000J0D01*
G01*
X239000000Y-156000000D02*
G75*
G03*
X240000000Y-155000000I0J1000000D01*
G01*
X51000000Y-26000000D02*
G75*
G03*
X50000000Y-27000000I-1J-999999D01*
G01*
X204000000Y-155000000D02*
G75*
G03*
X205000000Y-156000000I1000000J0D01*
G01*
X238000000Y-59000000D02*
G75*
G03*
X239000000Y-60000000I1000000J0D01*
G01*
X209000000Y-156000000D02*
G75*
G03*
X210000000Y-155000000I0J1000000D01*
G01*
X201000000Y-30000000D02*
G75*
G03*
X200000000Y-31000000I0J-1000000D01*
G01*
X239000000Y-66000000D02*
G75*
G03*
X238000000Y-67000000I0J-1000000D01*
G01*
X210000000Y-31000000D02*
G75*
G03*
X209000000Y-30000000I-1000000J0D01*
G01*
X184000000Y-35000000D02*
G75*
G03*
X185000000Y-36000000I1000000J0D01*
G01*
X239000000Y-36000000D02*
G75*
G03*
X240000000Y-35000000I0J1000000D01*
G01*
X183000000Y-160000000D02*
G75*
G03*
X184000000Y-159000000I0J1000000D01*
G01*
X233000000Y-32000000D02*
G75*
G03*
X234000000Y-31000000I0J1000000D01*
G01*
X234000000Y-151000000D02*
G75*
G03*
X233000000Y-150000000I-1000000J0D01*
G01*
X234000000Y-155000000D02*
G75*
G03*
X235000000Y-156000000I1000000J0D01*
G01*
X204000000Y-150000000D02*
G75*
G03*
X203000000Y-149000000I-1000000J0D01*
G01*
X211000000Y-150000000D02*
G75*
G03*
X210000000Y-151000000I0J-1000000D01*
G01*
X239000000Y-36000000D02*
G75*
G03*
X238000000Y-37000000I0J-1000000D01*
G01*
X240000000Y-31000000D02*
G75*
G03*
X239000000Y-30000000I-1000000J0D01*
G01*
D12*
X234500000Y-80000000D02*
X228500000Y-80000000D01*
X228500000Y-80000000D02*
X228500000Y-91000000D01*
X228500000Y-91000000D02*
X234500000Y-91000000D01*
X234500000Y-91000000D02*
X234500000Y-80000000D01*
X76250000Y-70000000D02*
X57750000Y-70000000D01*
X57750000Y-70000000D02*
X57750000Y-80000000D01*
X57750000Y-80000000D02*
X76250000Y-80000000D01*
X76250000Y-80000000D02*
X76250000Y-70000000D01*
X144750000Y-31500000D02*
X149250000Y-31500000D01*
X149250000Y-31500000D02*
X149250000Y-44500000D01*
X149250000Y-44500000D02*
X144750000Y-44500000D01*
X144750000Y-44500000D02*
X144750000Y-31500000D01*
G36*
X227880705Y-143557074D02*
G01*
X227454743Y-143325237D01*
X227478538Y-142353370D01*
X227502334Y-141381503D01*
X228305238Y-140940311D01*
X229143704Y-141396661D01*
X229997560Y-140925667D01*
X229999492Y-140460000D01*
X230001425Y-139994334D01*
X230426076Y-139769609D01*
X230850728Y-139544885D01*
X232116877Y-140235276D01*
X233383025Y-140925667D01*
X233384846Y-141437962D01*
X233386667Y-141950258D01*
X233001301Y-142137483D01*
X232790526Y-142255767D01*
X232670184Y-142354901D01*
X232658544Y-142393651D01*
X232756204Y-142468030D01*
X232951559Y-142573728D01*
X233043910Y-142617156D01*
X233386667Y-142771718D01*
X233385955Y-143753692D01*
X233385242Y-144735667D01*
X232958732Y-144961382D01*
X232532222Y-145187098D01*
X232176278Y-144983569D01*
X231955571Y-144864108D01*
X231796662Y-144790367D01*
X231756834Y-144779020D01*
X231721214Y-144854803D01*
X231697798Y-145050556D01*
X231692499Y-145222500D01*
X231691665Y-145667000D01*
X230909333Y-146090334D01*
X230572241Y-146267716D01*
X230281728Y-146411355D01*
X230075183Y-146503285D01*
X230000000Y-146527314D01*
X229876836Y-146493503D01*
X229644231Y-146391419D01*
X229338961Y-146238198D01*
X229091498Y-146103980D01*
X228309997Y-145667000D01*
X228307220Y-144100667D01*
X228899334Y-144100667D01*
X229425310Y-144100667D01*
X229364533Y-143317500D01*
X229343533Y-142984666D01*
X229337011Y-142733428D01*
X229345326Y-142597700D01*
X229356756Y-142584934D01*
X229408078Y-142684970D01*
X229493843Y-142901329D01*
X229596411Y-143189211D01*
X229606821Y-143219934D01*
X229746591Y-143583479D01*
X229870353Y-143781514D01*
X229986937Y-143816032D01*
X230105175Y-143689025D01*
X230233899Y-143402484D01*
X230247907Y-143364532D01*
X230389806Y-142983806D01*
X230484588Y-142762484D01*
X230539083Y-142699457D01*
X230560120Y-142793618D01*
X230554529Y-143043861D01*
X230538020Y-143317500D01*
X230486159Y-144100667D01*
X231016000Y-144100667D01*
X231016000Y-141814667D01*
X230734573Y-141814667D01*
X230592127Y-141821744D01*
X230494874Y-141865133D01*
X230417781Y-141978071D01*
X230335814Y-142193795D01*
X230252360Y-142454896D01*
X230151022Y-142760140D01*
X230062012Y-142996519D01*
X230001326Y-143122357D01*
X229992675Y-143131527D01*
X229940481Y-143074492D01*
X229851863Y-142890977D01*
X229742718Y-142615550D01*
X229698234Y-142491298D01*
X229580918Y-142162658D01*
X229493670Y-141962523D01*
X229412147Y-141859046D01*
X229312003Y-141820379D01*
X229181013Y-141814667D01*
X228899334Y-141814667D01*
X228899334Y-144100667D01*
X228307220Y-144100667D01*
X228306667Y-143788912D01*
X227880705Y-143557074D01*
G37*
X164750000Y-31500000D02*
X169250000Y-31500000D01*
X169250000Y-31500000D02*
X169250000Y-44500000D01*
X169250000Y-44500000D02*
X164750000Y-44500000D01*
X164750000Y-44500000D02*
X164750000Y-31500000D01*
X235000000Y-94000000D02*
X234000000Y-94000000D01*
X234000000Y-94000000D02*
X234000000Y-102000000D01*
X234000000Y-102000000D02*
X235000000Y-102000000D01*
X235000000Y-102000000D02*
X235000000Y-94000000D01*
X63750000Y-91000000D02*
X82250000Y-91000000D01*
X82250000Y-91000000D02*
X82250000Y-81000000D01*
X82250000Y-81000000D02*
X63750000Y-81000000D01*
X63750000Y-81000000D02*
X63750000Y-91000000D01*
X124750000Y-31500000D02*
X129250000Y-31500000D01*
X129250000Y-31500000D02*
X129250000Y-44500000D01*
X129250000Y-44500000D02*
X124750000Y-44500000D01*
X124750000Y-44500000D02*
X124750000Y-31500000D01*
X159750000Y-31500000D02*
X164250000Y-31500000D01*
X164250000Y-31500000D02*
X164250000Y-44500000D01*
X164250000Y-44500000D02*
X159750000Y-44500000D01*
X159750000Y-44500000D02*
X159750000Y-31500000D01*
X234500000Y-57000000D02*
X228500000Y-57000000D01*
X228500000Y-57000000D02*
X228500000Y-79000000D01*
X228500000Y-79000000D02*
X234500000Y-79000000D01*
X234500000Y-79000000D02*
X234500000Y-57000000D01*
X104000000Y-32000000D02*
X114000000Y-32000000D01*
X114000000Y-32000000D02*
X114000000Y-51000000D01*
X114000000Y-51000000D02*
X104000000Y-51000000D01*
X104000000Y-51000000D02*
X104000000Y-32000000D01*
X154750000Y-31500000D02*
X159250000Y-31500000D01*
X159250000Y-31500000D02*
X159250000Y-44500000D01*
X159250000Y-44500000D02*
X154750000Y-44500000D01*
X154750000Y-44500000D02*
X154750000Y-31500000D01*
X65000000Y-69250000D02*
X81000000Y-69250000D01*
X81000000Y-69250000D02*
X81000000Y-58750000D01*
X81000000Y-58750000D02*
X65000000Y-58750000D01*
X65000000Y-58750000D02*
X65000000Y-69250000D01*
X139750000Y-31500000D02*
X144250000Y-31500000D01*
X144250000Y-31500000D02*
X144250000Y-44500000D01*
X144250000Y-44500000D02*
X139750000Y-44500000D01*
X139750000Y-44500000D02*
X139750000Y-31500000D01*
X92500000Y-149000000D02*
X110500000Y-149000000D01*
X110500000Y-149000000D02*
X110500000Y-121000000D01*
X110500000Y-121000000D02*
X92500000Y-121000000D01*
X92500000Y-121000000D02*
X92500000Y-149000000D01*
X75500000Y-92000000D02*
X57500000Y-92000000D01*
X57500000Y-92000000D02*
X57500000Y-120000000D01*
X57500000Y-120000000D02*
X75500000Y-120000000D01*
X75500000Y-120000000D02*
X75500000Y-92000000D01*
X234500000Y-36000000D02*
X223500000Y-36000000D01*
X223500000Y-36000000D02*
X223500000Y-56000000D01*
X223500000Y-56000000D02*
X234500000Y-56000000D01*
X234500000Y-56000000D02*
X234500000Y-36000000D01*
X92500000Y-120000000D02*
X110500000Y-120000000D01*
X110500000Y-120000000D02*
X110500000Y-92000000D01*
X110500000Y-92000000D02*
X92500000Y-92000000D01*
X92500000Y-92000000D02*
X92500000Y-120000000D01*
X134750000Y-31500000D02*
X139250000Y-31500000D01*
X139250000Y-31500000D02*
X139250000Y-44500000D01*
X139250000Y-44500000D02*
X134750000Y-44500000D01*
X134750000Y-44500000D02*
X134750000Y-31500000D01*
X75500000Y-121000000D02*
X57500000Y-121000000D01*
X57500000Y-121000000D02*
X57500000Y-149000000D01*
X57500000Y-149000000D02*
X75500000Y-149000000D01*
X75500000Y-149000000D02*
X75500000Y-121000000D01*
X129750000Y-31500000D02*
X134250000Y-31500000D01*
X134250000Y-31500000D02*
X134250000Y-44500000D01*
X134250000Y-44500000D02*
X129750000Y-44500000D01*
X129750000Y-44500000D02*
X129750000Y-31500000D01*
X149750000Y-31500000D02*
X154250000Y-31500000D01*
X154250000Y-31500000D02*
X154250000Y-44500000D01*
X154250000Y-44500000D02*
X149750000Y-44500000D01*
X149750000Y-44500000D02*
X149750000Y-31500000D01*
%LPC*%
G36*
X204000000Y-66000000D02*
G01*
X207000000Y-66000000D01*
X207000000Y-120000000D01*
X204000000Y-120000000D01*
X204000000Y-126000000D01*
X207000000Y-126000000D01*
X207000000Y-143000000D01*
X178000000Y-143000000D01*
X178000000Y-150000000D01*
X174000000Y-150000000D01*
X174000000Y-154000000D01*
X120000000Y-154000000D01*
X120000000Y-120000000D01*
X118000000Y-120000000D01*
X118000000Y-66000000D01*
X180000000Y-66000000D01*
X180000000Y-64000000D01*
X204000000Y-64000000D01*
X204000000Y-66000000D01*
G37*
X204000000Y-66000000D02*
X207000000Y-66000000D01*
X207000000Y-120000000D01*
X204000000Y-120000000D01*
X204000000Y-126000000D01*
X207000000Y-126000000D01*
X207000000Y-143000000D01*
X178000000Y-143000000D01*
X178000000Y-150000000D01*
X174000000Y-150000000D01*
X174000000Y-154000000D01*
X120000000Y-154000000D01*
X120000000Y-120000000D01*
X118000000Y-120000000D01*
X118000000Y-66000000D01*
X180000000Y-66000000D01*
X180000000Y-64000000D01*
X204000000Y-64000000D01*
X204000000Y-66000000D01*
G36*
G01*
X169750000Y-38050000D02*
X169750000Y-31950000D01*
G75*
G02*
X170200000Y-31500000I450000J0D01*
G01*
X173800000Y-31500000D01*
G75*
G02*
X174250000Y-31950000I0J-450000D01*
G01*
X174250000Y-38050000D01*
G75*
G02*
X173800000Y-38500000I-450000J0D01*
G01*
X170200000Y-38500000D01*
G75*
G02*
X169750000Y-38050000I0J450000D01*
G01*
G37*
G36*
G01*
X100800000Y-91250000D02*
X93200000Y-91250000D01*
G75*
G02*
X92250000Y-90300000I0J950000D01*
G01*
X92250000Y-67700000D01*
G75*
G02*
X93200000Y-66750000I950000J0D01*
G01*
X100800000Y-66750000D01*
G75*
G02*
X101750000Y-67700000I0J-950000D01*
G01*
X101750000Y-90300000D01*
G75*
G02*
X100800000Y-91250000I-950000J0D01*
G01*
G37*
G36*
G01*
X229100000Y-80000000D02*
X233900000Y-80000000D01*
G75*
G02*
X234500000Y-80600000I0J-600000D01*
G01*
X234500000Y-90400000D01*
G75*
G02*
X233900000Y-91000000I-600000J0D01*
G01*
X229100000Y-91000000D01*
G75*
G02*
X228500000Y-90400000I0J600000D01*
G01*
X228500000Y-80600000D01*
G75*
G02*
X229100000Y-80000000I600000J0D01*
G01*
G37*
G36*
G01*
X64750000Y-70000000D02*
X75250000Y-70000000D01*
G75*
G02*
X76250000Y-71000000I0J-1000000D01*
G01*
X76250000Y-79000000D01*
G75*
G02*
X75250000Y-80000000I-1000000J0D01*
G01*
X64750000Y-80000000D01*
G75*
G02*
X63750000Y-79000000I0J1000000D01*
G01*
X63750000Y-71000000D01*
G75*
G02*
X64750000Y-70000000I1000000J0D01*
G01*
G37*
G36*
G01*
X144750000Y-38050000D02*
X144750000Y-31950000D01*
G75*
G02*
X145200000Y-31500000I450000J0D01*
G01*
X148800000Y-31500000D01*
G75*
G02*
X149250000Y-31950000I0J-450000D01*
G01*
X149250000Y-38050000D01*
G75*
G02*
X148800000Y-38500000I-450000J0D01*
G01*
X145200000Y-38500000D01*
G75*
G02*
X144750000Y-38050000I0J450000D01*
G01*
G37*
G36*
G01*
X164750000Y-38050000D02*
X164750000Y-31950000D01*
G75*
G02*
X165200000Y-31500000I450000J0D01*
G01*
X168800000Y-31500000D01*
G75*
G02*
X169250000Y-31950000I0J-450000D01*
G01*
X169250000Y-38050000D01*
G75*
G02*
X168800000Y-38500000I-450000J0D01*
G01*
X165200000Y-38500000D01*
G75*
G02*
X164750000Y-38050000I0J450000D01*
G01*
G37*
G36*
G01*
X234100000Y-94000000D02*
X234900000Y-94000000D01*
G75*
G02*
X235000000Y-94100000I0J-100000D01*
G01*
X235000000Y-101900000D01*
G75*
G02*
X234900000Y-102000000I-100000J0D01*
G01*
X234100000Y-102000000D01*
G75*
G02*
X234000000Y-101900000I0J100000D01*
G01*
X234000000Y-94100000D01*
G75*
G02*
X234100000Y-94000000I100000J0D01*
G01*
G37*
G36*
G01*
X75250000Y-91000000D02*
X64750000Y-91000000D01*
G75*
G02*
X63750000Y-90000000I0J1000000D01*
G01*
X63750000Y-82000000D01*
G75*
G02*
X64750000Y-81000000I1000000J0D01*
G01*
X75250000Y-81000000D01*
G75*
G02*
X76250000Y-82000000I0J-1000000D01*
G01*
X76250000Y-90000000D01*
G75*
G02*
X75250000Y-91000000I-1000000J0D01*
G01*
G37*
G36*
G01*
X124750000Y-38050000D02*
X124750000Y-31950000D01*
G75*
G02*
X125200000Y-31500000I450000J0D01*
G01*
X128800000Y-31500000D01*
G75*
G02*
X129250000Y-31950000I0J-450000D01*
G01*
X129250000Y-38050000D01*
G75*
G02*
X128800000Y-38500000I-450000J0D01*
G01*
X125200000Y-38500000D01*
G75*
G02*
X124750000Y-38050000I0J450000D01*
G01*
G37*
G36*
G01*
X159750000Y-38050000D02*
X159750000Y-31950000D01*
G75*
G02*
X160200000Y-31500000I450000J0D01*
G01*
X163800000Y-31500000D01*
G75*
G02*
X164250000Y-31950000I0J-450000D01*
G01*
X164250000Y-38050000D01*
G75*
G02*
X163800000Y-38500000I-450000J0D01*
G01*
X160200000Y-38500000D01*
G75*
G02*
X159750000Y-38050000I0J450000D01*
G01*
G37*
G36*
G01*
X229100000Y-57000000D02*
X233900000Y-57000000D01*
G75*
G02*
X234500000Y-57600000I0J-600000D01*
G01*
X234500000Y-78400000D01*
G75*
G02*
X233900000Y-79000000I-600000J0D01*
G01*
X229100000Y-79000000D01*
G75*
G02*
X228500000Y-78400000I0J600000D01*
G01*
X228500000Y-57600000D01*
G75*
G02*
X229100000Y-57000000I600000J0D01*
G01*
G37*
G36*
G01*
X104000000Y-43000000D02*
X104000000Y-33000000D01*
G75*
G02*
X105000000Y-32000000I1000000J0D01*
G01*
X113000000Y-32000000D01*
G75*
G02*
X114000000Y-33000000I0J-1000000D01*
G01*
X114000000Y-43000000D01*
G75*
G02*
X113000000Y-44000000I-1000000J0D01*
G01*
X105000000Y-44000000D01*
G75*
G02*
X104000000Y-43000000I0J1000000D01*
G01*
G37*
G36*
G01*
X154750000Y-38050000D02*
X154750000Y-31950000D01*
G75*
G02*
X155200000Y-31500000I450000J0D01*
G01*
X158800000Y-31500000D01*
G75*
G02*
X159250000Y-31950000I0J-450000D01*
G01*
X159250000Y-38050000D01*
G75*
G02*
X158800000Y-38500000I-450000J0D01*
G01*
X155200000Y-38500000D01*
G75*
G02*
X154750000Y-38050000I0J450000D01*
G01*
G37*
G36*
G01*
X74000000Y-69250000D02*
X66000000Y-69250000D01*
G75*
G02*
X65000000Y-68250000I0J1000000D01*
G01*
X65000000Y-59750000D01*
G75*
G02*
X66000000Y-58750000I1000000J0D01*
G01*
X74000000Y-58750000D01*
G75*
G02*
X75000000Y-59750000I0J-1000000D01*
G01*
X75000000Y-68250000D01*
G75*
G02*
X74000000Y-69250000I-1000000J0D01*
G01*
G37*
G36*
G01*
X139750000Y-38050000D02*
X139750000Y-31950000D01*
G75*
G02*
X140200000Y-31500000I450000J0D01*
G01*
X143800000Y-31500000D01*
G75*
G02*
X144250000Y-31950000I0J-450000D01*
G01*
X144250000Y-38050000D01*
G75*
G02*
X143800000Y-38500000I-450000J0D01*
G01*
X140200000Y-38500000D01*
G75*
G02*
X139750000Y-38050000I0J450000D01*
G01*
G37*
G36*
G01*
X102400000Y-149000000D02*
X93600000Y-149000000D01*
G75*
G02*
X92500000Y-147900000I0J1100000D01*
G01*
X92500000Y-122100000D01*
G75*
G02*
X93600000Y-121000000I1100000J0D01*
G01*
X102400000Y-121000000D01*
G75*
G02*
X103500000Y-122100000I0J-1100000D01*
G01*
X103500000Y-147900000D01*
G75*
G02*
X102400000Y-149000000I-1100000J0D01*
G01*
G37*
G36*
G01*
X65600000Y-92000000D02*
X74400000Y-92000000D01*
G75*
G02*
X75500000Y-93100000I0J-1100000D01*
G01*
X75500000Y-118900000D01*
G75*
G02*
X74400000Y-120000000I-1100000J0D01*
G01*
X65600000Y-120000000D01*
G75*
G02*
X64500000Y-118900000I0J1100000D01*
G01*
X64500000Y-93100000D01*
G75*
G02*
X65600000Y-92000000I1100000J0D01*
G01*
G37*
G36*
G01*
X230000000Y-36000000D02*
X234000000Y-36000000D01*
G75*
G02*
X234500000Y-36500000I0J-500000D01*
G01*
X234500000Y-55500000D01*
G75*
G02*
X234000000Y-56000000I-500000J0D01*
G01*
X230000000Y-56000000D01*
G75*
G02*
X229500000Y-55500000I0J500000D01*
G01*
X229500000Y-36500000D01*
G75*
G02*
X230000000Y-36000000I500000J0D01*
G01*
G37*
G36*
G01*
X102400000Y-120000000D02*
X93600000Y-120000000D01*
G75*
G02*
X92500000Y-118900000I0J1100000D01*
G01*
X92500000Y-93100000D01*
G75*
G02*
X93600000Y-92000000I1100000J0D01*
G01*
X102400000Y-92000000D01*
G75*
G02*
X103500000Y-93100000I0J-1100000D01*
G01*
X103500000Y-118900000D01*
G75*
G02*
X102400000Y-120000000I-1100000J0D01*
G01*
G37*
G36*
G01*
X134750000Y-38050000D02*
X134750000Y-31950000D01*
G75*
G02*
X135200000Y-31500000I450000J0D01*
G01*
X138800000Y-31500000D01*
G75*
G02*
X139250000Y-31950000I0J-450000D01*
G01*
X139250000Y-38050000D01*
G75*
G02*
X138800000Y-38500000I-450000J0D01*
G01*
X135200000Y-38500000D01*
G75*
G02*
X134750000Y-38050000I0J450000D01*
G01*
G37*
G36*
G01*
X65600000Y-121000000D02*
X74400000Y-121000000D01*
G75*
G02*
X75500000Y-122100000I0J-1100000D01*
G01*
X75500000Y-147900000D01*
G75*
G02*
X74400000Y-149000000I-1100000J0D01*
G01*
X65600000Y-149000000D01*
G75*
G02*
X64500000Y-147900000I0J1100000D01*
G01*
X64500000Y-122100000D01*
G75*
G02*
X65600000Y-121000000I1100000J0D01*
G01*
G37*
G36*
G01*
X129750000Y-38050000D02*
X129750000Y-31950000D01*
G75*
G02*
X130200000Y-31500000I450000J0D01*
G01*
X133800000Y-31500000D01*
G75*
G02*
X134250000Y-31950000I0J-450000D01*
G01*
X134250000Y-38050000D01*
G75*
G02*
X133800000Y-38500000I-450000J0D01*
G01*
X130200000Y-38500000D01*
G75*
G02*
X129750000Y-38050000I0J450000D01*
G01*
G37*
G36*
G01*
X149750000Y-38050000D02*
X149750000Y-31950000D01*
G75*
G02*
X150200000Y-31500000I450000J0D01*
G01*
X153800000Y-31500000D01*
G75*
G02*
X154250000Y-31950000I0J-450000D01*
G01*
X154250000Y-38050000D01*
G75*
G02*
X153800000Y-38500000I-450000J0D01*
G01*
X150200000Y-38500000D01*
G75*
G02*
X149750000Y-38050000I0J450000D01*
G01*
G37*
M02*
