G04 #@! TF.GenerationSoftware,KiCad,Pcbnew,6.0.10+dfsg-1~bpo11+1*
G04 #@! TF.ProjectId,main,6d61696e-2e6b-4696-9361-645f70636258,5.0*
G04 #@! TF.SameCoordinates,Original*
G04 #@! TF.FileFunction,Soldermask,Bot*
G04 #@! TF.FilePolarity,Negative*
%FSLAX46Y46*%
G04 Gerber Fmt 4.6, Leading zero omitted, Abs format (unit mm)*
%MOMM*%
%LPD*%
G01*
G04 APERTURE LIST*
G04 #@! TA.AperFunction,Profile*
%ADD10C,0.120000*%
G04 #@! TD*
G04 APERTURE END LIST*
D10*
X237280000Y-163320000D02*
X209280000Y-163320000D01*
X74280000Y-239320000D02*
X74280000Y-21320000D01*
X95280000Y-240320000D02*
X75280000Y-240320000D01*
X96280000Y-273320000D02*
X96280000Y-241320000D01*
X238280000Y-129320000D02*
X238280000Y-162320000D01*
X209280000Y-128320000D02*
X237280000Y-128320000D01*
X207280000Y-240320000D02*
X199280000Y-240320000D01*
X198280000Y-241320000D02*
X198280000Y-273320000D01*
X75280000Y-20320000D02*
X207280000Y-20320000D01*
X197280000Y-274320000D02*
X97280000Y-274320000D01*
X208280000Y-21320000D02*
X208280000Y-127320000D01*
X208280000Y-164320000D02*
X208280000Y-239320000D01*
X208280000Y-127320000D02*
G75*
G03*
X209280000Y-128320000I1000000J0D01*
G01*
X208280000Y-21320000D02*
G75*
G03*
X207280000Y-20320000I-1000000J0D01*
G01*
X96280000Y-241320000D02*
G75*
G03*
X95280000Y-240320000I-1000000J0D01*
G01*
X96280000Y-273320000D02*
G75*
G03*
X97280000Y-274320000I1000000J0D01*
G01*
X199280000Y-240320000D02*
G75*
G03*
X198280000Y-241320000I0J-1000000D01*
G01*
X74280000Y-239320000D02*
G75*
G03*
X75280000Y-240320000I999999J-1D01*
G01*
X209280000Y-163320000D02*
G75*
G03*
X208280000Y-164320000I0J-1000000D01*
G01*
X237280000Y-163320000D02*
G75*
G03*
X238280000Y-162320000I0J1000000D01*
G01*
X75280000Y-20320000D02*
G75*
G03*
X74280000Y-21320000I-1J-999999D01*
G01*
X207280000Y-240320000D02*
G75*
G03*
X208280000Y-239320000I0J1000000D01*
G01*
X197280000Y-274320000D02*
G75*
G03*
X198280000Y-273320000I0J1000000D01*
G01*
X238280000Y-129320000D02*
G75*
G03*
X237280000Y-128320000I-1000000J0D01*
G01*
G36*
G01*
X114400000Y-63750000D02*
X115600000Y-63750000D01*
G75*
G02*
X115750000Y-63900000I0J-150000D01*
G01*
X115750000Y-76100000D01*
G75*
G02*
X115600000Y-76250000I-150000J0D01*
G01*
X114400000Y-76250000D01*
G75*
G02*
X114250000Y-76100000I0J150000D01*
G01*
X114250000Y-63900000D01*
G75*
G02*
X114400000Y-63750000I150000J0D01*
G01*
G37*
G36*
G01*
X189400000Y-93750000D02*
X190600000Y-93750000D01*
G75*
G02*
X190750000Y-93900000I0J-150000D01*
G01*
X190750000Y-106100000D01*
G75*
G02*
X190600000Y-106250000I-150000J0D01*
G01*
X189400000Y-106250000D01*
G75*
G02*
X189250000Y-106100000I0J150000D01*
G01*
X189250000Y-93900000D01*
G75*
G02*
X189400000Y-93750000I150000J0D01*
G01*
G37*
G36*
G01*
X168750000Y-60600000D02*
X168750000Y-59400000D01*
G75*
G02*
X168900000Y-59250000I150000J0D01*
G01*
X181100000Y-59250000D01*
G75*
G02*
X181250000Y-59400000I0J-150000D01*
G01*
X181250000Y-60600000D01*
G75*
G02*
X181100000Y-60750000I-150000J0D01*
G01*
X168900000Y-60750000D01*
G75*
G02*
X168750000Y-60600000I0J150000D01*
G01*
G37*
G36*
G01*
X201250000Y-29400000D02*
X201250000Y-30600000D01*
G75*
G02*
X201100000Y-30750000I-150000J0D01*
G01*
X188900000Y-30750000D01*
G75*
G02*
X188750000Y-30600000I0J150000D01*
G01*
X188750000Y-29400000D01*
G75*
G02*
X188900000Y-29250000I150000J0D01*
G01*
X201100000Y-29250000D01*
G75*
G02*
X201250000Y-29400000I0J-150000D01*
G01*
G37*
G36*
G01*
X183250000Y-187400000D02*
X183250000Y-192600000D01*
G75*
G02*
X182600000Y-193250000I-650000J0D01*
G01*
X177400000Y-193250000D01*
G75*
G02*
X176750000Y-192600000I0J650000D01*
G01*
X176750000Y-187400000D01*
G75*
G02*
X177400000Y-186750000I650000J0D01*
G01*
X182600000Y-186750000D01*
G75*
G02*
X183250000Y-187400000I0J-650000D01*
G01*
G37*
G36*
G01*
X149400000Y-63750000D02*
X150600000Y-63750000D01*
G75*
G02*
X150750000Y-63900000I0J-150000D01*
G01*
X150750000Y-76100000D01*
G75*
G02*
X150600000Y-76250000I-150000J0D01*
G01*
X149400000Y-76250000D01*
G75*
G02*
X149250000Y-76100000I0J150000D01*
G01*
X149250000Y-63900000D01*
G75*
G02*
X149400000Y-63750000I150000J0D01*
G01*
G37*
G36*
G01*
X173250000Y-157400000D02*
X173250000Y-162600000D01*
G75*
G02*
X172600000Y-163250000I-650000J0D01*
G01*
X167400000Y-163250000D01*
G75*
G02*
X166750000Y-162600000I0J650000D01*
G01*
X166750000Y-157400000D01*
G75*
G02*
X167400000Y-156750000I650000J0D01*
G01*
X172600000Y-156750000D01*
G75*
G02*
X173250000Y-157400000I0J-650000D01*
G01*
G37*
G36*
G01*
X133250000Y-127400000D02*
X133250000Y-132600000D01*
G75*
G02*
X132600000Y-133250000I-650000J0D01*
G01*
X127400000Y-133250000D01*
G75*
G02*
X126750000Y-132600000I0J650000D01*
G01*
X126750000Y-127400000D01*
G75*
G02*
X127400000Y-126750000I650000J0D01*
G01*
X132600000Y-126750000D01*
G75*
G02*
X133250000Y-127400000I0J-650000D01*
G01*
G37*
G36*
G01*
X103250000Y-217400000D02*
X103250000Y-222600000D01*
G75*
G02*
X102600000Y-223250000I-650000J0D01*
G01*
X97400000Y-223250000D01*
G75*
G02*
X96750000Y-222600000I0J650000D01*
G01*
X96750000Y-217400000D01*
G75*
G02*
X97400000Y-216750000I650000J0D01*
G01*
X102600000Y-216750000D01*
G75*
G02*
X103250000Y-217400000I0J-650000D01*
G01*
G37*
G36*
G01*
X183250000Y-247400000D02*
X183250000Y-252600000D01*
G75*
G02*
X182600000Y-253250000I-650000J0D01*
G01*
X177400000Y-253250000D01*
G75*
G02*
X176750000Y-252600000I0J650000D01*
G01*
X176750000Y-247400000D01*
G75*
G02*
X177400000Y-246750000I650000J0D01*
G01*
X182600000Y-246750000D01*
G75*
G02*
X183250000Y-247400000I0J-650000D01*
G01*
G37*
G36*
G01*
X161250000Y-29400000D02*
X161250000Y-30600000D01*
G75*
G02*
X161100000Y-30750000I-150000J0D01*
G01*
X148900000Y-30750000D01*
G75*
G02*
X148750000Y-30600000I0J150000D01*
G01*
X148750000Y-29400000D01*
G75*
G02*
X148900000Y-29250000I150000J0D01*
G01*
X161100000Y-29250000D01*
G75*
G02*
X161250000Y-29400000I0J-150000D01*
G01*
G37*
G36*
G01*
X114400000Y-93750000D02*
X115600000Y-93750000D01*
G75*
G02*
X115750000Y-93900000I0J-150000D01*
G01*
X115750000Y-106100000D01*
G75*
G02*
X115600000Y-106250000I-150000J0D01*
G01*
X114400000Y-106250000D01*
G75*
G02*
X114250000Y-106100000I0J150000D01*
G01*
X114250000Y-93900000D01*
G75*
G02*
X114400000Y-93750000I150000J0D01*
G01*
G37*
G36*
G01*
X163250000Y-187400000D02*
X163250000Y-192600000D01*
G75*
G02*
X162600000Y-193250000I-650000J0D01*
G01*
X157400000Y-193250000D01*
G75*
G02*
X156750000Y-192600000I0J650000D01*
G01*
X156750000Y-187400000D01*
G75*
G02*
X157400000Y-186750000I650000J0D01*
G01*
X162600000Y-186750000D01*
G75*
G02*
X163250000Y-187400000I0J-650000D01*
G01*
G37*
G36*
G01*
X153250000Y-157400000D02*
X153250000Y-162600000D01*
G75*
G02*
X152600000Y-163250000I-650000J0D01*
G01*
X147400000Y-163250000D01*
G75*
G02*
X146750000Y-162600000I0J650000D01*
G01*
X146750000Y-157400000D01*
G75*
G02*
X147400000Y-156750000I650000J0D01*
G01*
X152600000Y-156750000D01*
G75*
G02*
X153250000Y-157400000I0J-650000D01*
G01*
G37*
G36*
G01*
X153250000Y-247400000D02*
X153250000Y-252600000D01*
G75*
G02*
X152600000Y-253250000I-650000J0D01*
G01*
X147400000Y-253250000D01*
G75*
G02*
X146750000Y-252600000I0J650000D01*
G01*
X146750000Y-247400000D01*
G75*
G02*
X147400000Y-246750000I650000J0D01*
G01*
X152600000Y-246750000D01*
G75*
G02*
X153250000Y-247400000I0J-650000D01*
G01*
G37*
G36*
G01*
X149400000Y-93750000D02*
X150600000Y-93750000D01*
G75*
G02*
X150750000Y-93900000I0J-150000D01*
G01*
X150750000Y-106100000D01*
G75*
G02*
X150600000Y-106250000I-150000J0D01*
G01*
X149400000Y-106250000D01*
G75*
G02*
X149250000Y-106100000I0J150000D01*
G01*
X149250000Y-93900000D01*
G75*
G02*
X149400000Y-93750000I150000J0D01*
G01*
G37*
G36*
G01*
X89400000Y-93750000D02*
X90600000Y-93750000D01*
G75*
G02*
X90750000Y-93900000I0J-150000D01*
G01*
X90750000Y-106100000D01*
G75*
G02*
X90600000Y-106250000I-150000J0D01*
G01*
X89400000Y-106250000D01*
G75*
G02*
X89250000Y-106100000I0J150000D01*
G01*
X89250000Y-93900000D01*
G75*
G02*
X89400000Y-93750000I150000J0D01*
G01*
G37*
G36*
G01*
X113250000Y-157400000D02*
X113250000Y-162600000D01*
G75*
G02*
X112600000Y-163250000I-650000J0D01*
G01*
X107400000Y-163250000D01*
G75*
G02*
X106750000Y-162600000I0J650000D01*
G01*
X106750000Y-157400000D01*
G75*
G02*
X107400000Y-156750000I650000J0D01*
G01*
X112600000Y-156750000D01*
G75*
G02*
X113250000Y-157400000I0J-650000D01*
G01*
G37*
G36*
G01*
X123250000Y-187400000D02*
X123250000Y-192600000D01*
G75*
G02*
X122600000Y-193250000I-650000J0D01*
G01*
X117400000Y-193250000D01*
G75*
G02*
X116750000Y-192600000I0J650000D01*
G01*
X116750000Y-187400000D01*
G75*
G02*
X117400000Y-186750000I650000J0D01*
G01*
X122600000Y-186750000D01*
G75*
G02*
X123250000Y-187400000I0J-650000D01*
G01*
G37*
G36*
G01*
X123250000Y-247400000D02*
X123250000Y-252600000D01*
G75*
G02*
X122600000Y-253250000I-650000J0D01*
G01*
X117400000Y-253250000D01*
G75*
G02*
X116750000Y-252600000I0J650000D01*
G01*
X116750000Y-247400000D01*
G75*
G02*
X117400000Y-246750000I650000J0D01*
G01*
X122600000Y-246750000D01*
G75*
G02*
X123250000Y-247400000I0J-650000D01*
G01*
G37*
G36*
G01*
X133250000Y-157400000D02*
X133250000Y-162600000D01*
G75*
G02*
X132600000Y-163250000I-650000J0D01*
G01*
X127400000Y-163250000D01*
G75*
G02*
X126750000Y-162600000I0J650000D01*
G01*
X126750000Y-157400000D01*
G75*
G02*
X127400000Y-156750000I650000J0D01*
G01*
X132600000Y-156750000D01*
G75*
G02*
X133250000Y-157400000I0J-650000D01*
G01*
G37*
G36*
G01*
X101250000Y-29400000D02*
X101250000Y-30600000D01*
G75*
G02*
X101100000Y-30750000I-150000J0D01*
G01*
X88900000Y-30750000D01*
G75*
G02*
X88750000Y-30600000I0J150000D01*
G01*
X88750000Y-29400000D01*
G75*
G02*
X88900000Y-29250000I150000J0D01*
G01*
X101100000Y-29250000D01*
G75*
G02*
X101250000Y-29400000I0J-150000D01*
G01*
G37*
G36*
G01*
X93250000Y-157400000D02*
X93250000Y-162600000D01*
G75*
G02*
X92600000Y-163250000I-650000J0D01*
G01*
X87400000Y-163250000D01*
G75*
G02*
X86750000Y-162600000I0J650000D01*
G01*
X86750000Y-157400000D01*
G75*
G02*
X87400000Y-156750000I650000J0D01*
G01*
X92600000Y-156750000D01*
G75*
G02*
X93250000Y-157400000I0J-650000D01*
G01*
G37*
G36*
G01*
X143250000Y-187400000D02*
X143250000Y-192600000D01*
G75*
G02*
X142600000Y-193250000I-650000J0D01*
G01*
X137400000Y-193250000D01*
G75*
G02*
X136750000Y-192600000I0J650000D01*
G01*
X136750000Y-187400000D01*
G75*
G02*
X137400000Y-186750000I650000J0D01*
G01*
X142600000Y-186750000D01*
G75*
G02*
X143250000Y-187400000I0J-650000D01*
G01*
G37*
G36*
G01*
X153250000Y-127400000D02*
X153250000Y-132600000D01*
G75*
G02*
X152600000Y-133250000I-650000J0D01*
G01*
X147400000Y-133250000D01*
G75*
G02*
X146750000Y-132600000I0J650000D01*
G01*
X146750000Y-127400000D01*
G75*
G02*
X147400000Y-126750000I650000J0D01*
G01*
X152600000Y-126750000D01*
G75*
G02*
X153250000Y-127400000I0J-650000D01*
G01*
G37*
G36*
G01*
X139400000Y-63750000D02*
X140600000Y-63750000D01*
G75*
G02*
X140750000Y-63900000I0J-150000D01*
G01*
X140750000Y-76100000D01*
G75*
G02*
X140600000Y-76250000I-150000J0D01*
G01*
X139400000Y-76250000D01*
G75*
G02*
X139250000Y-76100000I0J150000D01*
G01*
X139250000Y-63900000D01*
G75*
G02*
X139400000Y-63750000I150000J0D01*
G01*
G37*
G36*
G01*
X169400000Y-63750000D02*
X170600000Y-63750000D01*
G75*
G02*
X170750000Y-63900000I0J-150000D01*
G01*
X170750000Y-76100000D01*
G75*
G02*
X170600000Y-76250000I-150000J0D01*
G01*
X169400000Y-76250000D01*
G75*
G02*
X169250000Y-76100000I0J150000D01*
G01*
X169250000Y-63900000D01*
G75*
G02*
X169400000Y-63750000I150000J0D01*
G01*
G37*
G36*
G01*
X173250000Y-127400000D02*
X173250000Y-132600000D01*
G75*
G02*
X172600000Y-133250000I-650000J0D01*
G01*
X167400000Y-133250000D01*
G75*
G02*
X166750000Y-132600000I0J650000D01*
G01*
X166750000Y-127400000D01*
G75*
G02*
X167400000Y-126750000I650000J0D01*
G01*
X172600000Y-126750000D01*
G75*
G02*
X173250000Y-127400000I0J-650000D01*
G01*
G37*
G36*
G01*
X183250000Y-217400000D02*
X183250000Y-222600000D01*
G75*
G02*
X182600000Y-223250000I-650000J0D01*
G01*
X177400000Y-223250000D01*
G75*
G02*
X176750000Y-222600000I0J650000D01*
G01*
X176750000Y-217400000D01*
G75*
G02*
X177400000Y-216750000I650000J0D01*
G01*
X182600000Y-216750000D01*
G75*
G02*
X183250000Y-217400000I0J-650000D01*
G01*
G37*
G36*
G01*
X103250000Y-187400000D02*
X103250000Y-192600000D01*
G75*
G02*
X102600000Y-193250000I-650000J0D01*
G01*
X97400000Y-193250000D01*
G75*
G02*
X96750000Y-192600000I0J650000D01*
G01*
X96750000Y-187400000D01*
G75*
G02*
X97400000Y-186750000I650000J0D01*
G01*
X102600000Y-186750000D01*
G75*
G02*
X103250000Y-187400000I0J-650000D01*
G01*
G37*
G36*
G01*
X169400000Y-93750000D02*
X170600000Y-93750000D01*
G75*
G02*
X170750000Y-93900000I0J-150000D01*
G01*
X170750000Y-106100000D01*
G75*
G02*
X170600000Y-106250000I-150000J0D01*
G01*
X169400000Y-106250000D01*
G75*
G02*
X169250000Y-106100000I0J150000D01*
G01*
X169250000Y-93900000D01*
G75*
G02*
X169400000Y-93750000I150000J0D01*
G01*
G37*
G36*
G01*
X143250000Y-217400000D02*
X143250000Y-222600000D01*
G75*
G02*
X142600000Y-223250000I-650000J0D01*
G01*
X137400000Y-223250000D01*
G75*
G02*
X136750000Y-222600000I0J650000D01*
G01*
X136750000Y-217400000D01*
G75*
G02*
X137400000Y-216750000I650000J0D01*
G01*
X142600000Y-216750000D01*
G75*
G02*
X143250000Y-217400000I0J-650000D01*
G01*
G37*
G36*
G01*
X139400000Y-93750000D02*
X140600000Y-93750000D01*
G75*
G02*
X140750000Y-93900000I0J-150000D01*
G01*
X140750000Y-106100000D01*
G75*
G02*
X140600000Y-106250000I-150000J0D01*
G01*
X139400000Y-106250000D01*
G75*
G02*
X139250000Y-106100000I0J150000D01*
G01*
X139250000Y-93900000D01*
G75*
G02*
X139400000Y-93750000I150000J0D01*
G01*
G37*
G36*
G01*
X123250000Y-217400000D02*
X123250000Y-222600000D01*
G75*
G02*
X122600000Y-223250000I-650000J0D01*
G01*
X117400000Y-223250000D01*
G75*
G02*
X116750000Y-222600000I0J650000D01*
G01*
X116750000Y-217400000D01*
G75*
G02*
X117400000Y-216750000I650000J0D01*
G01*
X122600000Y-216750000D01*
G75*
G02*
X123250000Y-217400000I0J-650000D01*
G01*
G37*
G36*
G01*
X126250000Y-29400000D02*
X126250000Y-30600000D01*
G75*
G02*
X126100000Y-30750000I-150000J0D01*
G01*
X113900000Y-30750000D01*
G75*
G02*
X113750000Y-30600000I0J150000D01*
G01*
X113750000Y-29400000D01*
G75*
G02*
X113900000Y-29250000I150000J0D01*
G01*
X126100000Y-29250000D01*
G75*
G02*
X126250000Y-29400000I0J-150000D01*
G01*
G37*
G36*
G01*
X193250000Y-127400000D02*
X193250000Y-132600000D01*
G75*
G02*
X192600000Y-133250000I-650000J0D01*
G01*
X187400000Y-133250000D01*
G75*
G02*
X186750000Y-132600000I0J650000D01*
G01*
X186750000Y-127400000D01*
G75*
G02*
X187400000Y-126750000I650000J0D01*
G01*
X192600000Y-126750000D01*
G75*
G02*
X193250000Y-127400000I0J-650000D01*
G01*
G37*
G36*
G01*
X193250000Y-157400000D02*
X193250000Y-162600000D01*
G75*
G02*
X192600000Y-163250000I-650000J0D01*
G01*
X187400000Y-163250000D01*
G75*
G02*
X186750000Y-162600000I0J650000D01*
G01*
X186750000Y-157400000D01*
G75*
G02*
X187400000Y-156750000I650000J0D01*
G01*
X192600000Y-156750000D01*
G75*
G02*
X193250000Y-157400000I0J-650000D01*
G01*
G37*
G36*
G01*
X89400000Y-63750000D02*
X90600000Y-63750000D01*
G75*
G02*
X90750000Y-63900000I0J-150000D01*
G01*
X90750000Y-76100000D01*
G75*
G02*
X90600000Y-76250000I-150000J0D01*
G01*
X89400000Y-76250000D01*
G75*
G02*
X89250000Y-76100000I0J150000D01*
G01*
X89250000Y-63900000D01*
G75*
G02*
X89400000Y-63750000I150000J0D01*
G01*
G37*
G36*
G01*
X163250000Y-217400000D02*
X163250000Y-222600000D01*
G75*
G02*
X162600000Y-223250000I-650000J0D01*
G01*
X157400000Y-223250000D01*
G75*
G02*
X156750000Y-222600000I0J650000D01*
G01*
X156750000Y-217400000D01*
G75*
G02*
X157400000Y-216750000I650000J0D01*
G01*
X162600000Y-216750000D01*
G75*
G02*
X163250000Y-217400000I0J-650000D01*
G01*
G37*
G36*
G01*
X189400000Y-63750000D02*
X190600000Y-63750000D01*
G75*
G02*
X190750000Y-63900000I0J-150000D01*
G01*
X190750000Y-76100000D01*
G75*
G02*
X190600000Y-76250000I-150000J0D01*
G01*
X189400000Y-76250000D01*
G75*
G02*
X189250000Y-76100000I0J150000D01*
G01*
X189250000Y-63900000D01*
G75*
G02*
X189400000Y-63750000I150000J0D01*
G01*
G37*
G36*
G01*
X93250000Y-127400000D02*
X93250000Y-132600000D01*
G75*
G02*
X92600000Y-133250000I-650000J0D01*
G01*
X87400000Y-133250000D01*
G75*
G02*
X86750000Y-132600000I0J650000D01*
G01*
X86750000Y-127400000D01*
G75*
G02*
X87400000Y-126750000I650000J0D01*
G01*
X92600000Y-126750000D01*
G75*
G02*
X93250000Y-127400000I0J-650000D01*
G01*
G37*
G36*
G01*
X186250000Y-29400000D02*
X186250000Y-30600000D01*
G75*
G02*
X186100000Y-30750000I-150000J0D01*
G01*
X173900000Y-30750000D01*
G75*
G02*
X173750000Y-30600000I0J150000D01*
G01*
X173750000Y-29400000D01*
G75*
G02*
X173900000Y-29250000I150000J0D01*
G01*
X186100000Y-29250000D01*
G75*
G02*
X186250000Y-29400000I0J-150000D01*
G01*
G37*
G36*
G01*
X113250000Y-127400000D02*
X113250000Y-132600000D01*
G75*
G02*
X112600000Y-133250000I-650000J0D01*
G01*
X107400000Y-133250000D01*
G75*
G02*
X106750000Y-132600000I0J650000D01*
G01*
X106750000Y-127400000D01*
G75*
G02*
X107400000Y-126750000I650000J0D01*
G01*
X112600000Y-126750000D01*
G75*
G02*
X113250000Y-127400000I0J-650000D01*
G01*
G37*
M02*
