G04 #@! TF.GenerationSoftware,KiCad,Pcbnew,6.0.10+dfsg-1~bpo11+1*
G04 #@! TF.ProjectId,main,6d61696e-2e6b-4696-9361-645f70636258,5.0*
G04 #@! TF.SameCoordinates,Original*
G04 #@! TF.FileFunction,Copper,L6,Bot*
G04 #@! TF.FilePolarity,Positive*
%FSLAX46Y46*%
G04 Gerber Fmt 4.6, Leading zero omitted, Abs format (unit mm)*
%MOMM*%
%LPD*%
G01*
G04 APERTURE LIST*
G04 #@! TA.AperFunction,NonConductor*
%ADD10C,1.500000*%
G04 #@! TD*
G04 #@! TA.AperFunction,NonConductor*
%ADD11C,0.500000*%
G04 #@! TD*
G04 #@! TA.AperFunction,Profile*
%ADD12C,0.120000*%
G04 #@! TD*
G04 APERTURE END LIST*
D10*
X82280000Y-60320000D02*
X82280000Y-114320000D01*
D11*
X141280000Y-120320000D02*
X141280000Y-174320000D01*
D10*
X82280000Y-180320000D02*
X82280000Y-234320000D01*
X82280000Y-174320000D02*
X200280000Y-174320000D01*
X200280000Y-180320000D02*
X200280000Y-234320000D01*
X200280000Y-60320000D02*
X200280000Y-114320000D01*
D11*
X141280000Y-60320000D02*
X141280000Y-114320000D01*
D10*
X82280000Y-60320000D02*
X200280000Y-60320000D01*
X100280000Y-247320000D02*
X100280000Y-271320000D01*
X82280000Y-120320000D02*
X200280000Y-120320000D01*
X82280000Y-30320000D02*
X82280000Y-54320000D01*
D11*
X167280000Y-30320000D02*
X167280000Y-54320000D01*
X156280000Y-120320000D02*
X156280000Y-174320000D01*
D10*
X200280000Y-120320000D02*
X200280000Y-174320000D01*
X186280000Y-271320000D02*
X100280000Y-271320000D01*
X82280000Y-234320000D02*
X200280000Y-234320000D01*
X82280000Y-180320000D02*
X200280000Y-180320000D01*
D11*
X96280000Y-60320000D02*
X96280000Y-114320000D01*
D10*
X186280000Y-234320000D02*
X186280000Y-274320000D01*
D11*
X141280000Y-180320000D02*
X141280000Y-234320000D01*
X171280000Y-60320000D02*
X171280000Y-114320000D01*
X126280000Y-60320000D02*
X126280000Y-114320000D01*
X126280000Y-120320000D02*
X126280000Y-174320000D01*
X186280000Y-180320000D02*
X186280000Y-234320000D01*
X186280000Y-120320000D02*
X186280000Y-174320000D01*
D10*
X111280000Y-30320000D02*
X111280000Y-276320000D01*
D11*
X156280000Y-60320000D02*
X156280000Y-114320000D01*
D10*
X82280000Y-54320000D02*
X200280000Y-54320000D01*
D11*
X171280000Y-180320000D02*
X171280000Y-234320000D01*
X156280000Y-180320000D02*
X156280000Y-234320000D01*
X186280000Y-60320000D02*
X186280000Y-114320000D01*
X96280000Y-180320000D02*
X96280000Y-234320000D01*
D10*
X200280000Y-30320000D02*
X200280000Y-54320000D01*
D11*
X126280000Y-180320000D02*
X126280000Y-234320000D01*
D10*
X82280000Y-114320000D02*
X200280000Y-114320000D01*
X186280000Y-240320000D02*
X100280000Y-240320000D01*
X82280000Y-120320000D02*
X82280000Y-174320000D01*
D11*
X171280000Y-120320000D02*
X171280000Y-174320000D01*
D10*
X82280000Y-30320000D02*
X200280000Y-30320000D01*
D11*
X96280000Y-120320000D02*
X96280000Y-174320000D01*
D12*
X198280000Y-245320000D02*
X198280000Y-276320000D01*
X236280000Y-131320000D02*
X236280000Y-164320000D01*
X76280000Y-241320000D02*
X76280000Y-21320000D01*
X94280000Y-276320000D02*
X94280000Y-243320000D01*
X197280000Y-277320000D02*
X95280000Y-277320000D01*
X206280000Y-21320000D02*
X206280000Y-129320000D01*
X206280000Y-166320000D02*
X206280000Y-243320000D01*
X235280000Y-165320000D02*
X207280000Y-165320000D01*
X77280000Y-20320000D02*
X205280000Y-20320000D01*
X205280000Y-244320000D02*
X199280000Y-244320000D01*
X207280000Y-130320000D02*
X235280000Y-130320000D01*
X93280000Y-242320000D02*
X77280000Y-242320000D01*
X76280000Y-241320000D02*
G75*
G03*
X77280000Y-242320000I999999J-1D01*
G01*
X206280000Y-21320000D02*
G75*
G03*
X205280000Y-20320000I-1000000J0D01*
G01*
X207280000Y-165320000D02*
G75*
G03*
X206280000Y-166320000I0J-1000000D01*
G01*
X94280000Y-243320000D02*
G75*
G03*
X93280000Y-242320000I-1000000J0D01*
G01*
X94280000Y-276320000D02*
G75*
G03*
X95280000Y-277320000I1000000J0D01*
G01*
X199280000Y-244320000D02*
G75*
G03*
X198280000Y-245320000I0J-1000000D01*
G01*
X77280000Y-20320000D02*
G75*
G03*
X76280000Y-21320000I-1J-999999D01*
G01*
X235280000Y-165320000D02*
G75*
G03*
X236280000Y-164320000I0J1000000D01*
G01*
X197280000Y-277320000D02*
G75*
G03*
X198280000Y-276320000I0J1000000D01*
G01*
X206280000Y-129320000D02*
G75*
G03*
X207280000Y-130320000I1000000J0D01*
G01*
X205280000Y-244320000D02*
G75*
G03*
X206280000Y-243320000I0J1000000D01*
G01*
X236280000Y-131320000D02*
G75*
G03*
X235280000Y-130320000I-1000000J0D01*
G01*
G04 #@! TA.AperFunction,ComponentPad*
G36*
G01*
X81280000Y-58920000D02*
X81280000Y-55720000D01*
G75*
G02*
X81680000Y-55320000I400000J0D01*
G01*
X84880000Y-55320000D01*
G75*
G02*
X85280000Y-55720000I0J-400000D01*
G01*
X85280000Y-58920000D01*
G75*
G02*
X84880000Y-59320000I-400000J0D01*
G01*
X81680000Y-59320000D01*
G75*
G02*
X81280000Y-58920000I0J400000D01*
G01*
G37*
G04 #@! TD.AperFunction*
G04 #@! TA.AperFunction,ComponentPad*
G36*
G01*
X139280000Y-118920000D02*
X139280000Y-115720000D01*
G75*
G02*
X139680000Y-115320000I400000J0D01*
G01*
X142880000Y-115320000D01*
G75*
G02*
X143280000Y-115720000I0J-400000D01*
G01*
X143280000Y-118920000D01*
G75*
G02*
X142880000Y-119320000I-400000J0D01*
G01*
X139680000Y-119320000D01*
G75*
G02*
X139280000Y-118920000I0J400000D01*
G01*
G37*
G04 #@! TD.AperFunction*
G04 #@! TA.AperFunction,ComponentPad*
G36*
G01*
X197280000Y-238920000D02*
X197280000Y-235720000D01*
G75*
G02*
X197680000Y-235320000I400000J0D01*
G01*
X200880000Y-235320000D01*
G75*
G02*
X201280000Y-235720000I0J-400000D01*
G01*
X201280000Y-238920000D01*
G75*
G02*
X200880000Y-239320000I-400000J0D01*
G01*
X197680000Y-239320000D01*
G75*
G02*
X197280000Y-238920000I0J400000D01*
G01*
G37*
G04 #@! TD.AperFunction*
G04 #@! TA.AperFunction,ComponentPad*
G36*
G01*
X139280000Y-28920000D02*
X139280000Y-25720000D01*
G75*
G02*
X139680000Y-25320000I400000J0D01*
G01*
X142880000Y-25320000D01*
G75*
G02*
X143280000Y-25720000I0J-400000D01*
G01*
X143280000Y-28920000D01*
G75*
G02*
X142880000Y-29320000I-400000J0D01*
G01*
X139680000Y-29320000D01*
G75*
G02*
X139280000Y-28920000I0J400000D01*
G01*
G37*
G04 #@! TD.AperFunction*
G04 #@! TA.AperFunction,ComponentPad*
G36*
G01*
X81280000Y-238920000D02*
X81280000Y-235720000D01*
G75*
G02*
X81680000Y-235320000I400000J0D01*
G01*
X84880000Y-235320000D01*
G75*
G02*
X85280000Y-235720000I0J-400000D01*
G01*
X85280000Y-238920000D01*
G75*
G02*
X84880000Y-239320000I-400000J0D01*
G01*
X81680000Y-239320000D01*
G75*
G02*
X81280000Y-238920000I0J400000D01*
G01*
G37*
G04 #@! TD.AperFunction*
G04 #@! TA.AperFunction,ComponentPad*
G36*
G01*
X81280000Y-118920000D02*
X81280000Y-115720000D01*
G75*
G02*
X81680000Y-115320000I400000J0D01*
G01*
X84880000Y-115320000D01*
G75*
G02*
X85280000Y-115720000I0J-400000D01*
G01*
X85280000Y-118920000D01*
G75*
G02*
X84880000Y-119320000I-400000J0D01*
G01*
X81680000Y-119320000D01*
G75*
G02*
X81280000Y-118920000I0J400000D01*
G01*
G37*
G04 #@! TD.AperFunction*
G04 #@! TA.AperFunction,ComponentPad*
G36*
G01*
X139280000Y-58920000D02*
X139280000Y-55720000D01*
G75*
G02*
X139680000Y-55320000I400000J0D01*
G01*
X142880000Y-55320000D01*
G75*
G02*
X143280000Y-55720000I0J-400000D01*
G01*
X143280000Y-58920000D01*
G75*
G02*
X142880000Y-59320000I-400000J0D01*
G01*
X139680000Y-59320000D01*
G75*
G02*
X139280000Y-58920000I0J400000D01*
G01*
G37*
G04 #@! TD.AperFunction*
G04 #@! TA.AperFunction,ComponentPad*
G36*
G01*
X99280000Y-245920000D02*
X99280000Y-242720000D01*
G75*
G02*
X99680000Y-242320000I400000J0D01*
G01*
X102880000Y-242320000D01*
G75*
G02*
X103280000Y-242720000I0J-400000D01*
G01*
X103280000Y-245920000D01*
G75*
G02*
X102880000Y-246320000I-400000J0D01*
G01*
X99680000Y-246320000D01*
G75*
G02*
X99280000Y-245920000I0J400000D01*
G01*
G37*
G04 #@! TD.AperFunction*
G04 #@! TA.AperFunction,ComponentPad*
G36*
G01*
X81280000Y-28920000D02*
X81280000Y-25720000D01*
G75*
G02*
X81680000Y-25320000I400000J0D01*
G01*
X84880000Y-25320000D01*
G75*
G02*
X85280000Y-25720000I0J-400000D01*
G01*
X85280000Y-28920000D01*
G75*
G02*
X84880000Y-29320000I-400000J0D01*
G01*
X81680000Y-29320000D01*
G75*
G02*
X81280000Y-28920000I0J400000D01*
G01*
G37*
G04 #@! TD.AperFunction*
G04 #@! TA.AperFunction,ComponentPad*
G36*
G01*
X197280000Y-118920000D02*
X197280000Y-115720000D01*
G75*
G02*
X197680000Y-115320000I400000J0D01*
G01*
X200880000Y-115320000D01*
G75*
G02*
X201280000Y-115720000I0J-400000D01*
G01*
X201280000Y-118920000D01*
G75*
G02*
X200880000Y-119320000I-400000J0D01*
G01*
X197680000Y-119320000D01*
G75*
G02*
X197280000Y-118920000I0J400000D01*
G01*
G37*
G04 #@! TD.AperFunction*
G04 #@! TA.AperFunction,ComponentPad*
G36*
G01*
X129280000Y-245920000D02*
X129280000Y-242720000D01*
G75*
G02*
X129680000Y-242320000I400000J0D01*
G01*
X132880000Y-242320000D01*
G75*
G02*
X133280000Y-242720000I0J-400000D01*
G01*
X133280000Y-245920000D01*
G75*
G02*
X132880000Y-246320000I-400000J0D01*
G01*
X129680000Y-246320000D01*
G75*
G02*
X129280000Y-245920000I0J400000D01*
G01*
G37*
G04 #@! TD.AperFunction*
G04 #@! TA.AperFunction,ComponentPad*
G36*
G01*
X139280000Y-238920000D02*
X139280000Y-235720000D01*
G75*
G02*
X139680000Y-235320000I400000J0D01*
G01*
X142880000Y-235320000D01*
G75*
G02*
X143280000Y-235720000I0J-400000D01*
G01*
X143280000Y-238920000D01*
G75*
G02*
X142880000Y-239320000I-400000J0D01*
G01*
X139680000Y-239320000D01*
G75*
G02*
X139280000Y-238920000I0J400000D01*
G01*
G37*
G04 #@! TD.AperFunction*
G04 #@! TA.AperFunction,ComponentPad*
G36*
G01*
X189280000Y-275920000D02*
X189280000Y-272720000D01*
G75*
G02*
X189680000Y-272320000I400000J0D01*
G01*
X192880000Y-272320000D01*
G75*
G02*
X193280000Y-272720000I0J-400000D01*
G01*
X193280000Y-275920000D01*
G75*
G02*
X192880000Y-276320000I-400000J0D01*
G01*
X189680000Y-276320000D01*
G75*
G02*
X189280000Y-275920000I0J400000D01*
G01*
G37*
G04 #@! TD.AperFunction*
G04 #@! TA.AperFunction,ComponentPad*
G36*
G01*
X129280000Y-275920000D02*
X129280000Y-272720000D01*
G75*
G02*
X129680000Y-272320000I400000J0D01*
G01*
X132880000Y-272320000D01*
G75*
G02*
X133280000Y-272720000I0J-400000D01*
G01*
X133280000Y-275920000D01*
G75*
G02*
X132880000Y-276320000I-400000J0D01*
G01*
X129680000Y-276320000D01*
G75*
G02*
X129280000Y-275920000I0J400000D01*
G01*
G37*
G04 #@! TD.AperFunction*
G04 #@! TA.AperFunction,ComponentPad*
G36*
G01*
X189280000Y-245920000D02*
X189280000Y-242720000D01*
G75*
G02*
X189680000Y-242320000I400000J0D01*
G01*
X192880000Y-242320000D01*
G75*
G02*
X193280000Y-242720000I0J-400000D01*
G01*
X193280000Y-245920000D01*
G75*
G02*
X192880000Y-246320000I-400000J0D01*
G01*
X189680000Y-246320000D01*
G75*
G02*
X189280000Y-245920000I0J400000D01*
G01*
G37*
G04 #@! TD.AperFunction*
G04 #@! TA.AperFunction,ComponentPad*
G36*
G01*
X197280000Y-28920000D02*
X197280000Y-25720000D01*
G75*
G02*
X197680000Y-25320000I400000J0D01*
G01*
X200880000Y-25320000D01*
G75*
G02*
X201280000Y-25720000I0J-400000D01*
G01*
X201280000Y-28920000D01*
G75*
G02*
X200880000Y-29320000I-400000J0D01*
G01*
X197680000Y-29320000D01*
G75*
G02*
X197280000Y-28920000I0J400000D01*
G01*
G37*
G04 #@! TD.AperFunction*
G04 #@! TA.AperFunction,ComponentPad*
G36*
G01*
X197280000Y-58920000D02*
X197280000Y-55720000D01*
G75*
G02*
X197680000Y-55320000I400000J0D01*
G01*
X200880000Y-55320000D01*
G75*
G02*
X201280000Y-55720000I0J-400000D01*
G01*
X201280000Y-58920000D01*
G75*
G02*
X200880000Y-59320000I-400000J0D01*
G01*
X197680000Y-59320000D01*
G75*
G02*
X197280000Y-58920000I0J400000D01*
G01*
G37*
G04 #@! TD.AperFunction*
G04 #@! TA.AperFunction,ComponentPad*
G36*
G01*
X139280000Y-178920000D02*
X139280000Y-175720000D01*
G75*
G02*
X139680000Y-175320000I400000J0D01*
G01*
X142880000Y-175320000D01*
G75*
G02*
X143280000Y-175720000I0J-400000D01*
G01*
X143280000Y-178920000D01*
G75*
G02*
X142880000Y-179320000I-400000J0D01*
G01*
X139680000Y-179320000D01*
G75*
G02*
X139280000Y-178920000I0J400000D01*
G01*
G37*
G04 #@! TD.AperFunction*
G04 #@! TA.AperFunction,ComponentPad*
G36*
G01*
X99280000Y-275920000D02*
X99280000Y-272720000D01*
G75*
G02*
X99680000Y-272320000I400000J0D01*
G01*
X102880000Y-272320000D01*
G75*
G02*
X103280000Y-272720000I0J-400000D01*
G01*
X103280000Y-275920000D01*
G75*
G02*
X102880000Y-276320000I-400000J0D01*
G01*
X99680000Y-276320000D01*
G75*
G02*
X99280000Y-275920000I0J400000D01*
G01*
G37*
G04 #@! TD.AperFunction*
G04 #@! TA.AperFunction,ComponentPad*
G36*
G01*
X81280000Y-178920000D02*
X81280000Y-175720000D01*
G75*
G02*
X81680000Y-175320000I400000J0D01*
G01*
X84880000Y-175320000D01*
G75*
G02*
X85280000Y-175720000I0J-400000D01*
G01*
X85280000Y-178920000D01*
G75*
G02*
X84880000Y-179320000I-400000J0D01*
G01*
X81680000Y-179320000D01*
G75*
G02*
X81280000Y-178920000I0J400000D01*
G01*
G37*
G04 #@! TD.AperFunction*
G04 #@! TA.AperFunction,ComponentPad*
G36*
G01*
X197280000Y-178920000D02*
X197280000Y-175720000D01*
G75*
G02*
X197680000Y-175320000I400000J0D01*
G01*
X200880000Y-175320000D01*
G75*
G02*
X201280000Y-175720000I0J-400000D01*
G01*
X201280000Y-178920000D01*
G75*
G02*
X200880000Y-179320000I-400000J0D01*
G01*
X197680000Y-179320000D01*
G75*
G02*
X197280000Y-178920000I0J400000D01*
G01*
G37*
G04 #@! TD.AperFunction*
G04 #@! TA.AperFunction,SMDPad,CuDef*
G36*
G01*
X185030000Y-32920000D02*
X185030000Y-31720000D01*
G75*
G02*
X185180000Y-31570000I150000J0D01*
G01*
X197380000Y-31570000D01*
G75*
G02*
X197530000Y-31720000I0J-150000D01*
G01*
X197530000Y-32920000D01*
G75*
G02*
X197380000Y-33070000I-150000J0D01*
G01*
X185180000Y-33070000D01*
G75*
G02*
X185030000Y-32920000I0J150000D01*
G01*
G37*
G04 #@! TD.AperFunction*
G04 #@! TA.AperFunction,SMDPad,CuDef*
G36*
G01*
X142030000Y-269920000D02*
X142030000Y-268720000D01*
G75*
G02*
X142180000Y-268570000I150000J0D01*
G01*
X154380000Y-268570000D01*
G75*
G02*
X154530000Y-268720000I0J-150000D01*
G01*
X154530000Y-269920000D01*
G75*
G02*
X154380000Y-270070000I-150000J0D01*
G01*
X142180000Y-270070000D01*
G75*
G02*
X142030000Y-269920000I0J150000D01*
G01*
G37*
G04 #@! TD.AperFunction*
G04 #@! TA.AperFunction,SMDPad,CuDef*
G36*
G01*
X192530000Y-166720000D02*
X192530000Y-167920000D01*
G75*
G02*
X192380000Y-168070000I-150000J0D01*
G01*
X180180000Y-168070000D01*
G75*
G02*
X180030000Y-167920000I0J150000D01*
G01*
X180030000Y-166720000D01*
G75*
G02*
X180180000Y-166570000I150000J0D01*
G01*
X192380000Y-166570000D01*
G75*
G02*
X192530000Y-166720000I0J-150000D01*
G01*
G37*
G04 #@! TD.AperFunction*
G04 #@! TA.AperFunction,SMDPad,CuDef*
G36*
G01*
X102530000Y-31720000D02*
X102530000Y-32920000D01*
G75*
G02*
X102380000Y-33070000I-150000J0D01*
G01*
X90180000Y-33070000D01*
G75*
G02*
X90030000Y-32920000I0J150000D01*
G01*
X90030000Y-31720000D01*
G75*
G02*
X90180000Y-31570000I150000J0D01*
G01*
X102380000Y-31570000D01*
G75*
G02*
X102530000Y-31720000I0J-150000D01*
G01*
G37*
G04 #@! TD.AperFunction*
G04 #@! TA.AperFunction,SMDPad,CuDef*
G36*
G01*
X159530000Y-217720000D02*
X159530000Y-222920000D01*
G75*
G02*
X158880000Y-223570000I-650000J0D01*
G01*
X153680000Y-223570000D01*
G75*
G02*
X153030000Y-222920000I0J650000D01*
G01*
X153030000Y-217720000D01*
G75*
G02*
X153680000Y-217070000I650000J0D01*
G01*
X158880000Y-217070000D01*
G75*
G02*
X159530000Y-217720000I0J-650000D01*
G01*
G37*
G04 #@! TD.AperFunction*
G04 #@! TA.AperFunction,SMDPad,CuDef*
G36*
G01*
X180030000Y-144920000D02*
X180030000Y-143720000D01*
G75*
G02*
X180180000Y-143570000I150000J0D01*
G01*
X192380000Y-143570000D01*
G75*
G02*
X192530000Y-143720000I0J-150000D01*
G01*
X192530000Y-144920000D01*
G75*
G02*
X192380000Y-145070000I-150000J0D01*
G01*
X180180000Y-145070000D01*
G75*
G02*
X180030000Y-144920000I0J150000D01*
G01*
G37*
G04 #@! TD.AperFunction*
G04 #@! TA.AperFunction,SMDPad,CuDef*
G36*
G01*
X174530000Y-97720000D02*
X174530000Y-102920000D01*
G75*
G02*
X173880000Y-103570000I-650000J0D01*
G01*
X168680000Y-103570000D01*
G75*
G02*
X168030000Y-102920000I0J650000D01*
G01*
X168030000Y-97720000D01*
G75*
G02*
X168680000Y-97070000I650000J0D01*
G01*
X173880000Y-97070000D01*
G75*
G02*
X174530000Y-97720000I0J-650000D01*
G01*
G37*
G04 #@! TD.AperFunction*
G04 #@! TA.AperFunction,SMDPad,CuDef*
G36*
G01*
X189530000Y-72720000D02*
X189530000Y-77920000D01*
G75*
G02*
X188880000Y-78570000I-650000J0D01*
G01*
X183680000Y-78570000D01*
G75*
G02*
X183030000Y-77920000I0J650000D01*
G01*
X183030000Y-72720000D01*
G75*
G02*
X183680000Y-72070000I650000J0D01*
G01*
X188880000Y-72070000D01*
G75*
G02*
X189530000Y-72720000I0J-650000D01*
G01*
G37*
G04 #@! TD.AperFunction*
G04 #@! TA.AperFunction,SMDPad,CuDef*
G36*
G01*
X174530000Y-192720000D02*
X174530000Y-197920000D01*
G75*
G02*
X173880000Y-198570000I-650000J0D01*
G01*
X168680000Y-198570000D01*
G75*
G02*
X168030000Y-197920000I0J650000D01*
G01*
X168030000Y-192720000D01*
G75*
G02*
X168680000Y-192070000I650000J0D01*
G01*
X173880000Y-192070000D01*
G75*
G02*
X174530000Y-192720000I0J-650000D01*
G01*
G37*
G04 #@! TD.AperFunction*
G04 #@! TA.AperFunction,SMDPad,CuDef*
G36*
G01*
X129530000Y-192720000D02*
X129530000Y-197920000D01*
G75*
G02*
X128880000Y-198570000I-650000J0D01*
G01*
X123680000Y-198570000D01*
G75*
G02*
X123030000Y-197920000I0J650000D01*
G01*
X123030000Y-192720000D01*
G75*
G02*
X123680000Y-192070000I650000J0D01*
G01*
X128880000Y-192070000D01*
G75*
G02*
X129530000Y-192720000I0J-650000D01*
G01*
G37*
G04 #@! TD.AperFunction*
G04 #@! TA.AperFunction,SMDPad,CuDef*
G36*
G01*
X154530000Y-241720000D02*
X154530000Y-242920000D01*
G75*
G02*
X154380000Y-243070000I-150000J0D01*
G01*
X142180000Y-243070000D01*
G75*
G02*
X142030000Y-242920000I0J150000D01*
G01*
X142030000Y-241720000D01*
G75*
G02*
X142180000Y-241570000I150000J0D01*
G01*
X154380000Y-241570000D01*
G75*
G02*
X154530000Y-241720000I0J-150000D01*
G01*
G37*
G04 #@! TD.AperFunction*
G04 #@! TA.AperFunction,SMDPad,CuDef*
G36*
G01*
X90030000Y-52920000D02*
X90030000Y-51720000D01*
G75*
G02*
X90180000Y-51570000I150000J0D01*
G01*
X102380000Y-51570000D01*
G75*
G02*
X102530000Y-51720000I0J-150000D01*
G01*
X102530000Y-52920000D01*
G75*
G02*
X102380000Y-53070000I-150000J0D01*
G01*
X90180000Y-53070000D01*
G75*
G02*
X90030000Y-52920000I0J150000D01*
G01*
G37*
G04 #@! TD.AperFunction*
G04 #@! TA.AperFunction,SMDPad,CuDef*
G36*
G01*
X144530000Y-192720000D02*
X144530000Y-197920000D01*
G75*
G02*
X143880000Y-198570000I-650000J0D01*
G01*
X138680000Y-198570000D01*
G75*
G02*
X138030000Y-197920000I0J650000D01*
G01*
X138030000Y-192720000D01*
G75*
G02*
X138680000Y-192070000I650000J0D01*
G01*
X143880000Y-192070000D01*
G75*
G02*
X144530000Y-192720000I0J-650000D01*
G01*
G37*
G04 #@! TD.AperFunction*
G04 #@! TA.AperFunction,SMDPad,CuDef*
G36*
G01*
X143530000Y-72720000D02*
X143530000Y-77920000D01*
G75*
G02*
X142880000Y-78570000I-650000J0D01*
G01*
X137680000Y-78570000D01*
G75*
G02*
X137030000Y-77920000I0J650000D01*
G01*
X137030000Y-72720000D01*
G75*
G02*
X137680000Y-72070000I650000J0D01*
G01*
X142880000Y-72070000D01*
G75*
G02*
X143530000Y-72720000I0J-650000D01*
G01*
G37*
G04 #@! TD.AperFunction*
G04 #@! TA.AperFunction,SMDPad,CuDef*
G36*
G01*
X129530000Y-217720000D02*
X129530000Y-222920000D01*
G75*
G02*
X128880000Y-223570000I-650000J0D01*
G01*
X123680000Y-223570000D01*
G75*
G02*
X123030000Y-222920000I0J650000D01*
G01*
X123030000Y-217720000D01*
G75*
G02*
X123680000Y-217070000I650000J0D01*
G01*
X128880000Y-217070000D01*
G75*
G02*
X129530000Y-217720000I0J-650000D01*
G01*
G37*
G04 #@! TD.AperFunction*
G04 #@! TA.AperFunction,SMDPad,CuDef*
G36*
G01*
X120030000Y-144920000D02*
X120030000Y-143720000D01*
G75*
G02*
X120180000Y-143570000I150000J0D01*
G01*
X132380000Y-143570000D01*
G75*
G02*
X132530000Y-143720000I0J-150000D01*
G01*
X132530000Y-144920000D01*
G75*
G02*
X132380000Y-145070000I-150000J0D01*
G01*
X120180000Y-145070000D01*
G75*
G02*
X120030000Y-144920000I0J150000D01*
G01*
G37*
G04 #@! TD.AperFunction*
G04 #@! TA.AperFunction,SMDPad,CuDef*
G36*
G01*
X118030000Y-32920000D02*
X118030000Y-31720000D01*
G75*
G02*
X118180000Y-31570000I150000J0D01*
G01*
X130380000Y-31570000D01*
G75*
G02*
X130530000Y-31720000I0J-150000D01*
G01*
X130530000Y-32920000D01*
G75*
G02*
X130380000Y-33070000I-150000J0D01*
G01*
X118180000Y-33070000D01*
G75*
G02*
X118030000Y-32920000I0J150000D01*
G01*
G37*
G04 #@! TD.AperFunction*
G04 #@! TA.AperFunction,SMDPad,CuDef*
G36*
G01*
X99530000Y-97720000D02*
X99530000Y-102920000D01*
G75*
G02*
X98880000Y-103570000I-650000J0D01*
G01*
X93680000Y-103570000D01*
G75*
G02*
X93030000Y-102920000I0J650000D01*
G01*
X93030000Y-97720000D01*
G75*
G02*
X93680000Y-97070000I650000J0D01*
G01*
X98880000Y-97070000D01*
G75*
G02*
X99530000Y-97720000I0J-650000D01*
G01*
G37*
G04 #@! TD.AperFunction*
G04 #@! TA.AperFunction,SMDPad,CuDef*
G36*
G01*
X174530000Y-217720000D02*
X174530000Y-222920000D01*
G75*
G02*
X173880000Y-223570000I-650000J0D01*
G01*
X168680000Y-223570000D01*
G75*
G02*
X168030000Y-222920000I0J650000D01*
G01*
X168030000Y-217720000D01*
G75*
G02*
X168680000Y-217070000I650000J0D01*
G01*
X173880000Y-217070000D01*
G75*
G02*
X174530000Y-217720000I0J-650000D01*
G01*
G37*
G04 #@! TD.AperFunction*
G04 #@! TA.AperFunction,SMDPad,CuDef*
G36*
G01*
X114530000Y-192720000D02*
X114530000Y-197920000D01*
G75*
G02*
X113880000Y-198570000I-650000J0D01*
G01*
X108680000Y-198570000D01*
G75*
G02*
X108030000Y-197920000I0J650000D01*
G01*
X108030000Y-192720000D01*
G75*
G02*
X108680000Y-192070000I650000J0D01*
G01*
X113880000Y-192070000D01*
G75*
G02*
X114530000Y-192720000I0J-650000D01*
G01*
G37*
G04 #@! TD.AperFunction*
G04 #@! TA.AperFunction,SMDPad,CuDef*
G36*
G01*
X189530000Y-97720000D02*
X189530000Y-102920000D01*
G75*
G02*
X188880000Y-103570000I-650000J0D01*
G01*
X183680000Y-103570000D01*
G75*
G02*
X183030000Y-102920000I0J650000D01*
G01*
X183030000Y-97720000D01*
G75*
G02*
X183680000Y-97070000I650000J0D01*
G01*
X188880000Y-97070000D01*
G75*
G02*
X189530000Y-97720000I0J-650000D01*
G01*
G37*
G04 #@! TD.AperFunction*
G04 #@! TA.AperFunction,SMDPad,CuDef*
G36*
G01*
X147030000Y-122920000D02*
X147030000Y-121720000D01*
G75*
G02*
X147180000Y-121570000I150000J0D01*
G01*
X159380000Y-121570000D01*
G75*
G02*
X159530000Y-121720000I0J-150000D01*
G01*
X159530000Y-122920000D01*
G75*
G02*
X159380000Y-123070000I-150000J0D01*
G01*
X147180000Y-123070000D01*
G75*
G02*
X147030000Y-122920000I0J150000D01*
G01*
G37*
G04 #@! TD.AperFunction*
G04 #@! TA.AperFunction,SMDPad,CuDef*
G36*
G01*
X159530000Y-97720000D02*
X159530000Y-102920000D01*
G75*
G02*
X158880000Y-103570000I-650000J0D01*
G01*
X153680000Y-103570000D01*
G75*
G02*
X153030000Y-102920000I0J650000D01*
G01*
X153030000Y-97720000D01*
G75*
G02*
X153680000Y-97070000I650000J0D01*
G01*
X158880000Y-97070000D01*
G75*
G02*
X159530000Y-97720000I0J-650000D01*
G01*
G37*
G04 #@! TD.AperFunction*
G04 #@! TA.AperFunction,SMDPad,CuDef*
G36*
G01*
X189530000Y-192720000D02*
X189530000Y-197920000D01*
G75*
G02*
X188880000Y-198570000I-650000J0D01*
G01*
X183680000Y-198570000D01*
G75*
G02*
X183030000Y-197920000I0J650000D01*
G01*
X183030000Y-192720000D01*
G75*
G02*
X183680000Y-192070000I650000J0D01*
G01*
X188880000Y-192070000D01*
G75*
G02*
X189530000Y-192720000I0J-650000D01*
G01*
G37*
G04 #@! TD.AperFunction*
G04 #@! TA.AperFunction,SMDPad,CuDef*
G36*
G01*
X174530000Y-72720000D02*
X174530000Y-77920000D01*
G75*
G02*
X173880000Y-78570000I-650000J0D01*
G01*
X168680000Y-78570000D01*
G75*
G02*
X168030000Y-77920000I0J650000D01*
G01*
X168030000Y-72720000D01*
G75*
G02*
X168680000Y-72070000I650000J0D01*
G01*
X173880000Y-72070000D01*
G75*
G02*
X174530000Y-72720000I0J-650000D01*
G01*
G37*
G04 #@! TD.AperFunction*
G04 #@! TA.AperFunction,SMDPad,CuDef*
G36*
G01*
X149030000Y-32920000D02*
X149030000Y-31720000D01*
G75*
G02*
X149180000Y-31570000I150000J0D01*
G01*
X161380000Y-31570000D01*
G75*
G02*
X161530000Y-31720000I0J-150000D01*
G01*
X161530000Y-32920000D01*
G75*
G02*
X161380000Y-33070000I-150000J0D01*
G01*
X149180000Y-33070000D01*
G75*
G02*
X149030000Y-32920000I0J150000D01*
G01*
G37*
G04 #@! TD.AperFunction*
G04 #@! TA.AperFunction,SMDPad,CuDef*
G36*
G01*
X89030000Y-62920000D02*
X89030000Y-61720000D01*
G75*
G02*
X89180000Y-61570000I150000J0D01*
G01*
X101380000Y-61570000D01*
G75*
G02*
X101530000Y-61720000I0J-150000D01*
G01*
X101530000Y-62920000D01*
G75*
G02*
X101380000Y-63070000I-150000J0D01*
G01*
X89180000Y-63070000D01*
G75*
G02*
X89030000Y-62920000I0J150000D01*
G01*
G37*
G04 #@! TD.AperFunction*
G04 #@! TA.AperFunction,SMDPad,CuDef*
G36*
G01*
X159530000Y-72720000D02*
X159530000Y-77920000D01*
G75*
G02*
X158880000Y-78570000I-650000J0D01*
G01*
X153680000Y-78570000D01*
G75*
G02*
X153030000Y-77920000I0J650000D01*
G01*
X153030000Y-72720000D01*
G75*
G02*
X153680000Y-72070000I650000J0D01*
G01*
X158880000Y-72070000D01*
G75*
G02*
X159530000Y-72720000I0J-650000D01*
G01*
G37*
G04 #@! TD.AperFunction*
G04 #@! TA.AperFunction,SMDPad,CuDef*
G36*
G01*
X144530000Y-217720000D02*
X144530000Y-222920000D01*
G75*
G02*
X143880000Y-223570000I-650000J0D01*
G01*
X138680000Y-223570000D01*
G75*
G02*
X138030000Y-222920000I0J650000D01*
G01*
X138030000Y-217720000D01*
G75*
G02*
X138680000Y-217070000I650000J0D01*
G01*
X143880000Y-217070000D01*
G75*
G02*
X144530000Y-217720000I0J-650000D01*
G01*
G37*
G04 #@! TD.AperFunction*
G04 #@! TA.AperFunction,SMDPad,CuDef*
G36*
G01*
X189530000Y-217720000D02*
X189530000Y-222920000D01*
G75*
G02*
X188880000Y-223570000I-650000J0D01*
G01*
X183680000Y-223570000D01*
G75*
G02*
X183030000Y-222920000I0J650000D01*
G01*
X183030000Y-217720000D01*
G75*
G02*
X183680000Y-217070000I650000J0D01*
G01*
X188880000Y-217070000D01*
G75*
G02*
X189530000Y-217720000I0J-650000D01*
G01*
G37*
G04 #@! TD.AperFunction*
G04 #@! TA.AperFunction,SMDPad,CuDef*
G36*
G01*
X176030000Y-122920000D02*
X176030000Y-121720000D01*
G75*
G02*
X176180000Y-121570000I150000J0D01*
G01*
X188380000Y-121570000D01*
G75*
G02*
X188530000Y-121720000I0J-150000D01*
G01*
X188530000Y-122920000D01*
G75*
G02*
X188380000Y-123070000I-150000J0D01*
G01*
X176180000Y-123070000D01*
G75*
G02*
X176030000Y-122920000I0J150000D01*
G01*
G37*
G04 #@! TD.AperFunction*
G04 #@! TA.AperFunction,SMDPad,CuDef*
G36*
G01*
X130530000Y-72720000D02*
X130530000Y-77920000D01*
G75*
G02*
X129880000Y-78570000I-650000J0D01*
G01*
X124680000Y-78570000D01*
G75*
G02*
X124030000Y-77920000I0J650000D01*
G01*
X124030000Y-72720000D01*
G75*
G02*
X124680000Y-72070000I650000J0D01*
G01*
X129880000Y-72070000D01*
G75*
G02*
X130530000Y-72720000I0J-650000D01*
G01*
G37*
G04 #@! TD.AperFunction*
G04 #@! TA.AperFunction,SMDPad,CuDef*
G36*
G01*
X172030000Y-269920000D02*
X172030000Y-268720000D01*
G75*
G02*
X172180000Y-268570000I150000J0D01*
G01*
X184380000Y-268570000D01*
G75*
G02*
X184530000Y-268720000I0J-150000D01*
G01*
X184530000Y-269920000D01*
G75*
G02*
X184380000Y-270070000I-150000J0D01*
G01*
X172180000Y-270070000D01*
G75*
G02*
X172030000Y-269920000I0J150000D01*
G01*
G37*
G04 #@! TD.AperFunction*
G04 #@! TA.AperFunction,SMDPad,CuDef*
G36*
G01*
X129530000Y-97720000D02*
X129530000Y-102920000D01*
G75*
G02*
X128880000Y-103570000I-650000J0D01*
G01*
X123680000Y-103570000D01*
G75*
G02*
X123030000Y-102920000I0J650000D01*
G01*
X123030000Y-97720000D01*
G75*
G02*
X123680000Y-97070000I650000J0D01*
G01*
X128880000Y-97070000D01*
G75*
G02*
X129530000Y-97720000I0J-650000D01*
G01*
G37*
G04 #@! TD.AperFunction*
G04 #@! TA.AperFunction,SMDPad,CuDef*
G36*
G01*
X122530000Y-241720000D02*
X122530000Y-242920000D01*
G75*
G02*
X122380000Y-243070000I-150000J0D01*
G01*
X110180000Y-243070000D01*
G75*
G02*
X110030000Y-242920000I0J150000D01*
G01*
X110030000Y-241720000D01*
G75*
G02*
X110180000Y-241570000I150000J0D01*
G01*
X122380000Y-241570000D01*
G75*
G02*
X122530000Y-241720000I0J-150000D01*
G01*
G37*
G04 #@! TD.AperFunction*
G04 #@! TA.AperFunction,SMDPad,CuDef*
G36*
G01*
X99530000Y-72720000D02*
X99530000Y-77920000D01*
G75*
G02*
X98880000Y-78570000I-650000J0D01*
G01*
X93680000Y-78570000D01*
G75*
G02*
X93030000Y-77920000I0J650000D01*
G01*
X93030000Y-72720000D01*
G75*
G02*
X93680000Y-72070000I650000J0D01*
G01*
X98880000Y-72070000D01*
G75*
G02*
X99530000Y-72720000I0J-650000D01*
G01*
G37*
G04 #@! TD.AperFunction*
G04 #@! TA.AperFunction,SMDPad,CuDef*
G36*
G01*
X144530000Y-97720000D02*
X144530000Y-102920000D01*
G75*
G02*
X143880000Y-103570000I-650000J0D01*
G01*
X138680000Y-103570000D01*
G75*
G02*
X138030000Y-102920000I0J650000D01*
G01*
X138030000Y-97720000D01*
G75*
G02*
X138680000Y-97070000I650000J0D01*
G01*
X143880000Y-97070000D01*
G75*
G02*
X144530000Y-97720000I0J-650000D01*
G01*
G37*
G04 #@! TD.AperFunction*
G04 #@! TA.AperFunction,SMDPad,CuDef*
G36*
G01*
X185030000Y-52920000D02*
X185030000Y-51720000D01*
G75*
G02*
X185180000Y-51570000I150000J0D01*
G01*
X197380000Y-51570000D01*
G75*
G02*
X197530000Y-51720000I0J-150000D01*
G01*
X197530000Y-52920000D01*
G75*
G02*
X197380000Y-53070000I-150000J0D01*
G01*
X185180000Y-53070000D01*
G75*
G02*
X185030000Y-52920000I0J150000D01*
G01*
G37*
G04 #@! TD.AperFunction*
G04 #@! TA.AperFunction,SMDPad,CuDef*
G36*
G01*
X159530000Y-192720000D02*
X159530000Y-197920000D01*
G75*
G02*
X158880000Y-198570000I-650000J0D01*
G01*
X153680000Y-198570000D01*
G75*
G02*
X153030000Y-197920000I0J650000D01*
G01*
X153030000Y-192720000D01*
G75*
G02*
X153680000Y-192070000I650000J0D01*
G01*
X158880000Y-192070000D01*
G75*
G02*
X159530000Y-192720000I0J-650000D01*
G01*
G37*
G04 #@! TD.AperFunction*
G04 #@! TA.AperFunction,SMDPad,CuDef*
G36*
G01*
X172030000Y-242920000D02*
X172030000Y-241720000D01*
G75*
G02*
X172180000Y-241570000I150000J0D01*
G01*
X184380000Y-241570000D01*
G75*
G02*
X184530000Y-241720000I0J-150000D01*
G01*
X184530000Y-242920000D01*
G75*
G02*
X184380000Y-243070000I-150000J0D01*
G01*
X172180000Y-243070000D01*
G75*
G02*
X172030000Y-242920000I0J150000D01*
G01*
G37*
G04 #@! TD.AperFunction*
G04 #@! TA.AperFunction,SMDPad,CuDef*
G36*
G01*
X114530000Y-217720000D02*
X114530000Y-222920000D01*
G75*
G02*
X113880000Y-223570000I-650000J0D01*
G01*
X108680000Y-223570000D01*
G75*
G02*
X108030000Y-222920000I0J650000D01*
G01*
X108030000Y-217720000D01*
G75*
G02*
X108680000Y-217070000I650000J0D01*
G01*
X113880000Y-217070000D01*
G75*
G02*
X114530000Y-217720000I0J-650000D01*
G01*
G37*
G04 #@! TD.AperFunction*
G04 #@! TA.AperFunction,SMDPad,CuDef*
G36*
G01*
X150030000Y-144920000D02*
X150030000Y-143720000D01*
G75*
G02*
X150180000Y-143570000I150000J0D01*
G01*
X162380000Y-143570000D01*
G75*
G02*
X162530000Y-143720000I0J-150000D01*
G01*
X162530000Y-144920000D01*
G75*
G02*
X162380000Y-145070000I-150000J0D01*
G01*
X150180000Y-145070000D01*
G75*
G02*
X150030000Y-144920000I0J150000D01*
G01*
G37*
G04 #@! TD.AperFunction*
G04 #@! TA.AperFunction,SMDPad,CuDef*
G36*
G01*
X99530000Y-192720000D02*
X99530000Y-197920000D01*
G75*
G02*
X98880000Y-198570000I-650000J0D01*
G01*
X93680000Y-198570000D01*
G75*
G02*
X93030000Y-197920000I0J650000D01*
G01*
X93030000Y-192720000D01*
G75*
G02*
X93680000Y-192070000I650000J0D01*
G01*
X98880000Y-192070000D01*
G75*
G02*
X99530000Y-192720000I0J-650000D01*
G01*
G37*
G04 #@! TD.AperFunction*
M02*
