M48
; FORMAT={-:-/ absolute / metric / decimal}
; #@! TF.GenerationSoftware,Kicad,Pcbnew,6.0.10+dfsg-1~bpo11+1
; #@! TF.FileFunction,Plated,1,6,PTH
FMAT,2
METRIC
; #@! TA.AperFunction,Plated,PTH,ComponentDrill
T1C3.200
%
G90
G05
T1
X83.28Y-27.32
X83.28Y-57.32
X83.28Y-117.32
X83.28Y-177.32
X83.28Y-237.32
X101.28Y-244.32
X101.28Y-274.32
X131.28Y-244.32
X131.28Y-274.32
X141.28Y-27.32
X141.28Y-57.32
X141.28Y-117.32
X141.28Y-177.32
X141.28Y-237.32
X191.28Y-244.32
X191.28Y-274.32
X199.28Y-27.32
X199.28Y-57.32
X199.28Y-117.32
X199.28Y-177.32
X199.28Y-237.32
T0
M30
