%TF.GenerationSoftware,KiCad,Pcbnew,6.0.10+dfsg-1~bpo11+1*%
%TF.ProjectId,main,6d61696e-2e6b-4696-9361-645f70636258,5.0*%
%TF.SameCoordinates,Original*%
%TF.FileFunction,Drillmap*%
%TF.FilePolarity,Positive*%
%FSLAX45Y45*%
G04 Gerber Fmt 4.5, Leading zero omitted, Abs format (unit mm)*
%MOMM*%
%LPD*%
G01*
G04 APERTURE LIST*
%ADD10C,0.200000*%
G04 APERTURE END LIST*
D10*
X7679619Y-27748476D02*
X7679619Y-27548476D01*
X7727238Y-27548476D01*
X7755809Y-27558000D01*
X7774857Y-27577048D01*
X7784381Y-27596095D01*
X7793905Y-27634190D01*
X7793905Y-27662762D01*
X7784381Y-27700857D01*
X7774857Y-27719905D01*
X7755809Y-27738952D01*
X7727238Y-27748476D01*
X7679619Y-27748476D01*
X7879619Y-27748476D02*
X7879619Y-27615143D01*
X7879619Y-27653238D02*
X7889143Y-27634190D01*
X7898667Y-27624667D01*
X7917714Y-27615143D01*
X7936762Y-27615143D01*
X8003428Y-27748476D02*
X8003428Y-27615143D01*
X8003428Y-27548476D02*
X7993905Y-27558000D01*
X8003428Y-27567524D01*
X8012952Y-27558000D01*
X8003428Y-27548476D01*
X8003428Y-27567524D01*
X8127238Y-27748476D02*
X8108190Y-27738952D01*
X8098667Y-27719905D01*
X8098667Y-27548476D01*
X8232000Y-27748476D02*
X8212952Y-27738952D01*
X8203428Y-27719905D01*
X8203428Y-27548476D01*
X8460571Y-27748476D02*
X8460571Y-27548476D01*
X8527238Y-27691333D01*
X8593905Y-27548476D01*
X8593905Y-27748476D01*
X8774857Y-27748476D02*
X8774857Y-27643714D01*
X8765333Y-27624667D01*
X8746286Y-27615143D01*
X8708190Y-27615143D01*
X8689143Y-27624667D01*
X8774857Y-27738952D02*
X8755810Y-27748476D01*
X8708190Y-27748476D01*
X8689143Y-27738952D01*
X8679619Y-27719905D01*
X8679619Y-27700857D01*
X8689143Y-27681809D01*
X8708190Y-27672286D01*
X8755810Y-27672286D01*
X8774857Y-27662762D01*
X8870095Y-27615143D02*
X8870095Y-27815143D01*
X8870095Y-27624667D02*
X8889143Y-27615143D01*
X8927238Y-27615143D01*
X8946286Y-27624667D01*
X8955810Y-27634190D01*
X8965333Y-27653238D01*
X8965333Y-27710381D01*
X8955810Y-27729428D01*
X8946286Y-27738952D01*
X8927238Y-27748476D01*
X8889143Y-27748476D01*
X8870095Y-27738952D01*
X9051048Y-27729428D02*
X9060571Y-27738952D01*
X9051048Y-27748476D01*
X9041524Y-27738952D01*
X9051048Y-27729428D01*
X9051048Y-27748476D01*
X9051048Y-27624667D02*
X9060571Y-27634190D01*
X9051048Y-27643714D01*
X9041524Y-27634190D01*
X9051048Y-27624667D01*
X9051048Y-27643714D01*
M02*
