G04 #@! TF.GenerationSoftware,KiCad,Pcbnew,6.0.10+dfsg-1~bpo11+1*
G04 #@! TF.ProjectId,main,6d61696e-2e6b-4696-9361-645f70636258,5.0*
G04 #@! TF.SameCoordinates,Original*
G04 #@! TF.FileFunction,Profile,NP*
%FSLAX46Y46*%
G04 Gerber Fmt 4.6, Leading zero omitted, Abs format (unit mm)*
%MOMM*%
%LPD*%
G01*
G04 APERTURE LIST*
G04 #@! TA.AperFunction,Profile*
%ADD10C,0.120000*%
G04 #@! TD*
G04 APERTURE END LIST*
D10*
X237280000Y-163320000D02*
X209280000Y-163320000D01*
X207280000Y-240320000D02*
X199280000Y-240320000D01*
X75280000Y-20320000D02*
X207280000Y-20320000D01*
X198280000Y-241320000D02*
X198280000Y-273320000D01*
X238280000Y-128320000D02*
X238280000Y-162320000D01*
X209280000Y-127320000D02*
X237280000Y-127320000D01*
X197280000Y-274320000D02*
X97280000Y-274320000D01*
X74280000Y-239320000D02*
X74280000Y-21320000D01*
X208280000Y-164320000D02*
X208280000Y-239320000D01*
X95280000Y-240320000D02*
X75280000Y-240320000D01*
X208280000Y-21320000D02*
X208280000Y-126320000D01*
X96280000Y-273320000D02*
X96280000Y-241320000D01*
X96280000Y-241320000D02*
G75*
G03*
X95280000Y-240320000I-1000000J0D01*
G01*
X209280000Y-163320000D02*
G75*
G03*
X208280000Y-164320000I0J-1000000D01*
G01*
X237280000Y-163320000D02*
G75*
G03*
X238280000Y-162320000I0J1000000D01*
G01*
X208280000Y-126320000D02*
G75*
G03*
X209280000Y-127320000I1000000J0D01*
G01*
X75280000Y-20320000D02*
G75*
G03*
X74280000Y-21320000I-1J-999999D01*
G01*
X199280000Y-240320000D02*
G75*
G03*
X198280000Y-241320000I0J-1000000D01*
G01*
X207280000Y-240320000D02*
G75*
G03*
X208280000Y-239320000I0J1000000D01*
G01*
X74280000Y-239320000D02*
G75*
G03*
X75280000Y-240320000I999999J-1D01*
G01*
X96280000Y-273320000D02*
G75*
G03*
X97280000Y-274320000I1000000J0D01*
G01*
X197280000Y-274320000D02*
G75*
G03*
X198280000Y-273320000I0J1000000D01*
G01*
X208280000Y-21320000D02*
G75*
G03*
X207280000Y-20320000I-1000000J0D01*
G01*
X238280000Y-128320000D02*
G75*
G03*
X237280000Y-127320000I-1000000J0D01*
G01*
M02*
