G04 #@! TF.GenerationSoftware,KiCad,Pcbnew,6.0.10+dfsg-1~bpo11+1*
G04 #@! TF.ProjectId,main,6d61696e-2e6b-4696-9361-645f70636258,5.0*
G04 #@! TF.SameCoordinates,Original*
G04 #@! TF.FileFunction,Copper,L1,Top*
G04 #@! TF.FilePolarity,Positive*
%FSLAX46Y46*%
G04 Gerber Fmt 4.6, Leading zero omitted, Abs format (unit mm)*
%MOMM*%
%LPD*%
G01*
G04 APERTURE LIST*
G04 #@! TA.AperFunction,Profile*
%ADD10C,0.120000*%
G04 #@! TD*
G04 APERTURE END LIST*
D10*
X94280000Y-276320000D02*
X94280000Y-243320000D01*
X198280000Y-245320000D02*
X198280000Y-276320000D01*
X235280000Y-165320000D02*
X207280000Y-165320000D01*
X197280000Y-277320000D02*
X95280000Y-277320000D01*
X93280000Y-242320000D02*
X77280000Y-242320000D01*
X206280000Y-21320000D02*
X206280000Y-129320000D01*
X76280000Y-241320000D02*
X76280000Y-21320000D01*
X207280000Y-130320000D02*
X235280000Y-130320000D01*
X236280000Y-131320000D02*
X236280000Y-164320000D01*
X206280000Y-166320000D02*
X206280000Y-243320000D01*
X77280000Y-20320000D02*
X205280000Y-20320000D01*
X205280000Y-244320000D02*
X199280000Y-244320000D01*
X206280000Y-129320000D02*
G75*
G03*
X207280000Y-130320000I1000000J0D01*
G01*
X206280000Y-21320000D02*
G75*
G03*
X205280000Y-20320000I-1000000J0D01*
G01*
X207280000Y-165320000D02*
G75*
G03*
X206280000Y-166320000I0J-1000000D01*
G01*
X205280000Y-244320000D02*
G75*
G03*
X206280000Y-243320000I0J1000000D01*
G01*
X94280000Y-243320000D02*
G75*
G03*
X93280000Y-242320000I-1000000J0D01*
G01*
X199280000Y-244320000D02*
G75*
G03*
X198280000Y-245320000I0J-1000000D01*
G01*
X197280000Y-277320000D02*
G75*
G03*
X198280000Y-276320000I0J1000000D01*
G01*
X76280000Y-241320000D02*
G75*
G03*
X77280000Y-242320000I999999J-1D01*
G01*
X235280000Y-165320000D02*
G75*
G03*
X236280000Y-164320000I0J1000000D01*
G01*
X77280000Y-20320000D02*
G75*
G03*
X76280000Y-21320000I-1J-999999D01*
G01*
X236280000Y-131320000D02*
G75*
G03*
X235280000Y-130320000I-1000000J0D01*
G01*
X94280000Y-276320000D02*
G75*
G03*
X95280000Y-277320000I1000000J0D01*
G01*
G04 #@! TA.AperFunction,SMDPad,CuDef*
G36*
G01*
X112280000Y-35000000D02*
X112280000Y-27000000D01*
G75*
G02*
X113280000Y-26000000I1000000J0D01*
G01*
X131280000Y-26000000D01*
G75*
G02*
X132280000Y-27000000I0J-1000000D01*
G01*
X132280000Y-35000000D01*
G75*
G02*
X131280000Y-36000000I-1000000J0D01*
G01*
X113280000Y-36000000D01*
G75*
G02*
X112280000Y-35000000I0J1000000D01*
G01*
G37*
G04 #@! TD.AperFunction*
G04 #@! TA.AperFunction,SMDPad,CuDef*
G36*
G01*
X101080000Y-271820000D02*
X99480000Y-271820000D01*
G75*
G02*
X99280000Y-271620000I0J200000D01*
G01*
X99280000Y-269020000D01*
G75*
G02*
X99480000Y-268820000I200000J0D01*
G01*
X101080000Y-268820000D01*
G75*
G02*
X101280000Y-269020000I0J-200000D01*
G01*
X101280000Y-271620000D01*
G75*
G02*
X101080000Y-271820000I-200000J0D01*
G01*
G37*
G04 #@! TD.AperFunction*
G04 #@! TA.AperFunction,SMDPad,CuDef*
G36*
G01*
X148030000Y-65870000D02*
X148030000Y-60770000D01*
G75*
G02*
X148480000Y-60320000I450000J0D01*
G01*
X152080000Y-60320000D01*
G75*
G02*
X152530000Y-60770000I0J-450000D01*
G01*
X152530000Y-65870000D01*
G75*
G02*
X152080000Y-66320000I-450000J0D01*
G01*
X148480000Y-66320000D01*
G75*
G02*
X148030000Y-65870000I0J450000D01*
G01*
G37*
G04 #@! TD.AperFunction*
G04 #@! TA.AperFunction,SMDPad,CuDef*
G36*
G01*
X162080000Y-94820000D02*
X156480000Y-94820000D01*
G75*
G02*
X155780000Y-94120000I0J700000D01*
G01*
X155780000Y-78520000D01*
G75*
G02*
X156480000Y-77820000I700000J0D01*
G01*
X162080000Y-77820000D01*
G75*
G02*
X162780000Y-78520000I0J-700000D01*
G01*
X162780000Y-94120000D01*
G75*
G02*
X162080000Y-94820000I-700000J0D01*
G01*
G37*
G04 #@! TD.AperFunction*
G04 #@! TA.AperFunction,SMDPad,CuDef*
G36*
G01*
X97180000Y-53820000D02*
X84380000Y-53820000D01*
G75*
G02*
X82780000Y-52220000I0J1600000D01*
G01*
X82780000Y-38420000D01*
G75*
G02*
X84380000Y-36820000I1600000J0D01*
G01*
X97180000Y-36820000D01*
G75*
G02*
X98780000Y-38420000I0J-1600000D01*
G01*
X98780000Y-52220000D01*
G75*
G02*
X97180000Y-53820000I-1600000J0D01*
G01*
G37*
G04 #@! TD.AperFunction*
G04 #@! TA.AperFunction,SMDPad,CuDef*
G36*
G01*
X83280000Y-187620000D02*
X83280000Y-182020000D01*
G75*
G02*
X83980000Y-181320000I700000J0D01*
G01*
X90580000Y-181320000D01*
G75*
G02*
X91280000Y-182020000I0J-700000D01*
G01*
X91280000Y-187620000D01*
G75*
G02*
X90580000Y-188320000I-700000J0D01*
G01*
X83980000Y-188320000D01*
G75*
G02*
X83280000Y-187620000I0J700000D01*
G01*
G37*
G04 #@! TD.AperFunction*
G04 #@! TA.AperFunction,SMDPad,CuDef*
G36*
G01*
X143780000Y-187520000D02*
X143780000Y-181120000D01*
G75*
G02*
X144580000Y-180320000I800000J0D01*
G01*
X161980000Y-180320000D01*
G75*
G02*
X162780000Y-181120000I0J-800000D01*
G01*
X162780000Y-187520000D01*
G75*
G02*
X161980000Y-188320000I-800000J0D01*
G01*
X144580000Y-188320000D01*
G75*
G02*
X143780000Y-187520000I0J800000D01*
G01*
G37*
G04 #@! TD.AperFunction*
G04 #@! TA.AperFunction,SMDPad,CuDef*
G36*
G01*
X186880000Y-246570000D02*
X191680000Y-246570000D01*
G75*
G02*
X192280000Y-247170000I0J-600000D01*
G01*
X192280000Y-271470000D01*
G75*
G02*
X191680000Y-272070000I-600000J0D01*
G01*
X186880000Y-272070000D01*
G75*
G02*
X186280000Y-271470000I0J600000D01*
G01*
X186280000Y-247170000D01*
G75*
G02*
X186880000Y-246570000I600000J0D01*
G01*
G37*
G04 #@! TD.AperFunction*
G04 #@! TA.AperFunction,SMDPad,CuDef*
G36*
G01*
X130280000Y-164720000D02*
X130280000Y-155920000D01*
G75*
G02*
X131380000Y-154820000I1100000J0D01*
G01*
X157180000Y-154820000D01*
G75*
G02*
X158280000Y-155920000I0J-1100000D01*
G01*
X158280000Y-164720000D01*
G75*
G02*
X157180000Y-165820000I-1100000J0D01*
G01*
X131380000Y-165820000D01*
G75*
G02*
X130280000Y-164720000I0J1100000D01*
G01*
G37*
G04 #@! TD.AperFunction*
G04 #@! TA.AperFunction,SMDPad,CuDef*
G36*
G01*
X109880000Y-208570000D02*
X112680000Y-208570000D01*
G75*
G02*
X113030000Y-208920000I0J-350000D01*
G01*
X113030000Y-219720000D01*
G75*
G02*
X112680000Y-220070000I-350000J0D01*
G01*
X109880000Y-220070000D01*
G75*
G02*
X109530000Y-219720000I0J350000D01*
G01*
X109530000Y-208920000D01*
G75*
G02*
X109880000Y-208570000I350000J0D01*
G01*
G37*
G04 #@! TD.AperFunction*
G04 #@! TA.AperFunction,SMDPad,CuDef*
G36*
G01*
X186780000Y-172920000D02*
X186780000Y-177720000D01*
G75*
G02*
X186180000Y-178320000I-600000J0D01*
G01*
X152380000Y-178320000D01*
G75*
G02*
X151780000Y-177720000I0J600000D01*
G01*
X151780000Y-172920000D01*
G75*
G02*
X152380000Y-172320000I600000J0D01*
G01*
X186180000Y-172320000D01*
G75*
G02*
X186780000Y-172920000I0J-600000D01*
G01*
G37*
G04 #@! TD.AperFunction*
G04 #@! TA.AperFunction,SMDPad,CuDef*
G36*
G01*
X93530000Y-184120000D02*
X93530000Y-180520000D01*
G75*
G02*
X93980000Y-180070000I450000J0D01*
G01*
X106580000Y-180070000D01*
G75*
G02*
X107030000Y-180520000I0J-450000D01*
G01*
X107030000Y-184120000D01*
G75*
G02*
X106580000Y-184570000I-450000J0D01*
G01*
X93980000Y-184570000D01*
G75*
G02*
X93530000Y-184120000I0J450000D01*
G01*
G37*
G04 #@! TD.AperFunction*
G04 #@! TA.AperFunction,SMDPad,CuDef*
G36*
G01*
X107030000Y-31870000D02*
X107030000Y-26770000D01*
G75*
G02*
X107480000Y-26320000I450000J0D01*
G01*
X111080000Y-26320000D01*
G75*
G02*
X111530000Y-26770000I0J-450000D01*
G01*
X111530000Y-31870000D01*
G75*
G02*
X111080000Y-32320000I-450000J0D01*
G01*
X107480000Y-32320000D01*
G75*
G02*
X107030000Y-31870000I0J450000D01*
G01*
G37*
G04 #@! TD.AperFunction*
G04 #@! TA.AperFunction,SMDPad,CuDef*
G36*
G01*
X150280000Y-172920000D02*
X150280000Y-177720000D01*
G75*
G02*
X149680000Y-178320000I-600000J0D01*
G01*
X144880000Y-178320000D01*
G75*
G02*
X144280000Y-177720000I0J600000D01*
G01*
X144280000Y-172920000D01*
G75*
G02*
X144880000Y-172320000I600000J0D01*
G01*
X149680000Y-172320000D01*
G75*
G02*
X150280000Y-172920000I0J-600000D01*
G01*
G37*
G04 #@! TD.AperFunction*
G04 #@! TA.AperFunction,ComponentPad*
G36*
G01*
X99280000Y-275920000D02*
X99280000Y-272720000D01*
G75*
G02*
X99680000Y-272320000I400000J0D01*
G01*
X102880000Y-272320000D01*
G75*
G02*
X103280000Y-272720000I0J-400000D01*
G01*
X103280000Y-275920000D01*
G75*
G02*
X102880000Y-276320000I-400000J0D01*
G01*
X99680000Y-276320000D01*
G75*
G02*
X99280000Y-275920000I0J400000D01*
G01*
G37*
G04 #@! TD.AperFunction*
G04 #@! TA.AperFunction,ComponentPad*
G36*
G01*
X139280000Y-178920000D02*
X139280000Y-175720000D01*
G75*
G02*
X139680000Y-175320000I400000J0D01*
G01*
X142880000Y-175320000D01*
G75*
G02*
X143280000Y-175720000I0J-400000D01*
G01*
X143280000Y-178920000D01*
G75*
G02*
X142880000Y-179320000I-400000J0D01*
G01*
X139680000Y-179320000D01*
G75*
G02*
X139280000Y-178920000I0J400000D01*
G01*
G37*
G04 #@! TD.AperFunction*
G04 #@! TA.AperFunction,ComponentPad*
G36*
G01*
X81280000Y-238920000D02*
X81280000Y-235720000D01*
G75*
G02*
X81680000Y-235320000I400000J0D01*
G01*
X84880000Y-235320000D01*
G75*
G02*
X85280000Y-235720000I0J-400000D01*
G01*
X85280000Y-238920000D01*
G75*
G02*
X84880000Y-239320000I-400000J0D01*
G01*
X81680000Y-239320000D01*
G75*
G02*
X81280000Y-238920000I0J400000D01*
G01*
G37*
G04 #@! TD.AperFunction*
G04 #@! TA.AperFunction,ComponentPad*
G36*
G01*
X81280000Y-178920000D02*
X81280000Y-175720000D01*
G75*
G02*
X81680000Y-175320000I400000J0D01*
G01*
X84880000Y-175320000D01*
G75*
G02*
X85280000Y-175720000I0J-400000D01*
G01*
X85280000Y-178920000D01*
G75*
G02*
X84880000Y-179320000I-400000J0D01*
G01*
X81680000Y-179320000D01*
G75*
G02*
X81280000Y-178920000I0J400000D01*
G01*
G37*
G04 #@! TD.AperFunction*
G04 #@! TA.AperFunction,ComponentPad*
G36*
G01*
X189280000Y-275920000D02*
X189280000Y-272720000D01*
G75*
G02*
X189680000Y-272320000I400000J0D01*
G01*
X192880000Y-272320000D01*
G75*
G02*
X193280000Y-272720000I0J-400000D01*
G01*
X193280000Y-275920000D01*
G75*
G02*
X192880000Y-276320000I-400000J0D01*
G01*
X189680000Y-276320000D01*
G75*
G02*
X189280000Y-275920000I0J400000D01*
G01*
G37*
G04 #@! TD.AperFunction*
G04 #@! TA.AperFunction,ComponentPad*
G36*
G01*
X129280000Y-245920000D02*
X129280000Y-242720000D01*
G75*
G02*
X129680000Y-242320000I400000J0D01*
G01*
X132880000Y-242320000D01*
G75*
G02*
X133280000Y-242720000I0J-400000D01*
G01*
X133280000Y-245920000D01*
G75*
G02*
X132880000Y-246320000I-400000J0D01*
G01*
X129680000Y-246320000D01*
G75*
G02*
X129280000Y-245920000I0J400000D01*
G01*
G37*
G04 #@! TD.AperFunction*
G04 #@! TA.AperFunction,ComponentPad*
G36*
G01*
X139280000Y-58920000D02*
X139280000Y-55720000D01*
G75*
G02*
X139680000Y-55320000I400000J0D01*
G01*
X142880000Y-55320000D01*
G75*
G02*
X143280000Y-55720000I0J-400000D01*
G01*
X143280000Y-58920000D01*
G75*
G02*
X142880000Y-59320000I-400000J0D01*
G01*
X139680000Y-59320000D01*
G75*
G02*
X139280000Y-58920000I0J400000D01*
G01*
G37*
G04 #@! TD.AperFunction*
G04 #@! TA.AperFunction,ComponentPad*
G36*
G01*
X139280000Y-118920000D02*
X139280000Y-115720000D01*
G75*
G02*
X139680000Y-115320000I400000J0D01*
G01*
X142880000Y-115320000D01*
G75*
G02*
X143280000Y-115720000I0J-400000D01*
G01*
X143280000Y-118920000D01*
G75*
G02*
X142880000Y-119320000I-400000J0D01*
G01*
X139680000Y-119320000D01*
G75*
G02*
X139280000Y-118920000I0J400000D01*
G01*
G37*
G04 #@! TD.AperFunction*
G04 #@! TA.AperFunction,ComponentPad*
G36*
G01*
X197280000Y-28920000D02*
X197280000Y-25720000D01*
G75*
G02*
X197680000Y-25320000I400000J0D01*
G01*
X200880000Y-25320000D01*
G75*
G02*
X201280000Y-25720000I0J-400000D01*
G01*
X201280000Y-28920000D01*
G75*
G02*
X200880000Y-29320000I-400000J0D01*
G01*
X197680000Y-29320000D01*
G75*
G02*
X197280000Y-28920000I0J400000D01*
G01*
G37*
G04 #@! TD.AperFunction*
G04 #@! TA.AperFunction,ComponentPad*
G36*
G01*
X197280000Y-178920000D02*
X197280000Y-175720000D01*
G75*
G02*
X197680000Y-175320000I400000J0D01*
G01*
X200880000Y-175320000D01*
G75*
G02*
X201280000Y-175720000I0J-400000D01*
G01*
X201280000Y-178920000D01*
G75*
G02*
X200880000Y-179320000I-400000J0D01*
G01*
X197680000Y-179320000D01*
G75*
G02*
X197280000Y-178920000I0J400000D01*
G01*
G37*
G04 #@! TD.AperFunction*
G04 #@! TA.AperFunction,ComponentPad*
G36*
G01*
X99280000Y-245920000D02*
X99280000Y-242720000D01*
G75*
G02*
X99680000Y-242320000I400000J0D01*
G01*
X102880000Y-242320000D01*
G75*
G02*
X103280000Y-242720000I0J-400000D01*
G01*
X103280000Y-245920000D01*
G75*
G02*
X102880000Y-246320000I-400000J0D01*
G01*
X99680000Y-246320000D01*
G75*
G02*
X99280000Y-245920000I0J400000D01*
G01*
G37*
G04 #@! TD.AperFunction*
G04 #@! TA.AperFunction,ComponentPad*
G36*
G01*
X81280000Y-118920000D02*
X81280000Y-115720000D01*
G75*
G02*
X81680000Y-115320000I400000J0D01*
G01*
X84880000Y-115320000D01*
G75*
G02*
X85280000Y-115720000I0J-400000D01*
G01*
X85280000Y-118920000D01*
G75*
G02*
X84880000Y-119320000I-400000J0D01*
G01*
X81680000Y-119320000D01*
G75*
G02*
X81280000Y-118920000I0J400000D01*
G01*
G37*
G04 #@! TD.AperFunction*
G04 #@! TA.AperFunction,ComponentPad*
G36*
G01*
X189280000Y-245920000D02*
X189280000Y-242720000D01*
G75*
G02*
X189680000Y-242320000I400000J0D01*
G01*
X192880000Y-242320000D01*
G75*
G02*
X193280000Y-242720000I0J-400000D01*
G01*
X193280000Y-245920000D01*
G75*
G02*
X192880000Y-246320000I-400000J0D01*
G01*
X189680000Y-246320000D01*
G75*
G02*
X189280000Y-245920000I0J400000D01*
G01*
G37*
G04 #@! TD.AperFunction*
G04 #@! TA.AperFunction,ComponentPad*
G36*
G01*
X129280000Y-275920000D02*
X129280000Y-272720000D01*
G75*
G02*
X129680000Y-272320000I400000J0D01*
G01*
X132880000Y-272320000D01*
G75*
G02*
X133280000Y-272720000I0J-400000D01*
G01*
X133280000Y-275920000D01*
G75*
G02*
X132880000Y-276320000I-400000J0D01*
G01*
X129680000Y-276320000D01*
G75*
G02*
X129280000Y-275920000I0J400000D01*
G01*
G37*
G04 #@! TD.AperFunction*
G04 #@! TA.AperFunction,ComponentPad*
G36*
G01*
X139280000Y-28920000D02*
X139280000Y-25720000D01*
G75*
G02*
X139680000Y-25320000I400000J0D01*
G01*
X142880000Y-25320000D01*
G75*
G02*
X143280000Y-25720000I0J-400000D01*
G01*
X143280000Y-28920000D01*
G75*
G02*
X142880000Y-29320000I-400000J0D01*
G01*
X139680000Y-29320000D01*
G75*
G02*
X139280000Y-28920000I0J400000D01*
G01*
G37*
G04 #@! TD.AperFunction*
G04 #@! TA.AperFunction,ComponentPad*
G36*
G01*
X81280000Y-58920000D02*
X81280000Y-55720000D01*
G75*
G02*
X81680000Y-55320000I400000J0D01*
G01*
X84880000Y-55320000D01*
G75*
G02*
X85280000Y-55720000I0J-400000D01*
G01*
X85280000Y-58920000D01*
G75*
G02*
X84880000Y-59320000I-400000J0D01*
G01*
X81680000Y-59320000D01*
G75*
G02*
X81280000Y-58920000I0J400000D01*
G01*
G37*
G04 #@! TD.AperFunction*
G04 #@! TA.AperFunction,ComponentPad*
G36*
G01*
X197280000Y-238920000D02*
X197280000Y-235720000D01*
G75*
G02*
X197680000Y-235320000I400000J0D01*
G01*
X200880000Y-235320000D01*
G75*
G02*
X201280000Y-235720000I0J-400000D01*
G01*
X201280000Y-238920000D01*
G75*
G02*
X200880000Y-239320000I-400000J0D01*
G01*
X197680000Y-239320000D01*
G75*
G02*
X197280000Y-238920000I0J400000D01*
G01*
G37*
G04 #@! TD.AperFunction*
G04 #@! TA.AperFunction,ComponentPad*
G36*
G01*
X197280000Y-118920000D02*
X197280000Y-115720000D01*
G75*
G02*
X197680000Y-115320000I400000J0D01*
G01*
X200880000Y-115320000D01*
G75*
G02*
X201280000Y-115720000I0J-400000D01*
G01*
X201280000Y-118920000D01*
G75*
G02*
X200880000Y-119320000I-400000J0D01*
G01*
X197680000Y-119320000D01*
G75*
G02*
X197280000Y-118920000I0J400000D01*
G01*
G37*
G04 #@! TD.AperFunction*
G04 #@! TA.AperFunction,ComponentPad*
G36*
G01*
X197280000Y-58920000D02*
X197280000Y-55720000D01*
G75*
G02*
X197680000Y-55320000I400000J0D01*
G01*
X200880000Y-55320000D01*
G75*
G02*
X201280000Y-55720000I0J-400000D01*
G01*
X201280000Y-58920000D01*
G75*
G02*
X200880000Y-59320000I-400000J0D01*
G01*
X197680000Y-59320000D01*
G75*
G02*
X197280000Y-58920000I0J400000D01*
G01*
G37*
G04 #@! TD.AperFunction*
G04 #@! TA.AperFunction,ComponentPad*
G36*
G01*
X81280000Y-28920000D02*
X81280000Y-25720000D01*
G75*
G02*
X81680000Y-25320000I400000J0D01*
G01*
X84880000Y-25320000D01*
G75*
G02*
X85280000Y-25720000I0J-400000D01*
G01*
X85280000Y-28920000D01*
G75*
G02*
X84880000Y-29320000I-400000J0D01*
G01*
X81680000Y-29320000D01*
G75*
G02*
X81280000Y-28920000I0J400000D01*
G01*
G37*
G04 #@! TD.AperFunction*
G04 #@! TA.AperFunction,ComponentPad*
G36*
G01*
X139280000Y-238920000D02*
X139280000Y-235720000D01*
G75*
G02*
X139680000Y-235320000I400000J0D01*
G01*
X142880000Y-235320000D01*
G75*
G02*
X143280000Y-235720000I0J-400000D01*
G01*
X143280000Y-238920000D01*
G75*
G02*
X142880000Y-239320000I-400000J0D01*
G01*
X139680000Y-239320000D01*
G75*
G02*
X139280000Y-238920000I0J400000D01*
G01*
G37*
G04 #@! TD.AperFunction*
G04 #@! TA.AperFunction,SMDPad,CuDef*
G36*
G01*
X152780000Y-66320000D02*
X152780000Y-60320000D01*
G75*
G02*
X153530000Y-59570000I750000J0D01*
G01*
X167030000Y-59570000D01*
G75*
G02*
X167780000Y-60320000I0J-750000D01*
G01*
X167780000Y-66320000D01*
G75*
G02*
X167030000Y-67070000I-750000J0D01*
G01*
X153530000Y-67070000D01*
G75*
G02*
X152780000Y-66320000I0J750000D01*
G01*
G37*
G04 #@! TD.AperFunction*
G04 #@! TA.AperFunction,SMDPad,CuDef*
G36*
G01*
X168280000Y-68720000D02*
X168280000Y-59920000D01*
G75*
G02*
X168880000Y-59320000I600000J0D01*
G01*
X173680000Y-59320000D01*
G75*
G02*
X174280000Y-59920000I0J-600000D01*
G01*
X174280000Y-68720000D01*
G75*
G02*
X173680000Y-69320000I-600000J0D01*
G01*
X168880000Y-69320000D01*
G75*
G02*
X168280000Y-68720000I0J600000D01*
G01*
G37*
G04 #@! TD.AperFunction*
G04 #@! TA.AperFunction,SMDPad,CuDef*
G36*
G01*
X133780000Y-68120000D02*
X133780000Y-60520000D01*
G75*
G02*
X134480000Y-59820000I700000J0D01*
G01*
X140080000Y-59820000D01*
G75*
G02*
X140780000Y-60520000I0J-700000D01*
G01*
X140780000Y-68120000D01*
G75*
G02*
X140080000Y-68820000I-700000J0D01*
G01*
X134480000Y-68820000D01*
G75*
G02*
X133780000Y-68120000I0J700000D01*
G01*
G37*
G04 #@! TD.AperFunction*
G04 #@! TA.AperFunction,SMDPad,CuDef*
G36*
G01*
X117880000Y-222570000D02*
X120680000Y-222570000D01*
G75*
G02*
X121030000Y-222920000I0J-350000D01*
G01*
X121030000Y-233720000D01*
G75*
G02*
X120680000Y-234070000I-350000J0D01*
G01*
X117880000Y-234070000D01*
G75*
G02*
X117530000Y-233720000I0J350000D01*
G01*
X117530000Y-222920000D01*
G75*
G02*
X117880000Y-222570000I350000J0D01*
G01*
G37*
G04 #@! TD.AperFunction*
G04 #@! TA.AperFunction,SMDPad,CuDef*
G36*
G01*
X100280000Y-109720000D02*
X100280000Y-116920000D01*
G75*
G02*
X99380000Y-117820000I-900000J0D01*
G01*
X87180000Y-117820000D01*
G75*
G02*
X86280000Y-116920000I0J900000D01*
G01*
X86280000Y-109720000D01*
G75*
G02*
X87180000Y-108820000I900000J0D01*
G01*
X99380000Y-108820000D01*
G75*
G02*
X100280000Y-109720000I0J-900000D01*
G01*
G37*
G04 #@! TD.AperFunction*
G04 #@! TA.AperFunction,SMDPad,CuDef*
G36*
G01*
X80080000Y-77820000D02*
X78480000Y-77820000D01*
G75*
G02*
X78280000Y-77620000I0J200000D01*
G01*
X78280000Y-75020000D01*
G75*
G02*
X78480000Y-74820000I200000J0D01*
G01*
X80080000Y-74820000D01*
G75*
G02*
X80280000Y-75020000I0J-200000D01*
G01*
X80280000Y-77620000D01*
G75*
G02*
X80080000Y-77820000I-200000J0D01*
G01*
G37*
G04 #@! TD.AperFunction*
G04 #@! TA.AperFunction,SMDPad,CuDef*
G36*
G01*
X163780000Y-187520000D02*
X163780000Y-181120000D01*
G75*
G02*
X164580000Y-180320000I800000J0D01*
G01*
X181980000Y-180320000D01*
G75*
G02*
X182780000Y-181120000I0J-800000D01*
G01*
X182780000Y-187520000D01*
G75*
G02*
X181980000Y-188320000I-800000J0D01*
G01*
X164580000Y-188320000D01*
G75*
G02*
X163780000Y-187520000I0J800000D01*
G01*
G37*
G04 #@! TD.AperFunction*
G04 #@! TA.AperFunction,SMDPad,CuDef*
G36*
G01*
X80080000Y-81820000D02*
X78480000Y-81820000D01*
G75*
G02*
X78280000Y-81620000I0J200000D01*
G01*
X78280000Y-79020000D01*
G75*
G02*
X78480000Y-78820000I200000J0D01*
G01*
X80080000Y-78820000D01*
G75*
G02*
X80280000Y-79020000I0J-200000D01*
G01*
X80280000Y-81620000D01*
G75*
G02*
X80080000Y-81820000I-200000J0D01*
G01*
G37*
G04 #@! TD.AperFunction*
G04 #@! TA.AperFunction,SMDPad,CuDef*
G36*
G01*
X107280000Y-112920000D02*
X107280000Y-117720000D01*
G75*
G02*
X106680000Y-118320000I-600000J0D01*
G01*
X101880000Y-118320000D01*
G75*
G02*
X101280000Y-117720000I0J600000D01*
G01*
X101280000Y-112920000D01*
G75*
G02*
X101880000Y-112320000I600000J0D01*
G01*
X106680000Y-112320000D01*
G75*
G02*
X107280000Y-112920000I0J-600000D01*
G01*
G37*
G04 #@! TD.AperFunction*
G04 #@! TA.AperFunction,SMDPad,CuDef*
G36*
G01*
X89780000Y-68320000D02*
X89780000Y-60320000D01*
G75*
G02*
X90780000Y-59320000I1000000J0D01*
G01*
X105780000Y-59320000D01*
G75*
G02*
X106780000Y-60320000I0J-1000000D01*
G01*
X106780000Y-68320000D01*
G75*
G02*
X105780000Y-69320000I-1000000J0D01*
G01*
X90780000Y-69320000D01*
G75*
G02*
X89780000Y-68320000I0J1000000D01*
G01*
G37*
G04 #@! TD.AperFunction*
G04 #@! TA.AperFunction,SMDPad,CuDef*
G36*
G01*
X147636397Y-236363604D02*
X147070711Y-236929290D01*
G75*
G02*
X146929289Y-236929290I-70711J70711D01*
G01*
X139646089Y-229646090D01*
G75*
G02*
X139646089Y-229504668I70711J70711D01*
G01*
X140211775Y-228938982D01*
G75*
G02*
X140353197Y-228938982I70711J-70711D01*
G01*
X147636397Y-236222182D01*
G75*
G02*
X147636397Y-236363604I-70711J-70711D01*
G01*
G37*
G04 #@! TD.AperFunction*
G04 #@! TA.AperFunction,SMDPad,CuDef*
G36*
G01*
X129280000Y-252570000D02*
X133280000Y-252570000D01*
G75*
G02*
X133780000Y-253070000I0J-500000D01*
G01*
X133780000Y-271570000D01*
G75*
G02*
X133280000Y-272070000I-500000J0D01*
G01*
X129280000Y-272070000D01*
G75*
G02*
X128780000Y-271570000I0J500000D01*
G01*
X128780000Y-253070000D01*
G75*
G02*
X129280000Y-252570000I500000J0D01*
G01*
G37*
G04 #@! TD.AperFunction*
G04 #@! TA.AperFunction,SMDPad,CuDef*
G36*
G01*
X93830000Y-157070000D02*
X88730000Y-157070000D01*
G75*
G02*
X88280000Y-156620000I0J450000D01*
G01*
X88280000Y-153020000D01*
G75*
G02*
X88730000Y-152570000I450000J0D01*
G01*
X93830000Y-152570000D01*
G75*
G02*
X94280000Y-153020000I0J-450000D01*
G01*
X94280000Y-156620000D01*
G75*
G02*
X93830000Y-157070000I-450000J0D01*
G01*
G37*
G04 #@! TD.AperFunction*
G04 #@! TA.AperFunction,SMDPad,CuDef*
G36*
G01*
X179530000Y-69820000D02*
X179530000Y-60820000D01*
G75*
G02*
X180280000Y-60070000I750000J0D01*
G01*
X186280000Y-60070000D01*
G75*
G02*
X187030000Y-60820000I0J-750000D01*
G01*
X187030000Y-69820000D01*
G75*
G02*
X186280000Y-70570000I-750000J0D01*
G01*
X180280000Y-70570000D01*
G75*
G02*
X179530000Y-69820000I0J750000D01*
G01*
G37*
G04 #@! TD.AperFunction*
G04 #@! TA.AperFunction,SMDPad,CuDef*
G36*
G01*
X87330000Y-234320000D02*
X83730000Y-234320000D01*
G75*
G02*
X83280000Y-233870000I0J450000D01*
G01*
X83280000Y-198770000D01*
G75*
G02*
X83730000Y-198320000I450000J0D01*
G01*
X87330000Y-198320000D01*
G75*
G02*
X87780000Y-198770000I0J-450000D01*
G01*
X87780000Y-233870000D01*
G75*
G02*
X87330000Y-234320000I-450000J0D01*
G01*
G37*
G04 #@! TD.AperFunction*
G04 #@! TA.AperFunction,SMDPad,CuDef*
G36*
G01*
X187280000Y-56520000D02*
X187280000Y-54120000D01*
G75*
G02*
X187580000Y-53820000I300000J0D01*
G01*
X192980000Y-53820000D01*
G75*
G02*
X193280000Y-54120000I0J-300000D01*
G01*
X193280000Y-56520000D01*
G75*
G02*
X192980000Y-56820000I-300000J0D01*
G01*
X187580000Y-56820000D01*
G75*
G02*
X187280000Y-56520000I0J300000D01*
G01*
G37*
G04 #@! TD.AperFunction*
G04 #@! TA.AperFunction,SMDPad,CuDef*
G36*
G01*
X162280000Y-257520000D02*
X162280000Y-263120000D01*
G75*
G02*
X161580000Y-263820000I-700000J0D01*
G01*
X145980000Y-263820000D01*
G75*
G02*
X145280000Y-263120000I0J700000D01*
G01*
X145280000Y-257520000D01*
G75*
G02*
X145980000Y-256820000I700000J0D01*
G01*
X161580000Y-256820000D01*
G75*
G02*
X162280000Y-257520000I0J-700000D01*
G01*
G37*
G04 #@! TD.AperFunction*
G04 #@! TA.AperFunction,SMDPad,CuDef*
G36*
G01*
X131880000Y-172320000D02*
X138680000Y-172320000D01*
G75*
G02*
X139280000Y-172920000I0J-600000D01*
G01*
X139280000Y-177720000D01*
G75*
G02*
X138680000Y-178320000I-600000J0D01*
G01*
X131880000Y-178320000D01*
G75*
G02*
X131280000Y-177720000I0J600000D01*
G01*
X131280000Y-172920000D01*
G75*
G02*
X131880000Y-172320000I600000J0D01*
G01*
G37*
G04 #@! TD.AperFunction*
G04 #@! TA.AperFunction,SMDPad,CuDef*
G36*
G01*
X93280000Y-175120000D02*
X93280000Y-177520000D01*
G75*
G02*
X92980000Y-177820000I-300000J0D01*
G01*
X87580000Y-177820000D01*
G75*
G02*
X87280000Y-177520000I0J300000D01*
G01*
X87280000Y-175120000D01*
G75*
G02*
X87580000Y-174820000I300000J0D01*
G01*
X92980000Y-174820000D01*
G75*
G02*
X93280000Y-175120000I0J-300000D01*
G01*
G37*
G04 #@! TD.AperFunction*
G04 #@! TA.AperFunction,SMDPad,CuDef*
G36*
G01*
X194730000Y-230070000D02*
X199830000Y-230070000D01*
G75*
G02*
X200280000Y-230520000I0J-450000D01*
G01*
X200280000Y-234120000D01*
G75*
G02*
X199830000Y-234570000I-450000J0D01*
G01*
X194730000Y-234570000D01*
G75*
G02*
X194280000Y-234120000I0J450000D01*
G01*
X194280000Y-230520000D01*
G75*
G02*
X194730000Y-230070000I450000J0D01*
G01*
G37*
G04 #@! TD.AperFunction*
G04 #@! TA.AperFunction,SMDPad,CuDef*
G36*
G01*
X194230000Y-96320000D02*
X199830000Y-96320000D01*
G75*
G02*
X200280000Y-96770000I0J-450000D01*
G01*
X200280000Y-100370000D01*
G75*
G02*
X199830000Y-100820000I-450000J0D01*
G01*
X194230000Y-100820000D01*
G75*
G02*
X193780000Y-100370000I0J450000D01*
G01*
X193780000Y-96770000D01*
G75*
G02*
X194230000Y-96320000I450000J0D01*
G01*
G37*
G04 #@! TD.AperFunction*
G04 #@! TA.AperFunction,SMDPad,CuDef*
G36*
G01*
X94880000Y-130820000D02*
X99680000Y-130820000D01*
G75*
G02*
X100280000Y-131420000I0J-600000D01*
G01*
X100280000Y-141220000D01*
G75*
G02*
X99680000Y-141820000I-600000J0D01*
G01*
X94880000Y-141820000D01*
G75*
G02*
X94280000Y-141220000I0J600000D01*
G01*
X94280000Y-131420000D01*
G75*
G02*
X94880000Y-130820000I600000J0D01*
G01*
G37*
G04 #@! TD.AperFunction*
G04 #@! TA.AperFunction,SMDPad,CuDef*
G36*
G01*
X117880000Y-193570000D02*
X120680000Y-193570000D01*
G75*
G02*
X121030000Y-193920000I0J-350000D01*
G01*
X121030000Y-204720000D01*
G75*
G02*
X120680000Y-205070000I-350000J0D01*
G01*
X117880000Y-205070000D01*
G75*
G02*
X117530000Y-204720000I0J350000D01*
G01*
X117530000Y-193920000D01*
G75*
G02*
X117880000Y-193570000I350000J0D01*
G01*
G37*
G04 #@! TD.AperFunction*
G04 #@! TA.AperFunction,SMDPad,CuDef*
G36*
G01*
X98880000Y-210320000D02*
X103680000Y-210320000D01*
G75*
G02*
X104280000Y-210920000I0J-600000D01*
G01*
X104280000Y-221720000D01*
G75*
G02*
X103680000Y-222320000I-600000J0D01*
G01*
X98880000Y-222320000D01*
G75*
G02*
X98280000Y-221720000I0J600000D01*
G01*
X98280000Y-210920000D01*
G75*
G02*
X98880000Y-210320000I600000J0D01*
G01*
G37*
G04 #@! TD.AperFunction*
G04 #@! TA.AperFunction,SMDPad,CuDef*
G36*
G01*
X194730000Y-225570000D02*
X199830000Y-225570000D01*
G75*
G02*
X200280000Y-226020000I0J-450000D01*
G01*
X200280000Y-229620000D01*
G75*
G02*
X199830000Y-230070000I-450000J0D01*
G01*
X194730000Y-230070000D01*
G75*
G02*
X194280000Y-229620000I0J450000D01*
G01*
X194280000Y-226020000D01*
G75*
G02*
X194730000Y-225570000I450000J0D01*
G01*
G37*
G04 #@! TD.AperFunction*
G04 #@! TA.AperFunction,SMDPad,CuDef*
G36*
G01*
X178780000Y-115320000D02*
X178780000Y-117320000D01*
G75*
G02*
X178530000Y-117570000I-250000J0D01*
G01*
X162030000Y-117570000D01*
G75*
G02*
X161780000Y-117320000I0J250000D01*
G01*
X161780000Y-115320000D01*
G75*
G02*
X162030000Y-115070000I250000J0D01*
G01*
X178530000Y-115070000D01*
G75*
G02*
X178780000Y-115320000I0J-250000D01*
G01*
G37*
G04 #@! TD.AperFunction*
G04 #@! TA.AperFunction,SMDPad,CuDef*
G36*
G01*
X89680000Y-228320000D02*
X88880000Y-228320000D01*
G75*
G02*
X88780000Y-228220000I0J100000D01*
G01*
X88780000Y-190420000D01*
G75*
G02*
X88880000Y-190320000I100000J0D01*
G01*
X89680000Y-190320000D01*
G75*
G02*
X89780000Y-190420000I0J-100000D01*
G01*
X89780000Y-228220000D01*
G75*
G02*
X89680000Y-228320000I-100000J0D01*
G01*
G37*
G04 #@! TD.AperFunction*
G04 #@! TA.AperFunction,SMDPad,CuDef*
G36*
G01*
X194730000Y-207570000D02*
X199830000Y-207570000D01*
G75*
G02*
X200280000Y-208020000I0J-450000D01*
G01*
X200280000Y-211620000D01*
G75*
G02*
X199830000Y-212070000I-450000J0D01*
G01*
X194730000Y-212070000D01*
G75*
G02*
X194280000Y-211620000I0J450000D01*
G01*
X194280000Y-208020000D01*
G75*
G02*
X194730000Y-207570000I450000J0D01*
G01*
G37*
G04 #@! TD.AperFunction*
G04 #@! TA.AperFunction,SMDPad,CuDef*
G36*
G01*
X183030000Y-29070000D02*
X183030000Y-27070000D01*
G75*
G02*
X183280000Y-26820000I250000J0D01*
G01*
X191280000Y-26820000D01*
G75*
G02*
X191530000Y-27070000I0J-250000D01*
G01*
X191530000Y-29070000D01*
G75*
G02*
X191280000Y-29320000I-250000J0D01*
G01*
X183280000Y-29320000D01*
G75*
G02*
X183030000Y-29070000I0J250000D01*
G01*
G37*
G04 #@! TD.AperFunction*
G04 #@! TA.AperFunction,SMDPad,CuDef*
G36*
G01*
X138780000Y-274320000D02*
X134780000Y-274320000D01*
G75*
G02*
X134280000Y-273820000I0J500000D01*
G01*
X134280000Y-255320000D01*
G75*
G02*
X134780000Y-254820000I500000J0D01*
G01*
X138780000Y-254820000D01*
G75*
G02*
X139280000Y-255320000I0J-500000D01*
G01*
X139280000Y-273820000D01*
G75*
G02*
X138780000Y-274320000I-500000J0D01*
G01*
G37*
G04 #@! TD.AperFunction*
G04 #@! TA.AperFunction,SMDPad,CuDef*
G36*
G01*
X83030000Y-66870000D02*
X83030000Y-61770000D01*
G75*
G02*
X83480000Y-61320000I450000J0D01*
G01*
X87080000Y-61320000D01*
G75*
G02*
X87530000Y-61770000I0J-450000D01*
G01*
X87530000Y-66870000D01*
G75*
G02*
X87080000Y-67320000I-450000J0D01*
G01*
X83480000Y-67320000D01*
G75*
G02*
X83030000Y-66870000I0J450000D01*
G01*
G37*
G04 #@! TD.AperFunction*
G04 #@! TA.AperFunction,SMDPad,CuDef*
G36*
G01*
X194730000Y-187320000D02*
X199830000Y-187320000D01*
G75*
G02*
X200280000Y-187770000I0J-450000D01*
G01*
X200280000Y-191370000D01*
G75*
G02*
X199830000Y-191820000I-450000J0D01*
G01*
X194730000Y-191820000D01*
G75*
G02*
X194280000Y-191370000I0J450000D01*
G01*
X194280000Y-187770000D01*
G75*
G02*
X194730000Y-187320000I450000J0D01*
G01*
G37*
G04 #@! TD.AperFunction*
G04 #@! TA.AperFunction,SMDPad,CuDef*
G36*
G01*
X107080000Y-122320000D02*
X82480000Y-122320000D01*
G75*
G02*
X82280000Y-122120000I0J200000D01*
G01*
X82280000Y-120520000D01*
G75*
G02*
X82480000Y-120320000I200000J0D01*
G01*
X107080000Y-120320000D01*
G75*
G02*
X107280000Y-120520000I0J-200000D01*
G01*
X107280000Y-122120000D01*
G75*
G02*
X107080000Y-122320000I-200000J0D01*
G01*
G37*
G04 #@! TD.AperFunction*
G04 #@! TA.AperFunction,SMDPad,CuDef*
G36*
G01*
X194730000Y-212070000D02*
X199830000Y-212070000D01*
G75*
G02*
X200280000Y-212520000I0J-450000D01*
G01*
X200280000Y-216120000D01*
G75*
G02*
X199830000Y-216570000I-450000J0D01*
G01*
X194730000Y-216570000D01*
G75*
G02*
X194280000Y-216120000I0J450000D01*
G01*
X194280000Y-212520000D01*
G75*
G02*
X194730000Y-212070000I450000J0D01*
G01*
G37*
G04 #@! TD.AperFunction*
G04 #@! TA.AperFunction,SMDPad,CuDef*
G36*
G01*
X194880000Y-83320000D02*
X199680000Y-83320000D01*
G75*
G02*
X200280000Y-83920000I0J-600000D01*
G01*
X200280000Y-95720000D01*
G75*
G02*
X199680000Y-96320000I-600000J0D01*
G01*
X194880000Y-96320000D01*
G75*
G02*
X194280000Y-95720000I0J600000D01*
G01*
X194280000Y-83920000D01*
G75*
G02*
X194880000Y-83320000I600000J0D01*
G01*
G37*
G04 #@! TD.AperFunction*
G04 #@! TA.AperFunction,SMDPad,CuDef*
G36*
G01*
X194730000Y-192320000D02*
X199830000Y-192320000D01*
G75*
G02*
X200280000Y-192770000I0J-450000D01*
G01*
X200280000Y-196370000D01*
G75*
G02*
X199830000Y-196820000I-450000J0D01*
G01*
X194730000Y-196820000D01*
G75*
G02*
X194280000Y-196370000I0J450000D01*
G01*
X194280000Y-192770000D01*
G75*
G02*
X194730000Y-192320000I450000J0D01*
G01*
G37*
G04 #@! TD.AperFunction*
G04 #@! TA.AperFunction,SMDPad,CuDef*
G36*
G01*
X173680000Y-238320000D02*
X168880000Y-238320000D01*
G75*
G02*
X168280000Y-237720000I0J600000D01*
G01*
X168280000Y-220920000D01*
G75*
G02*
X168880000Y-220320000I600000J0D01*
G01*
X173680000Y-220320000D01*
G75*
G02*
X174280000Y-220920000I0J-600000D01*
G01*
X174280000Y-237720000D01*
G75*
G02*
X173680000Y-238320000I-600000J0D01*
G01*
G37*
G04 #@! TD.AperFunction*
G04 #@! TA.AperFunction,SMDPad,CuDef*
G36*
G01*
X143280000Y-113520000D02*
X143280000Y-115120000D01*
G75*
G02*
X143080000Y-115320000I-200000J0D01*
G01*
X131480000Y-115320000D01*
G75*
G02*
X131280000Y-115120000I0J200000D01*
G01*
X131280000Y-113520000D01*
G75*
G02*
X131480000Y-113320000I200000J0D01*
G01*
X143080000Y-113320000D01*
G75*
G02*
X143280000Y-113520000I0J-200000D01*
G01*
G37*
G04 #@! TD.AperFunction*
G04 #@! TA.AperFunction,SMDPad,CuDef*
G36*
G01*
X194730000Y-221070000D02*
X199830000Y-221070000D01*
G75*
G02*
X200280000Y-221520000I0J-450000D01*
G01*
X200280000Y-225120000D01*
G75*
G02*
X199830000Y-225570000I-450000J0D01*
G01*
X194730000Y-225570000D01*
G75*
G02*
X194280000Y-225120000I0J450000D01*
G01*
X194280000Y-221520000D01*
G75*
G02*
X194730000Y-221070000I450000J0D01*
G01*
G37*
G04 #@! TD.AperFunction*
G04 #@! TA.AperFunction,SMDPad,CuDef*
G36*
G01*
X101830000Y-161570000D02*
X96730000Y-161570000D01*
G75*
G02*
X96280000Y-161120000I0J450000D01*
G01*
X96280000Y-157520000D01*
G75*
G02*
X96730000Y-157070000I450000J0D01*
G01*
X101830000Y-157070000D01*
G75*
G02*
X102280000Y-157520000I0J-450000D01*
G01*
X102280000Y-161120000D01*
G75*
G02*
X101830000Y-161570000I-450000J0D01*
G01*
G37*
G04 #@! TD.AperFunction*
G04 #@! TA.AperFunction,SMDPad,CuDef*
G36*
G01*
X194730000Y-202320000D02*
X199830000Y-202320000D01*
G75*
G02*
X200280000Y-202770000I0J-450000D01*
G01*
X200280000Y-206370000D01*
G75*
G02*
X199830000Y-206820000I-450000J0D01*
G01*
X194730000Y-206820000D01*
G75*
G02*
X194280000Y-206370000I0J450000D01*
G01*
X194280000Y-202770000D01*
G75*
G02*
X194730000Y-202320000I450000J0D01*
G01*
G37*
G04 #@! TD.AperFunction*
G04 #@! TA.AperFunction,SMDPad,CuDef*
G36*
G01*
X194730000Y-216570000D02*
X199830000Y-216570000D01*
G75*
G02*
X200280000Y-217020000I0J-450000D01*
G01*
X200280000Y-220620000D01*
G75*
G02*
X199830000Y-221070000I-450000J0D01*
G01*
X194730000Y-221070000D01*
G75*
G02*
X194280000Y-220620000I0J450000D01*
G01*
X194280000Y-217020000D01*
G75*
G02*
X194730000Y-216570000I450000J0D01*
G01*
G37*
G04 #@! TD.AperFunction*
G04 #@! TA.AperFunction,SMDPad,CuDef*
G36*
G01*
X175780000Y-31820000D02*
X175780000Y-26820000D01*
G75*
G02*
X176280000Y-26320000I500000J0D01*
G01*
X180280000Y-26320000D01*
G75*
G02*
X180780000Y-26820000I0J-500000D01*
G01*
X180780000Y-31820000D01*
G75*
G02*
X180280000Y-32320000I-500000J0D01*
G01*
X176280000Y-32320000D01*
G75*
G02*
X175780000Y-31820000I0J500000D01*
G01*
G37*
G04 #@! TD.AperFunction*
G04 #@! TA.AperFunction,SMDPad,CuDef*
G36*
G01*
X144300000Y-35400000D02*
X144300000Y-26600000D01*
G75*
G02*
X145400000Y-25500000I1100000J0D01*
G01*
X164700000Y-25500000D01*
G75*
G02*
X165800000Y-26600000I0J-1100000D01*
G01*
X165800000Y-35400000D01*
G75*
G02*
X164700000Y-36500000I-1100000J0D01*
G01*
X145400000Y-36500000D01*
G75*
G02*
X144300000Y-35400000I0J1100000D01*
G01*
G37*
G04 #@! TD.AperFunction*
G04 #@! TA.AperFunction,SMDPad,CuDef*
G36*
G01*
X187280000Y-66520000D02*
X187280000Y-60120000D01*
G75*
G02*
X188080000Y-59320000I800000J0D01*
G01*
X196480000Y-59320000D01*
G75*
G02*
X197280000Y-60120000I0J-800000D01*
G01*
X197280000Y-66520000D01*
G75*
G02*
X196480000Y-67320000I-800000J0D01*
G01*
X188080000Y-67320000D01*
G75*
G02*
X187280000Y-66520000I0J800000D01*
G01*
G37*
G04 #@! TD.AperFunction*
G04 #@! TA.AperFunction,SMDPad,CuDef*
G36*
G01*
X93830000Y-161570000D02*
X88730000Y-161570000D01*
G75*
G02*
X88280000Y-161120000I0J450000D01*
G01*
X88280000Y-157520000D01*
G75*
G02*
X88730000Y-157070000I450000J0D01*
G01*
X93830000Y-157070000D01*
G75*
G02*
X94280000Y-157520000I0J-450000D01*
G01*
X94280000Y-161120000D01*
G75*
G02*
X93830000Y-161570000I-450000J0D01*
G01*
G37*
G04 #@! TD.AperFunction*
G04 #@! TA.AperFunction,SMDPad,CuDef*
G36*
G01*
X161080000Y-198320000D02*
X167480000Y-198320000D01*
G75*
G02*
X168280000Y-199120000I0J-800000D01*
G01*
X168280000Y-213520000D01*
G75*
G02*
X167480000Y-214320000I-800000J0D01*
G01*
X161080000Y-214320000D01*
G75*
G02*
X160280000Y-213520000I0J800000D01*
G01*
X160280000Y-199120000D01*
G75*
G02*
X161080000Y-198320000I800000J0D01*
G01*
G37*
G04 #@! TD.AperFunction*
G04 #@! TA.AperFunction,SMDPad,CuDef*
G36*
G01*
X159280000Y-164720000D02*
X159280000Y-155920000D01*
G75*
G02*
X160380000Y-154820000I1100000J0D01*
G01*
X186180000Y-154820000D01*
G75*
G02*
X187280000Y-155920000I0J-1100000D01*
G01*
X187280000Y-164720000D01*
G75*
G02*
X186180000Y-165820000I-1100000J0D01*
G01*
X160380000Y-165820000D01*
G75*
G02*
X159280000Y-164720000I0J1100000D01*
G01*
G37*
G04 #@! TD.AperFunction*
G04 #@! TA.AperFunction,SMDPad,CuDef*
G36*
G01*
X193280000Y-236920000D02*
X193280000Y-241720000D01*
G75*
G02*
X192680000Y-242320000I-600000J0D01*
G01*
X187880000Y-242320000D01*
G75*
G02*
X187280000Y-241720000I0J600000D01*
G01*
X187280000Y-236920000D01*
G75*
G02*
X187880000Y-236320000I600000J0D01*
G01*
X192680000Y-236320000D01*
G75*
G02*
X193280000Y-236920000I0J-600000D01*
G01*
G37*
G04 #@! TD.AperFunction*
G04 #@! TA.AperFunction,SMDPad,CuDef*
G36*
G01*
X168280000Y-126920000D02*
X168280000Y-135720000D01*
G75*
G02*
X167180000Y-136820000I-1100000J0D01*
G01*
X141380000Y-136820000D01*
G75*
G02*
X140280000Y-135720000I0J1100000D01*
G01*
X140280000Y-126920000D01*
G75*
G02*
X141380000Y-125820000I1100000J0D01*
G01*
X167180000Y-125820000D01*
G75*
G02*
X168280000Y-126920000I0J-1100000D01*
G01*
G37*
G04 #@! TD.AperFunction*
G04 #@! TA.AperFunction,SMDPad,CuDef*
G36*
G01*
X129280000Y-136320000D02*
X129280000Y-126320000D01*
G75*
G02*
X130280000Y-125320000I1000000J0D01*
G01*
X138280000Y-125320000D01*
G75*
G02*
X139280000Y-126320000I0J-1000000D01*
G01*
X139280000Y-136320000D01*
G75*
G02*
X138280000Y-137320000I-1000000J0D01*
G01*
X130280000Y-137320000D01*
G75*
G02*
X129280000Y-136320000I0J1000000D01*
G01*
G37*
G04 #@! TD.AperFunction*
G04 #@! TA.AperFunction,SMDPad,CuDef*
G36*
G01*
X198580000Y-105320000D02*
X200980000Y-105320000D01*
G75*
G02*
X201280000Y-105620000I0J-300000D01*
G01*
X201280000Y-115020000D01*
G75*
G02*
X200980000Y-115320000I-300000J0D01*
G01*
X198580000Y-115320000D01*
G75*
G02*
X198280000Y-115020000I0J300000D01*
G01*
X198280000Y-105620000D01*
G75*
G02*
X198580000Y-105320000I300000J0D01*
G01*
G37*
G04 #@! TD.AperFunction*
G04 #@! TA.AperFunction,SMDPad,CuDef*
G36*
G01*
X183280000Y-181220000D02*
X183280000Y-180420000D01*
G75*
G02*
X183380000Y-180320000I100000J0D01*
G01*
X197180000Y-180320000D01*
G75*
G02*
X197280000Y-180420000I0J-100000D01*
G01*
X197280000Y-181220000D01*
G75*
G02*
X197180000Y-181320000I-100000J0D01*
G01*
X183380000Y-181320000D01*
G75*
G02*
X183280000Y-181220000I0J100000D01*
G01*
G37*
G04 #@! TD.AperFunction*
G04 #@! TA.AperFunction,SMDPad,CuDef*
G36*
G01*
X123780000Y-187520000D02*
X123780000Y-181120000D01*
G75*
G02*
X124580000Y-180320000I800000J0D01*
G01*
X141980000Y-180320000D01*
G75*
G02*
X142780000Y-181120000I0J-800000D01*
G01*
X142780000Y-187520000D01*
G75*
G02*
X141980000Y-188320000I-800000J0D01*
G01*
X124580000Y-188320000D01*
G75*
G02*
X123780000Y-187520000I0J800000D01*
G01*
G37*
G04 #@! TD.AperFunction*
G04 #@! TA.AperFunction,SMDPad,CuDef*
G36*
G01*
X138780000Y-49920000D02*
X138780000Y-56720000D01*
G75*
G02*
X137930000Y-57570000I-850000J0D01*
G01*
X126630000Y-57570000D01*
G75*
G02*
X125780000Y-56720000I0J850000D01*
G01*
X125780000Y-49920000D01*
G75*
G02*
X126630000Y-49070000I850000J0D01*
G01*
X137930000Y-49070000D01*
G75*
G02*
X138780000Y-49920000I0J-850000D01*
G01*
G37*
G04 #@! TD.AperFunction*
G04 #@! TA.AperFunction,SMDPad,CuDef*
G36*
G01*
X145280000Y-48170000D02*
X145280000Y-54470000D01*
G75*
G02*
X144680000Y-55070000I-600000J0D01*
G01*
X139880000Y-55070000D01*
G75*
G02*
X139280000Y-54470000I0J600000D01*
G01*
X139280000Y-48170000D01*
G75*
G02*
X139880000Y-47570000I600000J0D01*
G01*
X144680000Y-47570000D01*
G75*
G02*
X145280000Y-48170000I0J-600000D01*
G01*
G37*
G04 #@! TD.AperFunction*
G04 #@! TA.AperFunction,SMDPad,CuDef*
G36*
G01*
X125880000Y-237570000D02*
X128680000Y-237570000D01*
G75*
G02*
X129030000Y-237920000I0J-350000D01*
G01*
X129030000Y-248720000D01*
G75*
G02*
X128680000Y-249070000I-350000J0D01*
G01*
X125880000Y-249070000D01*
G75*
G02*
X125530000Y-248720000I0J350000D01*
G01*
X125530000Y-237920000D01*
G75*
G02*
X125880000Y-237570000I350000J0D01*
G01*
G37*
G04 #@! TD.AperFunction*
G04 #@! TA.AperFunction,SMDPad,CuDef*
G36*
G01*
X194730000Y-197320000D02*
X199830000Y-197320000D01*
G75*
G02*
X200280000Y-197770000I0J-450000D01*
G01*
X200280000Y-201370000D01*
G75*
G02*
X199830000Y-201820000I-450000J0D01*
G01*
X194730000Y-201820000D01*
G75*
G02*
X194280000Y-201370000I0J450000D01*
G01*
X194280000Y-197770000D01*
G75*
G02*
X194730000Y-197320000I450000J0D01*
G01*
G37*
G04 #@! TD.AperFunction*
G04 #@! TA.AperFunction,SMDPad,CuDef*
G36*
G01*
X178680000Y-90820000D02*
X171880000Y-90820000D01*
G75*
G02*
X171030000Y-89970000I0J850000D01*
G01*
X171030000Y-78670000D01*
G75*
G02*
X171880000Y-77820000I850000J0D01*
G01*
X178680000Y-77820000D01*
G75*
G02*
X179530000Y-78670000I0J-850000D01*
G01*
X179530000Y-89970000D01*
G75*
G02*
X178680000Y-90820000I-850000J0D01*
G01*
G37*
G04 #@! TD.AperFunction*
G04 #@! TA.AperFunction,SMDPad,CuDef*
G36*
G01*
X106680000Y-129320000D02*
X82880000Y-129320000D01*
G75*
G02*
X82280000Y-128720000I0J600000D01*
G01*
X82280000Y-123920000D01*
G75*
G02*
X82880000Y-123320000I600000J0D01*
G01*
X106680000Y-123320000D01*
G75*
G02*
X107280000Y-123920000I0J-600000D01*
G01*
X107280000Y-128720000D01*
G75*
G02*
X106680000Y-129320000I-600000J0D01*
G01*
G37*
G04 #@! TD.AperFunction*
G04 #@! TA.AperFunction,SMDPad,CuDef*
G36*
G01*
X138780000Y-111820000D02*
X138780000Y-116820000D01*
G75*
G02*
X138280000Y-117320000I-500000J0D01*
G01*
X134280000Y-117320000D01*
G75*
G02*
X133780000Y-116820000I0J500000D01*
G01*
X133780000Y-111820000D01*
G75*
G02*
X134280000Y-111320000I500000J0D01*
G01*
X138280000Y-111320000D01*
G75*
G02*
X138780000Y-111820000I0J-500000D01*
G01*
G37*
G04 #@! TD.AperFunction*
G04 #@! TA.AperFunction,SMDPad,CuDef*
G36*
G01*
X197280000Y-126920000D02*
X197280000Y-135720000D01*
G75*
G02*
X196180000Y-136820000I-1100000J0D01*
G01*
X170380000Y-136820000D01*
G75*
G02*
X169280000Y-135720000I0J1100000D01*
G01*
X169280000Y-126920000D01*
G75*
G02*
X170380000Y-125820000I1100000J0D01*
G01*
X196180000Y-125820000D01*
G75*
G02*
X197280000Y-126920000I0J-1100000D01*
G01*
G37*
G04 #@! TD.AperFunction*
G04 #@! TA.AperFunction,SMDPad,CuDef*
G36*
G01*
X162880000Y-220320000D02*
X167680000Y-220320000D01*
G75*
G02*
X168280000Y-220920000I0J-600000D01*
G01*
X168280000Y-237720000D01*
G75*
G02*
X167680000Y-238320000I-600000J0D01*
G01*
X162880000Y-238320000D01*
G75*
G02*
X162280000Y-237720000I0J600000D01*
G01*
X162280000Y-220920000D01*
G75*
G02*
X162880000Y-220320000I600000J0D01*
G01*
G37*
G04 #@! TD.AperFunction*
G04 #@! TA.AperFunction,SMDPad,CuDef*
G36*
G01*
X185280000Y-271720000D02*
X185280000Y-274920000D01*
G75*
G02*
X184880000Y-275320000I-400000J0D01*
G01*
X177680000Y-275320000D01*
G75*
G02*
X177280000Y-274920000I0J400000D01*
G01*
X177280000Y-271720000D01*
G75*
G02*
X177680000Y-271320000I400000J0D01*
G01*
X184880000Y-271320000D01*
G75*
G02*
X185280000Y-271720000I0J-400000D01*
G01*
G37*
G04 #@! TD.AperFunction*
G04 #@! TA.AperFunction,SMDPad,CuDef*
G36*
G01*
X175030000Y-66370000D02*
X175030000Y-60270000D01*
G75*
G02*
X175480000Y-59820000I450000J0D01*
G01*
X179080000Y-59820000D01*
G75*
G02*
X179530000Y-60270000I0J-450000D01*
G01*
X179530000Y-66370000D01*
G75*
G02*
X179080000Y-66820000I-450000J0D01*
G01*
X175480000Y-66820000D01*
G75*
G02*
X175030000Y-66370000I0J450000D01*
G01*
G37*
G04 #@! TD.AperFunction*
G04 #@! TA.AperFunction,SMDPad,CuDef*
G36*
G01*
X109880000Y-193570000D02*
X112680000Y-193570000D01*
G75*
G02*
X113030000Y-193920000I0J-350000D01*
G01*
X113030000Y-204720000D01*
G75*
G02*
X112680000Y-205070000I-350000J0D01*
G01*
X109880000Y-205070000D01*
G75*
G02*
X109530000Y-204720000I0J350000D01*
G01*
X109530000Y-193920000D01*
G75*
G02*
X109880000Y-193570000I350000J0D01*
G01*
G37*
G04 #@! TD.AperFunction*
G04 #@! TA.AperFunction,SMDPad,CuDef*
G36*
G01*
X173780000Y-56370000D02*
X173780000Y-52770000D01*
G75*
G02*
X174230000Y-52320000I450000J0D01*
G01*
X186330000Y-52320000D01*
G75*
G02*
X186780000Y-52770000I0J-450000D01*
G01*
X186780000Y-56370000D01*
G75*
G02*
X186330000Y-56820000I-450000J0D01*
G01*
X174230000Y-56820000D01*
G75*
G02*
X173780000Y-56370000I0J450000D01*
G01*
G37*
G04 #@! TD.AperFunction*
G04 #@! TA.AperFunction,SMDPad,CuDef*
G36*
G01*
X124530000Y-178720000D02*
X124530000Y-177920000D01*
G75*
G02*
X124630000Y-177820000I100000J0D01*
G01*
X129930000Y-177820000D01*
G75*
G02*
X130030000Y-177920000I0J-100000D01*
G01*
X130030000Y-178720000D01*
G75*
G02*
X129930000Y-178820000I-100000J0D01*
G01*
X124630000Y-178820000D01*
G75*
G02*
X124530000Y-178720000I0J100000D01*
G01*
G37*
G04 #@! TD.AperFunction*
G04 #@! TA.AperFunction,SMDPad,CuDef*
G36*
G01*
X160780000Y-115320000D02*
X160780000Y-117320000D01*
G75*
G02*
X160530000Y-117570000I-250000J0D01*
G01*
X144030000Y-117570000D01*
G75*
G02*
X143780000Y-117320000I0J250000D01*
G01*
X143780000Y-115320000D01*
G75*
G02*
X144030000Y-115070000I250000J0D01*
G01*
X160530000Y-115070000D01*
G75*
G02*
X160780000Y-115320000I0J-250000D01*
G01*
G37*
G04 #@! TD.AperFunction*
G04 #@! TA.AperFunction,SMDPad,CuDef*
G36*
G01*
X93830000Y-152570000D02*
X88730000Y-152570000D01*
G75*
G02*
X88280000Y-152120000I0J450000D01*
G01*
X88280000Y-148520000D01*
G75*
G02*
X88730000Y-148070000I450000J0D01*
G01*
X93830000Y-148070000D01*
G75*
G02*
X94280000Y-148520000I0J-450000D01*
G01*
X94280000Y-152120000D01*
G75*
G02*
X93830000Y-152570000I-450000J0D01*
G01*
G37*
G04 #@! TD.AperFunction*
G04 #@! TA.AperFunction,SMDPad,CuDef*
G36*
G01*
X105380000Y-269320000D02*
X100180000Y-269320000D01*
G75*
G02*
X99530000Y-268670000I0J650000D01*
G01*
X99530000Y-254970000D01*
G75*
G02*
X100180000Y-254320000I650000J0D01*
G01*
X105380000Y-254320000D01*
G75*
G02*
X106030000Y-254970000I0J-650000D01*
G01*
X106030000Y-268670000D01*
G75*
G02*
X105380000Y-269320000I-650000J0D01*
G01*
G37*
G04 #@! TD.AperFunction*
G04 #@! TA.AperFunction,SMDPad,CuDef*
G36*
G01*
X196780000Y-113280000D02*
X196780000Y-117360000D01*
G75*
G02*
X196270000Y-117870000I-510000J0D01*
G01*
X180290000Y-117870000D01*
G75*
G02*
X179780000Y-117360000I0J510000D01*
G01*
X179780000Y-113280000D01*
G75*
G02*
X180290000Y-112770000I510000J0D01*
G01*
X196270000Y-112770000D01*
G75*
G02*
X196780000Y-113280000I0J-510000D01*
G01*
G37*
G04 #@! TD.AperFunction*
G04 #@! TA.AperFunction,SMDPad,CuDef*
G36*
G01*
X87280000Y-146320000D02*
X83280000Y-146320000D01*
G75*
G02*
X82780000Y-145820000I0J500000D01*
G01*
X82780000Y-130820000D01*
G75*
G02*
X83280000Y-130320000I500000J0D01*
G01*
X87280000Y-130320000D01*
G75*
G02*
X87780000Y-130820000I0J-500000D01*
G01*
X87780000Y-145820000D01*
G75*
G02*
X87280000Y-146320000I-500000J0D01*
G01*
G37*
G04 #@! TD.AperFunction*
G04 #@! TA.AperFunction,SMDPad,CuDef*
G36*
G01*
X132680000Y-95320000D02*
X125880000Y-95320000D01*
G75*
G02*
X125030000Y-94470000I0J850000D01*
G01*
X125030000Y-78170000D01*
G75*
G02*
X125880000Y-77320000I850000J0D01*
G01*
X132680000Y-77320000D01*
G75*
G02*
X133530000Y-78170000I0J-850000D01*
G01*
X133530000Y-94470000D01*
G75*
G02*
X132680000Y-95320000I-850000J0D01*
G01*
G37*
G04 #@! TD.AperFunction*
G04 #@! TA.AperFunction,SMDPad,CuDef*
G36*
G01*
X197780000Y-160320000D02*
X197780000Y-170320000D01*
G75*
G02*
X196780000Y-171320000I-1000000J0D01*
G01*
X188780000Y-171320000D01*
G75*
G02*
X187780000Y-170320000I0J1000000D01*
G01*
X187780000Y-160320000D01*
G75*
G02*
X188780000Y-159320000I1000000J0D01*
G01*
X196780000Y-159320000D01*
G75*
G02*
X197780000Y-160320000I0J-1000000D01*
G01*
G37*
G04 #@! TD.AperFunction*
G04 #@! TA.AperFunction,SMDPad,CuDef*
G36*
G01*
X141280000Y-70220000D02*
X141280000Y-60420000D01*
G75*
G02*
X141880000Y-59820000I600000J0D01*
G01*
X146680000Y-59820000D01*
G75*
G02*
X147280000Y-60420000I0J-600000D01*
G01*
X147280000Y-70220000D01*
G75*
G02*
X146680000Y-70820000I-600000J0D01*
G01*
X141880000Y-70820000D01*
G75*
G02*
X141280000Y-70220000I0J600000D01*
G01*
G37*
G04 #@! TD.AperFunction*
G04 #@! TA.AperFunction,SMDPad,CuDef*
G36*
G01*
X93530000Y-34070000D02*
X87030000Y-34070000D01*
G75*
G02*
X86280000Y-33320000I0J750000D01*
G01*
X86280000Y-27320000D01*
G75*
G02*
X87030000Y-26570000I750000J0D01*
G01*
X93530000Y-26570000D01*
G75*
G02*
X94280000Y-27320000I0J-750000D01*
G01*
X94280000Y-33320000D01*
G75*
G02*
X93530000Y-34070000I-750000J0D01*
G01*
G37*
G04 #@! TD.AperFunction*
G04 #@! TA.AperFunction,SMDPad,CuDef*
G36*
G01*
X117880000Y-208570000D02*
X120680000Y-208570000D01*
G75*
G02*
X121030000Y-208920000I0J-350000D01*
G01*
X121030000Y-219720000D01*
G75*
G02*
X120680000Y-220070000I-350000J0D01*
G01*
X117880000Y-220070000D01*
G75*
G02*
X117530000Y-219720000I0J350000D01*
G01*
X117530000Y-208920000D01*
G75*
G02*
X117880000Y-208570000I350000J0D01*
G01*
G37*
G04 #@! TD.AperFunction*
G04 #@! TA.AperFunction,SMDPad,CuDef*
G36*
G01*
X101830000Y-157070000D02*
X96730000Y-157070000D01*
G75*
G02*
X96280000Y-156620000I0J450000D01*
G01*
X96280000Y-153020000D01*
G75*
G02*
X96730000Y-152570000I450000J0D01*
G01*
X101830000Y-152570000D01*
G75*
G02*
X102280000Y-153020000I0J-450000D01*
G01*
X102280000Y-156620000D01*
G75*
G02*
X101830000Y-157070000I-450000J0D01*
G01*
G37*
G04 #@! TD.AperFunction*
G04 #@! TA.AperFunction,SMDPad,CuDef*
G36*
G01*
X191280000Y-30820000D02*
X199280000Y-30820000D01*
G75*
G02*
X200280000Y-31820000I0J-1000000D01*
G01*
X200280000Y-52820000D01*
G75*
G02*
X199280000Y-53820000I-1000000J0D01*
G01*
X191280000Y-53820000D01*
G75*
G02*
X190280000Y-52820000I0J1000000D01*
G01*
X190280000Y-31820000D01*
G75*
G02*
X191280000Y-30820000I1000000J0D01*
G01*
G37*
G04 #@! TD.AperFunction*
G04 #@! TA.AperFunction,SMDPad,CuDef*
G36*
G01*
X173680000Y-214320000D02*
X168880000Y-214320000D01*
G75*
G02*
X168280000Y-213720000I0J600000D01*
G01*
X168280000Y-196920000D01*
G75*
G02*
X168880000Y-196320000I600000J0D01*
G01*
X173680000Y-196320000D01*
G75*
G02*
X174280000Y-196920000I0J-600000D01*
G01*
X174280000Y-213720000D01*
G75*
G02*
X173680000Y-214320000I-600000J0D01*
G01*
G37*
G04 #@! TD.AperFunction*
G04 #@! TA.AperFunction,SMDPad,CuDef*
G36*
G01*
X124530000Y-164770000D02*
X124530000Y-155870000D01*
G75*
G02*
X125080000Y-155320000I550000J0D01*
G01*
X129480000Y-155320000D01*
G75*
G02*
X130030000Y-155870000I0J-550000D01*
G01*
X130030000Y-164770000D01*
G75*
G02*
X129480000Y-165320000I-550000J0D01*
G01*
X125080000Y-165320000D01*
G75*
G02*
X124530000Y-164770000I0J550000D01*
G01*
G37*
G04 #@! TD.AperFunction*
G04 #@! TA.AperFunction,SMDPad,CuDef*
G36*
G01*
X178680000Y-103820000D02*
X171880000Y-103820000D01*
G75*
G02*
X171030000Y-102970000I0J850000D01*
G01*
X171030000Y-91670000D01*
G75*
G02*
X171880000Y-90820000I850000J0D01*
G01*
X178680000Y-90820000D01*
G75*
G02*
X179530000Y-91670000I0J-850000D01*
G01*
X179530000Y-102970000D01*
G75*
G02*
X178680000Y-103820000I-850000J0D01*
G01*
G37*
G04 #@! TD.AperFunction*
G04 #@! TA.AperFunction,SMDPad,CuDef*
G36*
G01*
X197280000Y-74320000D02*
X199280000Y-74320000D01*
G75*
G02*
X199530000Y-74570000I0J-250000D01*
G01*
X199530000Y-82570000D01*
G75*
G02*
X199280000Y-82820000I-250000J0D01*
G01*
X197280000Y-82820000D01*
G75*
G02*
X197030000Y-82570000I0J250000D01*
G01*
X197030000Y-74570000D01*
G75*
G02*
X197280000Y-74320000I250000J0D01*
G01*
G37*
G04 #@! TD.AperFunction*
G04 #@! TA.AperFunction,SMDPad,CuDef*
G36*
G01*
X102880000Y-254320000D02*
X99680000Y-254320000D01*
G75*
G02*
X99280000Y-253920000I0J400000D01*
G01*
X99280000Y-246720000D01*
G75*
G02*
X99680000Y-246320000I400000J0D01*
G01*
X102880000Y-246320000D01*
G75*
G02*
X103280000Y-246720000I0J-400000D01*
G01*
X103280000Y-253920000D01*
G75*
G02*
X102880000Y-254320000I-400000J0D01*
G01*
G37*
G04 #@! TD.AperFunction*
G04 #@! TA.AperFunction,SMDPad,CuDef*
G36*
G01*
X147680000Y-77820000D02*
X154880000Y-77820000D01*
G75*
G02*
X155780000Y-78720000I0J-900000D01*
G01*
X155780000Y-93920000D01*
G75*
G02*
X154880000Y-94820000I-900000J0D01*
G01*
X147680000Y-94820000D01*
G75*
G02*
X146780000Y-93920000I0J900000D01*
G01*
X146780000Y-78720000D01*
G75*
G02*
X147680000Y-77820000I900000J0D01*
G01*
G37*
G04 #@! TD.AperFunction*
G04 #@! TA.AperFunction,SMDPad,CuDef*
G36*
G01*
X138480000Y-246570000D02*
X134080000Y-246570000D01*
G75*
G02*
X133530000Y-246020000I0J550000D01*
G01*
X133530000Y-240620000D01*
G75*
G02*
X134080000Y-240070000I550000J0D01*
G01*
X138480000Y-240070000D01*
G75*
G02*
X139030000Y-240620000I0J-550000D01*
G01*
X139030000Y-246020000D01*
G75*
G02*
X138480000Y-246570000I-550000J0D01*
G01*
G37*
G04 #@! TD.AperFunction*
G04 #@! TA.AperFunction,SMDPad,CuDef*
G36*
G01*
X101830000Y-152570000D02*
X96730000Y-152570000D01*
G75*
G02*
X96280000Y-152120000I0J450000D01*
G01*
X96280000Y-148520000D01*
G75*
G02*
X96730000Y-148070000I450000J0D01*
G01*
X101830000Y-148070000D01*
G75*
G02*
X102280000Y-148520000I0J-450000D01*
G01*
X102280000Y-152120000D01*
G75*
G02*
X101830000Y-152570000I-450000J0D01*
G01*
G37*
G04 #@! TD.AperFunction*
G04 #@! TA.AperFunction,SMDPad,CuDef*
G36*
G01*
X194730000Y-182320000D02*
X199830000Y-182320000D01*
G75*
G02*
X200280000Y-182770000I0J-450000D01*
G01*
X200280000Y-186370000D01*
G75*
G02*
X199830000Y-186820000I-450000J0D01*
G01*
X194730000Y-186820000D01*
G75*
G02*
X194280000Y-186370000I0J450000D01*
G01*
X194280000Y-182770000D01*
G75*
G02*
X194730000Y-182320000I450000J0D01*
G01*
G37*
G04 #@! TD.AperFunction*
G04 #@! TA.AperFunction,SMDPad,CuDef*
G36*
G01*
X125280000Y-66120000D02*
X125280000Y-60520000D01*
G75*
G02*
X125980000Y-59820000I700000J0D01*
G01*
X132580000Y-59820000D01*
G75*
G02*
X133280000Y-60520000I0J-700000D01*
G01*
X133280000Y-66120000D01*
G75*
G02*
X132580000Y-66820000I-700000J0D01*
G01*
X125980000Y-66820000D01*
G75*
G02*
X125280000Y-66120000I0J700000D01*
G01*
G37*
G04 #@! TD.AperFunction*
G04 #@! TA.AperFunction,SMDPad,CuDef*
G36*
G01*
X176280000Y-266320000D02*
X176280000Y-274320000D01*
G75*
G02*
X175280000Y-275320000I-1000000J0D01*
G01*
X145280000Y-275320000D01*
G75*
G02*
X144280000Y-274320000I0J1000000D01*
G01*
X144280000Y-266320000D01*
G75*
G02*
X145280000Y-265320000I1000000J0D01*
G01*
X175280000Y-265320000D01*
G75*
G02*
X176280000Y-266320000I0J-1000000D01*
G01*
G37*
G04 #@! TD.AperFunction*
G04 #@! TA.AperFunction,SMDPad,CuDef*
G36*
G01*
X168250000Y-51720000D02*
X168250000Y-56920000D01*
G75*
G02*
X167600000Y-57570000I-650000J0D01*
G01*
X148400000Y-57570000D01*
G75*
G02*
X147750000Y-56920000I0J650000D01*
G01*
X147750000Y-51720000D01*
G75*
G02*
X148400000Y-51070000I650000J0D01*
G01*
X167600000Y-51070000D01*
G75*
G02*
X168250000Y-51720000I0J-650000D01*
G01*
G37*
G04 #@! TD.AperFunction*
G04 #@! TA.AperFunction,SMDPad,CuDef*
G36*
G01*
X176280000Y-256420000D02*
X176280000Y-263220000D01*
G75*
G02*
X175430000Y-264070000I-850000J0D01*
G01*
X164130000Y-264070000D01*
G75*
G02*
X163280000Y-263220000I0J850000D01*
G01*
X163280000Y-256420000D01*
G75*
G02*
X164130000Y-255570000I850000J0D01*
G01*
X175430000Y-255570000D01*
G75*
G02*
X176280000Y-256420000I0J-850000D01*
G01*
G37*
G04 #@! TD.AperFunction*
G04 #@! TA.AperFunction,SMDPad,CuDef*
G36*
G01*
X89280000Y-91120000D02*
X89280000Y-83520000D01*
G75*
G02*
X90230000Y-82570000I950000J0D01*
G01*
X106330000Y-82570000D01*
G75*
G02*
X107280000Y-83520000I0J-950000D01*
G01*
X107280000Y-91120000D01*
G75*
G02*
X106330000Y-92070000I-950000J0D01*
G01*
X90230000Y-92070000D01*
G75*
G02*
X89280000Y-91120000I0J950000D01*
G01*
G37*
G04 #@! TD.AperFunction*
G04 #@! TA.AperFunction,SMDPad,CuDef*
G36*
G01*
X109880000Y-222570000D02*
X112680000Y-222570000D01*
G75*
G02*
X113030000Y-222920000I0J-350000D01*
G01*
X113030000Y-233720000D01*
G75*
G02*
X112680000Y-234070000I-350000J0D01*
G01*
X109880000Y-234070000D01*
G75*
G02*
X109530000Y-233720000I0J350000D01*
G01*
X109530000Y-222920000D01*
G75*
G02*
X109880000Y-222570000I350000J0D01*
G01*
G37*
G04 #@! TD.AperFunction*
G04 #@! TA.AperFunction,SMDPad,CuDef*
G36*
G01*
X204080000Y-202320000D02*
X202480000Y-202320000D01*
G75*
G02*
X202280000Y-202120000I0J200000D01*
G01*
X202280000Y-199520000D01*
G75*
G02*
X202480000Y-199320000I200000J0D01*
G01*
X204080000Y-199320000D01*
G75*
G02*
X204280000Y-199520000I0J-200000D01*
G01*
X204280000Y-202120000D01*
G75*
G02*
X204080000Y-202320000I-200000J0D01*
G01*
G37*
G04 #@! TD.AperFunction*
M02*
