G04 #@! TF.GenerationSoftware,KiCad,Pcbnew,6.0.10+dfsg-1~bpo11+1*
G04 #@! TF.ProjectId,main,6d61696e-2e6b-4696-9361-645f70636258,5.0*
G04 #@! TF.SameCoordinates,Original*
G04 #@! TF.FileFunction,Paste,Top*
G04 #@! TF.FilePolarity,Positive*
%FSLAX46Y46*%
G04 Gerber Fmt 4.6, Leading zero omitted, Abs format (unit mm)*
%MOMM*%
%LPD*%
G01*
G04 APERTURE LIST*
G04 #@! TA.AperFunction,Profile*
%ADD10C,0.120000*%
G04 #@! TD*
G04 APERTURE END LIST*
D10*
X237280000Y-163320000D02*
X209280000Y-163320000D01*
X207280000Y-240320000D02*
X199280000Y-240320000D01*
X75280000Y-20320000D02*
X207280000Y-20320000D01*
X198280000Y-241320000D02*
X198280000Y-273320000D01*
X238280000Y-128320000D02*
X238280000Y-162320000D01*
X209280000Y-127320000D02*
X237280000Y-127320000D01*
X197280000Y-274320000D02*
X97280000Y-274320000D01*
X74280000Y-239320000D02*
X74280000Y-21320000D01*
X208280000Y-164320000D02*
X208280000Y-239320000D01*
X95280000Y-240320000D02*
X75280000Y-240320000D01*
X208280000Y-21320000D02*
X208280000Y-126320000D01*
X96280000Y-273320000D02*
X96280000Y-241320000D01*
X96280000Y-241320000D02*
G75*
G03*
X95280000Y-240320000I-1000000J0D01*
G01*
X209280000Y-163320000D02*
G75*
G03*
X208280000Y-164320000I0J-1000000D01*
G01*
X237280000Y-163320000D02*
G75*
G03*
X238280000Y-162320000I0J1000000D01*
G01*
X208280000Y-126320000D02*
G75*
G03*
X209280000Y-127320000I1000000J0D01*
G01*
X75280000Y-20320000D02*
G75*
G03*
X74280000Y-21320000I-1J-999999D01*
G01*
X199280000Y-240320000D02*
G75*
G03*
X198280000Y-241320000I0J-1000000D01*
G01*
X207280000Y-240320000D02*
G75*
G03*
X208280000Y-239320000I0J1000000D01*
G01*
X74280000Y-239320000D02*
G75*
G03*
X75280000Y-240320000I999999J-1D01*
G01*
X96280000Y-273320000D02*
G75*
G03*
X97280000Y-274320000I1000000J0D01*
G01*
X197280000Y-274320000D02*
G75*
G03*
X198280000Y-273320000I0J1000000D01*
G01*
X208280000Y-21320000D02*
G75*
G03*
X207280000Y-20320000I-1000000J0D01*
G01*
X238280000Y-128320000D02*
G75*
G03*
X237280000Y-127320000I-1000000J0D01*
G01*
G36*
G01*
X109000000Y-35000000D02*
X109000000Y-27000000D01*
G75*
G02*
X110000000Y-26000000I1000000J0D01*
G01*
X128000000Y-26000000D01*
G75*
G02*
X129000000Y-27000000I0J-1000000D01*
G01*
X129000000Y-35000000D01*
G75*
G02*
X128000000Y-36000000I-1000000J0D01*
G01*
X110000000Y-36000000D01*
G75*
G02*
X109000000Y-35000000I0J1000000D01*
G01*
G37*
G36*
G01*
X102800000Y-263500000D02*
X101200000Y-263500000D01*
G75*
G02*
X101000000Y-263300000I0J200000D01*
G01*
X101000000Y-260700000D01*
G75*
G02*
X101200000Y-260500000I200000J0D01*
G01*
X102800000Y-260500000D01*
G75*
G02*
X103000000Y-260700000I0J-200000D01*
G01*
X103000000Y-263300000D01*
G75*
G02*
X102800000Y-263500000I-200000J0D01*
G01*
G37*
G36*
G01*
X148550000Y-62250000D02*
X143450000Y-62250000D01*
G75*
G02*
X143000000Y-61800000I0J450000D01*
G01*
X143000000Y-58200000D01*
G75*
G02*
X143450000Y-57750000I450000J0D01*
G01*
X148550000Y-57750000D01*
G75*
G02*
X149000000Y-58200000I0J-450000D01*
G01*
X149000000Y-61800000D01*
G75*
G02*
X148550000Y-62250000I-450000J0D01*
G01*
G37*
G36*
G01*
X181500000Y-93200000D02*
X181500000Y-98800000D01*
G75*
G02*
X180800000Y-99500000I-700000J0D01*
G01*
X165200000Y-99500000D01*
G75*
G02*
X164500000Y-98800000I0J700000D01*
G01*
X164500000Y-93200000D01*
G75*
G02*
X165200000Y-92500000I700000J0D01*
G01*
X180800000Y-92500000D01*
G75*
G02*
X181500000Y-93200000I0J-700000D01*
G01*
G37*
G36*
G01*
X94400000Y-44500000D02*
X81600000Y-44500000D01*
G75*
G02*
X80000000Y-42900000I0J1600000D01*
G01*
X80000000Y-29100000D01*
G75*
G02*
X81600000Y-27500000I1600000J0D01*
G01*
X94400000Y-27500000D01*
G75*
G02*
X96000000Y-29100000I0J-1600000D01*
G01*
X96000000Y-42900000D01*
G75*
G02*
X94400000Y-44500000I-1600000J0D01*
G01*
G37*
G36*
G01*
X144000000Y-194250000D02*
X148000000Y-194250000D01*
G75*
G02*
X148500000Y-194750000I0J-500000D01*
G01*
X148500000Y-199250000D01*
G75*
G02*
X148000000Y-199750000I-500000J0D01*
G01*
X144000000Y-199750000D01*
G75*
G02*
X143500000Y-199250000I0J500000D01*
G01*
X143500000Y-194750000D01*
G75*
G02*
X144000000Y-194250000I500000J0D01*
G01*
G37*
G36*
G01*
X80000000Y-184300000D02*
X80000000Y-178700000D01*
G75*
G02*
X80700000Y-178000000I700000J0D01*
G01*
X87300000Y-178000000D01*
G75*
G02*
X88000000Y-178700000I0J-700000D01*
G01*
X88000000Y-184300000D01*
G75*
G02*
X87300000Y-185000000I-700000J0D01*
G01*
X80700000Y-185000000D01*
G75*
G02*
X80000000Y-184300000I0J700000D01*
G01*
G37*
G36*
G01*
X145500000Y-185200000D02*
X145500000Y-178800000D01*
G75*
G02*
X146300000Y-178000000I800000J0D01*
G01*
X163700000Y-178000000D01*
G75*
G02*
X164500000Y-178800000I0J-800000D01*
G01*
X164500000Y-185200000D01*
G75*
G02*
X163700000Y-186000000I-800000J0D01*
G01*
X146300000Y-186000000D01*
G75*
G02*
X145500000Y-185200000I0J800000D01*
G01*
G37*
G36*
G01*
X187600000Y-243250000D02*
X192400000Y-243250000D01*
G75*
G02*
X193000000Y-243850000I0J-600000D01*
G01*
X193000000Y-268150000D01*
G75*
G02*
X192400000Y-268750000I-600000J0D01*
G01*
X187600000Y-268750000D01*
G75*
G02*
X187000000Y-268150000I0J600000D01*
G01*
X187000000Y-243850000D01*
G75*
G02*
X187600000Y-243250000I600000J0D01*
G01*
G37*
G36*
G01*
X135000000Y-199250000D02*
X139000000Y-199250000D01*
G75*
G02*
X139500000Y-199750000I0J-500000D01*
G01*
X139500000Y-204250000D01*
G75*
G02*
X139000000Y-204750000I-500000J0D01*
G01*
X135000000Y-204750000D01*
G75*
G02*
X134500000Y-204250000I0J500000D01*
G01*
X134500000Y-199750000D01*
G75*
G02*
X135000000Y-199250000I500000J0D01*
G01*
G37*
G36*
G01*
X96600000Y-87000000D02*
X105400000Y-87000000D01*
G75*
G02*
X106500000Y-88100000I0J-1100000D01*
G01*
X106500000Y-113900000D01*
G75*
G02*
X105400000Y-115000000I-1100000J0D01*
G01*
X96600000Y-115000000D01*
G75*
G02*
X95500000Y-113900000I0J1100000D01*
G01*
X95500000Y-88100000D01*
G75*
G02*
X96600000Y-87000000I1100000J0D01*
G01*
G37*
G36*
G01*
X126000000Y-194250000D02*
X130000000Y-194250000D01*
G75*
G02*
X130500000Y-194750000I0J-500000D01*
G01*
X130500000Y-199250000D01*
G75*
G02*
X130000000Y-199750000I-500000J0D01*
G01*
X126000000Y-199750000D01*
G75*
G02*
X125500000Y-199250000I0J500000D01*
G01*
X125500000Y-194750000D01*
G75*
G02*
X126000000Y-194250000I500000J0D01*
G01*
G37*
G36*
G01*
X109600000Y-208250000D02*
X112400000Y-208250000D01*
G75*
G02*
X112750000Y-208600000I0J-350000D01*
G01*
X112750000Y-219400000D01*
G75*
G02*
X112400000Y-219750000I-350000J0D01*
G01*
X109600000Y-219750000D01*
G75*
G02*
X109250000Y-219400000I0J350000D01*
G01*
X109250000Y-208600000D01*
G75*
G02*
X109600000Y-208250000I350000J0D01*
G01*
G37*
G36*
G01*
X85400000Y-111500000D02*
X80600000Y-111500000D01*
G75*
G02*
X80000000Y-110900000I0J600000D01*
G01*
X80000000Y-77100000D01*
G75*
G02*
X80600000Y-76500000I600000J0D01*
G01*
X85400000Y-76500000D01*
G75*
G02*
X86000000Y-77100000I0J-600000D01*
G01*
X86000000Y-110900000D01*
G75*
G02*
X85400000Y-111500000I-600000J0D01*
G01*
G37*
G36*
G01*
X162250000Y-188375000D02*
X162250000Y-191625000D01*
G75*
G02*
X160625000Y-193250000I-1625000J0D01*
G01*
X157375000Y-193250000D01*
G75*
G02*
X155750000Y-191625000I0J1625000D01*
G01*
X155750000Y-188375000D01*
G75*
G02*
X157375000Y-186750000I1625000J0D01*
G01*
X160625000Y-186750000D01*
G75*
G02*
X162250000Y-188375000I0J-1625000D01*
G01*
G37*
G36*
G01*
X93250000Y-180800000D02*
X93250000Y-177200000D01*
G75*
G02*
X93700000Y-176750000I450000J0D01*
G01*
X106300000Y-176750000D01*
G75*
G02*
X106750000Y-177200000I0J-450000D01*
G01*
X106750000Y-180800000D01*
G75*
G02*
X106300000Y-181250000I-450000J0D01*
G01*
X93700000Y-181250000D01*
G75*
G02*
X93250000Y-180800000I0J450000D01*
G01*
G37*
G36*
G01*
X103750000Y-31550000D02*
X103750000Y-26450000D01*
G75*
G02*
X104200000Y-26000000I450000J0D01*
G01*
X107800000Y-26000000D01*
G75*
G02*
X108250000Y-26450000I0J-450000D01*
G01*
X108250000Y-31550000D01*
G75*
G02*
X107800000Y-32000000I-450000J0D01*
G01*
X104200000Y-32000000D01*
G75*
G02*
X103750000Y-31550000I0J450000D01*
G01*
G37*
G36*
G01*
X85400000Y-124000000D02*
X80600000Y-124000000D01*
G75*
G02*
X80000000Y-123400000I0J600000D01*
G01*
X80000000Y-118600000D01*
G75*
G02*
X80600000Y-118000000I600000J0D01*
G01*
X85400000Y-118000000D01*
G75*
G02*
X86000000Y-118600000I0J-600000D01*
G01*
X86000000Y-123400000D01*
G75*
G02*
X85400000Y-124000000I-600000J0D01*
G01*
G37*
G36*
G01*
X196000000Y-97500000D02*
X202000000Y-97500000D01*
G75*
G02*
X202750000Y-98250000I0J-750000D01*
G01*
X202750000Y-111750000D01*
G75*
G02*
X202000000Y-112500000I-750000J0D01*
G01*
X196000000Y-112500000D01*
G75*
G02*
X195250000Y-111750000I0J750000D01*
G01*
X195250000Y-98250000D01*
G75*
G02*
X196000000Y-97500000I750000J0D01*
G01*
G37*
G36*
G01*
X184000000Y-66900000D02*
X184000000Y-58100000D01*
G75*
G02*
X184600000Y-57500000I600000J0D01*
G01*
X189400000Y-57500000D01*
G75*
G02*
X190000000Y-58100000I0J-600000D01*
G01*
X190000000Y-66900000D01*
G75*
G02*
X189400000Y-67500000I-600000J0D01*
G01*
X184600000Y-67500000D01*
G75*
G02*
X184000000Y-66900000I0J600000D01*
G01*
G37*
G36*
G01*
X128200000Y-47500000D02*
X135800000Y-47500000D01*
G75*
G02*
X136500000Y-48200000I0J-700000D01*
G01*
X136500000Y-53800000D01*
G75*
G02*
X135800000Y-54500000I-700000J0D01*
G01*
X128200000Y-54500000D01*
G75*
G02*
X127500000Y-53800000I0J700000D01*
G01*
X127500000Y-48200000D01*
G75*
G02*
X128200000Y-47500000I700000J0D01*
G01*
G37*
G36*
G01*
X117600000Y-223250000D02*
X120400000Y-223250000D01*
G75*
G02*
X120750000Y-223600000I0J-350000D01*
G01*
X120750000Y-234400000D01*
G75*
G02*
X120400000Y-234750000I-350000J0D01*
G01*
X117600000Y-234750000D01*
G75*
G02*
X117250000Y-234400000I0J350000D01*
G01*
X117250000Y-223600000D01*
G75*
G02*
X117600000Y-223250000I350000J0D01*
G01*
G37*
G36*
G01*
X197000000Y-165400000D02*
X197000000Y-172600000D01*
G75*
G02*
X196100000Y-173500000I-900000J0D01*
G01*
X183900000Y-173500000D01*
G75*
G02*
X183000000Y-172600000I0J900000D01*
G01*
X183000000Y-165400000D01*
G75*
G02*
X183900000Y-164500000I900000J0D01*
G01*
X196100000Y-164500000D01*
G75*
G02*
X197000000Y-165400000I0J-900000D01*
G01*
G37*
G36*
G01*
X205300000Y-39000000D02*
X203700000Y-39000000D01*
G75*
G02*
X203500000Y-38800000I0J200000D01*
G01*
X203500000Y-36200000D01*
G75*
G02*
X203700000Y-36000000I200000J0D01*
G01*
X205300000Y-36000000D01*
G75*
G02*
X205500000Y-36200000I0J-200000D01*
G01*
X205500000Y-38800000D01*
G75*
G02*
X205300000Y-39000000I-200000J0D01*
G01*
G37*
G36*
G01*
X176375000Y-219750000D02*
X179625000Y-219750000D01*
G75*
G02*
X181250000Y-221375000I0J-1625000D01*
G01*
X181250000Y-224625000D01*
G75*
G02*
X179625000Y-226250000I-1625000J0D01*
G01*
X176375000Y-226250000D01*
G75*
G02*
X174750000Y-224625000I0J1625000D01*
G01*
X174750000Y-221375000D01*
G75*
G02*
X176375000Y-219750000I1625000J0D01*
G01*
G37*
G36*
G01*
X165500000Y-185200000D02*
X165500000Y-178800000D01*
G75*
G02*
X166300000Y-178000000I800000J0D01*
G01*
X183700000Y-178000000D01*
G75*
G02*
X184500000Y-178800000I0J-800000D01*
G01*
X184500000Y-185200000D01*
G75*
G02*
X183700000Y-186000000I-800000J0D01*
G01*
X166300000Y-186000000D01*
G75*
G02*
X165500000Y-185200000I0J800000D01*
G01*
G37*
G36*
G01*
X135000000Y-227250000D02*
X139000000Y-227250000D01*
G75*
G02*
X139500000Y-227750000I0J-500000D01*
G01*
X139500000Y-232250000D01*
G75*
G02*
X139000000Y-232750000I-500000J0D01*
G01*
X135000000Y-232750000D01*
G75*
G02*
X134500000Y-232250000I0J500000D01*
G01*
X134500000Y-227750000D01*
G75*
G02*
X135000000Y-227250000I500000J0D01*
G01*
G37*
G36*
G01*
X205300000Y-45000000D02*
X203700000Y-45000000D01*
G75*
G02*
X203500000Y-44800000I0J200000D01*
G01*
X203500000Y-42200000D01*
G75*
G02*
X203700000Y-42000000I200000J0D01*
G01*
X205300000Y-42000000D01*
G75*
G02*
X205500000Y-42200000I0J-200000D01*
G01*
X205500000Y-44800000D01*
G75*
G02*
X205300000Y-45000000I-200000J0D01*
G01*
G37*
G36*
G01*
X203000000Y-167600000D02*
X203000000Y-172400000D01*
G75*
G02*
X202400000Y-173000000I-600000J0D01*
G01*
X197600000Y-173000000D01*
G75*
G02*
X197000000Y-172400000I0J600000D01*
G01*
X197000000Y-167600000D01*
G75*
G02*
X197600000Y-167000000I600000J0D01*
G01*
X202400000Y-167000000D01*
G75*
G02*
X203000000Y-167600000I0J-600000D01*
G01*
G37*
G36*
G01*
X177500000Y-165000000D02*
X177500000Y-173000000D01*
G75*
G02*
X176500000Y-174000000I-1000000J0D01*
G01*
X161500000Y-174000000D01*
G75*
G02*
X160500000Y-173000000I0J1000000D01*
G01*
X160500000Y-165000000D01*
G75*
G02*
X161500000Y-164000000I1000000J0D01*
G01*
X176500000Y-164000000D01*
G75*
G02*
X177500000Y-165000000I0J-1000000D01*
G01*
G37*
G36*
G01*
X156625000Y-204250000D02*
X153375000Y-204250000D01*
G75*
G02*
X151750000Y-202625000I0J1625000D01*
G01*
X151750000Y-199375000D01*
G75*
G02*
X153375000Y-197750000I1625000J0D01*
G01*
X156625000Y-197750000D01*
G75*
G02*
X158250000Y-199375000I0J-1625000D01*
G01*
X158250000Y-202625000D01*
G75*
G02*
X156625000Y-204250000I-1625000J0D01*
G01*
G37*
G36*
G01*
X147636397Y-236363604D02*
X147070711Y-236929290D01*
G75*
G02*
X146929289Y-236929290I-70711J70711D01*
G01*
X139646089Y-229646090D01*
G75*
G02*
X139646089Y-229504668I70711J70711D01*
G01*
X140211775Y-228938982D01*
G75*
G02*
X140353197Y-228938982I70711J-70711D01*
G01*
X147636397Y-236222182D01*
G75*
G02*
X147636397Y-236363604I-70711J-70711D01*
G01*
G37*
G36*
G01*
X131000000Y-249250000D02*
X135000000Y-249250000D01*
G75*
G02*
X135500000Y-249750000I0J-500000D01*
G01*
X135500000Y-268250000D01*
G75*
G02*
X135000000Y-268750000I-500000J0D01*
G01*
X131000000Y-268750000D01*
G75*
G02*
X130500000Y-268250000I0J500000D01*
G01*
X130500000Y-249750000D01*
G75*
G02*
X131000000Y-249250000I500000J0D01*
G01*
G37*
G36*
G01*
X94625000Y-222250000D02*
X91375000Y-222250000D01*
G75*
G02*
X89750000Y-220625000I0J1625000D01*
G01*
X89750000Y-217375000D01*
G75*
G02*
X91375000Y-215750000I1625000J0D01*
G01*
X94625000Y-215750000D01*
G75*
G02*
X96250000Y-217375000I0J-1625000D01*
G01*
X96250000Y-220625000D01*
G75*
G02*
X94625000Y-222250000I-1625000J0D01*
G01*
G37*
G36*
G01*
X101250000Y-168450000D02*
X101250000Y-173550000D01*
G75*
G02*
X100800000Y-174000000I-450000J0D01*
G01*
X97200000Y-174000000D01*
G75*
G02*
X96750000Y-173550000I0J450000D01*
G01*
X96750000Y-168450000D01*
G75*
G02*
X97200000Y-168000000I450000J0D01*
G01*
X100800000Y-168000000D01*
G75*
G02*
X101250000Y-168450000I0J-450000D01*
G01*
G37*
G36*
G01*
X193500000Y-76250000D02*
X202500000Y-76250000D01*
G75*
G02*
X203250000Y-77000000I0J-750000D01*
G01*
X203250000Y-83000000D01*
G75*
G02*
X202500000Y-83750000I-750000J0D01*
G01*
X193500000Y-83750000D01*
G75*
G02*
X192750000Y-83000000I0J750000D01*
G01*
X192750000Y-77000000D01*
G75*
G02*
X193500000Y-76250000I750000J0D01*
G01*
G37*
G36*
G01*
X83800000Y-233000000D02*
X80200000Y-233000000D01*
G75*
G02*
X79750000Y-232550000I0J450000D01*
G01*
X79750000Y-197450000D01*
G75*
G02*
X80200000Y-197000000I450000J0D01*
G01*
X83800000Y-197000000D01*
G75*
G02*
X84250000Y-197450000I0J-450000D01*
G01*
X84250000Y-232550000D01*
G75*
G02*
X83800000Y-233000000I-450000J0D01*
G01*
G37*
G36*
G01*
X158625000Y-236250000D02*
X155375000Y-236250000D01*
G75*
G02*
X153750000Y-234625000I0J1625000D01*
G01*
X153750000Y-231375000D01*
G75*
G02*
X155375000Y-229750000I1625000J0D01*
G01*
X158625000Y-229750000D01*
G75*
G02*
X160250000Y-231375000I0J-1625000D01*
G01*
X160250000Y-234625000D01*
G75*
G02*
X158625000Y-236250000I-1625000J0D01*
G01*
G37*
G36*
G01*
X192000000Y-54700000D02*
X192000000Y-52300000D01*
G75*
G02*
X192300000Y-52000000I300000J0D01*
G01*
X197700000Y-52000000D01*
G75*
G02*
X198000000Y-52300000I0J-300000D01*
G01*
X198000000Y-54700000D01*
G75*
G02*
X197700000Y-55000000I-300000J0D01*
G01*
X192300000Y-55000000D01*
G75*
G02*
X192000000Y-54700000I0J300000D01*
G01*
G37*
G36*
G01*
X154250000Y-188375000D02*
X154250000Y-191625000D01*
G75*
G02*
X152625000Y-193250000I-1625000J0D01*
G01*
X149375000Y-193250000D01*
G75*
G02*
X147750000Y-191625000I0J1625000D01*
G01*
X147750000Y-188375000D01*
G75*
G02*
X149375000Y-186750000I1625000J0D01*
G01*
X152625000Y-186750000D01*
G75*
G02*
X154250000Y-188375000I0J-1625000D01*
G01*
G37*
G36*
G01*
X165500000Y-253200000D02*
X165500000Y-258800000D01*
G75*
G02*
X164800000Y-259500000I-700000J0D01*
G01*
X149200000Y-259500000D01*
G75*
G02*
X148500000Y-258800000I0J700000D01*
G01*
X148500000Y-253200000D01*
G75*
G02*
X149200000Y-252500000I700000J0D01*
G01*
X164800000Y-252500000D01*
G75*
G02*
X165500000Y-253200000I0J-700000D01*
G01*
G37*
G36*
G01*
X130000000Y-33400000D02*
X130000000Y-26600000D01*
G75*
G02*
X130600000Y-26000000I600000J0D01*
G01*
X135400000Y-26000000D01*
G75*
G02*
X136000000Y-26600000I0J-600000D01*
G01*
X136000000Y-33400000D01*
G75*
G02*
X135400000Y-34000000I-600000J0D01*
G01*
X130600000Y-34000000D01*
G75*
G02*
X130000000Y-33400000I0J600000D01*
G01*
G37*
G36*
G01*
X90000000Y-171800000D02*
X90000000Y-174200000D01*
G75*
G02*
X89700000Y-174500000I-300000J0D01*
G01*
X84300000Y-174500000D01*
G75*
G02*
X84000000Y-174200000I0J300000D01*
G01*
X84000000Y-171800000D01*
G75*
G02*
X84300000Y-171500000I300000J0D01*
G01*
X89700000Y-171500000D01*
G75*
G02*
X90000000Y-171800000I0J-300000D01*
G01*
G37*
G36*
G01*
X197450000Y-228750000D02*
X202550000Y-228750000D01*
G75*
G02*
X203000000Y-229200000I0J-450000D01*
G01*
X203000000Y-232800000D01*
G75*
G02*
X202550000Y-233250000I-450000J0D01*
G01*
X197450000Y-233250000D01*
G75*
G02*
X197000000Y-232800000I0J450000D01*
G01*
X197000000Y-229200000D01*
G75*
G02*
X197450000Y-228750000I450000J0D01*
G01*
G37*
G36*
G01*
X160750000Y-63800000D02*
X160750000Y-58200000D01*
G75*
G02*
X161200000Y-57750000I450000J0D01*
G01*
X164800000Y-57750000D01*
G75*
G02*
X165250000Y-58200000I0J-450000D01*
G01*
X165250000Y-63800000D01*
G75*
G02*
X164800000Y-64250000I-450000J0D01*
G01*
X161200000Y-64250000D01*
G75*
G02*
X160750000Y-63800000I0J450000D01*
G01*
G37*
G36*
G01*
X123500000Y-121400000D02*
X123500000Y-116600000D01*
G75*
G02*
X124100000Y-116000000I600000J0D01*
G01*
X133900000Y-116000000D01*
G75*
G02*
X134500000Y-116600000I0J-600000D01*
G01*
X134500000Y-121400000D01*
G75*
G02*
X133900000Y-122000000I-600000J0D01*
G01*
X124100000Y-122000000D01*
G75*
G02*
X123500000Y-121400000I0J600000D01*
G01*
G37*
G36*
G01*
X89000000Y-178800000D02*
X89000000Y-177200000D01*
G75*
G02*
X89200000Y-177000000I200000J0D01*
G01*
X91800000Y-177000000D01*
G75*
G02*
X92000000Y-177200000I0J-200000D01*
G01*
X92000000Y-178800000D01*
G75*
G02*
X91800000Y-179000000I-200000J0D01*
G01*
X89200000Y-179000000D01*
G75*
G02*
X89000000Y-178800000I0J200000D01*
G01*
G37*
G36*
G01*
X117850000Y-192250000D02*
X120650000Y-192250000D01*
G75*
G02*
X121000000Y-192600000I0J-350000D01*
G01*
X121000000Y-203400000D01*
G75*
G02*
X120650000Y-203750000I-350000J0D01*
G01*
X117850000Y-203750000D01*
G75*
G02*
X117500000Y-203400000I0J350000D01*
G01*
X117500000Y-192600000D01*
G75*
G02*
X117850000Y-192250000I350000J0D01*
G01*
G37*
G36*
G01*
X97600000Y-211000000D02*
X102400000Y-211000000D01*
G75*
G02*
X103000000Y-211600000I0J-600000D01*
G01*
X103000000Y-222400000D01*
G75*
G02*
X102400000Y-223000000I-600000J0D01*
G01*
X97600000Y-223000000D01*
G75*
G02*
X97000000Y-222400000I0J600000D01*
G01*
X97000000Y-211600000D01*
G75*
G02*
X97600000Y-211000000I600000J0D01*
G01*
G37*
G36*
G01*
X197450000Y-224250000D02*
X202550000Y-224250000D01*
G75*
G02*
X203000000Y-224700000I0J-450000D01*
G01*
X203000000Y-228300000D01*
G75*
G02*
X202550000Y-228750000I-450000J0D01*
G01*
X197450000Y-228750000D01*
G75*
G02*
X197000000Y-228300000I0J450000D01*
G01*
X197000000Y-224700000D01*
G75*
G02*
X197450000Y-224250000I450000J0D01*
G01*
G37*
G36*
G01*
X142750000Y-188375000D02*
X142750000Y-191625000D01*
G75*
G02*
X141125000Y-193250000I-1625000J0D01*
G01*
X137875000Y-193250000D01*
G75*
G02*
X136250000Y-191625000I0J1625000D01*
G01*
X136250000Y-188375000D01*
G75*
G02*
X137875000Y-186750000I1625000J0D01*
G01*
X141125000Y-186750000D01*
G75*
G02*
X142750000Y-188375000I0J-1625000D01*
G01*
G37*
G36*
G01*
X145000000Y-112500000D02*
X143000000Y-112500000D01*
G75*
G02*
X142750000Y-112250000I0J250000D01*
G01*
X142750000Y-95750000D01*
G75*
G02*
X143000000Y-95500000I250000J0D01*
G01*
X145000000Y-95500000D01*
G75*
G02*
X145250000Y-95750000I0J-250000D01*
G01*
X145250000Y-112250000D01*
G75*
G02*
X145000000Y-112500000I-250000J0D01*
G01*
G37*
G36*
G01*
X85400000Y-223000000D02*
X84600000Y-223000000D01*
G75*
G02*
X84500000Y-222900000I0J100000D01*
G01*
X84500000Y-185100000D01*
G75*
G02*
X84600000Y-185000000I100000J0D01*
G01*
X85400000Y-185000000D01*
G75*
G02*
X85500000Y-185100000I0J-100000D01*
G01*
X85500000Y-222900000D01*
G75*
G02*
X85400000Y-223000000I-100000J0D01*
G01*
G37*
G36*
G01*
X197450000Y-206250000D02*
X202550000Y-206250000D01*
G75*
G02*
X203000000Y-206700000I0J-450000D01*
G01*
X203000000Y-210300000D01*
G75*
G02*
X202550000Y-210750000I-450000J0D01*
G01*
X197450000Y-210750000D01*
G75*
G02*
X197000000Y-210300000I0J450000D01*
G01*
X197000000Y-206700000D01*
G75*
G02*
X197450000Y-206250000I450000J0D01*
G01*
G37*
G36*
G01*
X166750000Y-28000000D02*
X166750000Y-26000000D01*
G75*
G02*
X167000000Y-25750000I250000J0D01*
G01*
X175000000Y-25750000D01*
G75*
G02*
X175250000Y-26000000I0J-250000D01*
G01*
X175250000Y-28000000D01*
G75*
G02*
X175000000Y-28250000I-250000J0D01*
G01*
X167000000Y-28250000D01*
G75*
G02*
X166750000Y-28000000I0J250000D01*
G01*
G37*
G36*
G01*
X140000000Y-271000000D02*
X136000000Y-271000000D01*
G75*
G02*
X135500000Y-270500000I0J500000D01*
G01*
X135500000Y-252000000D01*
G75*
G02*
X136000000Y-251500000I500000J0D01*
G01*
X140000000Y-251500000D01*
G75*
G02*
X140500000Y-252000000I0J-500000D01*
G01*
X140500000Y-270500000D01*
G75*
G02*
X140000000Y-271000000I-500000J0D01*
G01*
G37*
G36*
G01*
X157750000Y-250125000D02*
X157750000Y-246875000D01*
G75*
G02*
X159375000Y-245250000I1625000J0D01*
G01*
X162625000Y-245250000D01*
G75*
G02*
X164250000Y-246875000I0J-1625000D01*
G01*
X164250000Y-250125000D01*
G75*
G02*
X162625000Y-251750000I-1625000J0D01*
G01*
X159375000Y-251750000D01*
G75*
G02*
X157750000Y-250125000I0J1625000D01*
G01*
G37*
G36*
G01*
X182250000Y-168450000D02*
X182250000Y-173550000D01*
G75*
G02*
X181800000Y-174000000I-450000J0D01*
G01*
X178200000Y-174000000D01*
G75*
G02*
X177750000Y-173550000I0J450000D01*
G01*
X177750000Y-168450000D01*
G75*
G02*
X178200000Y-168000000I450000J0D01*
G01*
X181800000Y-168000000D01*
G75*
G02*
X182250000Y-168450000I0J-450000D01*
G01*
G37*
G36*
G01*
X149750000Y-250125000D02*
X149750000Y-246875000D01*
G75*
G02*
X151375000Y-245250000I1625000J0D01*
G01*
X154625000Y-245250000D01*
G75*
G02*
X156250000Y-246875000I0J-1625000D01*
G01*
X156250000Y-250125000D01*
G75*
G02*
X154625000Y-251750000I-1625000J0D01*
G01*
X151375000Y-251750000D01*
G75*
G02*
X149750000Y-250125000I0J1625000D01*
G01*
G37*
G36*
G01*
X197450000Y-184250000D02*
X202550000Y-184250000D01*
G75*
G02*
X203000000Y-184700000I0J-450000D01*
G01*
X203000000Y-188300000D01*
G75*
G02*
X202550000Y-188750000I-450000J0D01*
G01*
X197450000Y-188750000D01*
G75*
G02*
X197000000Y-188300000I0J450000D01*
G01*
X197000000Y-184700000D01*
G75*
G02*
X197450000Y-184250000I450000J0D01*
G01*
G37*
G36*
G01*
X197450000Y-210750000D02*
X202550000Y-210750000D01*
G75*
G02*
X203000000Y-211200000I0J-450000D01*
G01*
X203000000Y-214800000D01*
G75*
G02*
X202550000Y-215250000I-450000J0D01*
G01*
X197450000Y-215250000D01*
G75*
G02*
X197000000Y-214800000I0J450000D01*
G01*
X197000000Y-211200000D01*
G75*
G02*
X197450000Y-210750000I450000J0D01*
G01*
G37*
G36*
G01*
X140000000Y-169000000D02*
X140000000Y-173000000D01*
G75*
G02*
X139500000Y-173500000I-500000J0D01*
G01*
X122500000Y-173500000D01*
G75*
G02*
X122000000Y-173000000I0J500000D01*
G01*
X122000000Y-169000000D01*
G75*
G02*
X122500000Y-168500000I500000J0D01*
G01*
X139500000Y-168500000D01*
G75*
G02*
X140000000Y-169000000I0J-500000D01*
G01*
G37*
G36*
G01*
X197600000Y-84500000D02*
X202400000Y-84500000D01*
G75*
G02*
X203000000Y-85100000I0J-600000D01*
G01*
X203000000Y-96900000D01*
G75*
G02*
X202400000Y-97500000I-600000J0D01*
G01*
X197600000Y-97500000D01*
G75*
G02*
X197000000Y-96900000I0J600000D01*
G01*
X197000000Y-85100000D01*
G75*
G02*
X197600000Y-84500000I600000J0D01*
G01*
G37*
G36*
G01*
X197450000Y-189750000D02*
X202550000Y-189750000D01*
G75*
G02*
X203000000Y-190200000I0J-450000D01*
G01*
X203000000Y-193800000D01*
G75*
G02*
X202550000Y-194250000I-450000J0D01*
G01*
X197450000Y-194250000D01*
G75*
G02*
X197000000Y-193800000I0J450000D01*
G01*
X197000000Y-190200000D01*
G75*
G02*
X197450000Y-189750000I450000J0D01*
G01*
G37*
G36*
G01*
X172900000Y-237000000D02*
X168100000Y-237000000D01*
G75*
G02*
X167500000Y-236400000I0J600000D01*
G01*
X167500000Y-219600000D01*
G75*
G02*
X168100000Y-219000000I600000J0D01*
G01*
X172900000Y-219000000D01*
G75*
G02*
X173500000Y-219600000I0J-600000D01*
G01*
X173500000Y-236400000D01*
G75*
G02*
X172900000Y-237000000I-600000J0D01*
G01*
G37*
G36*
G01*
X160000000Y-172200000D02*
X160000000Y-173800000D01*
G75*
G02*
X159800000Y-174000000I-200000J0D01*
G01*
X148200000Y-174000000D01*
G75*
G02*
X148000000Y-173800000I0J200000D01*
G01*
X148000000Y-172200000D01*
G75*
G02*
X148200000Y-172000000I200000J0D01*
G01*
X159800000Y-172000000D01*
G75*
G02*
X160000000Y-172200000I0J-200000D01*
G01*
G37*
G36*
G01*
X108250000Y-234375000D02*
X108250000Y-237625000D01*
G75*
G02*
X106625000Y-239250000I-1625000J0D01*
G01*
X103375000Y-239250000D01*
G75*
G02*
X101750000Y-237625000I0J1625000D01*
G01*
X101750000Y-234375000D01*
G75*
G02*
X103375000Y-232750000I1625000J0D01*
G01*
X106625000Y-232750000D01*
G75*
G02*
X108250000Y-234375000I0J-1625000D01*
G01*
G37*
G36*
G01*
X197450000Y-219750000D02*
X202550000Y-219750000D01*
G75*
G02*
X203000000Y-220200000I0J-450000D01*
G01*
X203000000Y-223800000D01*
G75*
G02*
X202550000Y-224250000I-450000J0D01*
G01*
X197450000Y-224250000D01*
G75*
G02*
X197000000Y-223800000I0J450000D01*
G01*
X197000000Y-220200000D01*
G75*
G02*
X197450000Y-219750000I450000J0D01*
G01*
G37*
G36*
G01*
X148550000Y-77250000D02*
X143450000Y-77250000D01*
G75*
G02*
X143000000Y-76800000I0J450000D01*
G01*
X143000000Y-73200000D01*
G75*
G02*
X143450000Y-72750000I450000J0D01*
G01*
X148550000Y-72750000D01*
G75*
G02*
X149000000Y-73200000I0J-450000D01*
G01*
X149000000Y-76800000D01*
G75*
G02*
X148550000Y-77250000I-450000J0D01*
G01*
G37*
G36*
G01*
X197450000Y-200750000D02*
X202550000Y-200750000D01*
G75*
G02*
X203000000Y-201200000I0J-450000D01*
G01*
X203000000Y-204800000D01*
G75*
G02*
X202550000Y-205250000I-450000J0D01*
G01*
X197450000Y-205250000D01*
G75*
G02*
X197000000Y-204800000I0J450000D01*
G01*
X197000000Y-201200000D01*
G75*
G02*
X197450000Y-200750000I450000J0D01*
G01*
G37*
G36*
G01*
X197450000Y-215250000D02*
X202550000Y-215250000D01*
G75*
G02*
X203000000Y-215700000I0J-450000D01*
G01*
X203000000Y-219300000D01*
G75*
G02*
X202550000Y-219750000I-450000J0D01*
G01*
X197450000Y-219750000D01*
G75*
G02*
X197000000Y-219300000I0J450000D01*
G01*
X197000000Y-215700000D01*
G75*
G02*
X197450000Y-215250000I450000J0D01*
G01*
G37*
G36*
G01*
X173500000Y-49500000D02*
X173500000Y-54500000D01*
G75*
G02*
X173000000Y-55000000I-500000J0D01*
G01*
X169000000Y-55000000D01*
G75*
G02*
X168500000Y-54500000I0J500000D01*
G01*
X168500000Y-49500000D01*
G75*
G02*
X169000000Y-49000000I500000J0D01*
G01*
X173000000Y-49000000D01*
G75*
G02*
X173500000Y-49500000I0J-500000D01*
G01*
G37*
G36*
G01*
X135000000Y-213250000D02*
X139000000Y-213250000D01*
G75*
G02*
X139500000Y-213750000I0J-500000D01*
G01*
X139500000Y-218250000D01*
G75*
G02*
X139000000Y-218750000I-500000J0D01*
G01*
X135000000Y-218750000D01*
G75*
G02*
X134500000Y-218250000I0J500000D01*
G01*
X134500000Y-213750000D01*
G75*
G02*
X135000000Y-213250000I500000J0D01*
G01*
G37*
G36*
G01*
X144300000Y-35400000D02*
X144300000Y-26600000D01*
G75*
G02*
X145400000Y-25500000I1100000J0D01*
G01*
X164700000Y-25500000D01*
G75*
G02*
X165800000Y-26600000I0J-1100000D01*
G01*
X165800000Y-35400000D01*
G75*
G02*
X164700000Y-36500000I-1100000J0D01*
G01*
X145400000Y-36500000D01*
G75*
G02*
X144300000Y-35400000I0J1100000D01*
G01*
G37*
G36*
G01*
X135000000Y-222250000D02*
X139000000Y-222250000D01*
G75*
G02*
X139500000Y-222750000I0J-500000D01*
G01*
X139500000Y-227250000D01*
G75*
G02*
X139000000Y-227750000I-500000J0D01*
G01*
X135000000Y-227750000D01*
G75*
G02*
X134500000Y-227250000I0J500000D01*
G01*
X134500000Y-222750000D01*
G75*
G02*
X135000000Y-222250000I500000J0D01*
G01*
G37*
G36*
G01*
X192000000Y-65200000D02*
X192000000Y-58800000D01*
G75*
G02*
X192800000Y-58000000I800000J0D01*
G01*
X201200000Y-58000000D01*
G75*
G02*
X202000000Y-58800000I0J-800000D01*
G01*
X202000000Y-65200000D01*
G75*
G02*
X201200000Y-66000000I-800000J0D01*
G01*
X192800000Y-66000000D01*
G75*
G02*
X192000000Y-65200000I0J800000D01*
G01*
G37*
G36*
G01*
X106250000Y-168450000D02*
X106250000Y-173550000D01*
G75*
G02*
X105800000Y-174000000I-450000J0D01*
G01*
X102200000Y-174000000D01*
G75*
G02*
X101750000Y-173550000I0J450000D01*
G01*
X101750000Y-168450000D01*
G75*
G02*
X102200000Y-168000000I450000J0D01*
G01*
X105800000Y-168000000D01*
G75*
G02*
X106250000Y-168450000I0J-450000D01*
G01*
G37*
G36*
G01*
X176375000Y-229750000D02*
X179625000Y-229750000D01*
G75*
G02*
X181250000Y-231375000I0J-1625000D01*
G01*
X181250000Y-234625000D01*
G75*
G02*
X179625000Y-236250000I-1625000J0D01*
G01*
X176375000Y-236250000D01*
G75*
G02*
X174750000Y-234625000I0J1625000D01*
G01*
X174750000Y-231375000D01*
G75*
G02*
X176375000Y-229750000I1625000J0D01*
G01*
G37*
G36*
G01*
X160300000Y-197000000D02*
X166700000Y-197000000D01*
G75*
G02*
X167500000Y-197800000I0J-800000D01*
G01*
X167500000Y-212200000D01*
G75*
G02*
X166700000Y-213000000I-800000J0D01*
G01*
X160300000Y-213000000D01*
G75*
G02*
X159500000Y-212200000I0J800000D01*
G01*
X159500000Y-197800000D01*
G75*
G02*
X160300000Y-197000000I800000J0D01*
G01*
G37*
G36*
G01*
X174250000Y-188375000D02*
X174250000Y-191625000D01*
G75*
G02*
X172625000Y-193250000I-1625000J0D01*
G01*
X169375000Y-193250000D01*
G75*
G02*
X167750000Y-191625000I0J1625000D01*
G01*
X167750000Y-188375000D01*
G75*
G02*
X169375000Y-186750000I1625000J0D01*
G01*
X172625000Y-186750000D01*
G75*
G02*
X174250000Y-188375000I0J-1625000D01*
G01*
G37*
G36*
G01*
X96600000Y-58000000D02*
X105400000Y-58000000D01*
G75*
G02*
X106500000Y-59100000I0J-1100000D01*
G01*
X106500000Y-84900000D01*
G75*
G02*
X105400000Y-86000000I-1100000J0D01*
G01*
X96600000Y-86000000D01*
G75*
G02*
X95500000Y-84900000I0J1100000D01*
G01*
X95500000Y-59100000D01*
G75*
G02*
X96600000Y-58000000I1100000J0D01*
G01*
G37*
G36*
G01*
X185600000Y-237000000D02*
X190400000Y-237000000D01*
G75*
G02*
X191000000Y-237600000I0J-600000D01*
G01*
X191000000Y-242400000D01*
G75*
G02*
X190400000Y-243000000I-600000J0D01*
G01*
X185600000Y-243000000D01*
G75*
G02*
X185000000Y-242400000I0J600000D01*
G01*
X185000000Y-237600000D01*
G75*
G02*
X185600000Y-237000000I600000J0D01*
G01*
G37*
G36*
G01*
X132900000Y-86000000D02*
X124100000Y-86000000D01*
G75*
G02*
X123000000Y-84900000I0J1100000D01*
G01*
X123000000Y-59100000D01*
G75*
G02*
X124100000Y-58000000I1100000J0D01*
G01*
X132900000Y-58000000D01*
G75*
G02*
X134000000Y-59100000I0J-1100000D01*
G01*
X134000000Y-84900000D01*
G75*
G02*
X132900000Y-86000000I-1100000J0D01*
G01*
G37*
G36*
G01*
X126000000Y-213250000D02*
X130000000Y-213250000D01*
G75*
G02*
X130500000Y-213750000I0J-500000D01*
G01*
X130500000Y-218250000D01*
G75*
G02*
X130000000Y-218750000I-500000J0D01*
G01*
X126000000Y-218750000D01*
G75*
G02*
X125500000Y-218250000I0J500000D01*
G01*
X125500000Y-213750000D01*
G75*
G02*
X126000000Y-213250000I500000J0D01*
G01*
G37*
G36*
G01*
X126000000Y-222250000D02*
X130000000Y-222250000D01*
G75*
G02*
X130500000Y-222750000I0J-500000D01*
G01*
X130500000Y-227250000D01*
G75*
G02*
X130000000Y-227750000I-500000J0D01*
G01*
X126000000Y-227750000D01*
G75*
G02*
X125500000Y-227250000I0J500000D01*
G01*
X125500000Y-222750000D01*
G75*
G02*
X126000000Y-222250000I500000J0D01*
G01*
G37*
G36*
G01*
X91000000Y-149000000D02*
X81000000Y-149000000D01*
G75*
G02*
X80000000Y-148000000I0J1000000D01*
G01*
X80000000Y-140000000D01*
G75*
G02*
X81000000Y-139000000I1000000J0D01*
G01*
X91000000Y-139000000D01*
G75*
G02*
X92000000Y-140000000I0J-1000000D01*
G01*
X92000000Y-148000000D01*
G75*
G02*
X91000000Y-149000000I-1000000J0D01*
G01*
G37*
G36*
G01*
X145700000Y-137000000D02*
X143300000Y-137000000D01*
G75*
G02*
X143000000Y-136700000I0J300000D01*
G01*
X143000000Y-127300000D01*
G75*
G02*
X143300000Y-127000000I300000J0D01*
G01*
X145700000Y-127000000D01*
G75*
G02*
X146000000Y-127300000I0J-300000D01*
G01*
X146000000Y-136700000D01*
G75*
G02*
X145700000Y-137000000I-300000J0D01*
G01*
G37*
G36*
G01*
X185000000Y-178150000D02*
X185000000Y-177350000D01*
G75*
G02*
X185100000Y-177250000I100000J0D01*
G01*
X198900000Y-177250000D01*
G75*
G02*
X199000000Y-177350000I0J-100000D01*
G01*
X199000000Y-178150000D01*
G75*
G02*
X198900000Y-178250000I-100000J0D01*
G01*
X185100000Y-178250000D01*
G75*
G02*
X185000000Y-178150000I0J100000D01*
G01*
G37*
G36*
G01*
X125500000Y-185200000D02*
X125500000Y-178800000D01*
G75*
G02*
X126300000Y-178000000I800000J0D01*
G01*
X143700000Y-178000000D01*
G75*
G02*
X144500000Y-178800000I0J-800000D01*
G01*
X144500000Y-185200000D01*
G75*
G02*
X143700000Y-186000000I-800000J0D01*
G01*
X126300000Y-186000000D01*
G75*
G02*
X125500000Y-185200000I0J800000D01*
G01*
G37*
G36*
G01*
X135000000Y-194250000D02*
X139000000Y-194250000D01*
G75*
G02*
X139500000Y-194750000I0J-500000D01*
G01*
X139500000Y-199250000D01*
G75*
G02*
X139000000Y-199750000I-500000J0D01*
G01*
X135000000Y-199750000D01*
G75*
G02*
X134500000Y-199250000I0J500000D01*
G01*
X134500000Y-194750000D01*
G75*
G02*
X135000000Y-194250000I500000J0D01*
G01*
G37*
G36*
G01*
X106500000Y-47600000D02*
X106500000Y-54400000D01*
G75*
G02*
X105650000Y-55250000I-850000J0D01*
G01*
X94350000Y-55250000D01*
G75*
G02*
X93500000Y-54400000I0J850000D01*
G01*
X93500000Y-47600000D01*
G75*
G02*
X94350000Y-46750000I850000J0D01*
G01*
X105650000Y-46750000D01*
G75*
G02*
X106500000Y-47600000I0J-850000D01*
G01*
G37*
G36*
G01*
X166750000Y-249125000D02*
X166750000Y-245875000D01*
G75*
G02*
X168375000Y-244250000I1625000J0D01*
G01*
X171625000Y-244250000D01*
G75*
G02*
X173250000Y-245875000I0J-1625000D01*
G01*
X173250000Y-249125000D01*
G75*
G02*
X171625000Y-250750000I-1625000J0D01*
G01*
X168375000Y-250750000D01*
G75*
G02*
X166750000Y-249125000I0J1625000D01*
G01*
G37*
G36*
G01*
X143000000Y-45850000D02*
X143000000Y-52150000D01*
G75*
G02*
X142400000Y-52750000I-600000J0D01*
G01*
X137600000Y-52750000D01*
G75*
G02*
X137000000Y-52150000I0J600000D01*
G01*
X137000000Y-45850000D01*
G75*
G02*
X137600000Y-45250000I600000J0D01*
G01*
X142400000Y-45250000D01*
G75*
G02*
X143000000Y-45850000I0J-600000D01*
G01*
G37*
G36*
G01*
X179500000Y-28000000D02*
X200500000Y-28000000D01*
G75*
G02*
X202500000Y-30000000I0J-2000000D01*
G01*
X202500000Y-46000000D01*
G75*
G02*
X200500000Y-48000000I-2000000J0D01*
G01*
X179500000Y-48000000D01*
G75*
G02*
X177500000Y-46000000I0J2000000D01*
G01*
X177500000Y-30000000D01*
G75*
G02*
X179500000Y-28000000I2000000J0D01*
G01*
G37*
G36*
G01*
X144000000Y-213250000D02*
X148000000Y-213250000D01*
G75*
G02*
X148500000Y-213750000I0J-500000D01*
G01*
X148500000Y-218250000D01*
G75*
G02*
X148000000Y-218750000I-500000J0D01*
G01*
X144000000Y-218750000D01*
G75*
G02*
X143500000Y-218250000I0J500000D01*
G01*
X143500000Y-213750000D01*
G75*
G02*
X144000000Y-213250000I500000J0D01*
G01*
G37*
G36*
G01*
X127600000Y-237250000D02*
X130400000Y-237250000D01*
G75*
G02*
X130750000Y-237600000I0J-350000D01*
G01*
X130750000Y-248400000D01*
G75*
G02*
X130400000Y-248750000I-350000J0D01*
G01*
X127600000Y-248750000D01*
G75*
G02*
X127250000Y-248400000I0J350000D01*
G01*
X127250000Y-237600000D01*
G75*
G02*
X127600000Y-237250000I350000J0D01*
G01*
G37*
G36*
G01*
X197450000Y-195250000D02*
X202550000Y-195250000D01*
G75*
G02*
X203000000Y-195700000I0J-450000D01*
G01*
X203000000Y-199300000D01*
G75*
G02*
X202550000Y-199750000I-450000J0D01*
G01*
X197450000Y-199750000D01*
G75*
G02*
X197000000Y-199300000I0J450000D01*
G01*
X197000000Y-195700000D01*
G75*
G02*
X197450000Y-195250000I450000J0D01*
G01*
G37*
G36*
G01*
X173750000Y-249125000D02*
X173750000Y-245875000D01*
G75*
G02*
X175375000Y-244250000I1625000J0D01*
G01*
X178625000Y-244250000D01*
G75*
G02*
X180250000Y-245875000I0J-1625000D01*
G01*
X180250000Y-249125000D01*
G75*
G02*
X178625000Y-250750000I-1625000J0D01*
G01*
X175375000Y-250750000D01*
G75*
G02*
X173750000Y-249125000I0J1625000D01*
G01*
G37*
G36*
G01*
X168500000Y-77600000D02*
X168500000Y-84400000D01*
G75*
G02*
X167650000Y-85250000I-850000J0D01*
G01*
X156350000Y-85250000D01*
G75*
G02*
X155500000Y-84400000I0J850000D01*
G01*
X155500000Y-77600000D01*
G75*
G02*
X156350000Y-76750000I850000J0D01*
G01*
X167650000Y-76750000D01*
G75*
G02*
X168500000Y-77600000I0J-850000D01*
G01*
G37*
G36*
G01*
X144000000Y-208250000D02*
X148000000Y-208250000D01*
G75*
G02*
X148500000Y-208750000I0J-500000D01*
G01*
X148500000Y-213250000D01*
G75*
G02*
X148000000Y-213750000I-500000J0D01*
G01*
X144000000Y-213750000D01*
G75*
G02*
X143500000Y-213250000I0J500000D01*
G01*
X143500000Y-208750000D01*
G75*
G02*
X144000000Y-208250000I500000J0D01*
G01*
G37*
G36*
G01*
X176375000Y-205750000D02*
X179625000Y-205750000D01*
G75*
G02*
X181250000Y-207375000I0J-1625000D01*
G01*
X181250000Y-210625000D01*
G75*
G02*
X179625000Y-212250000I-1625000J0D01*
G01*
X176375000Y-212250000D01*
G75*
G02*
X174750000Y-210625000I0J1625000D01*
G01*
X174750000Y-207375000D01*
G75*
G02*
X176375000Y-205750000I1625000J0D01*
G01*
G37*
G36*
G01*
X147500000Y-167500000D02*
X147500000Y-172500000D01*
G75*
G02*
X147000000Y-173000000I-500000J0D01*
G01*
X143000000Y-173000000D01*
G75*
G02*
X142500000Y-172500000I0J500000D01*
G01*
X142500000Y-167500000D01*
G75*
G02*
X143000000Y-167000000I500000J0D01*
G01*
X147000000Y-167000000D01*
G75*
G02*
X147500000Y-167500000I0J-500000D01*
G01*
G37*
G36*
G01*
X144000000Y-199250000D02*
X148000000Y-199250000D01*
G75*
G02*
X148500000Y-199750000I0J-500000D01*
G01*
X148500000Y-204250000D01*
G75*
G02*
X148000000Y-204750000I-500000J0D01*
G01*
X144000000Y-204750000D01*
G75*
G02*
X143500000Y-204250000I0J500000D01*
G01*
X143500000Y-199750000D01*
G75*
G02*
X144000000Y-199250000I500000J0D01*
G01*
G37*
G36*
G01*
X132900000Y-115000000D02*
X124100000Y-115000000D01*
G75*
G02*
X123000000Y-113900000I0J1100000D01*
G01*
X123000000Y-88100000D01*
G75*
G02*
X124100000Y-87000000I1100000J0D01*
G01*
X132900000Y-87000000D01*
G75*
G02*
X134000000Y-88100000I0J-1100000D01*
G01*
X134000000Y-113900000D01*
G75*
G02*
X132900000Y-115000000I-1100000J0D01*
G01*
G37*
G36*
G01*
X162100000Y-219000000D02*
X166900000Y-219000000D01*
G75*
G02*
X167500000Y-219600000I0J-600000D01*
G01*
X167500000Y-236400000D01*
G75*
G02*
X166900000Y-237000000I-600000J0D01*
G01*
X162100000Y-237000000D01*
G75*
G02*
X161500000Y-236400000I0J600000D01*
G01*
X161500000Y-219600000D01*
G75*
G02*
X162100000Y-219000000I600000J0D01*
G01*
G37*
G36*
G01*
X155750000Y-64050000D02*
X155750000Y-57950000D01*
G75*
G02*
X156200000Y-57500000I450000J0D01*
G01*
X159800000Y-57500000D01*
G75*
G02*
X160250000Y-57950000I0J-450000D01*
G01*
X160250000Y-64050000D01*
G75*
G02*
X159800000Y-64500000I-450000J0D01*
G01*
X156200000Y-64500000D01*
G75*
G02*
X155750000Y-64050000I0J450000D01*
G01*
G37*
G36*
G01*
X109600000Y-192250000D02*
X112400000Y-192250000D01*
G75*
G02*
X112750000Y-192600000I0J-350000D01*
G01*
X112750000Y-203400000D01*
G75*
G02*
X112400000Y-203750000I-350000J0D01*
G01*
X109600000Y-203750000D01*
G75*
G02*
X109250000Y-203400000I0J350000D01*
G01*
X109250000Y-192600000D01*
G75*
G02*
X109600000Y-192250000I350000J0D01*
G01*
G37*
G36*
G01*
X177000000Y-53800000D02*
X177000000Y-50200000D01*
G75*
G02*
X177450000Y-49750000I450000J0D01*
G01*
X189550000Y-49750000D01*
G75*
G02*
X190000000Y-50200000I0J-450000D01*
G01*
X190000000Y-53800000D01*
G75*
G02*
X189550000Y-54250000I-450000J0D01*
G01*
X177450000Y-54250000D01*
G75*
G02*
X177000000Y-53800000I0J450000D01*
G01*
G37*
G36*
G01*
X121250000Y-177400000D02*
X121250000Y-176600000D01*
G75*
G02*
X121350000Y-176500000I100000J0D01*
G01*
X126650000Y-176500000D01*
G75*
G02*
X126750000Y-176600000I0J-100000D01*
G01*
X126750000Y-177400000D01*
G75*
G02*
X126650000Y-177500000I-100000J0D01*
G01*
X121350000Y-177500000D01*
G75*
G02*
X121250000Y-177400000I0J100000D01*
G01*
G37*
G36*
G01*
X145000000Y-94500000D02*
X143000000Y-94500000D01*
G75*
G02*
X142750000Y-94250000I0J250000D01*
G01*
X142750000Y-77750000D01*
G75*
G02*
X143000000Y-77500000I250000J0D01*
G01*
X145000000Y-77500000D01*
G75*
G02*
X145250000Y-77750000I0J-250000D01*
G01*
X145250000Y-94250000D01*
G75*
G02*
X145000000Y-94500000I-250000J0D01*
G01*
G37*
G36*
G01*
X96250000Y-168450000D02*
X96250000Y-173550000D01*
G75*
G02*
X95800000Y-174000000I-450000J0D01*
G01*
X92200000Y-174000000D01*
G75*
G02*
X91750000Y-173550000I0J450000D01*
G01*
X91750000Y-168450000D01*
G75*
G02*
X92200000Y-168000000I450000J0D01*
G01*
X95800000Y-168000000D01*
G75*
G02*
X96250000Y-168450000I0J-450000D01*
G01*
G37*
G36*
G01*
X107850000Y-259000000D02*
X102650000Y-259000000D01*
G75*
G02*
X102000000Y-258350000I0J650000D01*
G01*
X102000000Y-244650000D01*
G75*
G02*
X102650000Y-244000000I650000J0D01*
G01*
X107850000Y-244000000D01*
G75*
G02*
X108500000Y-244650000I0J-650000D01*
G01*
X108500000Y-258350000D01*
G75*
G02*
X107850000Y-259000000I-650000J0D01*
G01*
G37*
G36*
G01*
X166500000Y-62040000D02*
X166500000Y-57960000D01*
G75*
G02*
X167010000Y-57450000I510000J0D01*
G01*
X182990000Y-57450000D01*
G75*
G02*
X183500000Y-57960000I0J-510000D01*
G01*
X183500000Y-62040000D01*
G75*
G02*
X182990000Y-62550000I-510000J0D01*
G01*
X167010000Y-62550000D01*
G75*
G02*
X166500000Y-62040000I0J510000D01*
G01*
G37*
G36*
G01*
X84500000Y-74000000D02*
X80500000Y-74000000D01*
G75*
G02*
X80000000Y-73500000I0J500000D01*
G01*
X80000000Y-58500000D01*
G75*
G02*
X80500000Y-58000000I500000J0D01*
G01*
X84500000Y-58000000D01*
G75*
G02*
X85000000Y-58500000I0J-500000D01*
G01*
X85000000Y-73500000D01*
G75*
G02*
X84500000Y-74000000I-500000J0D01*
G01*
G37*
G36*
G01*
X183000000Y-126100000D02*
X183000000Y-132900000D01*
G75*
G02*
X182150000Y-133750000I-850000J0D01*
G01*
X165850000Y-133750000D01*
G75*
G02*
X165000000Y-132900000I0J850000D01*
G01*
X165000000Y-126100000D01*
G75*
G02*
X165850000Y-125250000I850000J0D01*
G01*
X182150000Y-125250000D01*
G75*
G02*
X183000000Y-126100000I0J-850000D01*
G01*
G37*
G36*
G01*
X91000000Y-160000000D02*
X81000000Y-160000000D01*
G75*
G02*
X80000000Y-159000000I0J1000000D01*
G01*
X80000000Y-151000000D01*
G75*
G02*
X81000000Y-150000000I1000000J0D01*
G01*
X91000000Y-150000000D01*
G75*
G02*
X92000000Y-151000000I0J-1000000D01*
G01*
X92000000Y-159000000D01*
G75*
G02*
X91000000Y-160000000I-1000000J0D01*
G01*
G37*
G36*
G01*
X148000000Y-137900000D02*
X148000000Y-128100000D01*
G75*
G02*
X148600000Y-127500000I600000J0D01*
G01*
X153400000Y-127500000D01*
G75*
G02*
X154000000Y-128100000I0J-600000D01*
G01*
X154000000Y-137900000D01*
G75*
G02*
X153400000Y-138500000I-600000J0D01*
G01*
X148600000Y-138500000D01*
G75*
G02*
X148000000Y-137900000I0J600000D01*
G01*
G37*
G36*
G01*
X136250000Y-35250000D02*
X136250000Y-28750000D01*
G75*
G02*
X137000000Y-28000000I750000J0D01*
G01*
X143000000Y-28000000D01*
G75*
G02*
X143750000Y-28750000I0J-750000D01*
G01*
X143750000Y-35250000D01*
G75*
G02*
X143000000Y-36000000I-750000J0D01*
G01*
X137000000Y-36000000D01*
G75*
G02*
X136250000Y-35250000I0J750000D01*
G01*
G37*
G36*
G01*
X144000000Y-227250000D02*
X148000000Y-227250000D01*
G75*
G02*
X148500000Y-227750000I0J-500000D01*
G01*
X148500000Y-232250000D01*
G75*
G02*
X148000000Y-232750000I-500000J0D01*
G01*
X144000000Y-232750000D01*
G75*
G02*
X143500000Y-232250000I0J500000D01*
G01*
X143500000Y-227750000D01*
G75*
G02*
X144000000Y-227250000I500000J0D01*
G01*
G37*
G36*
G01*
X176375000Y-195750000D02*
X179625000Y-195750000D01*
G75*
G02*
X181250000Y-197375000I0J-1625000D01*
G01*
X181250000Y-200625000D01*
G75*
G02*
X179625000Y-202250000I-1625000J0D01*
G01*
X176375000Y-202250000D01*
G75*
G02*
X174750000Y-200625000I0J1625000D01*
G01*
X174750000Y-197375000D01*
G75*
G02*
X176375000Y-195750000I1625000J0D01*
G01*
G37*
G36*
G01*
X117600000Y-208250000D02*
X120400000Y-208250000D01*
G75*
G02*
X120750000Y-208600000I0J-350000D01*
G01*
X120750000Y-219400000D01*
G75*
G02*
X120400000Y-219750000I-350000J0D01*
G01*
X117600000Y-219750000D01*
G75*
G02*
X117250000Y-219400000I0J350000D01*
G01*
X117250000Y-208600000D01*
G75*
G02*
X117600000Y-208250000I350000J0D01*
G01*
G37*
G36*
G01*
X158625000Y-226250000D02*
X155375000Y-226250000D01*
G75*
G02*
X153750000Y-224625000I0J1625000D01*
G01*
X153750000Y-221375000D01*
G75*
G02*
X155375000Y-219750000I1625000J0D01*
G01*
X158625000Y-219750000D01*
G75*
G02*
X160250000Y-221375000I0J-1625000D01*
G01*
X160250000Y-224625000D01*
G75*
G02*
X158625000Y-226250000I-1625000J0D01*
G01*
G37*
G36*
G01*
X148550000Y-72250000D02*
X143450000Y-72250000D01*
G75*
G02*
X143000000Y-71800000I0J450000D01*
G01*
X143000000Y-68200000D01*
G75*
G02*
X143450000Y-67750000I450000J0D01*
G01*
X148550000Y-67750000D01*
G75*
G02*
X149000000Y-68200000I0J-450000D01*
G01*
X149000000Y-71800000D01*
G75*
G02*
X148550000Y-72250000I-450000J0D01*
G01*
G37*
G36*
G01*
X179000000Y-38000000D02*
X179000000Y-30000000D01*
G75*
G02*
X180000000Y-29000000I1000000J0D01*
G01*
X201000000Y-29000000D01*
G75*
G02*
X202000000Y-30000000I0J-1000000D01*
G01*
X202000000Y-38000000D01*
G75*
G02*
X201000000Y-39000000I-1000000J0D01*
G01*
X180000000Y-39000000D01*
G75*
G02*
X179000000Y-38000000I0J1000000D01*
G01*
G37*
G36*
G01*
X172900000Y-213000000D02*
X168100000Y-213000000D01*
G75*
G02*
X167500000Y-212400000I0J600000D01*
G01*
X167500000Y-195600000D01*
G75*
G02*
X168100000Y-195000000I600000J0D01*
G01*
X172900000Y-195000000D01*
G75*
G02*
X173500000Y-195600000I0J-600000D01*
G01*
X173500000Y-212400000D01*
G75*
G02*
X172900000Y-213000000I-600000J0D01*
G01*
G37*
G36*
G01*
X126000000Y-199250000D02*
X130000000Y-199250000D01*
G75*
G02*
X130500000Y-199750000I0J-500000D01*
G01*
X130500000Y-204250000D01*
G75*
G02*
X130000000Y-204750000I-500000J0D01*
G01*
X126000000Y-204750000D01*
G75*
G02*
X125500000Y-204250000I0J500000D01*
G01*
X125500000Y-199750000D01*
G75*
G02*
X126000000Y-199250000I500000J0D01*
G01*
G37*
G36*
G01*
X89450000Y-130750000D02*
X80550000Y-130750000D01*
G75*
G02*
X80000000Y-130200000I0J550000D01*
G01*
X80000000Y-125800000D01*
G75*
G02*
X80550000Y-125250000I550000J0D01*
G01*
X89450000Y-125250000D01*
G75*
G02*
X90000000Y-125800000I0J-550000D01*
G01*
X90000000Y-130200000D01*
G75*
G02*
X89450000Y-130750000I-550000J0D01*
G01*
G37*
G36*
G01*
X181500000Y-77600000D02*
X181500000Y-84400000D01*
G75*
G02*
X180650000Y-85250000I-850000J0D01*
G01*
X169350000Y-85250000D01*
G75*
G02*
X168500000Y-84400000I0J850000D01*
G01*
X168500000Y-77600000D01*
G75*
G02*
X169350000Y-76750000I850000J0D01*
G01*
X180650000Y-76750000D01*
G75*
G02*
X181500000Y-77600000I0J-850000D01*
G01*
G37*
G36*
G01*
X200500000Y-117750000D02*
X202500000Y-117750000D01*
G75*
G02*
X202750000Y-118000000I0J-250000D01*
G01*
X202750000Y-126000000D01*
G75*
G02*
X202500000Y-126250000I-250000J0D01*
G01*
X200500000Y-126250000D01*
G75*
G02*
X200250000Y-126000000I0J250000D01*
G01*
X200250000Y-118000000D01*
G75*
G02*
X200500000Y-117750000I250000J0D01*
G01*
G37*
G36*
G01*
X164500000Y-107600000D02*
X164500000Y-100400000D01*
G75*
G02*
X165400000Y-99500000I900000J0D01*
G01*
X180600000Y-99500000D01*
G75*
G02*
X181500000Y-100400000I0J-900000D01*
G01*
X181500000Y-107600000D01*
G75*
G02*
X180600000Y-108500000I-900000J0D01*
G01*
X165400000Y-108500000D01*
G75*
G02*
X164500000Y-107600000I0J900000D01*
G01*
G37*
G36*
G01*
X140950000Y-244000000D02*
X136550000Y-244000000D01*
G75*
G02*
X136000000Y-243450000I0J550000D01*
G01*
X136000000Y-238050000D01*
G75*
G02*
X136550000Y-237500000I550000J0D01*
G01*
X140950000Y-237500000D01*
G75*
G02*
X141500000Y-238050000I0J-550000D01*
G01*
X141500000Y-243450000D01*
G75*
G02*
X140950000Y-244000000I-550000J0D01*
G01*
G37*
G36*
G01*
X148550000Y-67250000D02*
X143450000Y-67250000D01*
G75*
G02*
X143000000Y-66800000I0J450000D01*
G01*
X143000000Y-63200000D01*
G75*
G02*
X143450000Y-62750000I450000J0D01*
G01*
X148550000Y-62750000D01*
G75*
G02*
X149000000Y-63200000I0J-450000D01*
G01*
X149000000Y-66800000D01*
G75*
G02*
X148550000Y-67250000I-450000J0D01*
G01*
G37*
G36*
G01*
X197450000Y-178750000D02*
X202550000Y-178750000D01*
G75*
G02*
X203000000Y-179200000I0J-450000D01*
G01*
X203000000Y-182800000D01*
G75*
G02*
X202550000Y-183250000I-450000J0D01*
G01*
X197450000Y-183250000D01*
G75*
G02*
X197000000Y-182800000I0J450000D01*
G01*
X197000000Y-179200000D01*
G75*
G02*
X197450000Y-178750000I450000J0D01*
G01*
G37*
G36*
G01*
X135000000Y-208250000D02*
X139000000Y-208250000D01*
G75*
G02*
X139500000Y-208750000I0J-500000D01*
G01*
X139500000Y-213250000D01*
G75*
G02*
X139000000Y-213750000I-500000J0D01*
G01*
X135000000Y-213750000D01*
G75*
G02*
X134500000Y-213250000I0J500000D01*
G01*
X134500000Y-208750000D01*
G75*
G02*
X135000000Y-208250000I500000J0D01*
G01*
G37*
G36*
G01*
X149300000Y-126000000D02*
X143700000Y-126000000D01*
G75*
G02*
X143000000Y-125300000I0J700000D01*
G01*
X143000000Y-118700000D01*
G75*
G02*
X143700000Y-118000000I700000J0D01*
G01*
X149300000Y-118000000D01*
G75*
G02*
X150000000Y-118700000I0J-700000D01*
G01*
X150000000Y-125300000D01*
G75*
G02*
X149300000Y-126000000I-700000J0D01*
G01*
G37*
G36*
G01*
X179500000Y-262000000D02*
X179500000Y-270000000D01*
G75*
G02*
X178500000Y-271000000I-1000000J0D01*
G01*
X148500000Y-271000000D01*
G75*
G02*
X147500000Y-270000000I0J1000000D01*
G01*
X147500000Y-262000000D01*
G75*
G02*
X148500000Y-261000000I1000000J0D01*
G01*
X178500000Y-261000000D01*
G75*
G02*
X179500000Y-262000000I0J-1000000D01*
G01*
G37*
G36*
G01*
X164250000Y-49150000D02*
X164250000Y-54350000D01*
G75*
G02*
X163600000Y-55000000I-650000J0D01*
G01*
X144400000Y-55000000D01*
G75*
G02*
X143750000Y-54350000I0J650000D01*
G01*
X143750000Y-49150000D01*
G75*
G02*
X144400000Y-48500000I650000J0D01*
G01*
X163600000Y-48500000D01*
G75*
G02*
X164250000Y-49150000I0J-650000D01*
G01*
G37*
G36*
G01*
X182250000Y-188375000D02*
X182250000Y-191625000D01*
G75*
G02*
X180625000Y-193250000I-1625000J0D01*
G01*
X177375000Y-193250000D01*
G75*
G02*
X175750000Y-191625000I0J1625000D01*
G01*
X175750000Y-188375000D01*
G75*
G02*
X177375000Y-186750000I1625000J0D01*
G01*
X180625000Y-186750000D01*
G75*
G02*
X182250000Y-188375000I0J-1625000D01*
G01*
G37*
G36*
G01*
X179500000Y-252100000D02*
X179500000Y-258900000D01*
G75*
G02*
X178650000Y-259750000I-850000J0D01*
G01*
X167350000Y-259750000D01*
G75*
G02*
X166500000Y-258900000I0J850000D01*
G01*
X166500000Y-252100000D01*
G75*
G02*
X167350000Y-251250000I850000J0D01*
G01*
X178650000Y-251250000D01*
G75*
G02*
X179500000Y-252100000I0J-850000D01*
G01*
G37*
G36*
G01*
X126000000Y-208250000D02*
X130000000Y-208250000D01*
G75*
G02*
X130500000Y-208750000I0J-500000D01*
G01*
X130500000Y-213250000D01*
G75*
G02*
X130000000Y-213750000I-500000J0D01*
G01*
X126000000Y-213750000D01*
G75*
G02*
X125500000Y-213250000I0J500000D01*
G01*
X125500000Y-208750000D01*
G75*
G02*
X126000000Y-208250000I500000J0D01*
G01*
G37*
G36*
G01*
X165000000Y-142800000D02*
X165000000Y-135200000D01*
G75*
G02*
X165950000Y-134250000I950000J0D01*
G01*
X182050000Y-134250000D01*
G75*
G02*
X183000000Y-135200000I0J-950000D01*
G01*
X183000000Y-142800000D01*
G75*
G02*
X182050000Y-143750000I-950000J0D01*
G01*
X165950000Y-143750000D01*
G75*
G02*
X165000000Y-142800000I0J950000D01*
G01*
G37*
G36*
G01*
X144000000Y-222250000D02*
X148000000Y-222250000D01*
G75*
G02*
X148500000Y-222750000I0J-500000D01*
G01*
X148500000Y-227250000D01*
G75*
G02*
X148000000Y-227750000I-500000J0D01*
G01*
X144000000Y-227750000D01*
G75*
G02*
X143500000Y-227250000I0J500000D01*
G01*
X143500000Y-222750000D01*
G75*
G02*
X144000000Y-222250000I500000J0D01*
G01*
G37*
G36*
G01*
X156625000Y-212250000D02*
X153375000Y-212250000D01*
G75*
G02*
X151750000Y-210625000I0J1625000D01*
G01*
X151750000Y-207375000D01*
G75*
G02*
X153375000Y-205750000I1625000J0D01*
G01*
X156625000Y-205750000D01*
G75*
G02*
X158250000Y-207375000I0J-1625000D01*
G01*
X158250000Y-210625000D01*
G75*
G02*
X156625000Y-212250000I-1625000J0D01*
G01*
G37*
G36*
G01*
X117600000Y-177250000D02*
X120400000Y-177250000D01*
G75*
G02*
X120750000Y-177600000I0J-350000D01*
G01*
X120750000Y-188400000D01*
G75*
G02*
X120400000Y-188750000I-350000J0D01*
G01*
X117600000Y-188750000D01*
G75*
G02*
X117250000Y-188400000I0J350000D01*
G01*
X117250000Y-177600000D01*
G75*
G02*
X117600000Y-177250000I350000J0D01*
G01*
G37*
G36*
G01*
X205300000Y-187500000D02*
X203700000Y-187500000D01*
G75*
G02*
X203500000Y-187300000I0J200000D01*
G01*
X203500000Y-184700000D01*
G75*
G02*
X203700000Y-184500000I200000J0D01*
G01*
X205300000Y-184500000D01*
G75*
G02*
X205500000Y-184700000I0J-200000D01*
G01*
X205500000Y-187300000D01*
G75*
G02*
X205300000Y-187500000I-200000J0D01*
G01*
G37*
G36*
G01*
X126000000Y-227250000D02*
X130000000Y-227250000D01*
G75*
G02*
X130500000Y-227750000I0J-500000D01*
G01*
X130500000Y-232250000D01*
G75*
G02*
X130000000Y-232750000I-500000J0D01*
G01*
X126000000Y-232750000D01*
G75*
G02*
X125500000Y-232250000I0J500000D01*
G01*
X125500000Y-227750000D01*
G75*
G02*
X126000000Y-227250000I500000J0D01*
G01*
G37*
M02*
