G04 #@! TF.GenerationSoftware,KiCad,Pcbnew,6.0.10+dfsg-1~bpo11+1*
G04 #@! TF.ProjectId,main,6d61696e-2e6b-4696-9361-645f70636258,5.0*
G04 #@! TF.SameCoordinates,Original*
G04 #@! TF.FileFunction,Profile,NP*
%FSLAX46Y46*%
G04 Gerber Fmt 4.6, Leading zero omitted, Abs format (unit mm)*
%MOMM*%
%LPD*%
G01*
G04 APERTURE LIST*
G04 #@! TA.AperFunction,Profile*
%ADD10C,0.120000*%
G04 #@! TD*
G04 APERTURE END LIST*
D10*
X198280000Y-245320000D02*
X198280000Y-276320000D01*
X236280000Y-131320000D02*
X236280000Y-164320000D01*
X76280000Y-241320000D02*
X76280000Y-21320000D01*
X94280000Y-276320000D02*
X94280000Y-243320000D01*
X197280000Y-277320000D02*
X95280000Y-277320000D01*
X206280000Y-21320000D02*
X206280000Y-129320000D01*
X206280000Y-166320000D02*
X206280000Y-243320000D01*
X235280000Y-165320000D02*
X207280000Y-165320000D01*
X77280000Y-20320000D02*
X205280000Y-20320000D01*
X205280000Y-244320000D02*
X199280000Y-244320000D01*
X207280000Y-130320000D02*
X235280000Y-130320000D01*
X93280000Y-242320000D02*
X77280000Y-242320000D01*
X76280000Y-241320000D02*
G75*
G03*
X77280000Y-242320000I999999J-1D01*
G01*
X206280000Y-21320000D02*
G75*
G03*
X205280000Y-20320000I-1000000J0D01*
G01*
X207280000Y-165320000D02*
G75*
G03*
X206280000Y-166320000I0J-1000000D01*
G01*
X94280000Y-243320000D02*
G75*
G03*
X93280000Y-242320000I-1000000J0D01*
G01*
X94280000Y-276320000D02*
G75*
G03*
X95280000Y-277320000I1000000J0D01*
G01*
X199280000Y-244320000D02*
G75*
G03*
X198280000Y-245320000I0J-1000000D01*
G01*
X77280000Y-20320000D02*
G75*
G03*
X76280000Y-21320000I-1J-999999D01*
G01*
X235280000Y-165320000D02*
G75*
G03*
X236280000Y-164320000I0J1000000D01*
G01*
X197280000Y-277320000D02*
G75*
G03*
X198280000Y-276320000I0J1000000D01*
G01*
X206280000Y-129320000D02*
G75*
G03*
X207280000Y-130320000I1000000J0D01*
G01*
X205280000Y-244320000D02*
G75*
G03*
X206280000Y-243320000I0J1000000D01*
G01*
X236280000Y-131320000D02*
G75*
G03*
X235280000Y-130320000I-1000000J0D01*
G01*
M02*
