G04 #@! TF.GenerationSoftware,KiCad,Pcbnew,6.0.10+dfsg-1~bpo11+1*
G04 #@! TF.ProjectId,main,6d61696e-2e6b-4696-9361-645f70636258,5.0*
G04 #@! TF.SameCoordinates,Original*
G04 #@! TF.FileFunction,Soldermask,Bot*
G04 #@! TF.FilePolarity,Negative*
%FSLAX46Y46*%
G04 Gerber Fmt 4.6, Leading zero omitted, Abs format (unit mm)*
%MOMM*%
%LPD*%
G01*
G04 APERTURE LIST*
G04 #@! TA.AperFunction,Profile*
%ADD10C,0.120000*%
G04 #@! TD*
G04 APERTURE END LIST*
D10*
X94280000Y-276320000D02*
X94280000Y-243320000D01*
X198280000Y-245320000D02*
X198280000Y-276320000D01*
X235280000Y-165320000D02*
X207280000Y-165320000D01*
X197280000Y-277320000D02*
X95280000Y-277320000D01*
X93280000Y-242320000D02*
X77280000Y-242320000D01*
X206280000Y-21320000D02*
X206280000Y-129320000D01*
X76280000Y-241320000D02*
X76280000Y-21320000D01*
X207280000Y-130320000D02*
X235280000Y-130320000D01*
X236280000Y-131320000D02*
X236280000Y-164320000D01*
X206280000Y-166320000D02*
X206280000Y-243320000D01*
X77280000Y-20320000D02*
X205280000Y-20320000D01*
X205280000Y-244320000D02*
X199280000Y-244320000D01*
X206280000Y-129320000D02*
G75*
G03*
X207280000Y-130320000I1000000J0D01*
G01*
X206280000Y-21320000D02*
G75*
G03*
X205280000Y-20320000I-1000000J0D01*
G01*
X207280000Y-165320000D02*
G75*
G03*
X206280000Y-166320000I0J-1000000D01*
G01*
X205280000Y-244320000D02*
G75*
G03*
X206280000Y-243320000I0J1000000D01*
G01*
X94280000Y-243320000D02*
G75*
G03*
X93280000Y-242320000I-1000000J0D01*
G01*
X199280000Y-244320000D02*
G75*
G03*
X198280000Y-245320000I0J-1000000D01*
G01*
X197280000Y-277320000D02*
G75*
G03*
X198280000Y-276320000I0J1000000D01*
G01*
X76280000Y-241320000D02*
G75*
G03*
X77280000Y-242320000I999999J-1D01*
G01*
X235280000Y-165320000D02*
G75*
G03*
X236280000Y-164320000I0J1000000D01*
G01*
X77280000Y-20320000D02*
G75*
G03*
X76280000Y-21320000I-1J-999999D01*
G01*
X236280000Y-131320000D02*
G75*
G03*
X235280000Y-130320000I-1000000J0D01*
G01*
X94280000Y-276320000D02*
G75*
G03*
X95280000Y-277320000I1000000J0D01*
G01*
G36*
G01*
X99280000Y-275920000D02*
X99280000Y-272720000D01*
G75*
G02*
X99680000Y-272320000I400000J0D01*
G01*
X102880000Y-272320000D01*
G75*
G02*
X103280000Y-272720000I0J-400000D01*
G01*
X103280000Y-275920000D01*
G75*
G02*
X102880000Y-276320000I-400000J0D01*
G01*
X99680000Y-276320000D01*
G75*
G02*
X99280000Y-275920000I0J400000D01*
G01*
G37*
G36*
G01*
X139280000Y-178920000D02*
X139280000Y-175720000D01*
G75*
G02*
X139680000Y-175320000I400000J0D01*
G01*
X142880000Y-175320000D01*
G75*
G02*
X143280000Y-175720000I0J-400000D01*
G01*
X143280000Y-178920000D01*
G75*
G02*
X142880000Y-179320000I-400000J0D01*
G01*
X139680000Y-179320000D01*
G75*
G02*
X139280000Y-178920000I0J400000D01*
G01*
G37*
G36*
G01*
X81280000Y-238920000D02*
X81280000Y-235720000D01*
G75*
G02*
X81680000Y-235320000I400000J0D01*
G01*
X84880000Y-235320000D01*
G75*
G02*
X85280000Y-235720000I0J-400000D01*
G01*
X85280000Y-238920000D01*
G75*
G02*
X84880000Y-239320000I-400000J0D01*
G01*
X81680000Y-239320000D01*
G75*
G02*
X81280000Y-238920000I0J400000D01*
G01*
G37*
G36*
G01*
X81280000Y-178920000D02*
X81280000Y-175720000D01*
G75*
G02*
X81680000Y-175320000I400000J0D01*
G01*
X84880000Y-175320000D01*
G75*
G02*
X85280000Y-175720000I0J-400000D01*
G01*
X85280000Y-178920000D01*
G75*
G02*
X84880000Y-179320000I-400000J0D01*
G01*
X81680000Y-179320000D01*
G75*
G02*
X81280000Y-178920000I0J400000D01*
G01*
G37*
G36*
G01*
X189280000Y-275920000D02*
X189280000Y-272720000D01*
G75*
G02*
X189680000Y-272320000I400000J0D01*
G01*
X192880000Y-272320000D01*
G75*
G02*
X193280000Y-272720000I0J-400000D01*
G01*
X193280000Y-275920000D01*
G75*
G02*
X192880000Y-276320000I-400000J0D01*
G01*
X189680000Y-276320000D01*
G75*
G02*
X189280000Y-275920000I0J400000D01*
G01*
G37*
G36*
G01*
X129280000Y-245920000D02*
X129280000Y-242720000D01*
G75*
G02*
X129680000Y-242320000I400000J0D01*
G01*
X132880000Y-242320000D01*
G75*
G02*
X133280000Y-242720000I0J-400000D01*
G01*
X133280000Y-245920000D01*
G75*
G02*
X132880000Y-246320000I-400000J0D01*
G01*
X129680000Y-246320000D01*
G75*
G02*
X129280000Y-245920000I0J400000D01*
G01*
G37*
G36*
G01*
X139280000Y-58920000D02*
X139280000Y-55720000D01*
G75*
G02*
X139680000Y-55320000I400000J0D01*
G01*
X142880000Y-55320000D01*
G75*
G02*
X143280000Y-55720000I0J-400000D01*
G01*
X143280000Y-58920000D01*
G75*
G02*
X142880000Y-59320000I-400000J0D01*
G01*
X139680000Y-59320000D01*
G75*
G02*
X139280000Y-58920000I0J400000D01*
G01*
G37*
G36*
G01*
X139280000Y-118920000D02*
X139280000Y-115720000D01*
G75*
G02*
X139680000Y-115320000I400000J0D01*
G01*
X142880000Y-115320000D01*
G75*
G02*
X143280000Y-115720000I0J-400000D01*
G01*
X143280000Y-118920000D01*
G75*
G02*
X142880000Y-119320000I-400000J0D01*
G01*
X139680000Y-119320000D01*
G75*
G02*
X139280000Y-118920000I0J400000D01*
G01*
G37*
G36*
G01*
X197280000Y-28920000D02*
X197280000Y-25720000D01*
G75*
G02*
X197680000Y-25320000I400000J0D01*
G01*
X200880000Y-25320000D01*
G75*
G02*
X201280000Y-25720000I0J-400000D01*
G01*
X201280000Y-28920000D01*
G75*
G02*
X200880000Y-29320000I-400000J0D01*
G01*
X197680000Y-29320000D01*
G75*
G02*
X197280000Y-28920000I0J400000D01*
G01*
G37*
G36*
G01*
X197280000Y-178920000D02*
X197280000Y-175720000D01*
G75*
G02*
X197680000Y-175320000I400000J0D01*
G01*
X200880000Y-175320000D01*
G75*
G02*
X201280000Y-175720000I0J-400000D01*
G01*
X201280000Y-178920000D01*
G75*
G02*
X200880000Y-179320000I-400000J0D01*
G01*
X197680000Y-179320000D01*
G75*
G02*
X197280000Y-178920000I0J400000D01*
G01*
G37*
G36*
G01*
X99280000Y-245920000D02*
X99280000Y-242720000D01*
G75*
G02*
X99680000Y-242320000I400000J0D01*
G01*
X102880000Y-242320000D01*
G75*
G02*
X103280000Y-242720000I0J-400000D01*
G01*
X103280000Y-245920000D01*
G75*
G02*
X102880000Y-246320000I-400000J0D01*
G01*
X99680000Y-246320000D01*
G75*
G02*
X99280000Y-245920000I0J400000D01*
G01*
G37*
G36*
G01*
X81280000Y-118920000D02*
X81280000Y-115720000D01*
G75*
G02*
X81680000Y-115320000I400000J0D01*
G01*
X84880000Y-115320000D01*
G75*
G02*
X85280000Y-115720000I0J-400000D01*
G01*
X85280000Y-118920000D01*
G75*
G02*
X84880000Y-119320000I-400000J0D01*
G01*
X81680000Y-119320000D01*
G75*
G02*
X81280000Y-118920000I0J400000D01*
G01*
G37*
G36*
G01*
X189280000Y-245920000D02*
X189280000Y-242720000D01*
G75*
G02*
X189680000Y-242320000I400000J0D01*
G01*
X192880000Y-242320000D01*
G75*
G02*
X193280000Y-242720000I0J-400000D01*
G01*
X193280000Y-245920000D01*
G75*
G02*
X192880000Y-246320000I-400000J0D01*
G01*
X189680000Y-246320000D01*
G75*
G02*
X189280000Y-245920000I0J400000D01*
G01*
G37*
G36*
G01*
X129280000Y-275920000D02*
X129280000Y-272720000D01*
G75*
G02*
X129680000Y-272320000I400000J0D01*
G01*
X132880000Y-272320000D01*
G75*
G02*
X133280000Y-272720000I0J-400000D01*
G01*
X133280000Y-275920000D01*
G75*
G02*
X132880000Y-276320000I-400000J0D01*
G01*
X129680000Y-276320000D01*
G75*
G02*
X129280000Y-275920000I0J400000D01*
G01*
G37*
G36*
G01*
X139280000Y-28920000D02*
X139280000Y-25720000D01*
G75*
G02*
X139680000Y-25320000I400000J0D01*
G01*
X142880000Y-25320000D01*
G75*
G02*
X143280000Y-25720000I0J-400000D01*
G01*
X143280000Y-28920000D01*
G75*
G02*
X142880000Y-29320000I-400000J0D01*
G01*
X139680000Y-29320000D01*
G75*
G02*
X139280000Y-28920000I0J400000D01*
G01*
G37*
G36*
G01*
X81280000Y-58920000D02*
X81280000Y-55720000D01*
G75*
G02*
X81680000Y-55320000I400000J0D01*
G01*
X84880000Y-55320000D01*
G75*
G02*
X85280000Y-55720000I0J-400000D01*
G01*
X85280000Y-58920000D01*
G75*
G02*
X84880000Y-59320000I-400000J0D01*
G01*
X81680000Y-59320000D01*
G75*
G02*
X81280000Y-58920000I0J400000D01*
G01*
G37*
G36*
G01*
X197280000Y-238920000D02*
X197280000Y-235720000D01*
G75*
G02*
X197680000Y-235320000I400000J0D01*
G01*
X200880000Y-235320000D01*
G75*
G02*
X201280000Y-235720000I0J-400000D01*
G01*
X201280000Y-238920000D01*
G75*
G02*
X200880000Y-239320000I-400000J0D01*
G01*
X197680000Y-239320000D01*
G75*
G02*
X197280000Y-238920000I0J400000D01*
G01*
G37*
G36*
G01*
X197280000Y-118920000D02*
X197280000Y-115720000D01*
G75*
G02*
X197680000Y-115320000I400000J0D01*
G01*
X200880000Y-115320000D01*
G75*
G02*
X201280000Y-115720000I0J-400000D01*
G01*
X201280000Y-118920000D01*
G75*
G02*
X200880000Y-119320000I-400000J0D01*
G01*
X197680000Y-119320000D01*
G75*
G02*
X197280000Y-118920000I0J400000D01*
G01*
G37*
G36*
G01*
X197280000Y-58920000D02*
X197280000Y-55720000D01*
G75*
G02*
X197680000Y-55320000I400000J0D01*
G01*
X200880000Y-55320000D01*
G75*
G02*
X201280000Y-55720000I0J-400000D01*
G01*
X201280000Y-58920000D01*
G75*
G02*
X200880000Y-59320000I-400000J0D01*
G01*
X197680000Y-59320000D01*
G75*
G02*
X197280000Y-58920000I0J400000D01*
G01*
G37*
G36*
G01*
X81280000Y-28920000D02*
X81280000Y-25720000D01*
G75*
G02*
X81680000Y-25320000I400000J0D01*
G01*
X84880000Y-25320000D01*
G75*
G02*
X85280000Y-25720000I0J-400000D01*
G01*
X85280000Y-28920000D01*
G75*
G02*
X84880000Y-29320000I-400000J0D01*
G01*
X81680000Y-29320000D01*
G75*
G02*
X81280000Y-28920000I0J400000D01*
G01*
G37*
G36*
G01*
X139280000Y-238920000D02*
X139280000Y-235720000D01*
G75*
G02*
X139680000Y-235320000I400000J0D01*
G01*
X142880000Y-235320000D01*
G75*
G02*
X143280000Y-235720000I0J-400000D01*
G01*
X143280000Y-238920000D01*
G75*
G02*
X142880000Y-239320000I-400000J0D01*
G01*
X139680000Y-239320000D01*
G75*
G02*
X139280000Y-238920000I0J400000D01*
G01*
G37*
G36*
G01*
X183030000Y-33920000D02*
X183030000Y-32720000D01*
G75*
G02*
X183180000Y-32570000I150000J0D01*
G01*
X195380000Y-32570000D01*
G75*
G02*
X195530000Y-32720000I0J-150000D01*
G01*
X195530000Y-33920000D01*
G75*
G02*
X195380000Y-34070000I-150000J0D01*
G01*
X183180000Y-34070000D01*
G75*
G02*
X183030000Y-33920000I0J150000D01*
G01*
G37*
G36*
G01*
X139030000Y-268920000D02*
X139030000Y-267720000D01*
G75*
G02*
X139180000Y-267570000I150000J0D01*
G01*
X151380000Y-267570000D01*
G75*
G02*
X151530000Y-267720000I0J-150000D01*
G01*
X151530000Y-268920000D01*
G75*
G02*
X151380000Y-269070000I-150000J0D01*
G01*
X139180000Y-269070000D01*
G75*
G02*
X139030000Y-268920000I0J150000D01*
G01*
G37*
G36*
G01*
X140680000Y-141070000D02*
X141880000Y-141070000D01*
G75*
G02*
X142030000Y-141220000I0J-150000D01*
G01*
X142030000Y-153420000D01*
G75*
G02*
X141880000Y-153570000I-150000J0D01*
G01*
X140680000Y-153570000D01*
G75*
G02*
X140530000Y-153420000I0J150000D01*
G01*
X140530000Y-141220000D01*
G75*
G02*
X140680000Y-141070000I150000J0D01*
G01*
G37*
G36*
G01*
X104530000Y-32720000D02*
X104530000Y-33920000D01*
G75*
G02*
X104380000Y-34070000I-150000J0D01*
G01*
X92180000Y-34070000D01*
G75*
G02*
X92030000Y-33920000I0J150000D01*
G01*
X92030000Y-32720000D01*
G75*
G02*
X92180000Y-32570000I150000J0D01*
G01*
X104380000Y-32570000D01*
G75*
G02*
X104530000Y-32720000I0J-150000D01*
G01*
G37*
G36*
G01*
X159530000Y-217720000D02*
X159530000Y-222920000D01*
G75*
G02*
X158880000Y-223570000I-650000J0D01*
G01*
X153680000Y-223570000D01*
G75*
G02*
X153030000Y-222920000I0J650000D01*
G01*
X153030000Y-217720000D01*
G75*
G02*
X153680000Y-217070000I650000J0D01*
G01*
X158880000Y-217070000D01*
G75*
G02*
X159530000Y-217720000I0J-650000D01*
G01*
G37*
G36*
G01*
X126880000Y-153570000D02*
X125680000Y-153570000D01*
G75*
G02*
X125530000Y-153420000I0J150000D01*
G01*
X125530000Y-141220000D01*
G75*
G02*
X125680000Y-141070000I150000J0D01*
G01*
X126880000Y-141070000D01*
G75*
G02*
X127030000Y-141220000I0J-150000D01*
G01*
X127030000Y-153420000D01*
G75*
G02*
X126880000Y-153570000I-150000J0D01*
G01*
G37*
G36*
G01*
X174530000Y-97720000D02*
X174530000Y-102920000D01*
G75*
G02*
X173880000Y-103570000I-650000J0D01*
G01*
X168680000Y-103570000D01*
G75*
G02*
X168030000Y-102920000I0J650000D01*
G01*
X168030000Y-97720000D01*
G75*
G02*
X168680000Y-97070000I650000J0D01*
G01*
X173880000Y-97070000D01*
G75*
G02*
X174530000Y-97720000I0J-650000D01*
G01*
G37*
G36*
G01*
X104530000Y-62720000D02*
X104530000Y-63920000D01*
G75*
G02*
X104380000Y-64070000I-150000J0D01*
G01*
X92180000Y-64070000D01*
G75*
G02*
X92030000Y-63920000I0J150000D01*
G01*
X92030000Y-62720000D01*
G75*
G02*
X92180000Y-62570000I150000J0D01*
G01*
X104380000Y-62570000D01*
G75*
G02*
X104530000Y-62720000I0J-150000D01*
G01*
G37*
G36*
G01*
X189530000Y-72720000D02*
X189530000Y-77920000D01*
G75*
G02*
X188880000Y-78570000I-650000J0D01*
G01*
X183680000Y-78570000D01*
G75*
G02*
X183030000Y-77920000I0J650000D01*
G01*
X183030000Y-72720000D01*
G75*
G02*
X183680000Y-72070000I650000J0D01*
G01*
X188880000Y-72070000D01*
G75*
G02*
X189530000Y-72720000I0J-650000D01*
G01*
G37*
G36*
G01*
X174530000Y-192720000D02*
X174530000Y-197920000D01*
G75*
G02*
X173880000Y-198570000I-650000J0D01*
G01*
X168680000Y-198570000D01*
G75*
G02*
X168030000Y-197920000I0J650000D01*
G01*
X168030000Y-192720000D01*
G75*
G02*
X168680000Y-192070000I650000J0D01*
G01*
X173880000Y-192070000D01*
G75*
G02*
X174530000Y-192720000I0J-650000D01*
G01*
G37*
G36*
G01*
X99530000Y-72720000D02*
X99530000Y-77920000D01*
G75*
G02*
X98880000Y-78570000I-650000J0D01*
G01*
X93680000Y-78570000D01*
G75*
G02*
X93030000Y-77920000I0J650000D01*
G01*
X93030000Y-72720000D01*
G75*
G02*
X93680000Y-72070000I650000J0D01*
G01*
X98880000Y-72070000D01*
G75*
G02*
X99530000Y-72720000I0J-650000D01*
G01*
G37*
G36*
G01*
X139530000Y-122720000D02*
X139530000Y-123920000D01*
G75*
G02*
X139380000Y-124070000I-150000J0D01*
G01*
X127180000Y-124070000D01*
G75*
G02*
X127030000Y-123920000I0J150000D01*
G01*
X127030000Y-122720000D01*
G75*
G02*
X127180000Y-122570000I150000J0D01*
G01*
X139380000Y-122570000D01*
G75*
G02*
X139530000Y-122720000I0J-150000D01*
G01*
G37*
G36*
G01*
X112680000Y-127070000D02*
X113880000Y-127070000D01*
G75*
G02*
X114030000Y-127220000I0J-150000D01*
G01*
X114030000Y-139420000D01*
G75*
G02*
X113880000Y-139570000I-150000J0D01*
G01*
X112680000Y-139570000D01*
G75*
G02*
X112530000Y-139420000I0J150000D01*
G01*
X112530000Y-127220000D01*
G75*
G02*
X112680000Y-127070000I150000J0D01*
G01*
G37*
G36*
G01*
X129530000Y-192720000D02*
X129530000Y-197920000D01*
G75*
G02*
X128880000Y-198570000I-650000J0D01*
G01*
X123680000Y-198570000D01*
G75*
G02*
X123030000Y-197920000I0J650000D01*
G01*
X123030000Y-192720000D01*
G75*
G02*
X123680000Y-192070000I650000J0D01*
G01*
X128880000Y-192070000D01*
G75*
G02*
X129530000Y-192720000I0J-650000D01*
G01*
G37*
G36*
G01*
X151530000Y-249720000D02*
X151530000Y-250920000D01*
G75*
G02*
X151380000Y-251070000I-150000J0D01*
G01*
X139180000Y-251070000D01*
G75*
G02*
X139030000Y-250920000I0J150000D01*
G01*
X139030000Y-249720000D01*
G75*
G02*
X139180000Y-249570000I150000J0D01*
G01*
X151380000Y-249570000D01*
G75*
G02*
X151530000Y-249720000I0J-150000D01*
G01*
G37*
G36*
G01*
X92030000Y-51920000D02*
X92030000Y-50720000D01*
G75*
G02*
X92180000Y-50570000I150000J0D01*
G01*
X104380000Y-50570000D01*
G75*
G02*
X104530000Y-50720000I0J-150000D01*
G01*
X104530000Y-51920000D01*
G75*
G02*
X104380000Y-52070000I-150000J0D01*
G01*
X92180000Y-52070000D01*
G75*
G02*
X92030000Y-51920000I0J150000D01*
G01*
G37*
G36*
G01*
X144530000Y-192720000D02*
X144530000Y-197920000D01*
G75*
G02*
X143880000Y-198570000I-650000J0D01*
G01*
X138680000Y-198570000D01*
G75*
G02*
X138030000Y-197920000I0J650000D01*
G01*
X138030000Y-192720000D01*
G75*
G02*
X138680000Y-192070000I650000J0D01*
G01*
X143880000Y-192070000D01*
G75*
G02*
X144530000Y-192720000I0J-650000D01*
G01*
G37*
G36*
G01*
X144530000Y-72720000D02*
X144530000Y-77920000D01*
G75*
G02*
X143880000Y-78570000I-650000J0D01*
G01*
X138680000Y-78570000D01*
G75*
G02*
X138030000Y-77920000I0J650000D01*
G01*
X138030000Y-72720000D01*
G75*
G02*
X138680000Y-72070000I650000J0D01*
G01*
X143880000Y-72070000D01*
G75*
G02*
X144530000Y-72720000I0J-650000D01*
G01*
G37*
G36*
G01*
X129530000Y-217720000D02*
X129530000Y-222920000D01*
G75*
G02*
X128880000Y-223570000I-650000J0D01*
G01*
X123680000Y-223570000D01*
G75*
G02*
X123030000Y-222920000I0J650000D01*
G01*
X123030000Y-217720000D01*
G75*
G02*
X123680000Y-217070000I650000J0D01*
G01*
X128880000Y-217070000D01*
G75*
G02*
X129530000Y-217720000I0J-650000D01*
G01*
G37*
G36*
G01*
X122030000Y-33920000D02*
X122030000Y-32720000D01*
G75*
G02*
X122180000Y-32570000I150000J0D01*
G01*
X134380000Y-32570000D01*
G75*
G02*
X134530000Y-32720000I0J-150000D01*
G01*
X134530000Y-33920000D01*
G75*
G02*
X134380000Y-34070000I-150000J0D01*
G01*
X122180000Y-34070000D01*
G75*
G02*
X122030000Y-33920000I0J150000D01*
G01*
G37*
G36*
G01*
X155530000Y-122720000D02*
X155530000Y-123920000D01*
G75*
G02*
X155380000Y-124070000I-150000J0D01*
G01*
X143180000Y-124070000D01*
G75*
G02*
X143030000Y-123920000I0J150000D01*
G01*
X143030000Y-122720000D01*
G75*
G02*
X143180000Y-122570000I150000J0D01*
G01*
X155380000Y-122570000D01*
G75*
G02*
X155530000Y-122720000I0J-150000D01*
G01*
G37*
G36*
G01*
X114530000Y-97720000D02*
X114530000Y-102920000D01*
G75*
G02*
X113880000Y-103570000I-650000J0D01*
G01*
X108680000Y-103570000D01*
G75*
G02*
X108030000Y-102920000I0J650000D01*
G01*
X108030000Y-97720000D01*
G75*
G02*
X108680000Y-97070000I650000J0D01*
G01*
X113880000Y-97070000D01*
G75*
G02*
X114530000Y-97720000I0J-650000D01*
G01*
G37*
G36*
G01*
X170530000Y-122720000D02*
X170530000Y-123920000D01*
G75*
G02*
X170380000Y-124070000I-150000J0D01*
G01*
X158180000Y-124070000D01*
G75*
G02*
X158030000Y-123920000I0J150000D01*
G01*
X158030000Y-122720000D01*
G75*
G02*
X158180000Y-122570000I150000J0D01*
G01*
X170380000Y-122570000D01*
G75*
G02*
X170530000Y-122720000I0J-150000D01*
G01*
G37*
G36*
G01*
X155530000Y-170720000D02*
X155530000Y-171920000D01*
G75*
G02*
X155380000Y-172070000I-150000J0D01*
G01*
X143180000Y-172070000D01*
G75*
G02*
X143030000Y-171920000I0J150000D01*
G01*
X143030000Y-170720000D01*
G75*
G02*
X143180000Y-170570000I150000J0D01*
G01*
X155380000Y-170570000D01*
G75*
G02*
X155530000Y-170720000I0J-150000D01*
G01*
G37*
G36*
G01*
X99530000Y-97720000D02*
X99530000Y-102920000D01*
G75*
G02*
X98880000Y-103570000I-650000J0D01*
G01*
X93680000Y-103570000D01*
G75*
G02*
X93030000Y-102920000I0J650000D01*
G01*
X93030000Y-97720000D01*
G75*
G02*
X93680000Y-97070000I650000J0D01*
G01*
X98880000Y-97070000D01*
G75*
G02*
X99530000Y-97720000I0J-650000D01*
G01*
G37*
G36*
G01*
X174530000Y-217720000D02*
X174530000Y-222920000D01*
G75*
G02*
X173880000Y-223570000I-650000J0D01*
G01*
X168680000Y-223570000D01*
G75*
G02*
X168030000Y-222920000I0J650000D01*
G01*
X168030000Y-217720000D01*
G75*
G02*
X168680000Y-217070000I650000J0D01*
G01*
X173880000Y-217070000D01*
G75*
G02*
X174530000Y-217720000I0J-650000D01*
G01*
G37*
G36*
G01*
X114530000Y-192720000D02*
X114530000Y-197920000D01*
G75*
G02*
X113880000Y-198570000I-650000J0D01*
G01*
X108680000Y-198570000D01*
G75*
G02*
X108030000Y-197920000I0J650000D01*
G01*
X108030000Y-192720000D01*
G75*
G02*
X108680000Y-192070000I650000J0D01*
G01*
X113880000Y-192070000D01*
G75*
G02*
X114530000Y-192720000I0J-650000D01*
G01*
G37*
G36*
G01*
X189530000Y-97720000D02*
X189530000Y-102920000D01*
G75*
G02*
X188880000Y-103570000I-650000J0D01*
G01*
X183680000Y-103570000D01*
G75*
G02*
X183030000Y-102920000I0J650000D01*
G01*
X183030000Y-97720000D01*
G75*
G02*
X183680000Y-97070000I650000J0D01*
G01*
X188880000Y-97070000D01*
G75*
G02*
X189530000Y-97720000I0J-650000D01*
G01*
G37*
G36*
G01*
X186880000Y-153570000D02*
X185680000Y-153570000D01*
G75*
G02*
X185530000Y-153420000I0J150000D01*
G01*
X185530000Y-141220000D01*
G75*
G02*
X185680000Y-141070000I150000J0D01*
G01*
X186880000Y-141070000D01*
G75*
G02*
X187030000Y-141220000I0J-150000D01*
G01*
X187030000Y-153420000D01*
G75*
G02*
X186880000Y-153570000I-150000J0D01*
G01*
G37*
G36*
G01*
X159530000Y-97720000D02*
X159530000Y-102920000D01*
G75*
G02*
X158880000Y-103570000I-650000J0D01*
G01*
X153680000Y-103570000D01*
G75*
G02*
X153030000Y-102920000I0J650000D01*
G01*
X153030000Y-97720000D01*
G75*
G02*
X153680000Y-97070000I650000J0D01*
G01*
X158880000Y-97070000D01*
G75*
G02*
X159530000Y-97720000I0J-650000D01*
G01*
G37*
G36*
G01*
X189530000Y-192720000D02*
X189530000Y-197920000D01*
G75*
G02*
X188880000Y-198570000I-650000J0D01*
G01*
X183680000Y-198570000D01*
G75*
G02*
X183030000Y-197920000I0J650000D01*
G01*
X183030000Y-192720000D01*
G75*
G02*
X183680000Y-192070000I650000J0D01*
G01*
X188880000Y-192070000D01*
G75*
G02*
X189530000Y-192720000I0J-650000D01*
G01*
G37*
G36*
G01*
X174530000Y-72720000D02*
X174530000Y-77920000D01*
G75*
G02*
X173880000Y-78570000I-650000J0D01*
G01*
X168680000Y-78570000D01*
G75*
G02*
X168030000Y-77920000I0J650000D01*
G01*
X168030000Y-72720000D01*
G75*
G02*
X168680000Y-72070000I650000J0D01*
G01*
X173880000Y-72070000D01*
G75*
G02*
X174530000Y-72720000I0J-650000D01*
G01*
G37*
G36*
G01*
X152030000Y-33920000D02*
X152030000Y-32720000D01*
G75*
G02*
X152180000Y-32570000I150000J0D01*
G01*
X164380000Y-32570000D01*
G75*
G02*
X164530000Y-32720000I0J-150000D01*
G01*
X164530000Y-33920000D01*
G75*
G02*
X164380000Y-34070000I-150000J0D01*
G01*
X152180000Y-34070000D01*
G75*
G02*
X152030000Y-33920000I0J150000D01*
G01*
G37*
G36*
G01*
X95380000Y-139570000D02*
X94180000Y-139570000D01*
G75*
G02*
X94030000Y-139420000I0J150000D01*
G01*
X94030000Y-127220000D01*
G75*
G02*
X94180000Y-127070000I150000J0D01*
G01*
X95380000Y-127070000D01*
G75*
G02*
X95530000Y-127220000I0J-150000D01*
G01*
X95530000Y-139420000D01*
G75*
G02*
X95380000Y-139570000I-150000J0D01*
G01*
G37*
G36*
G01*
X159530000Y-72720000D02*
X159530000Y-77920000D01*
G75*
G02*
X158880000Y-78570000I-650000J0D01*
G01*
X153680000Y-78570000D01*
G75*
G02*
X153030000Y-77920000I0J650000D01*
G01*
X153030000Y-72720000D01*
G75*
G02*
X153680000Y-72070000I650000J0D01*
G01*
X158880000Y-72070000D01*
G75*
G02*
X159530000Y-72720000I0J-650000D01*
G01*
G37*
G36*
G01*
X144530000Y-217720000D02*
X144530000Y-222920000D01*
G75*
G02*
X143880000Y-223570000I-650000J0D01*
G01*
X138680000Y-223570000D01*
G75*
G02*
X138030000Y-222920000I0J650000D01*
G01*
X138030000Y-217720000D01*
G75*
G02*
X138680000Y-217070000I650000J0D01*
G01*
X143880000Y-217070000D01*
G75*
G02*
X144530000Y-217720000I0J-650000D01*
G01*
G37*
G36*
G01*
X189530000Y-217720000D02*
X189530000Y-222920000D01*
G75*
G02*
X188880000Y-223570000I-650000J0D01*
G01*
X183680000Y-223570000D01*
G75*
G02*
X183030000Y-222920000I0J650000D01*
G01*
X183030000Y-217720000D01*
G75*
G02*
X183680000Y-217070000I650000J0D01*
G01*
X188880000Y-217070000D01*
G75*
G02*
X189530000Y-217720000I0J-650000D01*
G01*
G37*
G36*
G01*
X170530000Y-170720000D02*
X170530000Y-171920000D01*
G75*
G02*
X170380000Y-172070000I-150000J0D01*
G01*
X158180000Y-172070000D01*
G75*
G02*
X158030000Y-171920000I0J150000D01*
G01*
X158030000Y-170720000D01*
G75*
G02*
X158180000Y-170570000I150000J0D01*
G01*
X170380000Y-170570000D01*
G75*
G02*
X170530000Y-170720000I0J-150000D01*
G01*
G37*
G36*
G01*
X156880000Y-153570000D02*
X155680000Y-153570000D01*
G75*
G02*
X155530000Y-153420000I0J150000D01*
G01*
X155530000Y-141220000D01*
G75*
G02*
X155680000Y-141070000I150000J0D01*
G01*
X156880000Y-141070000D01*
G75*
G02*
X157030000Y-141220000I0J-150000D01*
G01*
X157030000Y-153420000D01*
G75*
G02*
X156880000Y-153570000I-150000J0D01*
G01*
G37*
G36*
G01*
X94180000Y-155070000D02*
X95380000Y-155070000D01*
G75*
G02*
X95530000Y-155220000I0J-150000D01*
G01*
X95530000Y-167420000D01*
G75*
G02*
X95380000Y-167570000I-150000J0D01*
G01*
X94180000Y-167570000D01*
G75*
G02*
X94030000Y-167420000I0J150000D01*
G01*
X94030000Y-155220000D01*
G75*
G02*
X94180000Y-155070000I150000J0D01*
G01*
G37*
G36*
G01*
X129530000Y-72720000D02*
X129530000Y-77920000D01*
G75*
G02*
X128880000Y-78570000I-650000J0D01*
G01*
X123680000Y-78570000D01*
G75*
G02*
X123030000Y-77920000I0J650000D01*
G01*
X123030000Y-72720000D01*
G75*
G02*
X123680000Y-72070000I650000J0D01*
G01*
X128880000Y-72070000D01*
G75*
G02*
X129530000Y-72720000I0J-650000D01*
G01*
G37*
G36*
G01*
X169030000Y-268920000D02*
X169030000Y-267720000D01*
G75*
G02*
X169180000Y-267570000I150000J0D01*
G01*
X181380000Y-267570000D01*
G75*
G02*
X181530000Y-267720000I0J-150000D01*
G01*
X181530000Y-268920000D01*
G75*
G02*
X181380000Y-269070000I-150000J0D01*
G01*
X169180000Y-269070000D01*
G75*
G02*
X169030000Y-268920000I0J150000D01*
G01*
G37*
G36*
G01*
X129530000Y-97720000D02*
X129530000Y-102920000D01*
G75*
G02*
X128880000Y-103570000I-650000J0D01*
G01*
X123680000Y-103570000D01*
G75*
G02*
X123030000Y-102920000I0J650000D01*
G01*
X123030000Y-97720000D01*
G75*
G02*
X123680000Y-97070000I650000J0D01*
G01*
X128880000Y-97070000D01*
G75*
G02*
X129530000Y-97720000I0J-650000D01*
G01*
G37*
G36*
G01*
X99530000Y-217720000D02*
X99530000Y-222920000D01*
G75*
G02*
X98880000Y-223570000I-650000J0D01*
G01*
X93680000Y-223570000D01*
G75*
G02*
X93030000Y-222920000I0J650000D01*
G01*
X93030000Y-217720000D01*
G75*
G02*
X93680000Y-217070000I650000J0D01*
G01*
X98880000Y-217070000D01*
G75*
G02*
X99530000Y-217720000I0J-650000D01*
G01*
G37*
G36*
G01*
X185530000Y-170720000D02*
X185530000Y-171920000D01*
G75*
G02*
X185380000Y-172070000I-150000J0D01*
G01*
X173180000Y-172070000D01*
G75*
G02*
X173030000Y-171920000I0J150000D01*
G01*
X173030000Y-170720000D01*
G75*
G02*
X173180000Y-170570000I150000J0D01*
G01*
X185380000Y-170570000D01*
G75*
G02*
X185530000Y-170720000I0J-150000D01*
G01*
G37*
G36*
G01*
X112680000Y-250070000D02*
X113880000Y-250070000D01*
G75*
G02*
X114030000Y-250220000I0J-150000D01*
G01*
X114030000Y-262420000D01*
G75*
G02*
X113880000Y-262570000I-150000J0D01*
G01*
X112680000Y-262570000D01*
G75*
G02*
X112530000Y-262420000I0J150000D01*
G01*
X112530000Y-250220000D01*
G75*
G02*
X112680000Y-250070000I150000J0D01*
G01*
G37*
G36*
G01*
X114530000Y-72720000D02*
X114530000Y-77920000D01*
G75*
G02*
X113880000Y-78570000I-650000J0D01*
G01*
X108680000Y-78570000D01*
G75*
G02*
X108030000Y-77920000I0J650000D01*
G01*
X108030000Y-72720000D01*
G75*
G02*
X108680000Y-72070000I650000J0D01*
G01*
X113880000Y-72070000D01*
G75*
G02*
X114530000Y-72720000I0J-650000D01*
G01*
G37*
G36*
G01*
X144530000Y-97720000D02*
X144530000Y-102920000D01*
G75*
G02*
X143880000Y-103570000I-650000J0D01*
G01*
X138680000Y-103570000D01*
G75*
G02*
X138030000Y-102920000I0J650000D01*
G01*
X138030000Y-97720000D01*
G75*
G02*
X138680000Y-97070000I650000J0D01*
G01*
X143880000Y-97070000D01*
G75*
G02*
X144530000Y-97720000I0J-650000D01*
G01*
G37*
G36*
G01*
X183030000Y-51920000D02*
X183030000Y-50720000D01*
G75*
G02*
X183180000Y-50570000I150000J0D01*
G01*
X195380000Y-50570000D01*
G75*
G02*
X195530000Y-50720000I0J-150000D01*
G01*
X195530000Y-51920000D01*
G75*
G02*
X195380000Y-52070000I-150000J0D01*
G01*
X183180000Y-52070000D01*
G75*
G02*
X183030000Y-51920000I0J150000D01*
G01*
G37*
G36*
G01*
X159530000Y-192720000D02*
X159530000Y-197920000D01*
G75*
G02*
X158880000Y-198570000I-650000J0D01*
G01*
X153680000Y-198570000D01*
G75*
G02*
X153030000Y-197920000I0J650000D01*
G01*
X153030000Y-192720000D01*
G75*
G02*
X153680000Y-192070000I650000J0D01*
G01*
X158880000Y-192070000D01*
G75*
G02*
X159530000Y-192720000I0J-650000D01*
G01*
G37*
G36*
G01*
X169030000Y-250920000D02*
X169030000Y-249720000D01*
G75*
G02*
X169180000Y-249570000I150000J0D01*
G01*
X181380000Y-249570000D01*
G75*
G02*
X181530000Y-249720000I0J-150000D01*
G01*
X181530000Y-250920000D01*
G75*
G02*
X181380000Y-251070000I-150000J0D01*
G01*
X169180000Y-251070000D01*
G75*
G02*
X169030000Y-250920000I0J150000D01*
G01*
G37*
G36*
G01*
X112680000Y-155070000D02*
X113880000Y-155070000D01*
G75*
G02*
X114030000Y-155220000I0J-150000D01*
G01*
X114030000Y-167420000D01*
G75*
G02*
X113880000Y-167570000I-150000J0D01*
G01*
X112680000Y-167570000D01*
G75*
G02*
X112530000Y-167420000I0J150000D01*
G01*
X112530000Y-155220000D01*
G75*
G02*
X112680000Y-155070000I150000J0D01*
G01*
G37*
G36*
G01*
X185530000Y-122720000D02*
X185530000Y-123920000D01*
G75*
G02*
X185380000Y-124070000I-150000J0D01*
G01*
X173180000Y-124070000D01*
G75*
G02*
X173030000Y-123920000I0J150000D01*
G01*
X173030000Y-122720000D01*
G75*
G02*
X173180000Y-122570000I150000J0D01*
G01*
X185380000Y-122570000D01*
G75*
G02*
X185530000Y-122720000I0J-150000D01*
G01*
G37*
G36*
G01*
X114530000Y-217720000D02*
X114530000Y-222920000D01*
G75*
G02*
X113880000Y-223570000I-650000J0D01*
G01*
X108680000Y-223570000D01*
G75*
G02*
X108030000Y-222920000I0J650000D01*
G01*
X108030000Y-217720000D01*
G75*
G02*
X108680000Y-217070000I650000J0D01*
G01*
X113880000Y-217070000D01*
G75*
G02*
X114530000Y-217720000I0J-650000D01*
G01*
G37*
G36*
G01*
X171880000Y-153570000D02*
X170680000Y-153570000D01*
G75*
G02*
X170530000Y-153420000I0J150000D01*
G01*
X170530000Y-141220000D01*
G75*
G02*
X170680000Y-141070000I150000J0D01*
G01*
X171880000Y-141070000D01*
G75*
G02*
X172030000Y-141220000I0J-150000D01*
G01*
X172030000Y-153420000D01*
G75*
G02*
X171880000Y-153570000I-150000J0D01*
G01*
G37*
G36*
G01*
X99530000Y-192720000D02*
X99530000Y-197920000D01*
G75*
G02*
X98880000Y-198570000I-650000J0D01*
G01*
X93680000Y-198570000D01*
G75*
G02*
X93030000Y-197920000I0J650000D01*
G01*
X93030000Y-192720000D01*
G75*
G02*
X93680000Y-192070000I650000J0D01*
G01*
X98880000Y-192070000D01*
G75*
G02*
X99530000Y-192720000I0J-650000D01*
G01*
G37*
G36*
G01*
X140530000Y-170720000D02*
X140530000Y-171920000D01*
G75*
G02*
X140380000Y-172070000I-150000J0D01*
G01*
X128180000Y-172070000D01*
G75*
G02*
X128030000Y-171920000I0J150000D01*
G01*
X128030000Y-170720000D01*
G75*
G02*
X128180000Y-170570000I150000J0D01*
G01*
X140380000Y-170570000D01*
G75*
G02*
X140530000Y-170720000I0J-150000D01*
G01*
G37*
M02*
